####
#
# OBJ File Generated by Meshlab
#
####
# Object m1723.obj
#
# Vertices: 120
# Faces: 175
#
####
mtllib ./m1723.obj.mtl

vn -1.5707963267948966 1.4711302553085714 -1.5707963267948966
v 0.0250000000000000 0.0250000000000000 0.0760210000000000
vn 0.0565419304221690 0.0000000000000000 -1.5707963267948966
v 0.2935270000000000 0.0250000000000000 0.0760210000000000
vn 0.0565419304221681 0.0887685402817951 -0.0025102411177398
v 0.2935270000000000 0.4993980000000000 0.0760210000000000
vn 1.4577124659505594 -1.4114306661760743 -0.5160754238722702
v 0.0250000000000000 0.4993980000000000 0.0760210000000000
vn -1.4577124659505594 1.5707963267948966 -1.5707963267948966
v 0.0250000000000000 0.0250000000000000 0.1028730000000000
vn -0.0565419304221690 0.1287350226356230 -1.0572311440403661
v 0.2935270000000000 0.0250000000000000 0.1028730000000000
vn -0.0565419304221681 -0.0996660714863251 -1.5707963267948966
v 0.2935270000000000 0.4993980000000000 0.1028730000000000
vn 1.5707963267948966 -1.5707963267948966 -1.5707963267948966
v 0.0250000000000000 0.4993980000000000 0.1028730000000000
vn -1.5707896637870473 -1.7337418667283298 -1.3888514893509132
v 0.0250000000000000 0.4993580000000000 0.0770790000000000
vn 1.5707896637870475 -1.7337418667283293 -1.3888514893509127
v 0.0697550000000000 0.4993580000000000 0.0770790000000000
vn 1.5708029898027438 1.3888607433101181 -1.7337534187024783
v 0.0697550000000000 0.9708890000000000 0.0250000000000000
vn -1.5708029898027458 1.3888607433101183 -1.7337534187024779
v 0.0250000000000000 0.9708890000000000 0.0250000000000000
vn -1.5708029898027478 -1.3888607433101177 1.7337534187024815
v 0.0250000000000000 0.5023060000000000 0.1037690000000000
vn 1.5708029898027458 -1.3888607433101181 1.7337534187024810
v 0.0697550000000000 0.5023060000000000 0.1037690000000000
vn 1.5707896637870495 1.7337418667283300 1.3888514893509163
v 0.0697550000000000 0.9738370000000000 0.0516900000000000
vn -1.5707896637870493 1.7337418667283298 1.3888514893509161
v 0.0250000000000000 0.9738370000000000 0.0516900000000000
vn -1.5707896637870473 -1.1965904434729286 -1.4481816652878527
v 0.2487730000000000 0.4993580000000000 0.0770790000000000
vn -0.0565425398000832 -0.1724405617091060 -1.5613024540266993
v 0.2935270000000000 0.4993580000000000 0.0770790000000000
vn -0.0565425823587897 -0.4328385857380678 -3.1103647411391782
v 0.2935270000000000 0.9708890000000000 0.0250000000000000
vn -1.5708029898027458 0.6068792949954449 -3.1308742277005912
v 0.2487730000000000 0.9708890000000000 0.0250000000000000
vn -1.5708029898027478 -1.3888607433101177 1.7337534187024812
v 0.2487730000000000 0.5023060000000000 0.1037690000000000
vn 0.0565425823587877 -0.3802788605159846 1.5280213277862056
v 0.2935270000000000 0.5023060000000000 0.1037690000000000
vn 0.0565425398000834 0.7095919849645065 1.5019722780897584
v 0.2935270000000000 0.9738370000000000 0.0516900000000000
vn -1.5707896637870493 1.7337418667283302 1.3888514893509183
v 0.2487730000000000 0.9738370000000000 0.0516900000000000
vn -1.5707913767445880 -1.7337388630502022 -1.3888582821061763
v 0.0250000000000000 0.8830840000000000 0.0353650000000000
vn 1.5707913767445876 -1.7337388630502009 -1.3888582821061766
v 0.2935270000000000 0.8830840000000000 0.0353650000000000
vn 1.5708012768452011 1.3888651570415611 -1.7337474451660295
v 0.2935270000000000 0.9720520000000000 0.0255390000000000
vn -1.5708012768452009 1.3888651570415622 -1.7337474451660295
v 0.0250000000000000 0.9720520000000000 0.0255390000000000
vn -1.5708012768452053 -1.3888651570415600 1.7337474451660357
v 0.0250000000000000 0.8860320000000000 0.0620560000000000
vn 1.5708012768452051 -1.3888651570415611 1.7337474451660366
v 0.2935270000000000 0.8860320000000000 0.0620560000000000
vn 1.5707913767445925 1.7337388630502031 1.3888582821061828
v 0.2935270000000000 0.9750000000000000 0.0522300000000000
vn -1.5707913767445922 1.7337388630502022 1.3888582821061837
v 0.0250000000000000 0.9750000000000000 0.0522300000000000
vn -1.5707983929261442 -1.7337554955480547 -1.3888499840337796
v 0.0250000000000000 0.4981950000000000 0.0774350000000000
vn 1.5707983929261444 -1.7337554955480530 -1.3888499840337805
v 0.2935270000000000 0.4981950000000000 0.0774350000000000
vn 1.5707901723147872 1.3888478195170511 -1.7337455302394940
v 0.2935270000000000 0.5871630000000000 0.0676080000000000
vn -1.5707901723147868 1.3888478195170524 -1.7337455302394946
v 0.0250000000000000 0.5871630000000000 0.0676080000000000
vn -1.5708053651940665 -1.3888644520149032 1.7337538283118905
v 0.0250000000000000 0.5011430000000000 0.1041250000000000
vn 1.5708053651940670 -1.3888644520149047 1.7337538283118907
v 0.2935270000000000 0.5011430000000000 0.1041250000000000
vn 1.5707913767445878 1.7337388630502022 1.3888582821061763
v 0.2935270000000000 0.5901110000000001 0.0942990000000000
vn -1.5707913767445880 1.7337388630502011 1.3888582821061766
v 0.0250000000000000 0.5901110000000001 0.0942990000000000
vn 1.5707963267948957 -1.5707963267948966 -1.5707963267948966
v 0.3114290000000000 0.0250000000000000 0.0760210000000000
vn 1.5707963267948957 -1.5707963267948966 -1.5707963267948966
v 0.5799560000000000 0.0250000000000000 0.0760210000000000
vn 1.5707963267948966 1.5707963267948966 -1.5707963267948966
v 0.5799560000000000 0.4993980000000000 0.0760210000000000
vn 1.5707963267948966 1.5707963267948966 -1.5707963267948966
v 0.3114290000000000 0.4993980000000000 0.0760210000000000
vn 1.5707963267948966 -1.5707963267948966 1.5707963267948966
v 0.3114290000000000 0.0250000000000000 0.1028730000000000
vn 1.5707963267948966 -1.5707963267948966 1.5707963267948966
v 0.5799560000000000 0.0250000000000000 0.1028730000000000
vn 1.5707963267948957 1.5707963267948966 1.5707963267948966
v 0.5799560000000000 0.4993980000000000 0.1028730000000000
vn 1.5707963267948957 1.5707963267948966 1.5707963267948966
v 0.3114290000000000 0.4993980000000000 0.1028730000000000
vn -1.5707896637870473 -1.1965904434729295 -1.4481816652878532
v 0.5352020000000000 0.4993580000000000 0.0770790000000000
vn -0.0565425398000832 -0.1724405617091060 -1.5613024540266995
v 0.5799560000000000 0.4993580000000000 0.0770790000000000
vn -0.0565425823587897 -0.4328385857380677 -3.1103647411391790
v 0.5799560000000000 0.9708890000000000 0.0250000000000000
vn -1.5708029898027458 0.6068792949954459 -3.1308742277005916
v 0.5352020000000000 0.9708890000000000 0.0250000000000000
vn -1.5708029898027478 -1.3888607433101179 1.7337534187024817
v 0.5352020000000000 0.5023060000000000 0.1037690000000000
vn 0.0565425823587877 -0.3802788605159840 1.5280213277862058
v 0.5799560000000000 0.5023060000000000 0.1037690000000000
vn 0.0565425398000834 0.7095919849645056 1.5019722780897589
v 0.5799560000000000 0.9738370000000000 0.0516900000000000
vn -1.5707896637870493 1.7337418667283302 1.3888514893509183
v 0.5352020000000000 0.9738370000000000 0.0516900000000000
vn -0.0565425398000832 -0.7045641707797046 -1.4081948232041508
v 0.3114290000000000 0.4993580000000000 0.0770790000000000
vn 1.5707896637870475 -1.7337418667283293 -1.3888514893509127
v 0.3561840000000000 0.4993580000000000 0.0770790000000000
vn 1.5708029898027438 1.3888607433101183 -1.7337534187024783
v 0.3561840000000000 0.9708890000000000 0.0250000000000000
vn -0.0565425823587897 0.3647010634986823 -1.6206315477364208
v 0.3114290000000000 0.9708890000000000 0.0250000000000000
vn 0.0565425823587877 0.1724405617091058 1.5613024540266973
v 0.3114290000000000 0.5023060000000000 0.1037690000000000
vn 1.5708029898027458 -0.8517191181023300 1.6744243249927560
v 0.3561840000000000 0.5023060000000000 0.1037690000000000
vn 1.5707896637870495 1.2755142349454387 2.9229544097671480
v 0.3561840000000000 0.9738370000000000 0.0516900000000000
vn 0.0565425398000834 0.2563725712711917 3.1298548178460273
v 0.3114290000000000 0.9738370000000000 0.0516900000000000
vn -1.5707913767445880 -1.7337388630502022 -1.3888582821061766
v 0.3114290000000000 0.8830840000000000 0.0353650000000000
vn 1.5707913767445876 -1.7337388630502009 -1.3888582821061770
v 0.5799560000000000 0.8830840000000000 0.0353650000000000
vn 1.5708012768452011 1.3888651570415611 -1.7337474451660295
v 0.5799560000000000 0.9720520000000000 0.0255390000000000
vn -1.5708012768452009 1.3888651570415622 -1.7337474451660297
v 0.3114290000000000 0.9720520000000000 0.0255390000000000
vn -1.5708012768452053 -1.3888651570415600 1.7337474451660360
v 0.3114290000000000 0.8860320000000000 0.0620560000000000
vn 1.5708012768452051 -1.3888651570415613 1.7337474451660362
v 0.5799560000000000 0.8860320000000000 0.0620560000000000
vn 1.5707913767445925 1.7337388630502031 1.3888582821061830
v 0.5799560000000000 0.9750000000000000 0.0522300000000000
vn -1.5707913767445922 1.7337388630502020 1.3888582821061832
v 0.3114290000000000 0.9750000000000000 0.0522300000000000
vn -1.5707983929261442 -1.7337554955480525 -1.3888499840337798
v 0.3114290000000000 0.4981950000000000 0.0774350000000000
vn 1.5707983929261444 -1.7337554955480530 -1.3888499840337800
v 0.5799560000000000 0.4981950000000000 0.0774350000000000
vn 1.5707901723147872 1.3888478195170511 -1.7337455302394937
v 0.5799560000000000 0.5871630000000000 0.0676080000000000
vn -1.5707901723147868 1.3888478195170524 -1.7337455302394942
v 0.3114290000000000 0.5871630000000000 0.0676080000000000
vn -1.5708053651940665 -1.3888644520149032 1.7337538283118907
v 0.3114290000000000 0.5011430000000000 0.1041250000000000
vn 1.5708053651940670 -1.3888644520149025 1.7337538283118907
v 0.5799560000000000 0.5011430000000000 0.1041250000000000
vn 1.5707913767445878 1.7337388630502022 1.3888582821061766
v 0.5799560000000000 0.5901110000000001 0.0942990000000000
vn -1.5707913767445880 1.7337388630502011 1.3888582821061770
v 0.3114290000000000 0.5901110000000001 0.0942990000000000
vn -1.5707963267948966 -1.5707963267948954 -1.5707963267948966
v 0.5889070000000000 0.0250000000000000 0.0760210000000000
vn 1.5707963267948957 -1.5707963267948966 -1.5707963267948970
v 0.8574349999999999 0.0250000000000000 0.0760210000000000
vn 1.5707963267948966 1.5707963267948966 -1.5707963267948966
v 0.8574349999999999 0.4993980000000000 0.0760210000000000
vn -1.5707963267948957 1.5707963267948954 -1.5707963267948970
v 0.5889070000000000 0.4993980000000000 0.0760210000000000
vn -1.5707963267948957 -1.5707963267948966 1.5707963267948966
v 0.5889070000000000 0.0250000000000000 0.1028730000000000
vn 1.5707963267948966 -1.5707963267948954 1.5707963267948970
v 0.8574349999999999 0.0250000000000000 0.1028730000000000
vn 1.5707963267948957 1.5707963267948954 1.5707963267948966
v 0.8574349999999999 0.4993980000000000 0.1028730000000000
vn -1.5707963267948966 1.5707963267948966 1.5707963267948970
v 0.5889070000000000 0.4993980000000000 0.1028730000000000
vn -1.5707896637870473 -1.7337418667283298 -1.3888514893509132
v 0.8126800000000000 0.4993580000000000 0.0770790000000000
vn 1.5707896637870475 -1.7337418667283293 -1.3888514893509127
v 0.8574349999999999 0.4993580000000000 0.0770790000000000
vn 1.5708029898027438 1.3888607433101183 -1.7337534187024783
v 0.8574349999999999 0.9708890000000000 0.0250000000000000
vn -1.5708029898027458 1.3888607433101186 -1.7337534187024779
v 0.8126800000000000 0.9708890000000000 0.0250000000000000
vn -1.5708029898027478 -1.3888607433101177 1.7337534187024815
v 0.8126800000000000 0.5023060000000000 0.1037690000000000
vn 1.5708029898027458 -1.3888607433101181 1.7337534187024810
v 0.8574349999999999 0.5023060000000000 0.1037690000000000
vn 1.5707896637870495 1.7337418667283302 1.3888514893509163
v 0.8574349999999999 0.9738370000000000 0.0516900000000000
vn -1.5707896637870493 1.7337418667283298 1.3888514893509158
v 0.8126800000000000 0.9738370000000000 0.0516900000000000
vn -0.0565425398000832 -0.7045641707797046 -1.4081948232041508
v 0.5889070000000000 0.4993580000000000 0.0770790000000000
vn 1.5707896637870475 -1.7337418667283293 -1.3888514893509127
v 0.6336619999999999 0.4993580000000000 0.0770790000000000
vn 1.5708029898027438 1.3888607433101183 -1.7337534187024783
v 0.6336619999999999 0.9708890000000000 0.0250000000000000
vn -0.0565425823587897 0.3647010634986823 -1.6206315477364208
v 0.5889070000000000 0.9708890000000000 0.0250000000000000
vn 0.0565425823587877 0.1724405617091058 1.5613024540266973
v 0.5889070000000000 0.5023060000000000 0.1037690000000000
vn 1.5708029898027458 -0.8517191181023300 1.6744243249927560
v 0.6336619999999999 0.5023060000000000 0.1037690000000000
vn 1.5707896637870495 1.2755142349454387 2.9229544097671480
v 0.6336619999999999 0.9738370000000000 0.0516900000000000
vn 0.0565425398000834 0.2563725712711917 3.1298548178460273
v 0.5889070000000000 0.9738370000000000 0.0516900000000000
vn -1.5707913767445880 -1.7337388630502009 -1.3888582821061768
v 0.5889070000000000 0.8830840000000000 0.0353650000000000
vn 1.5707913767445876 -1.7337388630502009 -1.3888582821061766
v 0.8574349999999999 0.8830840000000000 0.0353650000000000
vn 1.5708012768452011 1.3888651570415609 -1.7337474451660295
v 0.8574349999999999 0.9720520000000000 0.0255390000000000
vn -1.5708012768452009 1.3888651570415609 -1.7337474451660293
v 0.5889070000000000 0.9720520000000000 0.0255390000000000
vn -1.5708012768452053 -1.3888651570415600 1.7337474451660360
v 0.5889070000000000 0.8860320000000000 0.0620560000000000
vn 1.5708012768452051 -1.3888651570415600 1.7337474451660362
v 0.8574349999999999 0.8860320000000000 0.0620560000000000
vn 1.5707913767445925 1.7337388630502018 1.3888582821061832
v 0.8574349999999999 0.9750000000000000 0.0522300000000000
vn -1.5707913767445922 1.7337388630502018 1.3888582821061832
v 0.5889070000000000 0.9750000000000000 0.0522300000000000
vn -1.5707983929261442 -1.7337554955480539 -1.3888499840337800
v 0.5889070000000000 0.4981950000000000 0.0774350000000000
vn 1.5707983929261444 -1.7337554955480530 -1.3888499840337802
v 0.8574349999999999 0.4981950000000000 0.0774350000000000
vn 1.5707901723147872 1.3888478195170511 -1.7337455302394940
v 0.8574349999999999 0.5871630000000000 0.0676080000000000
vn -1.5707901723147868 1.3888478195170511 -1.7337455302394942
v 0.5889070000000000 0.5871630000000000 0.0676080000000000
vn -1.5708053651940665 -1.3888644520149032 1.7337538283118907
v 0.5889070000000000 0.5011430000000000 0.1041250000000000
vn 1.5708053651940670 -1.3888644520149040 1.7337538283118903
v 0.8574349999999999 0.5011430000000000 0.1041250000000000
vn 1.5707913767445878 1.7337388630502009 1.3888582821061766
v 0.8574349999999999 0.5901110000000001 0.0942990000000000
vn -1.5707913767445880 1.7337388630502009 1.3888582821061766
v 0.5889070000000000 0.5901110000000001 0.0942990000000000
# 120 vertices, 0 vertices normals


usemtl material_0
vt -1.0000000000000000 -1.0000000000000000
f 1/1/1 4/1/4 2/1/2
f 2/1/2 4/1/4 3/1/3
f 1/1/1 5/1/5 6/1/6
f 1/1/1 5/1/5 4/1/4
f 8/1/8 5/1/5 4/1/4
f 4/1/4 7/1/7 8/1/8
f 6/1/6 7/1/7 2/1/2
f 8/1/8 6/1/6 5/1/5
f 7/1/7 6/1/6 8/1/8
f 3/1/3 6/1/6 2/1/2
f 9/1/9 12/1/12 10/1/10
f 10/1/10 12/1/12 11/1/11
f 9/1/9 14/1/14 13/1/13
f 9/1/9 10/1/10 14/1/14
f 9/1/9 13/1/13 12/1/12
f 12/1/12 13/1/13 16/1/16
f 12/1/12 16/1/16 15/1/15
f 12/1/12 15/1/15 11/1/11
f 10/1/10 15/1/15 14/1/14
f 10/1/10 11/1/11 15/1/15
f 14/1/14 16/1/16 13/1/13
f 14/1/14 15/1/15 16/1/16
f 17/1/17 20/1/20 18/1/18
f 18/1/18 20/1/20 19/1/19
f 17/1/17 22/1/22 21/1/21
f 17/1/17 21/1/21 20/1/20
f 20/1/20 21/1/21 24/1/24
f 20/1/20 24/1/24 23/1/23
f 18/1/18 23/1/23 22/1/22
f 22/1/22 24/1/24 21/1/21
f 22/1/22 23/1/23 24/1/24
f 25/1/25 28/1/28 26/1/26
f 26/1/26 28/1/28 27/1/27
f 25/1/25 30/1/30 29/1/29
f 25/1/25 26/1/26 30/1/30
f 25/1/25 29/1/29 28/1/28
f 28/1/28 29/1/29 32/1/32
f 28/1/28 32/1/32 31/1/31
f 28/1/28 31/1/31 27/1/27
f 26/1/26 31/1/31 30/1/30
f 26/1/26 27/1/27 31/1/31
f 30/1/30 32/1/32 29/1/29
f 30/1/30 31/1/31 32/1/32
f 33/1/33 36/1/36 34/1/34
f 34/1/34 36/1/36 35/1/35
f 33/1/33 38/1/38 37/1/37
f 33/1/33 34/1/34 38/1/38
f 33/1/33 37/1/37 36/1/36
f 36/1/36 37/1/37 40/1/40
f 36/1/36 40/1/40 39/1/39
f 36/1/36 39/1/39 35/1/35
f 34/1/34 39/1/39 38/1/38
f 34/1/34 35/1/35 39/1/39
f 38/1/38 40/1/40 37/1/37
f 38/1/38 39/1/39 40/1/40
f 18/1/18 22/1/22 19/1/19
f 41/1/41 44/1/44 42/1/42
f 42/1/42 44/1/44 43/1/43
f 42/1/42 47/1/47 46/1/46
f 42/1/42 43/1/43 47/1/47
f 46/1/46 48/1/48 45/1/45
f 46/1/46 47/1/47 48/1/48
f 41/1/41 48/1/48 45/1/45
f 41/1/41 44/1/44 48/1/48
f 49/1/49 52/1/52 50/1/50
f 50/1/50 52/1/52 51/1/51
f 49/1/49 54/1/54 53/1/53
f 49/1/49 53/1/53 52/1/52
f 52/1/52 53/1/53 56/1/56
f 52/1/52 56/1/56 55/1/55
f 50/1/50 55/1/55 54/1/54
f 54/1/54 56/1/56 53/1/53
f 54/1/54 55/1/55 56/1/56
f 57/1/57 60/1/60 58/1/58
f 58/1/58 60/1/60 59/1/59
f 57/1/57 58/1/58 62/1/62
f 57/1/57 61/1/61 60/1/60
f 60/1/60 63/1/63 59/1/59
f 58/1/58 63/1/63 62/1/62
f 58/1/58 59/1/59 63/1/63
f 62/1/62 64/1/64 61/1/61
f 62/1/62 63/1/63 64/1/64
f 65/1/65 68/1/68 66/1/66
f 66/1/66 68/1/68 67/1/67
f 65/1/65 70/1/70 69/1/69
f 65/1/65 66/1/66 70/1/70
f 65/1/65 69/1/69 68/1/68
f 68/1/68 69/1/69 72/1/72
f 68/1/68 72/1/72 71/1/71
f 68/1/68 71/1/71 67/1/67
f 66/1/66 71/1/71 70/1/70
f 66/1/66 67/1/67 71/1/71
f 70/1/70 72/1/72 69/1/69
f 70/1/70 71/1/71 72/1/72
f 73/1/73 76/1/76 74/1/74
f 74/1/74 76/1/76 75/1/75
f 73/1/73 78/1/78 77/1/77
f 73/1/73 74/1/74 78/1/78
f 73/1/73 77/1/77 76/1/76
f 76/1/76 77/1/77 80/1/80
f 76/1/76 80/1/80 79/1/79
f 76/1/76 79/1/79 75/1/75
f 74/1/74 79/1/79 78/1/78
f 74/1/74 75/1/75 79/1/79
f 78/1/78 80/1/80 77/1/77
f 78/1/78 79/1/79 80/1/80
f 57/1/57 64/1/64 61/1/61
f 81/1/81 84/1/84 82/1/82
f 82/1/82 84/1/84 83/1/83
f 81/1/81 82/1/82 86/1/86
f 81/1/81 85/1/85 84/1/84
f 84/1/84 85/1/85 88/1/88
f 84/1/84 87/1/87 83/1/83
f 82/1/82 87/1/87 86/1/86
f 82/1/82 83/1/83 87/1/87
f 86/1/86 88/1/88 85/1/85
f 86/1/86 87/1/87 88/1/88
f 89/1/89 92/1/92 90/1/90
f 90/1/90 92/1/92 91/1/91
f 89/1/89 94/1/94 93/1/93
f 89/1/89 90/1/90 94/1/94
f 89/1/89 93/1/93 92/1/92
f 92/1/92 93/1/93 96/1/96
f 92/1/92 96/1/96 95/1/95
f 92/1/92 95/1/95 91/1/91
f 90/1/90 95/1/95 94/1/94
f 90/1/90 91/1/91 95/1/95
f 94/1/94 96/1/96 93/1/93
f 94/1/94 95/1/95 96/1/96
f 97/1/97 100/1/100 98/1/98
f 98/1/98 100/1/100 99/1/99
f 97/1/97 98/1/98 102/1/102
f 97/1/97 101/1/101 100/1/100
f 100/1/100 103/1/103 99/1/99
f 98/1/98 103/1/103 102/1/102
f 98/1/98 99/1/99 103/1/103
f 102/1/102 104/1/104 101/1/101
f 102/1/102 103/1/103 104/1/104
f 105/1/105 108/1/108 106/1/106
f 106/1/106 108/1/108 107/1/107
f 105/1/105 110/1/110 109/1/109
f 105/1/105 106/1/106 110/1/110
f 105/1/105 109/1/109 108/1/108
f 108/1/108 109/1/109 112/1/112
f 108/1/108 112/1/112 111/1/111
f 108/1/108 111/1/111 107/1/107
f 106/1/106 111/1/111 110/1/110
f 106/1/106 107/1/107 111/1/111
f 110/1/110 112/1/112 109/1/109
f 110/1/110 111/1/111 112/1/112
f 113/1/113 116/1/116 114/1/114
f 114/1/114 116/1/116 115/1/115
f 113/1/113 118/1/118 117/1/117
f 113/1/113 114/1/114 118/1/118
f 113/1/113 117/1/117 116/1/116
f 116/1/116 117/1/117 120/1/120
f 116/1/116 120/1/120 119/1/119
f 116/1/116 119/1/119 115/1/115
f 114/1/114 119/1/119 118/1/118
f 114/1/114 115/1/115 119/1/119
f 118/1/118 120/1/120 117/1/117
f 118/1/118 119/1/119 120/1/120
f 50/1/50 54/1/54 51/1/51
f 97/1/97 104/1/104 101/1/101
f 3/1/3 4/1/4 6/1/6
f 20/1/20 19/1/19 22/1/22
f 41/1/41 42/1/42 46/1/46
f 46/1/46 45/1/45 41/1/41
f 43/1/43 44/1/44 48/1/48
f 48/1/48 47/1/47 43/1/43
f 52/1/52 51/1/51 54/1/54
f 63/1/63 64/1/64 57/1/57
f 81/1/81 86/1/86 85/1/85
f 84/1/84 88/1/88 87/1/87
f 103/1/103 104/1/104 97/1/97
# 175 faces, 1 coords texture

# End of File
