####
#
# OBJ File Generated by Meshlab
#
####
# Object m613.obj
#
# Vertices: 136
# Faces: 200
#
####
mtllib ./m613.obj.mtl

vn -2.9878683893547504 -2.5133487596992037 0.0001153925981032
v 0.1609180000000000 0.0767780000000000 0.1481100000000000
vn -2.4172203044551077 -2.5131796527835188 -1.7561073447450852
v 0.1596820000000000 0.0767780000000000 0.1519150000000000
vn -2.9878683893547509 2.5133487596992037 0.0001153925981031
v 0.1609180000000000 0.0508890000000000 0.1481100000000000
vn -2.4172203044551073 2.5131796527835188 -1.7561073447450850
v 0.1596820000000000 0.0508890000000000 0.1519150000000000
vn 0.0000000000000000 6.2831853071795862 0.0000000000000000
v 0.1544460000000000 0.0508890000000000 0.1481100000000000
vn 0.0000000000000000 -6.2831853071795862 0.0000000000000000
v 0.1544460000000000 0.0767780000000000 0.1481100000000000
vn -0.9232673654941882 -2.5132926541713330 -2.8416143594359822
v 0.1564460000000000 0.0767780000000000 0.1542660000000000
vn -0.9232673654941883 2.5132926541713330 -2.8416143594359831
v 0.1564460000000000 0.0508890000000000 0.1542660000000000
vn 0.9232673654941883 -2.5132926541713330 -2.8416143594359831
v 0.1524460000000000 0.0767780000000000 0.1542660000000000
vn 0.9232673654941882 2.5132926541713330 -2.8416143594359822
v 0.1524460000000000 0.0508890000000000 0.1542660000000000
vn 2.4172203044551073 -2.5131796527835188 -1.7561073447450850
v 0.1492100000000000 0.0767780000000000 0.1519150000000000
vn 2.4172203044551077 2.5131796527835188 -1.7561073447450850
v 0.1492100000000000 0.0508890000000000 0.1519150000000000
vn 2.9878683893547509 -2.5133487596992037 0.0001153925981031
v 0.1479740000000000 0.0767780000000000 0.1481100000000000
vn 2.9878683893547509 2.5133487596992037 0.0001153925981032
v 0.1479740000000000 0.0508890000000000 0.1481100000000000
vn 2.4171828158880202 -2.5132568935337853 1.7562227373431885
v 0.1492100000000000 0.0767780000000000 0.1443060000000000
vn 2.4171828158880198 2.5132568935337853 1.7562227373431880
v 0.1492100000000000 0.0508890000000000 0.1443060000000000
vn 0.9232673654941882 -2.5132926541713330 2.8416143594359822
v 0.1524460000000000 0.0767780000000000 0.1419550000000000
vn 0.9232673654941883 2.5132926541713330 2.8416143594359831
v 0.1524460000000000 0.0508890000000000 0.1419550000000000
vn -0.9232673654941883 -2.5132926541713330 2.8416143594359831
v 0.1564460000000000 0.0767780000000000 0.1419550000000000
vn -0.9232673654941882 2.5132926541713330 2.8416143594359822
v 0.1564460000000000 0.0508890000000000 0.1419550000000000
vn -2.4171828158880198 -2.5132568935337853 1.7562227373431880
v 0.1596820000000000 0.0767780000000000 0.1443060000000000
vn -2.4171828158880202 2.5132568935337853 1.7562227373431885
v 0.1596820000000000 0.0508890000000000 0.1443060000000000
vn 1.5707963267948966 1.5707963267948966 1.5707963267948966
v 0.1479740000000000 0.0727010000000000 0.1416380000000000
vn -1.5707963267948954 1.5707963267948966 1.5707963267948934
v 0.1609180000000000 0.0727010000000000 0.1416380000000000
vn -1.5707963267948966 -1.5707963267948966 1.5707963267948966
v 0.1609180000000000 0.6681520000000000 0.1416380000000000
vn 1.5707963267948954 -1.5707963267948966 1.5707963267948934
v 0.1479740000000000 0.6681520000000000 0.1416380000000000
vn 1.5707963267948954 1.5707963267948966 -1.5707963267948966
v 0.1479740000000000 0.0727010000000000 0.1545830000000000
vn -1.5707963267948966 1.5707963267948966 -1.5707963267948934
v 0.1609180000000000 0.0727010000000000 0.1545830000000000
vn -1.5707963267948954 -1.5707963267948966 -1.5707963267948966
v 0.1609180000000000 0.6681520000000000 0.1545830000000000
vn 1.5707963267948966 -1.5707963267948966 -1.5707963267948934
v 0.1479740000000000 0.6681520000000000 0.1545830000000000
vn 1.5707963267948966 1.5707963267948966 1.5707963267948966
v 0.1932800000000000 0.0468120000000000 0.1740000000000000
vn -1.5707963267948934 1.5707963267948966 1.5707963267948934
v 0.2062240000000000 0.0468120000000000 0.1740000000000000
vn -1.5707963267948966 -1.5707963267948966 1.5707963267948966
v 0.2062240000000000 0.6422630000000000 0.1740000000000000
vn 1.5707963267948934 -1.5707963267948966 1.5707963267948934
v 0.1932800000000000 0.6422630000000000 0.1740000000000000
vn 1.5707963267948934 1.5707963267948966 -1.5707963267948966
v 0.1932800000000000 0.0468120000000000 0.1869440000000000
vn -1.5707963267948966 1.5707963267948966 -1.5707963267948934
v 0.2062240000000000 0.0468120000000000 0.1869440000000000
vn -1.5707963267948934 -1.5707963267948966 -1.5707963267948966
v 0.2062240000000000 0.6422630000000000 0.1869440000000000
vn 1.5707963267948966 -1.5707963267948966 -1.5707963267948934
v 0.1932800000000000 0.6422630000000000 0.1869440000000000
vn 1.5707963267948966 1.5707963267948970 1.5707963267948966
v 0.1932800000000000 0.0468120000000000 0.1092770000000000
vn -1.5707963267948934 1.5707963267948966 1.5707963267948934
v 0.2062240000000000 0.0468120000000000 0.1092770000000000
vn -1.5707963267948966 -1.5707963267948966 1.5707963267948966
v 0.2062240000000000 0.6422630000000000 0.1092770000000000
vn 1.5707963267948934 -1.5707963267948970 1.5707963267948934
v 0.1932800000000000 0.6422630000000000 0.1092770000000000
vn 1.5707963267948934 1.5707963267948966 -1.5707963267948966
v 0.1932800000000000 0.0468120000000000 0.1222210000000000
vn -1.5707963267948966 1.5707963267948970 -1.5707963267948934
v 0.2062240000000000 0.0468120000000000 0.1222210000000000
vn -1.5707963267948934 -1.5707963267948970 -1.5707963267948966
v 0.2062240000000000 0.6422630000000000 0.1222210000000000
vn 1.5707963267948966 -1.5707963267948966 -1.5707963267948934
v 0.1932800000000000 0.6422630000000000 0.1222210000000000
vn 0.7040889909604230 -1.6653356293535584 0.3665164011941486
v 0.7816670000000000 0.8830690000000000 0.1387890000000000
vn -1.9595013672499051 -0.0327335675957925 -1.4959790499503633
v 0.9463430000000000 0.7624960000000000 0.2519350000000000
vn -2.3980187791327623 5.6718337452497982 -1.2482890311217174
v 0.8557730000000000 0.7077920000000000 0.1773650000000000
vn -0.8617146013504169 0.2553516608287025 -2.2958716841320346
v 0.8830910000000000 0.7458970000000000 0.2980210000000000
vn 0.4171652338802369 0.7960795490067066 -2.2958520122275399
v 0.8094050000000000 0.7147420000000000 0.2980210000000000
vn 1.3886762464937892 1.3828466362144178 -1.4959716782551227
v 0.7534290000000000 0.6809330000000000 0.2519350000000000
vn 1.6817243822445394 1.7915880118214629 -0.2017543038806374
v 0.7365450000000000 0.6573830000000001 0.1773650000000000
vn 1.1843406502709997 1.8661321402770839 1.0924660432239941
v 0.7652020000000000 0.6530870000000000 0.1027950000000000
vn 0.0865545510483031 1.5780541687760747 1.8923551643557945
v 0.8284540000000000 0.6696870000000000 0.0567090000000000
vn -1.1923324748935111 1.0373519081267384 1.8923560274738112
v 0.9021400000000001 0.7008410000000000 0.0567090000000000
vn -2.1638332203048538 0.4505552248012344 1.0924758353264323
v 0.9581160000000000 0.7346500000000000 0.1027950000000000
vn -2.4568807241573865 0.0418277704092507 -0.2017539591299151
v 0.9750000000000000 0.7582000000000000 0.1773650000000000
vn -2.7519488718909062 -1.1635036252503714 -0.0000172471559262
v 0.8026140000000000 0.9332480000000000 0.1310740000000000
vn -2.0905329933974315 -1.2626820191973120 -1.7212243324401442
v 0.7940170000000000 0.9345360000000000 0.1534450000000000
vn -2.7519761956884747 -1.1635176966382090 0.0000007093095921
v 0.8396670000000001 0.8456090000000001 0.1503620000000000
vn -2.0905185825052826 -1.2626751385750095 -1.7211913498998563
v 0.8310700000000000 0.8468980000000000 0.1727330000000000
vn -0.6305488770097728 -0.8795303162141539 -2.7849725379786867
v 0.7750410000000000 0.9295560000000000 0.1672710000000000
vn -0.6305526845276658 -0.8795272698968583 -2.7849513821763408
v 0.8120940000000000 0.8419180000000001 0.1865590000000000
vn 1.0702561487548214 -0.1604230110911503 -2.7849104586177225
v 0.7529350000000000 0.9202100000000000 0.1672710000000000
vn 1.0702800319980517 -0.1604246048588334 -2.7849635807881716
v 0.7899880000000000 0.8325720000000000 0.1865590000000000
vn 2.3622989376514330 0.6199602882081656 -1.7211832641440972
v 0.7361430000000000 0.9100670000000000 0.1534450000000000
vn 2.3622747910269828 0.6199565870034230 -1.7211536945311499
v 0.7731960000000000 0.8224290000000000 0.1727330000000000
vn 2.7519951773960876 1.1635398520982263 0.0000325720721236
v 0.7310780000000000 0.9030020000000000 0.1310740000000000
vn 2.7519892964674870 1.1635246737779981 0.0000043072734939
v 0.7681310000000000 0.8153640000000000 0.1503620000000000
vn 2.0904696954208370 1.2626535332542521 1.7212231577048478
v 0.7396750000000000 0.9017140000000000 0.1087030000000000
vn 2.0905256215710337 1.2626462379321008 1.7211665849651419
v 0.7767280000000000 0.8140750000000000 0.1279910000000000
vn 0.6305508818357112 0.8794996777105919 2.7849648519615227
v 0.7586500000000000 0.9066940000000000 0.0948780000000000
vn 0.6305867903488032 0.8794980085667569 2.7849302928876503
v 0.7957030000000000 0.8190550000000000 0.1141650000000000
vn -1.0702048401121640 0.1604345031310158 2.7850211025925056
v 0.7807560000000000 0.9160400000000000 0.0948780000000000
vn -1.0702623127776607 0.1604244779435859 2.7850131760911161
v 0.8178090000000000 0.8284020000000000 0.1141650000000000
vn -2.3622195756809514 -0.6199279241551801 1.7212058958557017
v 0.7975490000000000 0.9261830000000000 0.1087030000000000
vn -2.3622449985140066 -0.6199351283633583 1.7211618216146398
v 0.8346020000000000 0.8385440000000000 0.1279910000000000
vn 1.9648104425363706 -1.0363557151117750 1.5707377718238371
v 0.1489270000000000 0.6788630000000000 0.1416380000000000
vn 1.0364164006674190 1.9649254953234592 1.5708548817659553
v 0.1527530000000000 0.6664970000000000 0.1416380000000000
vn -1.9648104425363706 1.0363557151117750 1.5707377718238371
v 0.7216100000000000 0.8424630000000000 0.1416380000000000
vn -1.0364164006674190 -1.9649254953234592 1.5708548817659553
v 0.7177840000000000 0.8548289999999999 0.1416380000000000
vn 1.9648104425363704 -1.0363557151117742 -1.5707377718238371
v 0.1489270000000000 0.6788630000000000 0.1545830000000000
vn 1.0364164006674188 1.9649254953234601 -1.5708548817659553
v 0.1527530000000000 0.6664970000000000 0.1545830000000000
vn -1.9648104425363704 1.0363557151117742 -1.5707377718238371
v 0.7216100000000000 0.8424630000000000 0.1545830000000000
vn -1.0364164006674188 -1.9649254953234601 -1.5708548817659553
v 0.7177840000000000 0.8548289999999999 0.1545830000000000
vn 1.9648104425363706 -1.0363557151117750 1.5707377718238371
v 0.1489270000000000 0.6270850000000000 0.1416380000000000
vn 1.0364188082852077 1.9649262400759533 1.5708564861589021
v 0.1527530000000000 0.6147190000000000 0.1416380000000000
vn -1.9648186352844352 1.0363907226515483 1.5707589998711318
v 0.7216100000000000 0.7906840000000001 0.1416380000000000
vn -1.0364270010332728 -1.9648912325361776 1.5708320493257206
v 0.7177840000000000 0.8030510000000000 0.1416380000000000
vn 1.9648104425363704 -1.0363557151117742 -1.5707377718238371
v 0.1489270000000000 0.6270850000000000 0.1545830000000000
vn 1.0364188082852082 1.9649262400759517 -1.5708564861589021
v 0.1527530000000000 0.6147190000000000 0.1545830000000000
vn -1.9648186352844357 1.0363907226515496 -1.5707589998711318
v 0.7216100000000000 0.7906840000000001 0.1545830000000000
vn -1.0364270010332728 -1.9648912325361785 -1.5708320493257206
v 0.7177840000000000 0.8030510000000000 0.1545830000000000
vn -2.4172077945805688 0.0000000000000000 -1.7562008661624535
v 0.2591700000000000 0.0508890000000000 0.2241970000000000
vn -2.4172077945805688 0.0000000000000000 -1.7562008661624540
v 0.2591700000000000 0.0250000000000000 0.2241970000000000
vn -0.9232907605189791 0.0000000000000000 -2.8415973622888977
v 0.1944470000000000 0.0508890000000000 0.2712210000000000
vn -0.9232907605189788 0.0000000000000000 -2.8415973622888977
v 0.1944470000000000 0.0250000000000000 0.2712210000000000
vn 0.9232907605189788 0.0000000000000000 -2.8415973622888977
v 0.1144450000000000 0.0508890000000000 0.2712210000000000
vn 0.9232907605189791 0.0000000000000000 -2.8415973622888977
v 0.1144450000000000 0.0250000000000000 0.2712210000000000
vn 2.4172077945805683 0.0000000000000000 -1.7562008661624544
v 0.0497220000000000 0.0508890000000000 0.2241970000000000
vn 2.4172077945805679 0.0000000000000000 -1.7562008661624537
v 0.0497220000000000 0.0250000000000000 0.2241970000000000
vn 2.9878321932009864 0.0000000000000000 0.0000057704177411
v 0.0250000000000000 0.0508890000000000 0.1481100000000000
vn 2.9878321932009864 0.0000000000000000 0.0000057704177411
v 0.0250000000000000 0.0250000000000000 0.1481100000000000
vn 2.4172059196583762 0.0000000000000000 1.7562066365801949
v 0.0497220000000000 0.0508890000000000 0.0720240000000000
vn 2.4172059196583762 0.0000000000000000 1.7562066365801949
v 0.0497220000000000 0.0250000000000000 0.0720240000000000
vn 0.9232907605189791 0.0000000000000000 2.8415973622888973
v 0.1144450000000000 0.0508890000000000 0.0250000000000000
vn 0.9232907605189792 0.0000000000000000 2.8415973622888977
v 0.1144450000000000 0.0250000000000000 0.0250000000000000
vn -0.9232907605189792 0.0000000000000000 2.8415973622888977
v 0.1944470000000000 0.0508890000000000 0.0250000000000000
vn -0.9232907605189791 0.0000000000000000 2.8415973622888973
v 0.1944470000000000 0.0250000000000000 0.0250000000000000
vn -2.4172059196583766 0.0000000000000000 1.7562066365801945
v 0.2591700000000000 0.0508890000000000 0.0720240000000000
vn -2.4172059196583766 0.0000000000000000 1.7562066365801945
v 0.2591700000000000 0.0250000000000000 0.0720240000000000
vn -2.9878321932009873 0.0000000000000000 0.0000057704177410
v 0.2838920000000000 0.0508890000000000 0.1481100000000000
vn -2.9878321932009873 0.0000000000000000 0.0000057704177410
v 0.2838920000000000 0.0250000000000000 0.1481100000000000
vn -3.4552140034356480 1.7186692486951154 -0.5936725689272921
v 0.8163830000000000 0.8682430000000000 0.1493960000000000
vn -3.1016924684562137 0.8821719028446340 -2.2013799006816952
v 0.8156170000000000 0.8700550000000000 0.1528790000000000
vn 1.5282393719409049 2.8397726440189266 -2.2013733945888134
v 0.7917720000000000 0.8599740000000000 0.1528790000000000
vn 5.7872342566545250 2.4466992440055826 0.0000682978148180
v 0.7900680000000000 0.8640040000000000 0.1481100000000000
vn -5.7873242416963491 -2.4464863748229901 -0.0000418260210396
v 0.8139130000000000 0.8740860000000000 0.1481100000000000
vn -2.4473352649494320 -0.6649511757103401 -2.9684100551630861
v 0.8142000000000000 0.8734070000000000 0.1545410000000000
vn 2.1819916439660991 1.2923640093865552 -2.9682170542747341
v 0.7903550000000000 0.8633250000000000 0.1545410000000000
vn -1.7428435701616221 -2.3319549832663911 -2.6013297347709434
v 0.8126740000000000 0.8770180000000000 0.1537460000000000
vn 2.8871558649726383 -0.3746172860645853 -2.6013413314139813
v 0.7888280000000000 0.8669360000000000 0.1537460000000000
vn -1.2567159188684078 -3.4817547110230986 -1.2409678421138590
v 0.8116210000000000 0.8795090000000000 0.1507990000000000
vn 3.3732837918514744 -1.5245568009977868 -1.2408379590955174
v 0.7877750000000000 0.8694269999999999 0.1507990000000000
vn -1.1744631848030245 -3.6756764925384648 0.5934947554726977
v 0.8114430000000000 0.8799290000000000 0.1468250000000000
vn 3.4553376463904373 -1.7186397479765858 0.5936954668531037
v 0.7875980000000000 0.8698470000000000 0.1468250000000000
vn -1.5282441682634436 -2.8393848824807328 2.2012959075355387
v 0.8122090000000000 0.8781170000000000 0.1433420000000000
vn 3.1017579746234283 -0.8821422661656925 2.2014007335761354
v 0.7883640000000000 0.8680350000000000 0.1433420000000000
vn -2.1821697601261794 -1.2921992594358254 2.9683832613521441
v 0.8136260000000000 0.8747650000000000 0.1416800000000000
vn 2.4472544960748097 0.6651151208655142 2.9683230879877582
v 0.7897810000000000 0.8646830000000000 0.1416800000000000
vn -2.8871288559451296 0.3746510373655592 2.6013214263908773
v 0.8151530000000000 0.8711540000000000 0.1424750000000000
vn 1.7428333436329737 2.3322419275404154 2.6014965487069555
v 0.7913070000000000 0.8610730000000000 0.1424750000000000
vn -3.3731705364965876 1.5245916125754646 1.2408074167297098
v 0.8162060000000000 0.8686630000000000 0.1454220000000000
vn 1.2567259377344722 3.4819249584624608 1.2410317124428805
v 0.7923600000000000 0.8585820000000000 0.1454220000000000
vn 1.1744750893719909 3.6758614733564334 -0.5935181866151960
v 0.7925380000000000 0.8581620000000000 0.1493960000000000
# 136 vertices, 0 vertices normals


usemtl material_0
vt -1.0000000000000000 -1.0000000000000000
f 2/1/2 1/1/1 3/1/3
f 4/1/4 2/1/2 3/1/3
f 3/1/3 5/1/5 4/1/4
f 2/1/2 6/1/6 1/1/1
f 7/1/7 2/1/2 4/1/4
f 8/1/8 7/1/7 4/1/4
f 4/1/4 5/1/5 8/1/8
f 7/1/7 6/1/6 2/1/2
f 9/1/9 7/1/7 8/1/8
f 10/1/10 9/1/9 8/1/8
f 8/1/8 5/1/5 10/1/10
f 9/1/9 6/1/6 7/1/7
f 11/1/11 9/1/9 10/1/10
f 12/1/12 11/1/11 10/1/10
f 10/1/10 5/1/5 12/1/12
f 11/1/11 6/1/6 9/1/9
f 13/1/13 11/1/11 12/1/12
f 14/1/14 13/1/13 12/1/12
f 12/1/12 5/1/5 14/1/14
f 13/1/13 6/1/6 11/1/11
f 15/1/15 13/1/13 14/1/14
f 16/1/16 15/1/15 14/1/14
f 14/1/14 5/1/5 16/1/16
f 15/1/15 6/1/6 13/1/13
f 17/1/17 15/1/15 16/1/16
f 18/1/18 17/1/17 16/1/16
f 16/1/16 5/1/5 18/1/18
f 17/1/17 6/1/6 15/1/15
f 19/1/19 17/1/17 18/1/18
f 20/1/20 19/1/19 18/1/18
f 18/1/18 5/1/5 20/1/20
f 19/1/19 6/1/6 17/1/17
f 21/1/21 19/1/19 20/1/20
f 22/1/22 21/1/21 20/1/20
f 20/1/20 5/1/5 22/1/22
f 21/1/21 6/1/6 19/1/19
f 1/1/1 21/1/21 22/1/22
f 3/1/3 1/1/1 22/1/22
f 22/1/22 5/1/5 3/1/3
f 1/1/1 6/1/6 21/1/21
f 26/1/26 23/1/23 24/1/24
f 26/1/26 24/1/24 25/1/25
f 28/1/28 23/1/23 27/1/27
f 24/1/24 23/1/23 28/1/28
f 27/1/27 23/1/23 26/1/26
f 27/1/27 26/1/26 30/1/30
f 30/1/30 26/1/26 29/1/29
f 29/1/29 26/1/26 25/1/25
f 29/1/29 24/1/24 28/1/28
f 25/1/25 24/1/24 29/1/29
f 30/1/30 28/1/28 27/1/27
f 29/1/29 28/1/28 30/1/30
f 34/1/34 31/1/31 32/1/32
f 34/1/34 32/1/32 33/1/33
f 36/1/36 31/1/31 35/1/35
f 32/1/32 31/1/31 36/1/36
f 35/1/35 31/1/31 34/1/34
f 35/1/35 34/1/34 38/1/38
f 38/1/38 34/1/34 37/1/37
f 37/1/37 34/1/34 33/1/33
f 37/1/37 32/1/32 36/1/36
f 33/1/33 32/1/32 37/1/37
f 38/1/38 36/1/36 35/1/35
f 37/1/37 36/1/36 38/1/38
f 42/1/42 39/1/39 40/1/40
f 42/1/42 40/1/40 41/1/41
f 44/1/44 39/1/39 43/1/43
f 40/1/40 39/1/39 44/1/44
f 43/1/43 39/1/39 42/1/42
f 43/1/43 42/1/42 46/1/46
f 46/1/46 42/1/42 45/1/45
f 45/1/45 42/1/42 41/1/41
f 45/1/45 40/1/40 44/1/44
f 41/1/41 40/1/40 45/1/45
f 46/1/46 44/1/44 43/1/43
f 45/1/45 44/1/44 46/1/46
f 48/1/48 47/1/47 58/1/58
f 58/1/58 49/1/49 48/1/48
f 50/1/50 47/1/47 48/1/48
f 48/1/48 49/1/49 50/1/50
f 51/1/51 47/1/47 50/1/50
f 50/1/50 49/1/49 51/1/51
f 52/1/52 47/1/47 51/1/51
f 51/1/51 49/1/49 52/1/52
f 53/1/53 47/1/47 52/1/52
f 52/1/52 49/1/49 53/1/53
f 54/1/54 47/1/47 53/1/53
f 53/1/53 49/1/49 54/1/54
f 55/1/55 47/1/47 54/1/54
f 54/1/54 49/1/49 55/1/55
f 56/1/56 47/1/47 55/1/55
f 55/1/55 49/1/49 56/1/56
f 57/1/57 47/1/47 56/1/56
f 56/1/56 49/1/49 57/1/57
f 58/1/58 47/1/47 57/1/57
f 57/1/57 49/1/49 58/1/58
f 60/1/60 59/1/59 61/1/61
f 62/1/62 60/1/60 61/1/61
f 63/1/63 60/1/60 62/1/62
f 64/1/64 63/1/63 62/1/62
f 65/1/65 63/1/63 64/1/64
f 66/1/66 65/1/65 64/1/64
f 67/1/67 65/1/65 66/1/66
f 68/1/68 67/1/67 66/1/66
f 69/1/69 67/1/67 68/1/68
f 70/1/70 69/1/69 68/1/68
f 71/1/71 69/1/69 70/1/70
f 72/1/72 71/1/71 70/1/70
f 73/1/73 71/1/71 72/1/72
f 74/1/74 73/1/73 72/1/72
f 75/1/75 73/1/73 74/1/74
f 76/1/76 75/1/75 74/1/74
f 77/1/77 75/1/75 76/1/76
f 78/1/78 77/1/77 76/1/76
f 59/1/59 77/1/77 78/1/78
f 61/1/61 59/1/59 78/1/78
f 82/1/82 79/1/79 80/1/80
f 82/1/82 80/1/80 81/1/81
f 84/1/84 79/1/79 83/1/83
f 80/1/80 79/1/79 84/1/84
f 83/1/83 79/1/79 82/1/82
f 83/1/83 82/1/82 86/1/86
f 86/1/86 82/1/82 85/1/85
f 85/1/85 82/1/82 81/1/81
f 85/1/85 80/1/80 84/1/84
f 81/1/81 80/1/80 85/1/85
f 86/1/86 84/1/84 83/1/83
f 85/1/85 84/1/84 86/1/86
f 90/1/90 87/1/87 88/1/88
f 90/1/90 88/1/88 89/1/89
f 92/1/92 87/1/87 91/1/91
f 88/1/88 87/1/87 92/1/92
f 91/1/91 87/1/87 90/1/90
f 91/1/91 90/1/90 94/1/94
f 94/1/94 90/1/90 93/1/93
f 93/1/93 90/1/90 89/1/89
f 93/1/93 88/1/88 92/1/92
f 89/1/89 88/1/88 93/1/93
f 94/1/94 92/1/92 91/1/91
f 93/1/93 92/1/92 94/1/94
f 95/1/95 113/1/113 114/1/114
f 96/1/96 95/1/95 114/1/114
f 97/1/97 95/1/95 96/1/96
f 98/1/98 97/1/97 96/1/96
f 99/1/99 97/1/97 98/1/98
f 100/1/100 99/1/99 98/1/98
f 101/1/101 99/1/99 100/1/100
f 102/1/102 101/1/101 100/1/100
f 103/1/103 101/1/101 102/1/102
f 104/1/104 103/1/103 102/1/102
f 105/1/105 103/1/103 104/1/104
f 106/1/106 105/1/105 104/1/104
f 107/1/107 105/1/105 106/1/106
f 108/1/108 107/1/107 106/1/106
f 109/1/109 107/1/107 108/1/108
f 110/1/110 109/1/109 108/1/108
f 111/1/111 109/1/109 110/1/110
f 112/1/112 111/1/111 110/1/110
f 113/1/113 111/1/111 112/1/112
f 114/1/114 113/1/113 112/1/112
f 116/1/116 115/1/115 136/1/136
f 117/1/117 116/1/116 136/1/136
f 136/1/136 118/1/118 117/1/117
f 116/1/116 119/1/119 115/1/115
f 120/1/120 116/1/116 117/1/117
f 121/1/121 120/1/120 117/1/117
f 117/1/117 118/1/118 121/1/121
f 120/1/120 119/1/119 116/1/116
f 122/1/122 120/1/120 121/1/121
f 123/1/123 122/1/122 121/1/121
f 121/1/121 118/1/118 123/1/123
f 122/1/122 119/1/119 120/1/120
f 124/1/124 122/1/122 123/1/123
f 125/1/125 124/1/124 123/1/123
f 123/1/123 118/1/118 125/1/125
f 124/1/124 119/1/119 122/1/122
f 126/1/126 124/1/124 125/1/125
f 127/1/127 126/1/126 125/1/125
f 125/1/125 118/1/118 127/1/127
f 126/1/126 119/1/119 124/1/124
f 128/1/128 126/1/126 127/1/127
f 129/1/129 128/1/128 127/1/127
f 127/1/127 118/1/118 129/1/129
f 128/1/128 119/1/119 126/1/126
f 130/1/130 128/1/128 129/1/129
f 131/1/131 130/1/130 129/1/129
f 129/1/129 118/1/118 131/1/131
f 130/1/130 119/1/119 128/1/128
f 132/1/132 130/1/130 131/1/131
f 133/1/133 132/1/132 131/1/131
f 131/1/131 118/1/118 133/1/133
f 132/1/132 119/1/119 130/1/130
f 134/1/134 132/1/132 133/1/133
f 135/1/135 134/1/134 133/1/133
f 133/1/133 118/1/118 135/1/135
f 134/1/134 119/1/119 132/1/132
f 115/1/115 134/1/134 135/1/135
f 136/1/136 115/1/115 135/1/135
f 135/1/135 118/1/118 136/1/136
f 115/1/115 119/1/119 134/1/134
# 200 faces, 1 coords texture

# End of File
