####
#
# OBJ File Generated by Meshlab
#
####
# Object m876.obj
#
# Vertices: 44
# Faces: 68
#
####
mtllib ./m876.obj.mtl

vn 0.1594399158536216 0.9839835575560891 -0.0797199579268108
v 0.8795780000000000 0.6642860000000000 0.1204220000000000
vn 0.0999312187395945 0.9747147057504040 0.1998624374791889
v 0.8795780000000000 0.6642860000000000 0.8795740000000000
vn -0.1594399158536216 0.9839835575560891 0.0797199579268108
v 0.1204220000000000 0.6642860000000000 0.8795740000000000
vn -0.0999312187395945 0.9747147057504040 -0.1998624374791889
v 0.1204220000000000 0.6642860000000000 0.1204220000000000
vn 0.7071067811865472 -0.0000000000000009 -0.7071067811865478
v 0.9750000000000000 0.6243310000000000 0.0250000000000000
vn 0.7071067811865478 -0.0000000000000009 0.7071067811865472
v 0.9750000000000000 0.6243310000000000 0.9749960000000000
vn -0.7071067811865472 -0.0000000000000009 0.7071067811865478
v 0.0250000000000000 0.6243310000000000 0.9749960000000000
vn -0.7071067811865478 -0.0000000000000009 -0.7071067811865472
v 0.0250000000000000 0.6243310000000000 0.0250000000000000
vn 0.0797199579268106 -0.9839835575560893 -0.1594399158536212
v 0.8795780000000000 0.5843760000000000 0.1204220000000000
vn 0.1998624374791884 -0.9747147057504041 0.0999312187395942
v 0.8795780000000000 0.5843760000000000 0.8795740000000000
vn -0.0797199579268106 -0.9839835575560893 0.1594399158536212
v 0.1204220000000000 0.5843760000000000 0.8795740000000000
vn -0.1998624374791884 -0.9747147057504041 -0.0999312187395942
v 0.1204220000000000 0.5843760000000000 0.1204220000000000
vn 0.6809035621413762 0.6484311557474248 -0.3404517224501064
v 0.8595970000000001 0.5843760000000000 0.7397310000000000
vn 0.4146055029417249 0.3748484822594280 0.8292110058834499
v 0.8595970000000001 0.5843760000000000 0.8595970000000001
vn -0.6809042909983456 0.6484301374936176 0.3404522041198273
v 0.7397310000000000 0.5843760000000000 0.8595970000000001
vn -0.4146065285633125 0.3748428102063525 -0.8292130571266250
v 0.7397310000000000 0.5843760000000000 0.7397310000000000
vn 0.3261762236688305 -0.6841385109148577 -0.6523523350125622
v 0.8416210000000000 0.0250000000000000 0.7577100000000000
vn 0.8030094413794260 -0.4404200226140701 0.4015047206897130
v 0.8416210000000000 0.0250000000000000 0.8416210000000000
vn -0.3261765395386640 -0.6841375437157967 0.6523531914025549
v 0.7577100000000000 0.0250000000000000 0.8416210000000000
vn -0.8030071322738408 -0.4404252852603698 -0.4015035661369203
v 0.7577100000000000 0.0250000000000000 0.7577100000000000
vn 0.6809038351150225 0.6484308077031277 -0.3404518393945372
v 0.8595970000000001 0.5843760000000000 0.1403990000000000
vn 0.4146052564350233 0.3748497402462426 0.8292105604572177
v 0.8595970000000001 0.5843760000000000 0.2602650000000000
vn -0.6809040180253790 0.6484304855399353 0.3404520871713637
v 0.7397310000000000 0.5843760000000000 0.2602650000000000
vn -0.4146067750708345 0.3748415522116968 -0.8292135025437588
v 0.7397310000000000 0.5843760000000000 0.1403990000000000
vn 0.3261759716648774 -0.6841391473588786 -0.6523517935589198
v 0.8416210000000000 0.0250000000000000 0.1583790000000000
vn 0.8030096875369895 -0.4404194405897818 0.4015048668102669
v 0.8416210000000000 0.0250000000000000 0.2422900000000000
vn -0.3261767915448577 -0.6841369072712851 0.6523537328526476
v 0.7577100000000000 0.0250000000000000 0.2422900000000000
vn -0.8030068861162347 -0.4404258672797615 -0.4015034200113101
v 0.7577100000000000 0.0250000000000000 0.1583790000000000
vn 0.6809033191870832 0.6484314951672948 -0.3404515618926127
v 0.2602650000000000 0.5843760000000000 0.1403990000000000
vn 0.4146051610651300 0.3748503729367069 0.8292103221302600
v 0.2602650000000000 0.5843760000000000 0.2602650000000000
vn -0.6809045339486992 0.6484297980776162 0.3404523646754809
v 0.1403990000000000 0.5843760000000000 0.2602650000000000
vn -0.4146068704344427 0.3748409195149140 -0.8292137408688854
v 0.1403990000000000 0.5843760000000000 0.1403990000000000
vn 0.3261761183780804 -0.6841388333157818 -0.6523520495477341
v 0.2422900000000000 0.0250000000000000 0.1583790000000000
vn 0.8030102110772012 -0.4404182683906132 0.4015051055386006
v 0.2422900000000000 0.0250000000000000 0.2422900000000000
vn -0.3261766448278031 -0.6841372213173472 0.6523534768643886
v 0.1583790000000000 0.0250000000000000 0.2422900000000000
vn -0.8030063625678924 -0.4404270394677798 -0.4015031812839462
v 0.1583790000000000 0.0250000000000000 0.1583790000000000
vn 0.6809030462135853 0.6484318432107651 -0.3404514449482479
v 0.2602650000000000 0.5843760000000000 0.7397310000000000
vn 0.4146054075720878 0.3748491149509769 0.8292107675569897
v 0.2602650000000000 0.5843760000000000 0.8595970000000001
vn -0.6809048069218141 0.6484294500304716 0.3404524816240105
v 0.1403990000000000 0.5843760000000000 0.8595970000000001
vn -0.4146066239271768 0.3748421775106544 -0.8292132954522494
v 0.1403990000000000 0.5843760000000000 0.7397310000000000
vn 0.3261763703821231 -0.6841381968710116 -0.6523525910015417
v 0.2422900000000000 0.0250000000000000 0.7577100000000000
vn 0.8030099649200101 -0.4404188504159794 0.4015049594182262
v 0.2422900000000000 0.0250000000000000 0.8416210000000000
vn -0.3261763928216992 -0.6841378577611097 0.6523529354144612
v 0.1583790000000000 0.0250000000000000 0.8416210000000000
vn -0.8030066087258709 -0.4404264574494662 -0.4015033274097361
v 0.1583790000000000 0.0250000000000000 0.7577100000000000
# 44 vertices, 0 vertices normals


usemtl material_0
f 1//1 4//4 3//3
f 1//1 3//3 2//2
f 1//1 2//2 6//6
f 1//1 6//6 5//5
f 2//2 3//3 7//7
f 2//2 7//7 6//6
f 3//3 4//4 8//8
f 3//3 8//8 7//7
f 4//4 1//1 5//5
f 4//4 5//5 8//8
f 5//5 6//6 10//10
f 5//5 10//10 9//9
f 6//6 7//7 11//11
f 6//6 11//11 10//10
f 7//7 8//8 12//12
f 7//7 12//12 11//11
f 8//8 5//5 9//9
f 8//8 9//9 12//12
f 11//11 12//12 9//9
f 10//10 11//11 9//9
f 13//13 14//14 18//18
f 13//13 18//18 17//17
f 14//14 15//15 19//19
f 14//14 19//19 18//18
f 15//15 16//16 20//20
f 15//15 20//20 19//19
f 16//16 13//13 17//17
f 16//16 17//17 20//20
f 21//21 22//22 26//26
f 21//21 26//26 25//25
f 22//22 23//23 27//27
f 22//22 27//27 26//26
f 23//23 24//24 28//28
f 23//23 28//28 27//27
f 24//24 21//21 25//25
f 24//24 25//25 28//28
f 29//29 30//30 34//34
f 29//29 34//34 33//33
f 30//30 31//31 35//35
f 30//30 35//35 34//34
f 31//31 32//32 36//36
f 31//31 36//36 35//35
f 32//32 29//29 33//33
f 32//32 33//33 36//36
f 37//37 38//38 42//42
f 37//37 42//42 41//41
f 38//38 39//39 43//43
f 38//38 43//43 42//42
f 39//39 40//40 44//44
f 39//39 44//44 43//43
f 40//40 37//37 41//41
f 40//40 41//41 44//44

usemtl material_1
f 15//15 14//14 13//13

usemtl material_2
f 13//13 16//16 15//15

usemtl material_3
f 19//19 20//20 17//17

usemtl material_4
f 17//17 18//18 19//19

usemtl material_5
f 23//23 22//22 21//21

usemtl material_6
f 24//24 23//23 21//21

usemtl material_7
f 27//27 28//28 25//25

usemtl material_2
f 27//27 25//25 26//26

usemtl material_8
f 31//31 30//30 29//29

usemtl material_9
f 29//29 32//32 31//31

usemtl material_10
f 35//35 36//36 33//33

usemtl material_6
f 33//33 34//34 35//35

usemtl material_11
f 39//39 38//38 37//37

usemtl material_2
f 39//39 37//37 40//40

usemtl material_8
f 43//43 44//44 41//41

usemtl material_4
f 42//42 43//43 41//41
# 68 faces, 0 coords texture

# End of File
