####
#
# OBJ File Generated by Meshlab
#
####
# Object m59.obj
#
# Vertices: 44
# Faces: 85
#
####
mtllib ./m59.obj.mtl

vn -0.0000000000000001 0.0000000000000000 1.0000000000000000
v 0.1250000000000000 0.1250000000000000 0.0250000000000000
vn 0.0000000000000000 -0.9582662127817164 0.2858773608402490
v 0.1250000000000000 0.1650000000000000 0.1250000000000000
vn 0.6109541557749054 -0.7630981812619763 0.2107514775654885
v 0.1010000000000000 0.1450000000000000 0.1250000000000000
vn 0.9171876499133798 -0.2365543020402309 0.3206382338908303
v 0.0750000000000000 0.1250000000000000 0.1250000000000000
vn 0.6109406127923851 0.7630930576838488 0.2108092809996255
v 0.1010000000000000 0.1050000000000000 0.1250000000000000
vn -0.0000000000000001 0.9659980241815063 0.2585494484183367
v 0.1250000000000000 0.0850000000000000 0.1250000000000000
vn -0.6109406127923852 0.7630930576838488 0.2108092809996255
v 0.1490000000000000 0.1050000000000000 0.1250000000000000
vn -0.9171876499133798 -0.2365543020402310 0.3206382338908304
v 0.1750000000000000 0.1250000000000000 0.1250000000000000
vn -0.6109541557749055 -0.7630981812619761 0.2107514775654885
v 0.1490000000000000 0.1450000000000000 0.1250000000000000
vn -0.0000000000000000 -0.9933622347882624 0.1150281291531306
v 0.1250000000000000 0.2050000000000000 0.3250000000000000
vn 0.6308741303132607 -0.7742579928175616 0.0502234234158506
v 0.0750000000000000 0.1650000000000000 0.3250000000000000
vn 0.9982927902600607 0.0185420218320558 0.0553868065622314
v 0.0250000000000000 0.1250000000000000 0.3250000000000000
vn 0.6395851350709285 0.7675560183547772 0.0422920049614937
v 0.0750000000000000 0.0850000000000000 0.3250000000000000
vn -0.0000000000000000 0.9997322864751625 0.0231377479272189
v 0.1250000000000000 0.0450000000000000 0.3250000000000000
vn -0.6395851350709285 0.7675560183547772 0.0422920049614937
v 0.1750000000000000 0.0850000000000000 0.3250000000000000
vn -0.9982927902600607 0.0185420218320557 0.0553868065622315
v 0.2250000000000000 0.1250000000000000 0.3250000000000000
vn -0.6308741303132607 -0.7742579928175616 0.0502234234158506
v 0.1750000000000000 0.1650000000000000 0.3250000000000000
vn 0.0000000000000000 -0.9977407024745948 -0.0671825172608329
v 0.1250000000000000 0.1954000000000000 0.5050000000000000
vn 0.6970017493741658 -0.7130976203286382 -0.0753680651933300
v 0.0870000000000000 0.1602000000000000 0.5050000000000000
vn 0.9911489279670084 0.0244975933363249 -0.1304747887930004
v 0.0510000000000000 0.1250000000000000 0.5050000000000000
vn 0.6846036296702249 0.7251963153759372 -0.0735402910486335
v 0.0870000000000000 0.0898000000000000 0.5050000000000000
vn -0.0000000000000000 0.9969141986147698 -0.0784989210134215
v 0.1250000000000000 0.0546000000000000 0.5050000000000000
vn -0.6846036296702249 0.7251963153759372 -0.0735402910486335
v 0.1630000000000000 0.0898000000000000 0.5050000000000000
vn -0.9911489279670084 0.0244975933363251 -0.1304747887930004
v 0.1990000000000000 0.1250000000000000 0.5050000000000000
vn -0.6970017493741658 -0.7130976203286382 -0.0753680651933300
v 0.1630000000000000 0.1602000000000000 0.5050000000000000
vn -0.0000000000000000 -0.9938145240810604 -0.1110526529423566
v 0.1250000000000000 0.1850000000000000 0.6750000000000000
vn 0.7775945579975456 -0.6214104412338246 -0.0958945613587394
v 0.1010000000000000 0.1530000000000000 0.6750000000000000
vn 0.9858237965175449 0.0590225342783396 -0.1570598060201787
v 0.0750000000000000 0.1250000000000000 0.6750000000000000
vn 0.7748428033880420 0.6248719124008315 -0.0956750914830377
v 0.1010000000000000 0.0970000000000000 0.6750000000000000
vn 0.0000000000000001 0.9925037733387938 -0.1222139922768926
v 0.1250000000000000 0.0650000000000000 0.6750000000000000
vn -0.7748428033880421 0.6248719124008313 -0.0956750914830377
v 0.1490000000000000 0.0970000000000000 0.6750000000000000
vn -0.9858237965175449 0.0590225342783399 -0.1570598060201788
v 0.1750000000000000 0.1250000000000000 0.6750000000000000
vn -0.7775945579975458 -0.6214104412338246 -0.0958945613587394
v 0.1490000000000000 0.1530000000000000 0.6750000000000000
vn 0.0000000000000002 -0.9999755360678562 -0.0069948027708837
v 0.1250000000000000 0.1650000000000000 0.8250000000000000
vn 0.8675099886573274 -0.4973694277239938 -0.0070761532820240
v 0.1150000000000000 0.1450000000000000 0.8250000000000000
vn 0.9913367847763429 0.1082271346730605 -0.0744195301635408
v 0.1050000000000000 0.1250000000000000 0.8250000000000000
vn 0.8731741700300965 0.4868024650010280 -0.0242946261789512
v 0.1150000000000000 0.1050000000000000 0.8250000000000000
vn -0.6736215895511951 0.6783614643670078 -0.2933592980499685
v 0.1250000000000000 0.0850000000000000 0.8250000000000000
vn -0.8515275754906333 0.4747342935612734 0.2225491826449213
v 0.1350000000000000 0.1050000000000000 0.8250000000000000
vn -0.9913367847763428 0.1082271346730605 -0.0744195301635408
v 0.1450000000000000 0.1250000000000000 0.8250000000000000
vn -0.8675099886573274 -0.4973694277239935 -0.0070761532820241
v 0.1350000000000000 0.1450000000000000 0.8250000000000000
vn -0.0000000000000002 -0.9804774151166890 0.1966317330597883
v 0.1250000000000000 0.2250000000000000 0.9750000000000000
vn -0.0000000000000003 -0.0000000000000000 -1.0000000000000000
v 0.1250000000000000 0.1250000000000000 0.9250000000000000
vn -0.6132970510207389 0.7839887315712823 0.0960645406927901
v 0.1250000000000000 0.0250000000000000 0.9750000000000000
# 44 vertices, 0 vertices normals


usemtl material_0
f 7//7 8//8 1//1
f 28//28 29//29 21//21
f 36//36 37//37 29//29
f 42//42 36//36 35//35
f 41//41 42//42 34//34
f 15//15 23//23 24//24
f 29//29 30//30 22//22
f 9//9 17//17 10//10
f 7//7 15//15 16//16
f 17//17 25//25 18//18
f 26//26 27//27 19//19
f 32//32 40//40 41//41
f 18//18 19//19 11//11
f 33//33 41//41 34//34
f 5//5 6//6 1//1
f 6//6 7//7 1//1
f 10//10 11//11 3//3
f 30//30 38//38 39//39
f 23//23 31//31 32//32
f 37//37 38//38 30//30
f 31//31 39//39 40//40
f 43//43 44//44 36//36
f 44//44 43//43 40//40
f 12//12 13//13 5//5
f 19//19 20//20 12//12
f 36//36 44//44 37//37
f 43//43 42//42 40//40
f 11//11 12//12 4//4
f 13//13 14//14 6//6
f 8//8 16//16 17//17
f 42//42 35//35 34//34
f 2//2 3//3 1//1
f 3//3 4//4 1//1
f 25//25 33//33 26//26
f 4//4 5//5 1//1
f 35//35 36//36 28//28
f 40//40 42//42 41//41
f 21//21 22//22 14//14
f 38//38 44//44 39//39
f 20//20 21//21 13//13
f 14//14 22//22 23//23
f 24//24 32//32 33//33
f 34//34 35//35 27//27
f 9//9 2//2 1//1
f 8//8 9//9 1//1
f 27//27 28//28 20//20
f 38//38 44//44 40//40
f 6//6 14//14 15//15
f 16//16 24//24 25//25
f 22//22 30//30 31//31
f 42//42 43//43 36//36
f 7//7 16//16 8//8
f 27//27 20//20 19//19
f 25//25 26//26 18//18
f 35//35 28//28 27//27
f 18//18 11//11 10//10
f 16//16 25//25 17//17
f 15//15 24//24 16//16
f 13//13 6//6 5//5
f 9//9 10//10 2//2
f 10//10 3//3 2//2
f 33//33 34//34 26//26
f 30//30 39//39 31//31
f 36//36 29//29 28//28
f 11//11 4//4 3//3
f 17//17 18//18 10//10
f 14//14 23//23 15//15
f 26//26 19//19 18//18
f 29//29 22//22 21//21
f 21//21 14//14 13//13
f 22//22 31//31 23//23
f 8//8 17//17 9//9
f 34//34 27//27 26//26
f 24//24 33//33 25//25
f 37//37 30//30 29//29
f 32//32 41//41 33//33
f 12//12 5//5 4//4
f 28//28 21//21 20//20
f 23//23 32//32 24//24
f 6//6 15//15 7//7
f 19//19 12//12 11//11
f 20//20 13//13 12//12
f 31//31 40//40 32//32

usemtl material_1
f 40//40 38//38 37//37

usemtl material_2
f 39//39 40//40 37//37
# 85 faces, 0 coords texture

# End of File
