####
#
# OBJ File Generated by Meshlab
#
####
# Object m611.obj
#
# Vertices: 87
# Faces: 156
#
####
mtllib ./m611.obj.mtl

vn -1.8914017073679004 -1.0434454582344082 2.6363068039981403
v 0.4945320000000000 0.9113680000000000 0.1617940000000000
vn -0.4944243223522164 -3.0896060652871831 2.0511861011201251
v 0.4568310000000000 0.9562210000000000 0.1861820000000000
vn 0.0713708796634123 -3.7389577225555137 0.0069928198615091
v 0.4408490000000000 0.9750000000000000 0.2447680000000000
vn -0.4904969345913532 -3.0941150648989342 -2.0560089846971374
v 0.4568310000000000 0.9562210000000000 0.3037730000000000
vn -1.8043760049734048 -1.5118690037580782 -2.8968272990181623
v 0.4945320000000000 0.9113680000000000 0.3281660000000000
vn -3.1311912884835200 0.0672238445012717 -2.0538519084647060
v 0.5320950000000000 0.8662380000000000 0.3037730000000000
vn -2.3893745296527964 -0.4484067473993787 -0.1819154575731655
v 0.5477900000000000 0.8475980000000000 0.2447680000000000
vn 0.9330892079513980 -1.1108955505308347 -0.6034193865546708
v 0.5320950000000000 0.8662380000000000 0.1861820000000000
vn -3.4406642383231136 -2.1219899267373443 1.4359949840239030
v 0.3805800000000000 0.7389740000000000 0.1861820000000000
vn -3.9341953695795331 -1.4082747481482345 -0.5990323395468528
v 0.3961380000000000 0.7206090000000001 0.2447680000000000
vn -4.3289725209507868 -0.9600809962802095 -2.0312914716217061
v 0.3805800000000000 0.7389740000000000 0.3037730000000000
vn -3.0048244954259191 -2.5289661240895902 -2.9025701958567027
v 0.3427420000000000 0.7842410000000000 0.3281660000000000
vn -1.6870752874755761 -4.1055431852917534 -2.0470535893947006
v 0.3048980000000000 0.8292330000000000 0.3037730000000000
vn -1.1452142324768120 -4.7384723740246937 0.0008518927319783
v 0.2893400000000000 0.8477360000000000 0.2447680000000000
vn -1.6907340013105918 -4.1010785859259515 2.0507017925451589
v 0.3048980000000000 0.8292330000000000 0.1861820000000000
vn -3.0042812394146985 -2.5286326496479630 2.9030280362876089
v 0.3427420000000000 0.7842410000000000 0.1617940000000000
vn -1.8029766865994616 -1.5172056206991400 2.9018783747217776
v 0.3427420000000000 0.7842410000000000 0.1124570000000000
vn -0.4828527792539077 -3.0905208381692537 2.0559275928062593
v 0.2824680000000000 0.8558650000000000 0.1512830000000000
vn 0.0524606567891719 -3.7343676561655874 -0.0000593340544723
v 0.2578000000000000 0.8855800000000000 0.2447680000000000
vn -0.4806020064499484 -3.0942586537628616 -2.0505366764424040
v 0.2824680000000000 0.8558650000000000 0.3385340000000000
vn -1.7989628626267335 -1.5138286908584104 -2.8989012580721454
v 0.3427420000000000 0.7842410000000000 0.3776410000000000
vn -3.1240416118610774 0.0567612829193276 -2.0430406002021155
v 0.4031480000000000 0.7123420000000000 0.3385340000000000
vn -3.6732524995333828 0.7050434327454758 0.0011753505468826
v 0.4279540000000000 0.6827700000000000 0.2447680000000000
vn -3.1198876437773833 0.0552013339151585 2.0470779051618564
v 0.4031480000000000 0.7123420000000000 0.1512830000000000
vn 0.4939233234162612 3.0756930735631345 2.0402989843139063
v 0.1704860000000000 0.5170990000000000 0.1512830000000000
vn -0.0645792898177178 3.7407893420991645 0.0037239107930595
v 0.1955740000000000 0.4875280000000000 0.2447680000000000
vn 0.4884085170275866 3.0857198336216407 -2.0459109905632960
v 0.1704860000000000 0.5170990000000000 0.3385340000000000
vn 1.8018377348924435 1.5104593482173680 -2.9034206102321622
v 0.1103560000000000 0.5891420000000001 0.3776410000000000
vn 3.1232063148297078 -0.0539927880847448 -2.0450353782324244
v 0.0499500000000000 0.6607660000000000 0.3385340000000000
vn 3.6656870107744961 -0.7052741262409183 0.0010464289428718
v 0.0250000000000000 0.6904810000000000 0.2447680000000000
vn 3.1198363679816481 -0.0510240726838169 2.0485623575014089
v 0.0499500000000000 0.6607660000000000 0.1512830000000000
vn 1.8052002784554466 1.5146152390439256 2.9056246349950454
v 0.1103560000000000 0.5891420000000001 0.1124570000000000
vn -0.0659389723039803 -3.0583866826966704 1.3303559099296729
v 0.5034300000000000 0.9004310000000000 0.2527590000000000
vn 1.5778486949454491 1.3691452248059479 2.6976393459860581
v 0.5261360000000000 0.9375750000000000 0.2600440000000000
vn -1.6113777672875913 -1.3428374393591742 2.7285725875161715
v 0.4953010000000000 0.9103860000000000 0.2600440000000000
vn 0.0305184645502640 3.1497145058951479 1.3509459027233481
v 0.5180060000000000 0.9469670000000000 0.2527590000000000
vn -3.1804794840050650 0.4480464910695073 1.3799323990879737
v 0.4873100000000000 0.9200540000000000 0.2527590000000000
vn 0.0310608351701611 3.1517499512661415 -1.3502593233892319
v 0.5180060000000000 0.9469670000000000 0.2383210000000000
vn -3.1826255339266276 0.4477951635518753 -1.3792187834720941
v 0.4873100000000000 0.9200540000000000 0.2383210000000000
vn 1.5785754998820740 1.3642764063398312 -2.6966439208386532
v 0.5261360000000000 0.9375750000000000 0.2310360000000000
vn -1.6063712967689572 -1.3441815174614355 -2.7274071865033673
v 0.4953010000000000 0.9103860000000000 0.2310360000000000
vn 3.1961993076927988 -0.4366191759302778 -1.3895831391098539
v 0.5341270000000000 0.9279020000000000 0.2383210000000000
vn -0.0646000618020915 -3.0533747812758221 -1.3319763765191008
v 0.5034300000000000 0.9004310000000000 0.2383210000000000
vn 3.2018173888046793 -0.4359410621039508 1.3877090330135369
v 0.5341270000000000 0.9279020000000000 0.2527590000000000
vn -4.8548818497498454 -3.9885072870135341 0.0000000000000000
v 0.4953010000000000 0.9103860000000000 0.2456120000000000
vn 4.7973008667438393 4.0569797648315795 0.0000000000000000
v 0.5261360000000000 0.9375750000000000 0.2456120000000000
vn 1.1884268659345416 2.3599442119318295 2.6522166905727707
v 0.7184330000000000 0.0467240000000000 0.4573880000000000
vn -1.0433909779820592 2.3634187407102081 2.7130346928203490
v 0.5391670000000000 0.0467240000000000 0.4589320000000000
vn -2.6575590303699137 2.3697964121845243 1.1836356882812049
v 0.4116270000000000 0.0467240000000000 0.3332120000000000
vn -2.7189094092904971 2.3723413807814362 -1.0369259527545718
v 0.4100830000000000 0.0467240000000000 0.1543660000000000
vn -1.1884994710549615 2.3599649465407468 -2.6521439359960013
v 0.5353840000000000 0.0467240000000000 0.0265440000000000
vn 1.0416057270060008 2.3648642350154891 -2.7147189689692679
v 0.7146500000000000 0.0467240000000000 0.0250000000000000
vn 2.6532065702341763 2.3513901233300043 -1.1813517984031467
v 0.8424710000000000 0.0467240000000000 0.1505820000000000
vn 2.7111811779852069 2.3467491353513248 1.0385290872997017
v 0.8440150000000000 0.0467240000000000 0.3295670000000000
vn 2.6672351551524063 -2.3713673552182963 1.1618048396605756
v 0.8431710000000000 0.0250000000000000 0.3313870000000000
vn 1.0594957288039613 -2.3549373565764040 2.7049775288556797
v 0.7164700000000001 0.0250000000000000 0.4582320000000000
vn -1.1602797695692912 -2.3519962986514509 2.6621209551474352
v 0.5373470000000000 0.0250000000000000 0.4582320000000000
vn -2.7037005850132676 -2.3500715721738032 1.0609774641701271
v 0.4107830000000000 0.0250000000000000 0.3313870000000000
vn -2.6618782068825957 -2.3470832244841766 -1.1602627118875768
v 0.4107830000000000 0.0250000000000000 0.1524020000000000
vn -1.0594711126342999 -2.3549572773575740 -2.7050011443133668
v 0.5373470000000000 0.0250000000000000 0.0257000000000000
vn 1.1584327016060831 -2.3538648381732967 -2.6640344045511659
v 0.7164700000000001 0.0250000000000000 0.0257000000000000
vn 2.7059272298293537 -2.3669358464074288 -1.0653982697808952
v 0.8431710000000000 0.0250000000000000 0.1524020000000000
vn 0.0000000000000000 -6.2831853071795871 0.0000000000000000
v 0.6269110000000000 0.0250000000000000 0.2418280000000000
vn 2.7198693993448462 -2.0933392457043172 -0.0000000000000012
v 0.6412060000000001 0.0426590000000000 0.2450490000000000
vn 1.3599346996724255 -2.0949230307376352 -2.3569125477821107
v 0.6339150000000000 0.0426590000000000 0.2324360000000000
vn -1.3602149663550058 -2.0945664000474231 -2.3564275033505337
v 0.6193390000000000 0.0426590000000000 0.2324360000000000
vn -2.7204299327100130 -2.0940525070847413 -0.0000000000000017
v 0.6120540000000000 0.0426590000000000 0.2450490000000000
vn -1.3602149663550072 -2.0945664000474222 2.3564275033505293
v 0.6193390000000000 0.0426590000000000 0.2576620000000000
vn 1.3599346996724262 -2.0949230307376339 2.3569125477821129
v 0.6339150000000000 0.0426590000000000 0.2576620000000000
vn -0.2885843151749101 2.4966404837820955 2.4405834155209170
v 0.4748350000000000 0.8145190000000000 0.2576620000000000
vn -2.3920073263075725 0.7165644899447161 2.3424651604188580
v 0.4636230000000000 0.8052640000000000 0.2576620000000000
vn -3.5198006314463415 -0.2025732216827929 -0.0015052753945358
v 0.4582950000000000 0.8004990000000000 0.2450490000000000
vn -2.3910311411566778 0.7141393982549957 -2.3410304038728014
v 0.4636230000000000 0.8052640000000000 0.2324360000000000
vn -0.2885843151749110 2.4966404837820959 -2.4405834155209205
v 0.4748350000000000 0.8145190000000000 0.2324360000000000
vn 0.7259658923077914 3.2764942396510999 -0.0000000000000015
v 0.4804440000000000 0.8195590000000000 0.2450490000000000
vn 4.5059589767002217 2.2195714034840202 -0.0000000000000023
v 0.5918690000000000 0.6831900000000000 0.2450490000000000
vn 2.5383789012016407 1.3444747508682744 -4.3187867812309024
v 0.5848590000000000 0.6813640000000000 0.2324360000000000
vn -2.2166934794201749 -1.1191253050835062 -5.0200631587485463
v 0.5707020000000000 0.6775810000000000 0.2324360000000000
vn -5.0271506405337334 -2.7136381077384795 -0.0036962105594960
v 0.5635550000000000 0.6754800000000000 0.2450490000000000
vn -2.2146555512488595 -1.1175192336076445 5.0227089219304339
v 0.5707020000000000 0.6775810000000000 0.2576620000000000
vn 2.5383789012016411 1.3444747508682746 4.3187867812308980
v 0.5848590000000000 0.6813640000000000 0.2576620000000000
vn 2.7934866878350060 0.3749624446983200 4.5006003397159899
v 0.6339150000000000 0.4945320000000000 0.2576620000000000
vn -2.5757204549303694 -0.3256392949805886 4.8911204318979502
v 0.6193390000000000 0.4945320000000000 0.2576620000000000
vn -5.5891843017656981 -0.7657240614832819 -0.0020154752665970
v 0.6120540000000000 0.4945320000000000 0.2450490000000000
vn -2.5771094343245755 -0.3233347149595784 -4.8897803203160759
v 0.6193390000000000 0.4945320000000000 0.2324360000000000
vn 2.7934866878350046 0.3749624446983198 -4.5006003397159953
v 0.6339150000000000 0.4945320000000000 0.2324360000000000
vn 5.1581897909726200 0.6376586901257273 -0.0000000000000023
v 0.6412060000000001 0.4945320000000000 0.2450490000000000
# 87 vertices, 0 vertices normals


usemtl material_0
vt -1.0000000000000000 -1.0000000000000000
f 3/1/3 4/1/4 13/1/13
f 4/1/4 12/1/12 13/1/13
f 4/1/4 5/1/5 12/1/12
f 5/1/5 11/1/11 12/1/12
f 5/1/5 6/1/6 11/1/11
f 6/1/6 10/1/10 11/1/11
f 6/1/6 7/1/7 10/1/10
f 9/1/9 1/1/1 16/1/16
f 10/1/10 24/1/24 23/1/23
f 13/1/13 21/1/21 20/1/20
f 13/1/13 12/1/12 21/1/21
f 14/1/14 20/1/20 19/1/19
f 14/1/14 13/1/13 20/1/20
f 15/1/15 19/1/19 18/1/18
f 16/1/16 18/1/18 17/1/17
f 17/1/17 18/1/18 31/1/31
f 18/1/18 19/1/19 30/1/30
f 19/1/19 29/1/29 30/1/30
f 19/1/19 20/1/20 29/1/29
f 20/1/20 28/1/28 29/1/29
f 21/1/21 22/1/22 27/1/27
f 23/1/23 25/1/25 26/1/26
f 3/1/3 1/1/1 4/1/4
f 5/1/5 4/1/4 1/1/1
f 5/1/5 1/1/1 6/1/6
f 6/1/6 1/1/1 7/1/7
f 9/1/9 7/1/7 1/1/1
f 1/1/1 3/1/3 2/1/2
f 15/1/15 16/1/16 1/1/1
f 1/1/1 2/1/2 15/1/15
f 14/1/14 15/1/15 2/1/2
f 2/1/2 3/1/3 14/1/14
f 13/1/13 14/1/14 3/1/3
f 7/1/7 9/1/9 8/1/8
f 24/1/24 16/1/16 17/1/17
f 9/1/9 16/1/16 24/1/24
f 10/1/10 9/1/9 24/1/24
f 23/1/23 22/1/22 11/1/11
f 11/1/11 10/1/10 23/1/23
f 22/1/22 21/1/21 12/1/12
f 12/1/12 11/1/11 22/1/22
f 14/1/14 19/1/19 15/1/15
f 15/1/15 18/1/18 16/1/16
f 31/1/31 32/1/32 17/1/17
f 30/1/30 31/1/31 18/1/18
f 21/1/21 28/1/28 20/1/20
f 28/1/28 21/1/21 27/1/27
f 22/1/22 26/1/26 27/1/27
f 23/1/23 26/1/26 22/1/22
f 24/1/24 25/1/25 23/1/23
f 32/1/32 25/1/25 17/1/17
f 25/1/25 24/1/24 17/1/17
f 34/1/34 35/1/35 33/1/33
f 33/1/33 44/1/44 34/1/34
f 44/1/44 33/1/33 43/1/43
f 43/1/43 33/1/33 45/1/45
f 34/1/34 44/1/44 46/1/46
f 33/1/33 35/1/35 45/1/45
f 35/1/35 34/1/34 36/1/36
f 35/1/35 36/1/36 37/1/37
f 36/1/36 34/1/34 46/1/46
f 35/1/35 37/1/37 45/1/45
f 37/1/37 36/1/36 38/1/38
f 37/1/37 38/1/38 39/1/39
f 38/1/38 36/1/36 46/1/46
f 37/1/37 39/1/39 45/1/45
f 39/1/39 38/1/38 40/1/40
f 39/1/39 40/1/40 41/1/41
f 40/1/40 38/1/38 46/1/46
f 39/1/39 41/1/41 45/1/45
f 41/1/41 40/1/40 42/1/42
f 41/1/41 42/1/42 43/1/43
f 42/1/42 40/1/40 46/1/46
f 41/1/41 43/1/43 45/1/45
f 43/1/43 42/1/42 44/1/44
f 44/1/44 42/1/42 46/1/46
f 54/1/54 53/1/53 52/1/52
f 54/1/54 52/1/52 51/1/51
f 54/1/54 51/1/51 50/1/50
f 54/1/54 50/1/50 49/1/49
f 54/1/54 49/1/49 48/1/48
f 54/1/54 48/1/48 47/1/47
f 47/1/47 56/1/56 55/1/55
f 47/1/47 55/1/55 54/1/54
f 54/1/54 55/1/55 62/1/62
f 62/1/62 55/1/55 63/1/63
f 55/1/55 56/1/56 63/1/63
f 56/1/56 47/1/47 48/1/48
f 56/1/56 48/1/48 57/1/57
f 56/1/56 57/1/57 63/1/63
f 57/1/57 48/1/48 49/1/49
f 57/1/57 49/1/49 58/1/58
f 57/1/57 58/1/58 63/1/63
f 58/1/58 49/1/49 50/1/50
f 58/1/58 50/1/50 59/1/59
f 58/1/58 59/1/59 63/1/63
f 59/1/59 50/1/50 51/1/51
f 59/1/59 51/1/51 60/1/60
f 59/1/59 60/1/60 63/1/63
f 60/1/60 51/1/51 52/1/52
f 60/1/60 52/1/52 61/1/61
f 60/1/60 61/1/61 63/1/63
f 61/1/61 52/1/52 53/1/53
f 61/1/61 53/1/53 62/1/62
f 61/1/61 62/1/62 63/1/63
f 62/1/62 53/1/53 54/1/54
f 75/1/75 81/1/81 76/1/76
f 75/1/75 70/1/70 81/1/81
f 71/1/71 80/1/80 81/1/81
f 71/1/71 81/1/81 70/1/70
f 72/1/72 79/1/79 80/1/80
f 72/1/72 80/1/80 71/1/71
f 73/1/73 78/1/78 79/1/79
f 73/1/73 79/1/79 72/1/72
f 74/1/74 77/1/77 78/1/78
f 74/1/74 78/1/78 73/1/73
f 75/1/75 76/1/76 77/1/77
f 75/1/75 77/1/77 74/1/74
f 76/1/76 87/1/87 86/1/86
f 76/1/76 86/1/86 77/1/77
f 77/1/77 86/1/86 85/1/85
f 77/1/77 85/1/85 78/1/78
f 78/1/78 85/1/85 84/1/84
f 78/1/78 84/1/84 79/1/79
f 79/1/79 84/1/84 83/1/83
f 79/1/79 83/1/83 80/1/80
f 80/1/80 83/1/83 82/1/82
f 80/1/80 82/1/82 81/1/81
f 76/1/76 82/1/82 87/1/87
f 76/1/76 81/1/81 82/1/82
f 87/1/87 69/1/69 64/1/64
f 87/1/87 82/1/82 69/1/69
f 83/1/83 68/1/68 69/1/69
f 83/1/83 69/1/69 82/1/82
f 84/1/84 67/1/67 68/1/68
f 84/1/84 68/1/68 83/1/83
f 85/1/85 66/1/66 67/1/67
f 85/1/85 67/1/67 84/1/84
f 86/1/86 65/1/65 66/1/66
f 86/1/86 66/1/66 85/1/85
f 87/1/87 64/1/64 65/1/65
f 87/1/87 65/1/65 86/1/86
f 32/1/32 31/1/31 30/1/30
f 26/1/26 25/1/25 32/1/32
f 27/1/27 26/1/26 32/1/32
f 28/1/28 27/1/27 32/1/32
f 28/1/28 32/1/32 30/1/30
f 29/1/29 28/1/28 30/1/30
f 71/1/71 70/1/70 75/1/75
f 75/1/75 74/1/74 73/1/73
f 73/1/73 72/1/72 71/1/71
f 75/1/75 73/1/73 71/1/71
f 65/1/65 64/1/64 69/1/69
f 66/1/66 65/1/65 69/1/69
f 66/1/66 69/1/69 68/1/68
f 67/1/67 66/1/66 68/1/68
# 156 faces, 1 coords texture

# End of File
