####
#
# OBJ File Generated by Meshlab
#
####
# Object m613.obj
#
# Vertices: 136
# Faces: 232
#
####
mtllib ./m613.obj.mtl

vn 0.8156558864395512 0.5717496943894359 -0.0883615407408475
v 0.1609180000000000 0.0767780000000000 0.1481100000000000
vn 0.7118199860351194 0.5717589837194674 0.4079264296623156
v 0.1596820000000000 0.0767780000000000 0.1519150000000000
vn 0.8156627091180900 -0.5717496943894360 0.0882985386046938
v 0.1609180000000000 0.0508890000000000 0.1481100000000000
vn 0.6079571879298802 -0.5717589837194674 0.5508899365394816
v 0.1596820000000000 0.0508890000000000 0.1519150000000000
vn 0.0000000000000000 -1.0000000000000000 0.0000000000000000
v 0.1544460000000000 0.0508890000000000 0.1481100000000000
vn 0.0000000000000000 1.0000000000000000 0.0000000000000000
v 0.1544460000000000 0.0767780000000000 0.1481100000000000
vn 0.3360592778788967 0.5717527760714934 0.7484403281531902
v 0.1564460000000000 0.0767780000000000 0.1542660000000000
vn 0.1680296389394484 -0.5717527760714934 0.8030347461302152
v 0.1564460000000000 0.0508890000000000 0.1542660000000000
vn -0.1680296389394484 0.5717527760714934 0.8030347461302152
v 0.1524460000000000 0.0767780000000000 0.1542660000000000
vn -0.3360592778788967 -0.5717527760714934 0.7484403281531902
v 0.1524460000000000 0.0508890000000000 0.1542660000000000
vn -0.6079571879298802 0.5717589837194674 0.5508899365394816
v 0.1492100000000000 0.0767780000000000 0.1519150000000000
vn -0.7118199860351194 -0.5717589837194674 0.4079264296623156
v 0.1492100000000000 0.0508890000000000 0.1519150000000000
vn -0.8156627091180900 0.5717496943894360 0.0882985386046938
v 0.1479740000000000 0.0767780000000000 0.1481100000000000
vn -0.8156558864395512 -0.5717496943894359 -0.0883615407408475
v 0.1479740000000000 0.0508890000000000 0.1481100000000000
vn -0.7118010578096297 0.5717547404294819 -0.4079654040448870
v 0.1492100000000000 0.0767780000000000 0.1443060000000000
vn -0.6079458532573917 -0.5717547404294819 -0.5509068490258201
v 0.1492100000000000 0.0508890000000000 0.1443060000000000
vn -0.3360592778788967 0.5717527760714934 -0.7484403281531902
v 0.1524460000000000 0.0767780000000000 0.1419550000000000
vn -0.1680296389394484 -0.5717527760714934 -0.8030347461302152
v 0.1524460000000000 0.0508890000000000 0.1419550000000000
vn 0.1680296389394484 0.5717527760714934 -0.8030347461302152
v 0.1564460000000000 0.0767780000000000 0.1419550000000000
vn 0.3360592778788967 -0.5717527760714934 -0.7484403281531902
v 0.1564460000000000 0.0508890000000000 0.1419550000000000
vn 0.6079458532573917 0.5717547404294819 -0.5509068490258201
v 0.1596820000000000 0.0767780000000000 0.1443060000000000
vn 0.7118010578096297 -0.5717547404294819 -0.4079654040448869
v 0.1596820000000000 0.0508890000000000 0.1443060000000000
vn -0.4082482904638631 -0.8164965809277261 -0.4082482904638631
v 0.1479740000000000 0.0727010000000000 0.1416380000000000
vn 0.6666666666666666 -0.3333333333333333 -0.6666666666666666
v 0.1609180000000000 0.0727010000000000 0.1416380000000000
vn 0.5773502691896258 0.5773502691896258 -0.5773502691896258
v 0.1609180000000000 0.6681520000000000 0.1416380000000000
vn -0.5773502691896258 0.5773502691896258 -0.5773502691896258
v 0.1479740000000000 0.6681520000000000 0.1416380000000000
vn -0.8164965809277261 -0.4082482904638631 0.4082482904638631
v 0.1479740000000000 0.0727010000000000 0.1545830000000000
vn 0.3333333333333333 -0.6666666666666666 0.6666666666666666
v 0.1609180000000000 0.0727010000000000 0.1545830000000000
vn 0.6666666666666666 0.6666666666666666 0.3333333333333333
v 0.1609180000000000 0.6681520000000000 0.1545830000000000
vn -0.4082482904638631 0.4082482904638631 0.8164965809277261
v 0.1479740000000000 0.6681520000000000 0.1545830000000000
vn -0.4082482904638631 -0.8164965809277261 -0.4082482904638631
v 0.1932800000000000 0.0468120000000000 0.1740000000000000
vn 0.6666666666666666 -0.3333333333333333 -0.6666666666666666
v 0.2062240000000000 0.0468120000000000 0.1740000000000000
vn 0.5773502691896258 0.5773502691896258 -0.5773502691896258
v 0.2062240000000000 0.6422630000000000 0.1740000000000000
vn -0.5773502691896258 0.5773502691896258 -0.5773502691896258
v 0.1932800000000000 0.6422630000000000 0.1740000000000000
vn -0.8164965809277261 -0.4082482904638631 0.4082482904638631
v 0.1932800000000000 0.0468120000000000 0.1869440000000000
vn 0.3333333333333333 -0.6666666666666666 0.6666666666666666
v 0.2062240000000000 0.0468120000000000 0.1869440000000000
vn 0.6666666666666666 0.6666666666666666 0.3333333333333333
v 0.2062240000000000 0.6422630000000000 0.1869440000000000
vn -0.4082482904638631 0.4082482904638631 0.8164965809277261
v 0.1932800000000000 0.6422630000000000 0.1869440000000000
vn -0.4082482904638631 -0.8164965809277261 -0.4082482904638631
v 0.1932800000000000 0.0468120000000000 0.1092770000000000
vn 0.6666666666666666 -0.3333333333333333 -0.6666666666666666
v 0.2062240000000000 0.0468120000000000 0.1092770000000000
vn 0.5773502691896258 0.5773502691896258 -0.5773502691896258
v 0.2062240000000000 0.6422630000000000 0.1092770000000000
vn -0.5773502691896258 0.5773502691896258 -0.5773502691896258
v 0.1932800000000000 0.6422630000000000 0.1092770000000000
vn -0.8164965809277261 -0.4082482904638631 0.4082482904638631
v 0.1932800000000000 0.0468120000000000 0.1222210000000000
vn 0.3333333333333333 -0.6666666666666666 0.6666666666666666
v 0.2062240000000000 0.0468120000000000 0.1222210000000000
vn 0.6666666666666666 0.6666666666666666 0.3333333333333333
v 0.2062240000000000 0.6422630000000000 0.1222210000000000
vn -0.4082482904638631 0.4082482904638631 0.8164965809277261
v 0.1932800000000000 0.6422630000000000 0.1222210000000000
vn -0.3816550360516254 0.9027008971143383 -0.1986718998887395
v 0.7816670000000000 0.8830690000000000 0.1387890000000000
vn 0.7967511126634933 -0.0860970276389027 0.5981429313309915
v 0.9463430000000000 0.7624960000000000 0.2519350000000000
vn 0.3816565423355127 -0.9027003769523686 0.1986713697102641
v 0.8557730000000000 0.7077920000000000 0.1773650000000000
vn 0.3737607877677144 -0.1971022405752905 0.9063407638893100
v 0.8830910000000000 0.7458970000000000 0.2980210000000000
vn -0.1190050210204528 -0.4054419442894139 0.9063413456213621
v 0.8094050000000000 0.7147420000000000 0.2980210000000000
vn -0.4933402201429283 -0.6315394502303368 0.5981415802233541
v 0.7534290000000000 0.6809330000000000 0.2519350000000000
vn -0.6062522264890920 -0.7890281281678309 0.0994628113265837
v 0.7365450000000000 0.6573830000000001 0.1773650000000000
vn -0.4146081592291497 -0.8177561812159853 -0.3992178633073234
v 0.7652020000000000 0.6530870000000000 0.1027950000000000
vn 0.0083843989415329 -0.7067464473612076 -0.7074172467481276
v 0.8284540000000000 0.6696870000000000 0.0567090000000000
vn 0.5011491828384587 -0.4984090400414666 -0.7074163733935545
v 0.9021400000000001 0.7008410000000000 0.0567090000000000
vn 0.8754823541797778 -0.2723154211931793 -0.3992179340914124
v 0.9581160000000000 0.7346500000000000 0.1027950000000000
vn 0.9883939343921483 -0.1148248473891006 0.0994619770509286
v 0.9750000000000000 0.7582000000000000 0.1773650000000000
vn 0.0544174231063027 0.9728964746536753 -0.2247469547489356
v 0.8026140000000000 0.9332480000000000 0.1310740000000000
vn 0.5927030829103632 0.7019989131503782 0.3948424767476760
v 0.7940170000000000 0.9345360000000000 0.1534450000000000
vn 0.9030184781125643 -0.3710515555928940 0.2165141364423148
v 0.8396670000000001 0.8456090000000001 0.1503620000000000
vn 0.7355506735351960 -0.1785637352001951 0.6535137329339561
v 0.8310700000000000 0.8468980000000000 0.1727330000000000
vn 0.0334263065613294 0.7839413510328905 0.6199343837620190
v 0.7750410000000000 0.9295560000000000 0.1672710000000000
vn 0.3108463996548916 -0.3037339316690756 0.9006221264073169
v 0.8120940000000000 0.8419180000000001 0.1865590000000000
vn -0.4585433692740066 0.7209678249536750 0.5195607509006134
v 0.7529350000000000 0.9202100000000000 0.1672710000000000
vn -0.2973550129072394 -0.2900265830890275 0.9096507997031823
v 0.7899880000000000 0.8325720000000000 0.1865590000000000
vn -0.8208103934222181 0.3801613382906336 0.4263187245701722
v 0.7361430000000000 0.9100670000000000 0.1534450000000000
vn -0.1781728060549609 -0.8773615064975462 0.4455235550437905
v 0.7731960000000000 0.8224290000000000 0.1727330000000000
vn -0.9981624364213265 -0.0499670065895657 0.0342789843770150
v 0.7310780000000000 0.9030020000000000 0.1310740000000000
vn -0.1206774575052101 -0.9854398457299353 0.1197717065831479
v 0.7681310000000000 0.8153640000000000 0.1503620000000000
vn -0.7535250372832939 0.4834471576356892 -0.4455096676405392
v 0.7396750000000000 0.9017140000000000 0.1087030000000000
vn -0.4698768887849503 -0.6855592542467703 -0.5560793273467262
v 0.7767280000000000 0.8140750000000000 0.1279910000000000
vn -0.4698439579145696 0.2483009011287233 -0.8471087992163912
v 0.7586500000000000 0.9066940000000000 0.0948780000000000
vn 0.1255839048814911 -0.7285002046743537 -0.6734360657286936
v 0.7957030000000000 0.8190550000000000 0.1141650000000000
vn -0.0013284522544450 0.4346088496298160 -0.9006183337230348
v 0.7807560000000000 0.9160400000000000 0.0948780000000000
vn 0.5856478700948977 -0.5222029346414030 -0.6199360187190420
v 0.8178090000000000 0.8284020000000000 0.1141650000000000
vn 0.5679826929984982 0.4534961087834481 -0.6868310853277135
v 0.7975490000000000 0.9261830000000000 0.1087030000000000
vn 0.9053878028683403 -0.3135877495789990 -0.2862440387697503
v 0.8346020000000000 0.8385440000000000 0.1279910000000000
vn -0.9006775471499426 0.1486834995264030 -0.4082562590194362
v 0.1489270000000000 0.6788630000000000 0.1416380000000000
vn -0.1214271437307184 -0.7354063981459390 -0.6666579920254584
v 0.1527530000000000 0.6664970000000000 0.1416380000000000
vn 0.7221852766480693 -0.3809226694956099 -0.5773615384289899
v 0.7216100000000000 0.8424630000000000 0.1416380000000000
vn 0.3809301045401459 0.7221993726316510 -0.5773390006101123
v 0.7177840000000000 0.8548289999999999 0.1416380000000000
vn -0.6313087720228552 0.6593755085976803 0.4082562590194362
v 0.1489270000000000 0.6788630000000000 0.1545830000000000
vn -0.5383674440065099 -0.5154877466075032 0.6666579920254584
v 0.1527530000000000 0.6664970000000000 0.1545830000000000
vn 0.8339131535134972 -0.4398544734091304 0.3333420084825058
v 0.7216100000000000 0.8424630000000000 0.1545830000000000
vn 0.2693608887251566 0.5106770573663351 0.8164886127220973
v 0.7177840000000000 0.8548289999999999 0.1545830000000000
vn -0.9006775471499426 0.1486834995264030 -0.4082562590194362
v 0.1489270000000000 0.6270850000000000 0.1416380000000000
vn -0.1214281222503003 -0.7354064520357112 -0.6666577543470212
v 0.1527530000000000 0.6147190000000000 0.1416380000000000
vn 0.7221831776117182 -0.3809328412764414 -0.5773574528935249
v 0.7216100000000000 0.7906840000000001 0.1416380000000000
vn 0.3809368997936217 0.7221922757780128 -0.5773433945081549
v 0.7177840000000000 0.8030510000000000 0.1416380000000000
vn -0.6313087720228552 0.6593755085976803 0.4082562590194362
v 0.1489270000000000 0.6270850000000000 0.1545830000000000
vn -0.5383677629720462 -0.5154877208639033 0.6666577543470212
v 0.1527530000000000 0.6147190000000000 0.1545830000000000
vn 0.8339087626731302 -0.4398651812701027 0.3333388633855774
v 0.7216100000000000 0.7906840000000001 0.1545830000000000
vn 0.2693646687461122 0.5106700958645293 0.8164917197504270
v 0.7177840000000000 0.8030510000000000 0.1545830000000000
vn 0.8192913223602988 0.3290459538171486 0.4695641483138124
v 0.2591700000000000 0.0508890000000000 0.2241970000000000
vn 0.6997581510330715 -0.3290459538171486 0.6340877623321081
v 0.2591700000000000 0.0250000000000000 0.2241970000000000
vn 0.3360683878024424 0.5717537873066455 0.7484354651006153
v 0.1944470000000000 0.0508890000000000 0.2712210000000000
vn 0.1680341939012212 -0.5717537873066455 0.8030330730302918
v 0.1944470000000000 0.0250000000000000 0.2712210000000000
vn -0.1680341939012212 0.5717537873066455 0.8030330730302918
v 0.1144450000000000 0.0508890000000000 0.2712210000000000
vn -0.3360683878024424 -0.5717537873066455 0.7484354651006153
v 0.1144450000000000 0.0250000000000000 0.2712210000000000
vn -0.6079537723133962 0.5717539083818135 0.5508989734788330
v 0.0497220000000000 0.0508890000000000 0.2241970000000000
vn -0.7118048561738494 -0.5717539083818135 0.4079599428589115
v 0.0497220000000000 0.0250000000000000 0.2241970000000000
vn -0.8156554310296977 0.5717537907734850 0.0883392357217791
v 0.0250000000000000 0.0508890000000000 0.1481100000000000
vn -0.4949059479912223 -0.8672916879256917 -0.0536025251076288
v 0.0250000000000000 0.0250000000000000 0.1481100000000000
vn -0.7118039095725621 0.5717536962054450 -0.4079618918387200
v 0.0497220000000000 0.0508890000000000 0.0720240000000000
vn -0.6997574142544362 -0.3290457920467099 -0.6340886593626311
v 0.0497220000000000 0.0250000000000000 0.0720240000000000
vn -0.3360683878024424 0.5717537873066455 -0.7484354651006152
v 0.1144450000000000 0.0508890000000000 0.0250000000000000
vn -0.1680341939012212 -0.5717537873066455 -0.8030330730302918
v 0.1144450000000000 0.0250000000000000 0.0250000000000000
vn 0.1680341939012212 0.5717537873066455 -0.8030330730302918
v 0.1944470000000000 0.0508890000000000 0.0250000000000000
vn 0.3360683878024424 -0.5717537873066455 -0.7484354651006152
v 0.1944470000000000 0.0250000000000000 0.0250000000000000
vn 0.6997574142544362 0.3290457920467099 -0.6340886593626310
v 0.2591700000000000 0.0508890000000000 0.0720240000000000
vn 0.7118039095725622 -0.5717536962054450 -0.4079618918387198
v 0.2591700000000000 0.0250000000000000 0.0720240000000000
vn 0.3356993065525379 0.9412672267033607 -0.0363590912195202
v 0.2838920000000000 0.0508890000000000 0.1481100000000000
vn 0.4949061550332692 -0.8672916879256917 0.0536006134777412
v 0.2838920000000000 0.0250000000000000 0.1481100000000000
vn 0.8447404774095504 -0.5298300952456040 0.0754559208937169
v 0.8163830000000000 0.8682430000000000 0.1493960000000000
vn 0.7667179607363597 -0.3452932115141137 0.5412173008751175
v 0.8156170000000000 0.8700550000000000 0.1528790000000000
vn -0.3371744368046399 -0.6707099776045236 0.6606523481432678
v 0.7917720000000000 0.8599740000000000 0.1528790000000000
vn -0.9210669389868532 -0.3894042806482190 -0.0000108734390663
v 0.7900680000000000 0.8640040000000000 0.1481100000000000
vn 0.9210812631734741 0.3893703976761044 0.0000066565693800
v 0.8139130000000000 0.8740860000000000 0.1481100000000000
vn 0.5970282027688376 0.0561339189766205 0.8002539023578316
v 0.8142000000000000 0.8734070000000000 0.1545410000000000
vn -0.5246163005330403 -0.2274374290276778 0.8203962171367606
v 0.7903550000000000 0.8633250000000000 0.1545410000000000
vn 0.4003880191447355 0.5212554071496454 0.7536459610736413
v 0.8126740000000000 0.8770180000000000 0.1537460000000000
vn -0.7127933639372929 0.2176625775375278 0.6667447957552257
v 0.7888280000000000 0.8669360000000000 0.1537460000000000
vn 0.2520059882272626 0.8722379845837509 0.4191585382010929
v 0.8116210000000000 0.8795090000000000 0.1507990000000000
vn -0.8298508330586621 0.4945416688179986 0.2584107828140180
v 0.7877750000000000 0.8694269999999999 0.1507990000000000
vn 0.2085011195022977 0.9751074021098158 -0.0754508947391255
v 0.8114430000000000 0.8799290000000000 0.1468250000000000
vn -0.8310796641878822 0.4974779843537324 -0.2486407988579197
v 0.7875980000000000 0.8698470000000000 0.1468250000000000
vn 0.2865152479669805 0.7905532577988279 -0.5412342923966289
v 0.8122090000000000 0.8781170000000000 0.1433420000000000
vn -0.7160462129708727 0.2254038484994957 -0.6606594629396358
v 0.7883640000000000 0.8680350000000000 0.1433420000000000
vn 0.4562541677877679 0.3891049173025491 -0.8002683910459465
v 0.8136260000000000 0.8747650000000000 0.1416800000000000
vn -0.5286357283033166 -0.2179119145780573 -0.8204015262334337
v 0.7897810000000000 0.8646830000000000 0.1416800000000000
vn 0.6528928726829343 -0.0760069178094391 -0.7536271261339621
v 0.8151530000000000 0.8711540000000000 0.1424750000000000
vn -0.3404702636506824 -0.6629674910564120 -0.6667489072896940
v 0.7913070000000000 0.8610730000000000 0.1424750000000000
vn 0.8012713420140273 -0.4269755859346788 -0.4191134518036583
v 0.8162060000000000 0.8686630000000000 0.1454220000000000
vn -0.2234268736148370 -0.9398352833689955 -0.2584377532045572
v 0.7923600000000000 0.8585820000000000 0.1454220000000000
vn -0.2221691412504697 -0.9427774063656533 0.2486194576506045
v 0.7925380000000000 0.8581620000000000 0.1493960000000000
# 136 vertices, 0 vertices normals


usemtl material_0
f 1//1 2//2 3//3
f 2//2 4//4 3//3
f 5//5 3//3 4//4
f 6//6 2//2 1//1
f 2//2 7//7 4//4
f 7//7 8//8 4//4
f 5//5 4//4 8//8
f 6//6 7//7 2//2
f 7//7 9//9 8//8
f 9//9 10//10 8//8
f 5//5 8//8 10//10
f 6//6 9//9 7//7
f 9//9 11//11 10//10
f 11//11 12//12 10//10
f 5//5 10//10 12//12
f 6//6 11//11 9//9
f 11//11 13//13 12//12
f 13//13 14//14 12//12
f 5//5 12//12 14//14
f 6//6 13//13 11//11
f 13//13 15//15 14//14
f 15//15 16//16 14//14
f 5//5 14//14 16//16
f 6//6 15//15 13//13
f 15//15 17//17 16//16
f 17//17 18//18 16//16
f 5//5 16//16 18//18
f 6//6 17//17 15//15
f 17//17 19//19 18//18
f 19//19 20//20 18//18
f 5//5 18//18 20//20
f 6//6 19//19 17//17
f 19//19 21//21 20//20
f 21//21 22//22 20//20
f 5//5 20//20 22//22
f 6//6 21//21 19//19
f 21//21 1//1 22//22
f 1//1 3//3 22//22
f 5//5 22//22 3//3
f 6//6 1//1 21//21
f 23//23 26//26 24//24
f 24//24 26//26 25//25
f 23//23 28//28 27//27
f 23//23 24//24 28//28
f 23//23 27//27 26//26
f 26//26 27//27 30//30
f 26//26 30//30 29//29
f 26//26 29//29 25//25
f 24//24 29//29 28//28
f 24//24 25//25 29//29
f 28//28 30//30 27//27
f 28//28 29//29 30//30
f 31//31 34//34 32//32
f 32//32 34//34 33//33
f 31//31 36//36 35//35
f 31//31 32//32 36//36
f 31//31 35//35 34//34
f 34//34 35//35 38//38
f 34//34 38//38 37//37
f 34//34 37//37 33//33
f 32//32 37//37 36//36
f 32//32 33//33 37//37
f 36//36 38//38 35//35
f 36//36 37//37 38//38
f 39//39 42//42 40//40
f 40//40 42//42 41//41
f 39//39 44//44 43//43
f 39//39 40//40 44//44
f 39//39 43//43 42//42
f 42//42 43//43 46//46
f 42//42 46//46 45//45
f 42//42 45//45 41//41
f 40//40 45//45 44//44
f 40//40 41//41 45//45
f 44//44 46//46 43//43
f 44//44 45//45 46//46
f 47//47 48//48 58//58
f 49//49 58//58 48//48
f 47//47 50//50 48//48
f 49//49 48//48 50//50
f 47//47 51//51 50//50
f 49//49 50//50 51//51
f 47//47 52//52 51//51
f 49//49 51//51 52//52
f 47//47 53//53 52//52
f 49//49 52//52 53//53
f 47//47 54//54 53//53
f 49//49 53//53 54//54
f 47//47 55//55 54//54
f 49//49 54//54 55//55
f 47//47 56//56 55//55
f 49//49 55//55 56//56
f 47//47 57//57 56//56
f 49//49 56//56 57//57
f 47//47 58//58 57//57
f 49//49 57//57 58//58
f 59//59 60//60 61//61
f 60//60 62//62 61//61
f 60//60 63//63 62//62
f 63//63 64//64 62//62
f 63//63 65//65 64//64
f 65//65 66//66 64//64
f 65//65 67//67 66//66
f 67//67 68//68 66//66
f 67//67 69//69 68//68
f 69//69 70//70 68//68
f 69//69 71//71 70//70
f 71//71 72//72 70//70
f 71//71 73//73 72//72
f 73//73 74//74 72//72
f 73//73 75//75 74//74
f 75//75 76//76 74//74
f 75//75 77//77 76//76
f 77//77 78//78 76//76
f 77//77 59//59 78//78
f 59//59 61//61 78//78
f 79//79 82//82 80//80
f 80//80 82//82 81//81
f 79//79 84//84 83//83
f 79//79 80//80 84//84
f 79//79 83//83 82//82
f 82//82 83//83 86//86
f 82//82 86//86 85//85
f 82//82 85//85 81//81
f 80//80 85//85 84//84
f 80//80 81//81 85//85
f 84//84 86//86 83//83
f 84//84 85//85 86//86
f 87//87 90//90 88//88
f 88//88 90//90 89//89
f 87//87 92//92 91//91
f 87//87 88//88 92//92
f 87//87 91//91 90//90
f 90//90 91//91 94//94
f 90//90 94//94 93//93
f 90//90 93//93 89//89
f 88//88 93//93 92//92
f 88//88 89//89 93//93
f 92//92 94//94 91//91
f 92//92 93//93 94//94
f 113//113 95//95 114//114
f 95//95 96//96 114//114
f 95//95 97//97 96//96
f 97//97 98//98 96//96
f 97//97 99//99 98//98
f 99//99 100//100 98//98
f 99//99 101//101 100//100
f 101//101 102//102 100//100
f 101//101 103//103 102//102
f 103//103 104//104 102//102
f 103//103 105//105 104//104
f 105//105 106//106 104//104
f 105//105 107//107 106//106
f 107//107 108//108 106//106
f 107//107 109//109 108//108
f 109//109 110//110 108//108
f 109//109 111//111 110//110
f 111//111 112//112 110//110
f 111//111 113//113 112//112
f 113//113 114//114 112//112
f 115//115 116//116 136//136
f 116//116 117//117 136//136
f 118//118 136//136 117//117
f 119//119 116//116 115//115
f 116//116 120//120 117//117
f 120//120 121//121 117//117
f 118//118 117//117 121//121
f 119//119 120//120 116//116
f 120//120 122//122 121//121
f 122//122 123//123 121//121
f 118//118 121//121 123//123
f 119//119 122//122 120//120
f 122//122 124//124 123//123
f 124//124 125//125 123//123
f 118//118 123//123 125//125
f 119//119 124//124 122//122
f 124//124 126//126 125//125
f 126//126 127//127 125//125
f 118//118 125//125 127//127
f 119//119 126//126 124//124
f 126//126 128//128 127//127
f 128//128 129//129 127//127
f 118//118 127//127 129//129
f 119//119 128//128 126//126
f 128//128 130//130 129//129
f 130//130 131//131 129//129
f 118//118 129//129 131//131
f 119//119 130//130 128//128
f 130//130 132//132 131//131
f 132//132 133//133 131//131
f 118//118 131//131 133//133
f 119//119 132//132 130//130
f 132//132 134//134 133//133
f 134//134 135//135 133//133
f 118//118 133//133 135//135
f 119//119 134//134 132//132
f 134//134 115//115 135//135
f 115//115 136//136 135//135
f 118//118 135//135 136//136
f 119//119 115//115 134//134
f 63//63 60//60 59//59
f 65//65 63//63 59//59
f 71//71 69//69 67//67
f 71//71 67//67 65//65
f 71//71 65//65 59//59
f 73//73 71//71 59//59
f 75//75 73//73 59//59
f 77//77 75//75 59//59
f 64//64 66//66 68//68
f 62//62 64//64 68//68
f 61//61 62//62 68//68
f 61//61 68//68 70//70
f 78//78 61//61 70//70
f 76//76 78//78 70//70
f 74//74 76//76 70//70
f 74//74 70//70 72//72
f 97//97 95//95 113//113
f 99//99 97//97 113//113
f 101//101 99//99 113//113
f 103//103 101//101 113//113
f 105//105 103//103 113//113
f 107//107 105//105 113//113
f 109//109 107//107 113//113
f 111//111 109//109 113//113
f 114//114 96//96 98//98
f 114//114 98//98 100//100
f 114//114 100//100 102//102
f 114//114 102//102 104//104
f 112//112 114//114 104//104
f 110//110 112//112 104//104
f 108//108 110//110 104//104
f 106//106 108//108 104//104
# 232 faces, 0 coords texture

# End of File
