####
#
# OBJ File Generated by Meshlab
#
####
# Object m59.obj
#
# Vertices: 44
# Faces: 83
#
####
mtllib ./m59.obj.mtl

vn -0.0000000000000001 -0.0000000000000005 0.6918326108761791
v 0.1250000000000000 0.1250000000000000 0.0250000000000000
vn 0.0000000000000000 -4.5310257440066710 1.2970873478809137
v 0.1250000000000000 0.1650000000000000 0.1250000000000000
vn 3.8148428339289522 -4.7748590431472060 1.4077177823642020
v 0.1010000000000000 0.1450000000000000 0.1250000000000000
vn 3.5401053306348702 0.0047860029930276 1.2461539645199233
v 0.0750000000000000 0.1250000000000000 0.1250000000000000
vn 3.8238789944575724 4.7673518685892589 1.4089524665246682
v 0.1010000000000000 0.1050000000000000 0.1250000000000000
vn -0.0000000000000003 4.5367111988921920 1.3157142236168571
v 0.1250000000000000 0.0850000000000000 0.1250000000000000
vn -3.8238789944575728 4.7673518685892580 1.4089524665246682
v 0.1490000000000000 0.1050000000000000 0.1250000000000000
vn -3.5401053306348711 0.0047860029930276 1.2461539645199233
v 0.1750000000000000 0.1250000000000000 0.1250000000000000
vn -3.8148428339289526 -4.7748590431472051 1.4077177823642018
v 0.1490000000000000 0.1450000000000000 0.1250000000000000
vn -0.0000000000000002 -4.6288672275872216 0.3260153494963235
v 0.1250000000000000 0.2050000000000000 0.3250000000000000
vn 3.9113521313847217 -4.8620223940208822 0.3192742192628493
v 0.0750000000000000 0.1650000000000000 0.3250000000000000
vn 3.5383340466593838 0.0157044031837488 0.1969850594636441
v 0.0250000000000000 0.1250000000000000 0.3250000000000000
vn 3.9189859239369551 4.8504724406752073 0.2566484099648433
v 0.0750000000000000 0.0850000000000000 0.3250000000000000
vn -0.0000000000000004 4.6063396415850653 0.2679158032021512
v 0.1250000000000000 0.0450000000000000 0.3250000000000000
vn -3.9189859239369556 4.8504724406752082 0.2566484099648433
v 0.1750000000000000 0.0850000000000000 0.3250000000000000
vn -3.5383340466593829 0.0157044031837488 0.1969850594636442
v 0.2250000000000000 0.1250000000000000 0.3250000000000000
vn -3.9113521313847217 -4.8620223940208831 0.3192742192628494
v 0.1750000000000000 0.1650000000000000 0.3250000000000000
vn 0.0000000000000002 -4.6290192231502578 -0.3293480024579123
v 0.1250000000000000 0.1954000000000000 0.5050000000000000
vn 4.3242703328223584 -4.5328394829320189 -0.4656907073336868
v 0.0870000000000000 0.1602000000000000 0.5050000000000000
vn 4.3604985693539415 0.0334925093382771 -0.5628489094526652
v 0.0510000000000000 0.1250000000000000 0.5050000000000000
vn 4.3075675018462860 4.5468435209317093 -0.4602685078736829
v 0.0870000000000000 0.0898000000000000 0.5050000000000000
vn -0.0000000000000001 4.5371305463299256 -0.3687122434642373
v 0.1250000000000000 0.0546000000000000 0.5050000000000000
vn -4.3075675018462860 4.5468435209317093 -0.4602685078736830
v 0.1630000000000000 0.0898000000000000 0.5050000000000000
vn -4.3604985693539415 0.0334925093382776 -0.5628489094526653
v 0.1990000000000000 0.1250000000000000 0.5050000000000000
vn -4.3242703328223584 -4.5328394829320189 -0.4656907073336867
v 0.1630000000000000 0.1602000000000000 0.5050000000000000
vn 0.0000000000000000 -3.7744791827554169 -0.5015162975674022
v 0.1250000000000000 0.1850000000000000 0.6750000000000000
vn 4.8015769136445057 -3.9942898109011460 -0.5933974745285180
v 0.1010000000000000 0.1530000000000000 0.6750000000000000
vn 4.5357383106453879 0.0364515437326977 -0.6910554814733960
v 0.0750000000000000 0.1250000000000000 0.6750000000000000
vn 4.7879534353009916 4.0143018563131942 -0.6022518708870997
v 0.1010000000000000 0.0970000000000000 0.6750000000000000
vn 0.2557476037758446 3.5221598557199174 -0.3996881121356196
v 0.1250000000000000 0.0650000000000000 0.6750000000000000
vn -4.7879534353009934 4.0143018563131934 -0.6022518708870996
v 0.1490000000000000 0.0970000000000000 0.6750000000000000
vn -4.5357383106453888 0.0364515437326977 -0.6910554814733963
v 0.1750000000000000 0.1250000000000000 0.6750000000000000
vn -4.8015769136445066 -3.9942898109011455 -0.5933974745285180
v 0.1490000000000000 0.1530000000000000 0.6750000000000000
vn 0.0000000000000013 -3.2682804882343524 0.3252402027504034
v 0.1250000000000000 0.1650000000000000 0.8250000000000000
vn 5.5173287191142597 -2.8356680510086365 0.1245420214023138
v 0.1150000000000000 0.1450000000000000 0.8250000000000000
vn 5.8054105384435521 0.0690833212496645 -0.3576258561962630
v 0.1050000000000000 0.1250000000000000 0.8250000000000000
vn 4.5683364521509455 2.3358803766120531 0.0843279501720077
v 0.1150000000000000 0.1050000000000000 0.8250000000000000
vn 3.0165255016385277 -0.0000000000000026 -0.0000000000000006
v 0.1250000000000000 0.0850000000000000 0.8250000000000000
vn 0.5352960423739265 -0.2159358706503875 -0.3130347099687488
v 0.1350000000000000 0.1050000000000000 0.8250000000000000
vn -5.8054105384435530 0.0690833212496654 -0.3576258561962636
v 0.1450000000000000 0.1250000000000000 0.8250000000000000
vn -5.5173287191142615 -2.8356680510086347 0.1245420214023127
v 0.1350000000000000 0.1450000000000000 0.8250000000000000
vn 0.0000000000000004 -0.1032557003223123 -0.1241227207004938
v 0.1250000000000000 0.2250000000000000 0.9750000000000000
vn 0.0000000000000000 0.0000000000000000 -1.5807688547453749
v 0.1250000000000000 0.1250000000000000 0.9250000000000000
vn 0.0000000000000006 -0.0060690678739922 -0.1678526279790156
v 0.1250000000000000 0.0250000000000000 0.9750000000000000
# 44 vertices, 0 vertices normals


usemtl material_0
f 7//7 8//8 1//1
f 28//28 29//29 21//21
f 36//36 37//37 29//29
f 42//42 36//36 35//35
f 41//41 42//42 34//34
f 15//15 23//23 24//24
f 29//29 30//30 22//22
f 9//9 17//17 10//10
f 7//7 15//15 16//16
f 17//17 25//25 18//18
f 26//26 27//27 19//19
f 32//32 40//40 41//41
f 18//18 19//19 11//11
f 33//33 41//41 34//34
f 5//5 6//6 1//1
f 6//6 7//7 1//1
f 10//10 11//11 3//3
f 30//30 39//39 38//38
f 23//23 31//31 32//32
f 37//37 38//38 30//30
f 31//31 39//39 40//40
f 43//43 44//44 36//36
f 44//44 43//43 40//40
f 12//12 13//13 5//5
f 19//19 20//20 12//12
f 36//36 44//44 37//37
f 43//43 42//42 40//40
f 11//11 12//12 4//4
f 13//13 14//14 6//6
f 8//8 16//16 17//17
f 42//42 35//35 34//34
f 2//2 3//3 1//1
f 3//3 4//4 1//1
f 25//25 33//33 26//26
f 4//4 5//5 1//1
f 35//35 36//36 28//28
f 40//40 42//42 41//41
f 21//21 22//22 14//14
f 44//44 38//38 39//39
f 20//20 21//21 13//13
f 14//14 22//22 23//23
f 24//24 32//32 33//33
f 34//34 35//35 27//27
f 9//9 2//2 1//1
f 8//8 9//9 1//1
f 27//27 28//28 20//20
f 38//38 44//44 40//40
f 6//6 14//14 15//15
f 16//16 24//24 25//25
f 22//22 30//30 31//31
f 42//42 43//43 36//36
f 7//7 16//16 8//8
f 27//27 20//20 19//19
f 25//25 26//26 18//18
f 35//35 28//28 27//27
f 18//18 11//11 10//10
f 16//16 25//25 17//17
f 15//15 24//24 16//16
f 13//13 6//6 5//5
f 9//9 10//10 2//2
f 10//10 3//3 2//2
f 33//33 34//34 26//26
f 30//30 39//39 31//31
f 36//36 29//29 28//28
f 11//11 4//4 3//3
f 17//17 18//18 10//10
f 14//14 23//23 15//15
f 26//26 19//19 18//18
f 29//29 22//22 21//21
f 21//21 14//14 13//13
f 22//22 31//31 23//23
f 8//8 17//17 9//9
f 34//34 27//27 26//26
f 24//24 33//33 25//25
f 37//37 30//30 29//29
f 32//32 41//41 33//33
f 12//12 5//5 4//4
f 28//28 21//21 20//20
f 23//23 32//32 24//24
f 6//6 15//15 7//7
f 19//19 12//12 11//11
f 20//20 13//13 12//12
f 31//31 40//40 32//32
# 83 faces, 0 coords texture

# End of File
