####
#
# OBJ File Generated by Meshlab
#
####
# Object m1097.obj
#
# Vertices: 35
# Faces: 58
#
####
mtllib ./m1097.obj.mtl

vn 0.0000000000000000 0.0000000000000000 1.0000000000000000
v 0.1964080000000000 0.0250000000000000 0.0250000000000000
vn 0.0000000000000000 0.0000000000000000 -1.0000000000000000
v 0.2543230000000000 0.0250000000000000 0.0250000000000000
vn 0.0000000000000000 0.0000000000000000 1.0000000000000000
v 0.2352840000000000 0.6964380000000000 0.0250000000000000
vn 0.0000000000000000 0.0000000000000000 -1.0000000000000000
v 0.2085410000000000 0.6406360000000000 0.0250000000000000
vn 0.0000000000000000 0.0000000000000000 1.0000000000000000
v 0.1754660000000000 0.7203650000000000 0.0284200000000000
vn 0.0000000000000000 0.0000000000000000 1.0000000000000000
v 0.1564510000000000 0.6191730000000000 0.0284200000000000
vn 0.0000000000000000 0.0000000000000000 1.0000000000000000
v 0.1622380000000000 0.5153350000000000 0.0284200000000000
vn 0.0000000000000000 0.0000000000000000 1.0000000000000000
v 0.2168030000000000 0.5665920000000000 0.0284200000000000
vn 0.0000000000000000 0.0000000000000000 1.0000000000000000
v 0.2316840000000000 0.6310780000000000 0.0284200000000000
vn 0.0000000000000000 0.0000000000000000 1.0000000000000000
v 0.2779810000000000 0.5732060000000000 0.0284200000000000
vn 0.0000000000000000 0.0000000000000000 1.0000000000000000
v 0.2912090000000000 0.6327310000000000 0.0284200000000000
vn 0.0000000000000000 0.0000000000000000 1.0000000000000000
v 0.3176650000000000 0.5831270000000000 0.0284200000000000
vn 0.0000000000000000 0.0000000000000000 1.0000000000000000
v 0.3358530000000000 0.6426520000000000 0.0284200000000000
vn 0.0000000000000000 0.0000000000000000 1.0000000000000000
v 0.2862490000000000 0.7137510000000000 0.0284200000000000
vn 0.0000000000000000 0.0000000000000000 1.0000000000000000
v 0.4185270000000000 0.6558800000000000 0.0284200000000000
vn 0.0000000000000000 0.0000000000000000 1.0000000000000000
v 0.3854570000000000 0.7650090000000001 0.0284200000000000
vn 0.0000000000000000 0.0000000000000000 1.0000000000000000
v 0.3920710000000000 0.8046920000000000 0.0284200000000000
vn 0.0000000000000000 0.0000000000000000 1.0000000000000000
v 0.3507340000000000 0.8476820000000000 0.0284200000000000
vn 0.0000000000000000 0.0000000000000000 1.0000000000000000
v 0.3308920000000000 0.8394150000000000 0.0284200000000000
vn 0.0000000000000000 0.0000000000000000 1.0000000000000000
v 0.2994760000000000 0.8857130000000000 0.0284200000000000
vn 0.0000000000000000 0.0000000000000000 1.0000000000000000
v 0.2796350000000000 0.8526430000000000 0.0284200000000000
vn 0.0000000000000000 0.0000000000000000 1.0000000000000000
v 0.2879020000000000 0.9369700000000000 0.0284200000000000
vn 0.0000000000000000 0.0000000000000000 1.0000000000000000
v 0.2366440000000000 0.9369700000000000 0.0284200000000000
vn 0.0000000000000000 0.0000000000000000 1.0000000000000000
v 0.2250700000000000 0.8807520000000000 0.0284200000000000
vn 0.0000000000000000 0.0000000000000000 1.0000000000000000
v 0.1853870000000000 0.9535050000000000 0.0284200000000000
vn 0.0000000000000000 0.0000000000000000 1.0000000000000000
v 0.1308220000000000 0.9750000000000000 0.0284200000000000
vn 0.0000000000000000 0.0000000000000000 1.0000000000000000
v 0.1308220000000000 0.9287029999999999 0.0284200000000000
vn 0.0000000000000000 0.0000000000000000 1.0000000000000000
v 0.1721590000000000 0.8443760000000000 0.0284200000000000
vn 0.0000000000000000 0.0000000000000000 1.0000000000000000
v 0.1175940000000000 0.8956330000000000 0.0284200000000000
vn 0.0000000000000000 0.0000000000000000 1.0000000000000000
v 0.0630300000000000 0.9005940000000000 0.0284200000000000
vn 0.0000000000000000 0.0000000000000000 1.0000000000000000
v 0.0597230000000000 0.8162670000000000 0.0284200000000000
vn 0.0000000000000000 0.0000000000000000 1.0000000000000000
v 0.1159410000000000 0.7865040000000000 0.0284200000000000
vn 0.0000000000000000 0.0000000000000000 1.0000000000000000
v 0.0250000000000000 0.7269790000000000 0.0284200000000000
vn 0.0000000000000000 0.0000000000000000 1.0000000000000000
v 0.0283070000000000 0.6856420000000000 0.0284200000000000
vn 0.0000000000000000 0.0000000000000000 1.0000000000000000
v 0.0861790000000000 0.6740680000000000 0.0284200000000000
# 35 vertices, 0 vertices normals


usemtl material_0
f 1//1 2//2 3//3
f 34//34 32//32 33//33
f 32//32 34//34 35//35
f 32//32 35//35 5//5
f 32//32 5//5 29//29
f 29//29 5//5 28//28
f 7//7 5//5 6//6
f 5//5 7//7 8//8
f 5//5 8//8 25//25
f 25//25 8//8 24//24
f 24//24 8//8 9//9
f 24//24 9//9 23//23
f 23//23 9//9 10//10
f 23//23 10//10 21//21
f 23//23 21//21 22//22
f 28//28 26//26 27//27
f 26//26 28//28 25//25
f 25//25 28//28 5//5
f 32//32 30//30 31//31
f 30//30 32//32 29//29
f 10//10 14//14 21//21
f 14//14 10//10 11//11
f 14//14 11//11 13//13
f 13//13 11//11 12//12
f 14//14 20//20 21//21
f 20//20 14//14 15//15
f 20//20 15//15 19//19
f 19//19 15//15 18//18
f 18//18 15//15 16//16
f 17//17 18//18 16//16
f 1//1 3//3 4//4

usemtl material_1
f 2//2 1//1 4//4

usemtl material_2
f 3//3 2//2 4//4

usemtl material_3
f 6//6 5//5 35//35

usemtl material_4
f 10//10 9//9 8//8

usemtl material_3
f 12//12 11//11 10//10

usemtl material_5
f 33//33 32//32 31//31

usemtl material_3
f 25//25 24//24 23//23

usemtl material_6
f 15//15 14//14 13//13

usemtl material_3
f 15//15 13//13 12//12

usemtl material_7
f 20//20 19//19 18//18

usemtl material_3
f 29//29 28//28 27//27

usemtl material_8
f 30//30 29//29 27//27

usemtl material_3
f 30//30 27//27 26//26

usemtl material_9
f 7//7 6//6 35//35

usemtl material_3
f 22//22 21//21 20//20

usemtl material_10
f 22//22 20//20 18//18

usemtl material_3
f 7//7 35//35 34//34

usemtl material_11
f 10//10 8//8 7//7

usemtl material_3
f 17//17 16//16 15//15

usemtl material_12
f 33//33 31//31 30//30

usemtl material_3
f 25//25 23//23 22//22

usemtl material_13
f 26//26 25//25 22//22

usemtl material_3
f 12//12 10//10 7//7

usemtl material_14
f 22//22 18//18 17//17

usemtl material_3
f 17//17 15//15 12//12

usemtl material_15
f 33//33 30//30 26//26

usemtl material_3
f 7//7 34//34 33//33
# 58 faces, 0 coords texture

# End of File
