####
#
# OBJ File Generated by Meshlab
#
####
# Object m50.obj
#
# Vertices: 93
# Faces: 182
#
####
mtllib ./m50.obj.mtl

vn -0.0000125090226396 5.6922337354142796 -0.0000000000000007
v 0.2155240000000000 0.5642830000000000 0.6844749999999999
vn -3.7187437659869920 3.9028587694654124 -0.0272863978363092
v 0.1427500000000000 0.5399520000000000 0.6844749999999999
vn -2.7845767774784917 4.1944636092453207 2.1112171992151421
v 0.1640650000000000 0.5399520000000000 0.7472450000000000
vn 0.0844975749657609 4.5268310953904267 3.1698365929276227
v 0.2155240000000000 0.5399520000000000 0.7732450000000000
vn 2.7741432795177117 4.1158967032345046 2.1478713293448921
v 0.2669840000000000 0.5399520000000000 0.7472450000000000
vn 3.7215599244139961 3.8799085729216980 -0.0000010597872196
v 0.2882990000000000 0.5399520000000000 0.6844749999999999
vn 2.7330129893553243 3.9036188862153072 -2.3072264995539795
v 0.2669840000000000 0.5399520000000000 0.6217050000000000
vn 0.0000078398592297 3.9110362385460693 -3.4117234543880008
v 0.2155240000000000 0.5399520000000000 0.5957050000000000
vn -2.7330231738927950 3.9036698421862552 -2.3072128908913254
v 0.1640650000000000 0.5399520000000000 0.6217050000000000
vn -5.0612370490651708 0.2575497926473278 -0.1191763839047907
v 0.1126060000000000 0.4812190000000000 0.6844749999999999
vn -4.6293401124914846 1.6153944089959200 1.9176938256830833
v 0.1427500000000000 0.4769160000000000 0.7883599999999999
vn 0.4577548311921591 5.5353927130047751 2.4639292500973764
v 0.2155240000000000 0.4769160000000000 0.8336430000000000
vn 4.4636763149929637 1.5383503208122544 2.0678209383355148
v 0.2882990000000000 0.4769160000000000 0.7883599999999999
vn 5.0380195279611275 0.2523888817610744 -0.0866850226940810
v 0.3184420000000000 0.4812190000000000 0.6844749999999999
vn 3.4965023515012503 0.2079755883025157 -3.1351100270138086
v 0.2882980000000000 0.4812190000000000 0.5957050000000000
vn 0.0000149073960620 0.1966511208052644 -4.3126757111054177
v 0.2155240000000000 0.4812150000000000 0.5589350000000000
vn -3.4965208945066610 0.2079819946842127 -3.1350818618302179
v 0.1427500000000000 0.4812190000000000 0.5957050000000000
vn -5.9698864755987717 -1.4007214678325806 0.0548725745317528
v 0.1427500000000000 0.4062880000000000 0.6844749999999999
vn -4.3577840681618065 -3.3728421098912422 1.9286719086057722
v 0.1640650000000000 0.4019880000000000 0.7661289999999999
vn 0.1653993585512654 -5.4266204479078972 2.4406364700092125
v 0.2155240000000000 0.4019880000000000 0.7883599999999999
vn 4.2744681954417540 -3.3303743583400318 2.0759020667228421
v 0.2669840000000000 0.4019880000000000 0.7661289999999999
vn 5.9996691498866372 -1.2791924486687805 0.0596619468896941
v 0.2882990000000000 0.4062880000000000 0.6844749999999999
vn 4.7550808631471480 -0.1925499190885733 -3.5659300853081977
v 0.2669840000000000 0.4062880000000000 0.6217050000000000
vn -0.0279972271960117 0.4685871554506291 -5.6817544434135279
v 0.2155240000000000 0.4062880000000000 0.5957050000000000
vn -4.7574380806655530 -0.2438918167401946 -3.5623112712757767
v 0.1640650000000000 0.4062880000000000 0.6217050000000000
vn -0.0000104854628706 -1.6615697718215072 -4.4099304974514784
v 0.2155240000000000 0.1864180000000000 0.0998230000000000
vn -5.9131925292493435 1.4427171724131775 0.0140174951022102
v 0.1427500000000000 0.3358100000000000 0.6437650000000000
vn -4.6566054533630128 -0.3391468564689387 3.6929747139259659
v 0.1640650000000000 0.3268030000000000 0.7058850000000000
vn -0.0395519232940604 -1.4128332270967989 5.6767058169893057
v 0.2155240000000000 0.3230730000000000 0.7316160000000000
vn 4.6626899486223596 -0.2845184014158118 3.7019140974535434
v 0.2669840000000000 0.3268030000000000 0.7058850000000000
vn 5.9118937845558177 1.5311367007203902 0.2858892905274240
v 0.2882990000000000 0.3358100000000000 0.6437650000000000
vn 3.4626829869970637 4.4906399327232407 -1.9655079765074337
v 0.2669840000000000 0.3448170000000000 0.5816440000000000
vn -0.3838025600583924 5.4099833431227049 -2.2033277027167539
v 0.2155240000000000 0.3485480000000000 0.5559130000000000
vn -4.0341061262980000 3.8886877357844183 -2.0402121116212766
v 0.1640650000000000 0.3448170000000000 0.5816440000000000
vn -5.4956229168982098 2.0557212360233441 1.4416538662653415
v 0.1155600000000000 0.2757020000000000 0.6299550000000000
vn -3.5596642161725462 -0.3056980562644751 3.0016500109010611
v 0.1241360000000000 0.2020980000000000 0.7188070000000000
vn 0.0181326907946177 -1.4071781750492580 4.4157139912682872
v 0.2155240000000000 0.1662780000000000 0.7544040000000000
vn 3.4921358330151557 -0.3787301430334757 3.5313402096757471
v 0.3069130000000000 0.2020980000000000 0.7188070000000000
vn 5.3908115440955235 2.7177956591226633 1.4297413243938424
v 0.3154890000000000 0.2757020000000000 0.6299550000000000
vn 3.7701553087719759 4.6741311575426741 -0.3032169454971504
v 0.2862100000000000 0.3281910000000000 0.5270250000000000
vn -0.2047122269567500 5.8690739508754461 -0.3720783011229372
v 0.2155240000000000 0.3499320000000000 0.4843890000000000
vn -3.3863329120659582 4.9253022638426085 -0.1474504490152557
v 0.1448390000000000 0.3281910000000000 0.5270250000000000
vn -4.6916614791594036 0.8022355894045217 1.5512254490965722
v 0.0444450000000000 0.2069600000000000 0.5468130000000000
vn -3.7926980105903842 -3.3777333046717866 2.1704286859436608
v 0.1219580000000000 0.0814480000000000 0.6133940000000000
vn -0.0424863901076976 -3.7756519937558179 2.3375463861996555
v 0.2155240000000000 0.0411230000000000 0.6584670000000000
vn 3.9847598264951216 -3.4584620265436521 2.4294994459806833
v 0.3090910000000000 0.0814490000000000 0.6133940000000000
vn 4.9311455465388319 0.8201290807943437 1.1604432515756478
v 0.3866040000000000 0.2069600000000000 0.5468130000000000
vn 3.8346514773284688 4.8040648717037646 -0.1105245318081877
v 0.3090910000000000 0.3043160000000000 0.4379980000000000
vn -0.1419582232620690 5.8170297289460535 -0.0403931036436023
v 0.2155240000000000 0.3446410000000000 0.3929250000000000
vn -3.8271142432937415 4.7443463095673204 -0.1973518287776637
v 0.1219580000000000 0.3043150000000000 0.4379980000000000
vn -5.1950542210924890 0.2103604726607992 0.0231889965317803
v 0.0250000000000000 0.1715140000000000 0.4187820000000000
vn -3.4020821138220851 -3.9898195041125835 0.5211617952746866
v 0.0808030000000000 0.0550440000000000 0.4577360000000000
vn -0.0765490487163342 -5.9903993949013330 0.2649862055428484
v 0.2155240000000000 0.0250000000000000 0.4738710000000000
vn 3.4171938559792472 -3.9176133778078288 0.3684990693271658
v 0.3502450000000000 0.0550440000000000 0.4577360000000000
vn 5.1704567682464457 0.1436003123094105 0.0105083239217066
v 0.4060480000000000 0.1715140000000000 0.4187820000000000
vn 3.9945942241597963 4.4912432875481976 -0.4673392554441116
v 0.3197250000000000 0.2950240000000000 0.3798280000000000
vn -0.0157343454122212 5.4488345358101595 -0.3760412663973969
v 0.2155240000000000 0.3461840000000000 0.3636920000000000
vn -3.9801516750204087 4.5117925070242357 -0.3000582342323773
v 0.1113230000000000 0.2950240000000000 0.3798280000000000
vn -4.8597242713470381 0.3883053131358552 -1.3908419983334985
v 0.0413560000000000 0.1798040000000000 0.2764240000000000
vn -3.5797307181379963 -4.0470649990846281 -1.4887870779445556
v 0.0923690000000000 0.0741900000000000 0.2854690000000000
vn 0.0778208452649107 -5.5441609258851923 -1.2251608725890524
v 0.2155240000000000 0.0304430000000000 0.2892150000000000
vn 3.5223614015124824 -4.0895115415040149 -1.3490348209842318
v 0.3386790000000000 0.0741900000000000 0.2854690000000000
vn 4.8620166340240409 0.4228238157862123 -1.2968361947719402
v 0.3896920000000000 0.1798040000000000 0.2764240000000000
vn 3.6995070194158757 4.3962746253560994 -1.3787976064750240
v 0.3107800000000000 0.2854170000000000 0.2673790000000000
vn 0.0246300638213025 5.3034400030795847 -1.4732100114337010
v 0.2155240000000000 0.3291650000000000 0.2636320000000000
vn -3.7011787899826389 4.3845971299289701 -1.4803173113122505
v 0.1202690000000000 0.2854170000000000 0.2673790000000000
vn -3.9204573381796304 -0.0215899669128545 -3.1413629397614460
v 0.0883820000000000 0.1769740000000000 0.1800590000000000
vn -2.7607420785337649 -3.6015743079672484 -3.2467078348817071
v 0.1256210000000000 0.0998750000000000 0.1946230000000000
vn -0.0152248511596626 -4.7265824988186376 -3.2070693067489149
v 0.2155240000000000 0.0679410000000000 0.2006550000000000
vn 2.7352598361989147 -3.6231911174525178 -3.2951615760958326
v 0.3054270000000000 0.0998750000000000 0.1946230000000000
vn 3.9298505478515793 -0.0349053968036366 -3.2146780400912962
v 0.3426670000000000 0.1769740000000000 0.1800590000000000
vn 3.9257597117515264 3.1281046282178830 -2.8031762523281478
v 0.2850610000000000 0.2540710000000000 0.1654970000000000
vn -0.0121108997558645 5.9115376509043500 -0.2820651281727586
v 0.2155240000000000 0.2860060000000000 0.1594650000000000
vn -3.9359312903595431 3.1258716560596267 -2.7647013976870021
v 0.1459880000000000 0.2540710000000000 0.1654970000000000
vn -0.0000012529287005 0.3840668649322441 -0.5494344621741993
v 0.2155240000000000 0.3240850000000000 0.0250000000000000
vn -4.2201517159423840 0.4501804602500087 1.3875064807041317
v 0.1427190000000000 0.4530900000000000 0.8326670000000000
vn -0.5549626453733889 6.2336479683812955 0.0646357319479239
v 0.2155030000000000 0.4633480000000000 0.9165380000000000
vn 3.9259459559241163 1.1098855141750843 0.9453242038237988
v 0.2882680000000000 0.4530900000000000 0.8326670000000000
vn -2.7593127005865772 -4.2260269948181337 0.4379539891607166
v 0.1640340000000000 0.4019880000000000 0.7971240000000001
vn 0.0110376764360028 -6.2303929243792204 0.8084087292612147
v 0.2154980000000000 0.4125650000000000 0.8716670000000000
vn 2.3447173760858213 -3.9986996571548001 0.1084090268195664
v 0.2669530000000000 0.4019880000000000 0.7971240000000001
vn -1.8045007022565338 1.9336630039901641 -0.1072435733623792
v 0.1609000000000000 0.4686980000000000 0.8975790000000000
vn 0.0444151035902958 6.2727497463724502 0.0382746549222634
v 0.2154900000000000 0.4638710000000000 0.9426000000000000
vn 2.1722758878468000 2.1672373381702221 0.1632980174166555
v 0.2700640000000000 0.4686980000000000 0.8975790000000000
vn -2.9733550140241154 -3.8941507354702507 0.8978763427580353
v 0.1728060000000000 0.4125650000000000 0.8756640000000000
vn 0.3039022210809347 -6.0903964163567279 1.3965649889356253
v 0.2154820000000000 0.4160900000000000 0.8978950000000000
vn 2.7810590611230062 -4.1508078294901667 1.2034613231509368
v 0.2581490000000000 0.4125650000000000 0.8756640000000000
vn -2.1869765633072635 1.2299710026772597 1.6983360384103554
v 0.1687570000000000 0.4653850000000000 0.9300720000000000
vn -0.0652461717355705 0.3346624082893583 1.3034167223371762
v 0.2154790000000000 0.4628660000000000 0.9750000000000000
vn 2.2915590476239980 1.5007276784457204 1.5677551086669999
v 0.2621770000000000 0.4653850000000000 0.9300720000000000
vn -2.2798614224766327 -3.4100396587663355 1.8907802903723825
v 0.1787700000000000 0.4160900000000000 0.9083350000000000
vn -0.6368008744259649 -4.7544469763012955 3.3425998853535406
v 0.2154670000000000 0.4266670000000000 0.9305650000000000
vn 1.9623438140975609 -3.5656884997695810 1.4236120451888794
v 0.2521510000000000 0.4160900000000000 0.9083350000000000
# 93 vertices, 0 vertices normals


usemtl material_0
vt -1.0000000000000000 -1.0000000000000000
f 1/1/1 2/1/2 3/1/3
f 1/1/1 3/1/3 4/1/4
f 1/1/1 4/1/4 5/1/5
f 1/1/1 5/1/5 6/1/6
f 1/1/1 6/1/6 7/1/7
f 1/1/1 7/1/7 8/1/8
f 1/1/1 8/1/8 9/1/9
f 1/1/1 9/1/9 2/1/2
f 2/1/2 10/1/10 11/1/11
f 2/1/2 11/1/11 3/1/3
f 3/1/3 11/1/11 12/1/12
f 3/1/3 12/1/12 4/1/4
f 4/1/4 12/1/12 13/1/13
f 4/1/4 13/1/13 5/1/5
f 5/1/5 13/1/13 14/1/14
f 5/1/5 14/1/14 6/1/6
f 6/1/6 14/1/14 15/1/15
f 6/1/6 15/1/15 7/1/7
f 7/1/7 15/1/15 16/1/16
f 7/1/7 16/1/16 8/1/8
f 8/1/8 16/1/16 17/1/17
f 8/1/8 17/1/17 9/1/9
f 9/1/9 17/1/17 10/1/10
f 9/1/9 10/1/10 2/1/2
f 10/1/10 18/1/18 19/1/19
f 10/1/10 19/1/19 11/1/11
f 13/1/13 21/1/21 22/1/22
f 13/1/13 22/1/22 14/1/14
f 14/1/14 22/1/22 23/1/23
f 14/1/14 23/1/23 15/1/15
f 15/1/15 23/1/23 24/1/24
f 15/1/15 24/1/24 16/1/16
f 16/1/16 24/1/24 25/1/25
f 16/1/16 25/1/25 17/1/17
f 17/1/17 25/1/25 18/1/18
f 17/1/17 18/1/18 10/1/10
f 26/1/26 72/1/72 71/1/71
f 26/1/26 71/1/71 70/1/70
f 26/1/26 70/1/70 69/1/69
f 26/1/26 69/1/69 68/1/68
f 26/1/26 68/1/68 67/1/67
f 26/1/26 67/1/67 74/1/74
f 34/1/34 25/1/25 24/1/24
f 24/1/24 33/1/33 34/1/34
f 33/1/33 24/1/24 23/1/23
f 23/1/23 32/1/32 33/1/33
f 32/1/32 23/1/23 22/1/22
f 22/1/22 31/1/31 32/1/32
f 31/1/31 22/1/22 21/1/21
f 21/1/21 30/1/30 31/1/31
f 30/1/30 21/1/21 20/1/20
f 20/1/20 29/1/29 30/1/30
f 29/1/29 20/1/20 19/1/19
f 19/1/19 28/1/28 29/1/29
f 28/1/28 19/1/19 18/1/18
f 18/1/18 27/1/27 28/1/28
f 27/1/27 18/1/18 25/1/25
f 25/1/25 34/1/34 27/1/27
f 42/1/42 34/1/34 33/1/33
f 33/1/33 41/1/41 42/1/42
f 41/1/41 33/1/33 32/1/32
f 32/1/32 40/1/40 41/1/41
f 40/1/40 32/1/32 31/1/31
f 31/1/31 39/1/39 40/1/40
f 39/1/39 31/1/31 30/1/30
f 30/1/30 38/1/38 39/1/39
f 38/1/38 30/1/30 29/1/29
f 29/1/29 37/1/37 38/1/38
f 37/1/37 29/1/29 28/1/28
f 28/1/28 36/1/36 37/1/37
f 36/1/36 28/1/28 27/1/27
f 27/1/27 35/1/35 36/1/36
f 35/1/35 27/1/27 34/1/34
f 34/1/34 42/1/42 35/1/35
f 50/1/50 42/1/42 41/1/41
f 41/1/41 49/1/49 50/1/50
f 49/1/49 41/1/41 40/1/40
f 40/1/40 48/1/48 49/1/49
f 48/1/48 40/1/40 39/1/39
f 39/1/39 47/1/47 48/1/48
f 47/1/47 39/1/39 38/1/38
f 38/1/38 46/1/46 47/1/47
f 46/1/46 38/1/38 37/1/37
f 37/1/37 45/1/45 46/1/46
f 45/1/45 37/1/37 36/1/36
f 36/1/36 44/1/44 45/1/45
f 44/1/44 36/1/36 35/1/35
f 35/1/35 43/1/43 44/1/44
f 43/1/43 35/1/35 42/1/42
f 42/1/42 50/1/50 43/1/43
f 58/1/58 50/1/50 49/1/49
f 49/1/49 57/1/57 58/1/58
f 57/1/57 49/1/49 48/1/48
f 48/1/48 56/1/56 57/1/57
f 56/1/56 48/1/48 47/1/47
f 47/1/47 55/1/55 56/1/56
f 55/1/55 47/1/47 46/1/46
f 46/1/46 54/1/54 55/1/55
f 54/1/54 46/1/46 45/1/45
f 45/1/45 53/1/53 54/1/54
f 53/1/53 45/1/45 44/1/44
f 44/1/44 52/1/52 53/1/53
f 52/1/52 44/1/44 43/1/43
f 43/1/43 51/1/51 52/1/52
f 51/1/51 43/1/43 50/1/50
f 50/1/50 58/1/58 51/1/51
f 66/1/66 58/1/58 57/1/57
f 57/1/57 65/1/65 66/1/66
f 65/1/65 57/1/57 56/1/56
f 56/1/56 64/1/64 65/1/65
f 64/1/64 56/1/56 55/1/55
f 55/1/55 63/1/63 64/1/64
f 63/1/63 55/1/55 54/1/54
f 54/1/54 62/1/62 63/1/63
f 62/1/62 54/1/54 53/1/53
f 53/1/53 61/1/61 62/1/62
f 61/1/61 53/1/53 52/1/52
f 52/1/52 60/1/60 61/1/61
f 60/1/60 52/1/52 51/1/51
f 51/1/51 59/1/59 60/1/60
f 59/1/59 51/1/51 58/1/58
f 58/1/58 66/1/66 59/1/59
f 74/1/74 66/1/66 65/1/65
f 65/1/65 73/1/73 74/1/74
f 73/1/73 65/1/65 64/1/64
f 64/1/64 72/1/72 73/1/73
f 72/1/72 64/1/64 63/1/63
f 63/1/63 71/1/71 72/1/72
f 71/1/71 63/1/63 62/1/62
f 62/1/62 70/1/70 71/1/71
f 70/1/70 62/1/62 61/1/61
f 61/1/61 69/1/69 70/1/70
f 69/1/69 61/1/61 60/1/60
f 60/1/60 68/1/68 69/1/69
f 68/1/68 60/1/60 59/1/59
f 59/1/59 67/1/67 68/1/68
f 67/1/67 59/1/59 66/1/66
f 66/1/66 74/1/74 67/1/67
f 75/1/75 26/1/26 74/1/74
f 75/1/75 74/1/74 73/1/73
f 75/1/75 73/1/73 72/1/72
f 75/1/75 72/1/72 26/1/26
f 88/1/88 91/1/91 92/1/92
f 88/1/88 92/1/92 89/1/89
f 89/1/89 92/1/92 93/1/93
f 89/1/89 93/1/93 90/1/90
f 76/1/76 11/1/11 19/1/19
f 19/1/19 79/1/79 76/1/76
f 79/1/79 19/1/19 20/1/20
f 20/1/20 80/1/80 79/1/79
f 77/1/77 12/1/12 11/1/11
f 11/1/11 76/1/76 77/1/77
f 80/1/80 20/1/20 21/1/21
f 21/1/21 81/1/81 80/1/80
f 81/1/81 21/1/21 13/1/13
f 13/1/13 78/1/78 81/1/81
f 78/1/78 13/1/13 12/1/12
f 12/1/12 77/1/77 78/1/78
f 82/1/82 76/1/76 79/1/79
f 79/1/79 85/1/85 82/1/82
f 85/1/85 79/1/79 80/1/80
f 80/1/80 86/1/86 85/1/85
f 83/1/83 77/1/77 76/1/76
f 76/1/76 82/1/82 83/1/83
f 86/1/86 80/1/80 81/1/81
f 81/1/81 87/1/87 86/1/86
f 87/1/87 81/1/81 78/1/78
f 78/1/78 84/1/84 87/1/87
f 84/1/84 78/1/78 77/1/77
f 77/1/77 83/1/83 84/1/84
f 88/1/88 82/1/82 85/1/85
f 85/1/85 91/1/91 88/1/88
f 91/1/91 85/1/85 86/1/86
f 86/1/86 92/1/92 91/1/91
f 89/1/89 83/1/83 82/1/82
f 82/1/82 88/1/88 89/1/89
f 92/1/92 86/1/86 87/1/87
f 87/1/87 93/1/93 92/1/92
f 93/1/93 87/1/87 84/1/84
f 84/1/84 90/1/90 93/1/93
f 90/1/90 84/1/84 83/1/83
f 83/1/83 89/1/89 90/1/90
# 182 faces, 1 coords texture

# End of File
