####
#
# OBJ File Generated by Meshlab
#
####
# Object D01175.obj
#
# Vertices: 87
# Faces: 166
#
####
mtllib ./D01175.obj.mtl

vn 0.0608496880284077 0.7428668076801870 -0.6666679994674213
v 0.3362660000000000 0.0067490000000000 0.0170000000000000
vn -0.2478375802561530 -0.4948427984764236 -0.8328908323476711
v 0.6145699999999999 -0.2257360000000000 0.0170000000000000
vn -0.9157815976437652 -0.2241293950536787 -0.3333317861979339
v 0.3080520000000000 -0.0397510000000000 0.0170000000000000
vn 0.4425744506101346 0.5473451314436141 -0.7103106100517648
v 0.6427850000000001 -0.1792360000000000 0.0170000000000000
vn 0.2010509923786187 -0.0858210472645174 0.9758141453729774
v 0.7309000000000000 -0.2726400000000000 0.0170000000000000
vn -0.6692906906418340 -0.2224447634052289 0.7089205164570770
v 0.1535590000000000 0.1461920000000000 0.0440000000000000
vn -0.8273022343529024 0.0874786639775619 0.5549040425004996
v 0.1520160000000000 0.1733560000000000 0.0440000000000000
vn -0.9440336639512015 -0.0862534723541879 0.3183720776602671
v 0.1509670000000000 0.1606410000000000 0.0440000000000000
vn -0.6896451047489339 0.1497787093143561 0.7084885092448273
v 0.1555460000000000 0.1964890000000000 0.0440000000000000
vn -0.6583105520394148 -0.2580367863353819 0.7071380586358433
v 0.1637480000000000 0.1215710000000000 0.0440000000000000
vn -0.6705912946499831 0.2239850337431317 0.7072043694709103
v 0.1640270000000000 0.2205430000000000 0.0440000000000000
vn -0.4359277848705399 -0.2670925498385693 0.8594350098748569
v 0.1742870000000000 0.0939210000000000 0.0440000000000000
vn -0.7975217019317018 0.2372062957556805 0.5547001966845068
v 0.1666340000000000 0.2293070000000000 0.0440000000000000
vn -0.7322144716480488 0.4979646487207358 0.4646430631502023
v 0.1684770000000000 0.2355050000000000 0.0440000000000000
vn -0.2922261621561451 0.6384695300288795 0.7120116076133816
v 0.1743580000000000 0.2401200000000000 0.0440000000000000
vn -0.4801393296484865 -0.3598139804971947 0.8000000772271627
v 0.1883430000000000 0.0751240000000000 0.0440000000000000
vn -0.0373171554398631 0.8266129393206806 0.5615322594985099
v 0.1863970000000000 0.2440030000000000 0.0440000000000000
vn 0.0408436703898028 0.5985734539206038 0.8000260088588671
v 0.1963790000000000 0.2431310000000000 0.0440000000000000
vn -0.2311680180616105 -0.2135936923746760 0.9491781086830960
v 0.2232980000000000 0.0285300000000000 0.0440000000000000
vn 0.5022678113713326 -0.0468317834710444 0.8634430089572632
v 0.2078560000000000 0.1746960000000000 0.0440000000000000
vn 0.3079207087788930 0.6007918056655306 0.7377221993069312
v 0.2045400000000000 0.2426520000000000 0.0440000000000000
vn 0.7957757924079195 0.2399171889848979 0.5560401340255329
v 0.2110530000000000 0.1612750000000000 0.0440000000000000
vn 0.7528271615888206 0.3538565654895933 0.5550106267757663
v 0.2204250000000000 0.1397690000000000 0.0440000000000000
vn 0.6218095785660088 0.3366791469686869 0.7071067811865476
v 0.2270020000000000 0.1276220000000000 0.0440000000000000
vn -0.3468323799482251 -0.3798629784512066 0.8575613201524589
v 0.2639190000000000 -0.0072860000000000 0.0440000000000000
vn 0.7143510534755111 0.4257746988122358 0.5553543717751552
v 0.2335790000000000 0.1154750000000000 0.0440000000000000
vn 0.6792943044691747 0.4804774723498821 0.5547077126559613
v 0.2613220000000000 0.0766180000000000 0.0440000000000000
vn 0.6088395918727166 0.5168521964853829 0.6018123946517708
v 0.2774160000000000 0.0534320000000000 0.0440000000000000
vn -0.4649590826733756 -0.5312754261477867 0.7082086366396705
v 0.2958410000000000 -0.0385320000000000 0.0440000000000000
vn 0.4083757592042293 0.5747515547222939 0.7091472975614272
v 0.2998730000000000 0.0316630000000000 0.0440000000000000
vn -0.4034683205368986 -0.5807007097548148 0.7071067811960148
v 0.3180780000000000 -0.0539820000000000 0.0440000000000000
vn 0.2475387331594441 0.6592075208556920 0.7100493081702915
v 0.3253290000000000 0.0163370000000000 0.0440000000000000
vn -0.3874066899861970 -0.5912247485778692 0.7073679051405811
v 0.3292940000000000 -0.0617750000000000 0.0440000000000000
vn 0.1092455824354742 0.5892664761229277 0.8005188460217543
v 0.3536300000000000 0.0085580000000000 0.0440000000000000
vn -0.1512144133253508 -0.7828928398695560 0.6035006234326952
v 0.3367040000000000 -0.0660740000000000 0.0440000000000000
vn 0.5167507335099714 -0.6044496108226237 0.6063079641512927
v 0.3423230000000000 -0.0628080000000000 0.0440000000000000
vn 0.0177975234660836 0.7045093428506849 0.7094715173948636
v 0.3756080000000000 0.0054410000000000 0.0440000000000000
vn 0.3324943928015602 0.7600098055513450 0.5584197115264903
v 0.3995770000000000 0.0076130000000000 0.0440000000000000
vn 0.6108650280812495 0.3297307466989372 0.7198066074638766
v 0.2083610000000000 0.2379480000000000 0.0440000000000000
vn 0.5933129153370906 -0.0792826187493006 0.8010580820754856
v 0.2111080000000000 0.1872130000000000 0.0440000000000000
vn 0.7016145350522169 0.0876312679333417 0.7071476543720244
v 0.2091210000000000 0.2312810000000000 0.0440000000000000
vn 0.6929655676703685 0.0627861121352763 0.7182315964549461
v 0.2101030000000000 0.2132340000000000 0.0440000000000000
vn 0.9100193014332187 0.2574812146874829 0.3249127499838302
v 0.2126130000000000 0.2079990000000000 0.0440000000000000
vn 0.9458651348452696 0.0653156122701459 0.3179198286957203
v 0.2107160000000000 0.2204160000000000 0.0440000000000000
vn -0.1479360143559591 0.8141231216462111 -0.5615322594985099
v 0.1863970000000000 0.2440030000000000 0.0000000000000000
vn -0.3658907393386803 0.5993024591055854 -0.7120116076133816
v 0.1743580000000000 0.2401200000000000 0.0000000000000000
vn -0.5704294449071212 0.3879378367294468 -0.7239575147870424
v 0.1684770000000000 0.2355050000000000 0.0000000000000000
vn -0.7975299046891212 0.2371787151595413 -0.5547001966845068
v 0.1666340000000000 0.2293070000000000 0.0000000000000000
vn 0.7424589926585016 0.3751237774208591 -0.5550106267757663
v 0.2204250000000000 0.1397690000000000 0.0000000000000000
vn 0.6218095785660088 0.3366791469686867 -0.7071067811865476
v 0.2270020000000000 0.1276220000000000 0.0000000000000000
vn -0.6742204903898861 0.2128114426897057 -0.7072043694709104
v 0.1640270000000000 0.2205430000000000 -0.0000000000000000
vn -0.6789091358136553 0.1926821672516638 -0.7084885092448272
v 0.1555460000000000 0.1964890000000000 0.0000000000000000
vn -0.8250667054396217 0.1065196469746878 -0.5549040425004996
v 0.1520160000000000 0.1733560000000000 0.0000000000000000
vn -0.9479579694714008 -0.0038611244403181 -0.3183720776602672
v 0.1509670000000000 0.1606410000000000 0.0000000000000000
vn 0.6961578638690206 0.4549129041075279 -0.5553543717751552
v 0.2335790000000000 0.1154750000000000 0.0000000000000000
vn -0.6835362912035390 -0.1738097809501582 -0.7089205164570769
v 0.1535590000000000 0.1461920000000000 0.0000000000000000
vn -0.6558543223621257 -0.2642174745690516 -0.7071380586358433
v 0.1637480000000000 0.1215710000000000 0.0000000000000000
vn -0.4588869054032872 -0.2253758457572569 -0.8594350098748569
v 0.1742870000000000 0.0939210000000000 0.0000000000000000
vn -0.4803255884591340 -0.3595653007562329 -0.8000000772271627
v 0.1883430000000000 0.0751240000000000 0.0000000000000000
vn -0.4059356206997205 -0.3750747565286073 -0.8333877842050115
v 0.2232980000000000 0.0285300000000000 0.0000000000000000
vn -0.3533753142831281 -0.3737839876635599 -0.8575613201524589
v 0.2639190000000000 -0.0072860000000000 0.0000000000000000
vn -0.4345265508435117 -0.5564415545239414 -0.7082086366396705
v 0.2958410000000000 -0.0385320000000000 0.0000000000000000
vn 0.0225576686673622 0.8929381865612976 -0.4496137748834155
v 0.3756080000000000 0.0054410000000000 0.0000000000000000
vn 0.8161763559203282 -0.1484034427339373 -0.5584197115264903
v 0.3995770000000000 0.0076130000000000 -0.0000000000000000
vn -0.4034713254839196 -0.5806986219192021 -0.7071067811960148
v 0.3180780000000000 -0.0539820000000000 0.0000000000000000
vn 0.5031162753421013 0.0366085204388029 -0.8634430089572632
v 0.2078560000000000 0.1746960000000000 0.0000000000000000
vn 0.7801933993749601 0.2865617366722418 -0.5560401340255329
v 0.2110530000000000 0.1612750000000000 0.0000000000000000
vn 0.3068881942467561 0.6337583263349330 -0.7100493081702915
v 0.3253290000000000 0.0163370000000000 0.0000000000000000
vn 0.4509791128065932 0.5419667426821527 -0.7091472975614272
v 0.2998730000000000 0.0316630000000000 0.0000000000000000
vn 0.9480847071329211 -0.0078975073768170 -0.3179198286957203
v 0.2107160000000000 0.2204160000000000 0.0000000000000000
vn 0.6703014931902312 0.1866528383945073 -0.7182315964549461
v 0.2101030000000000 0.2132340000000000 0.0000000000000000
vn 0.7006317022265184 0.0951704405333666 -0.7071476543720245
v 0.2091210000000000 0.2312810000000000 0.0000000000000000
vn 0.6630199462116076 0.2056283024705051 -0.7198066074638766
v 0.2083610000000000 0.2379480000000000 0.0000000000000000
vn 0.4002602292271307 0.7809577563233732 -0.4794754756370837
v 0.2045400000000000 0.2426520000000000 0.0000000000000000
vn 0.5874009079227878 -0.1151786547630652 -0.8010580820754856
v 0.2111080000000000 0.1872130000000000 0.0000000000000000
vn 0.9411062818262045 0.0935450223432631 -0.3249127499838302
v 0.2126130000000000 0.2079990000000000 0.0000000000000000
vn 0.0465304283712844 0.5981582603165627 -0.8000260088588671
v 0.1963790000000000 0.2431310000000000 0.0000000000000000
vn 0.6814133622222376 0.4774674683211173 -0.5547077126559613
v 0.2613220000000000 0.0766180000000000 0.0000000000000000
vn 0.4214927450854597 0.3578109144150678 -0.8332557922785635
v 0.2774160000000000 0.0534320000000000 0.0000000000000000
vn -0.3711900525137130 -0.6015385205387042 -0.7073679051405811
v 0.3292940000000000 -0.0617750000000000 0.0000000000000000
vn 0.1341854306601976 0.5840923277723619 -0.8005188460217543
v 0.3536300000000000 0.0085580000000000 0.0000000000000000
vn 0.1518468247944390 -0.7827704256780498 -0.6035006234326952
v 0.3367040000000000 -0.0660740000000000 0.0000000000000000
vn 0.3563520174187247 -0.4168292839790399 -0.8362216139870613
v 0.3423230000000000 -0.0628080000000000 0.0000000000000000
vn 0.5631401368718428 0.7580964911624518 0.3288812799949860
v 0.6427850000000001 -0.1792360000000000 0.0214400000000000
vn -0.4241215917031448 0.6029888940710716 0.6756665368938563
v 0.3362660000000000 0.0067490000000000 0.0214400000000000
vn -0.4416625337641760 -0.8335824846773434 0.3317746938935437
v 0.6145699999999999 -0.2257360000000000 0.0214400000000000
vn -0.5346761956320818 -0.0672592469302453 0.8423761389823313
v 0.3080520000000000 -0.0397510000000000 0.0214400000000000
# 87 vertices, 0 vertices normals


usemtl material_0
f 1//1 2//2 3//3
f 2//2 1//1 4//4
f 2//2 4//4 5//5
f 6//6 7//7 8//8
f 7//7 6//6 9//9
f 9//9 6//6 10//10
f 9//9 10//10 11//11
f 11//11 10//10 12//12
f 11//11 12//12 13//13
f 13//13 12//12 14//14
f 14//14 12//12 15//15
f 15//15 12//12 16//16
f 15//15 16//16 17//17
f 17//17 16//16 18//18
f 18//18 16//16 19//19
f 18//18 19//19 20//20
f 18//18 20//20 21//21
f 20//20 19//19 22//22
f 22//22 19//19 23//23
f 23//23 19//19 24//24
f 24//24 19//19 25//25
f 24//24 25//25 26//26
f 26//26 25//25 27//27
f 27//27 25//25 28//28
f 28//28 25//25 29//29
f 28//28 29//29 30//30
f 30//30 29//29 31//31
f 30//30 31//31 32//32
f 32//32 31//31 33//33
f 32//32 33//33 34//34
f 34//34 33//33 35//35
f 34//34 35//35 36//36
f 34//34 36//36 37//37
f 37//37 36//36 38//38
f 20//20 39//39 21//21
f 39//39 20//20 40//40
f 39//39 40//40 41//41
f 41//41 40//40 42//42
f 42//42 40//40 43//43
f 44//44 41//41 42//42
f 15//15 45//45 46//46
f 45//45 15//15 17//17
f 14//14 46//46 47//47
f 46//46 14//14 15//15
f 14//14 48//48 13//13
f 48//48 14//14 47//47
f 49//49 24//24 50//50
f 24//24 49//49 23//23
f 13//13 51//51 11//11
f 51//51 13//13 48//48
f 11//11 52//52 9//9
f 52//52 11//11 51//51
f 9//9 53//53 7//7
f 53//53 9//9 52//52
f 7//7 54//54 8//8
f 54//54 7//7 53//53
f 50//50 26//26 55//55
f 26//26 50//50 24//24
f 8//8 56//56 6//6
f 56//56 8//8 54//54
f 6//6 57//57 10//10
f 57//57 6//6 56//56
f 10//10 58//58 12//12
f 58//58 10//10 57//57
f 12//12 59//59 16//16
f 59//59 12//12 58//58
f 16//16 60//60 19//19
f 60//60 16//16 59//59
f 25//25 60//60 61//61
f 60//60 25//25 19//19
f 29//29 61//61 62//62
f 61//61 29//29 25//25
f 63//63 38//38 64//64
f 38//38 63//63 37//37
f 31//31 62//62 65//65
f 62//62 31//31 29//29
f 66//66 22//22 67//67
f 22//22 66//66 20//20
f 30//30 68//68 69//69
f 68//68 30//30 32//32
f 70//70 71//71 72//72
f 73//73 66//66 74//74
f 66//66 73//73 75//75
f 75//75 73//73 72//72
f 75//75 72//72 71//71
f 75//75 71//71 76//76
f 53//53 56//56 54//54
f 56//56 53//53 52//52
f 56//56 52//52 57//57
f 57//57 52//52 51//51
f 57//57 51//51 58//58
f 58//58 51//51 48//48
f 58//58 48//48 47//47
f 58//58 47//47 46//46
f 58//58 46//46 59//59
f 59//59 46//46 45//45
f 59//59 45//45 77//77
f 59//59 77//77 60//60
f 60//60 77//77 66//66
f 66//66 77//77 74//74
f 60//60 66//66 67//67
f 60//60 67//67 49//49
f 60//60 49//49 50//50
f 60//60 50//50 61//61
f 61//61 50//50 55//55
f 61//61 55//55 78//78
f 61//61 78//78 79//79
f 61//61 79//79 62//62
f 62//62 79//79 69//69
f 62//62 69//69 65//65
f 65//65 69//69 68//68
f 65//65 68//68 80//80
f 80//80 68//68 81//81
f 80//80 81//81 82//82
f 82//82 81//81 83//83
f 83//83 81//81 63//63
f 83//83 63//63 64//64
f 78//78 28//28 79//79
f 28//28 78//78 27//27
f 73//73 41//41 72//72
f 41//41 73//73 39//39
f 70//70 42//42 71//71
f 42//42 70//70 44//44
f 72//72 44//44 70//70
f 44//44 72//72 41//41
f 71//71 43//43 76//76
f 43//43 71//71 42//42
f 64//64 36//36 83//83
f 36//36 64//64 38//38
f 18//18 74//74 77//77
f 74//74 18//18 21//21
f 17//17 77//77 45//45
f 77//77 17//17 18//18
f 76//76 40//40 75//75
f 40//40 76//76 43//43
f 28//28 69//69 79//79
f 69//69 28//28 30//30
f 74//74 39//39 73//73
f 39//39 74//74 21//21
f 75//75 20//20 66//66
f 20//20 75//75 40//40
f 67//67 23//23 49//49
f 23//23 67//67 22//22
f 34//34 63//63 81//81
f 63//63 34//34 37//37
f 32//32 81//81 68//68
f 81//81 32//32 34//34
f 33//33 65//65 80//80
f 65//65 33//33 31//31
f 35//35 80//80 82//82
f 80//80 35//35 33//33
f 55//55 27//27 78//78
f 27//27 55//55 26//26
f 36//36 82//82 83//83
f 82//82 36//36 35//35
f 1//1 84//84 4//4
f 84//84 1//1 85//85
f 86//86 3//3 2//2
f 3//3 86//86 87//87
f 85//85 3//3 87//87
f 3//3 85//85 1//1
f 86//86 2//2 5//5
f 5//5 87//87 86//86
f 4//4 84//84 5//5
f 5//5 84//84 85//85
f 5//5 85//85 87//87
# 166 faces, 0 coords texture

# End of File
