####
#
# OBJ File Generated by Meshlab
#
####
# Object m102.obj
#
# Vertices: 109
# Faces: 214
#
####
mtllib ./m102.obj.mtl

vn -4.4845594434509755 -2.5972042745399211 2.6062885323045037
v 0.1032850000000000 0.2089260000000000 0.6874690000000000
vn 0.4895235429593146 -5.3014576482724864 1.9068067250128373
v 0.2130010000000000 0.1767680000000000 0.6892160000000001
vn 4.0201214597887338 -2.3325669022922799 3.0823922877334891
v 0.3227160000000000 0.2089260000000000 0.6874690000000000
vn -5.1953153373273331 2.0218751304207925 1.8817625106718363
v 0.0933900000000000 0.3375590000000000 0.6764110000000000
vn 4.6793123077183809 1.4835894981672104 2.7823083853389212
v 0.3326110000000000 0.3375590000000000 0.6764110000000000
vn -3.4249422397999720 4.5643163248119745 1.2736222175220220
v 0.1379170000000000 0.4085680000000000 0.6519650000000000
vn 0.0104098003565442 5.3953918572175539 1.0272095507529950
v 0.2130010000000000 0.4395620000000000 0.6519650000000000
vn 3.3066474167458866 4.5863166665955823 1.5247454740094100
v 0.2880850000000000 0.4085680000000000 0.6519650000000000
vn -4.2898920576959210 3.4858295491755520 0.8909047038920335
v 0.0699630000000000 0.3831040000000000 0.5096540000000001
vn -0.0587670080771904 5.8936116585155895 0.4759577433823614
v 0.2130010000000000 0.4413080000000000 0.5096540000000001
vn 4.2867810779312654 3.7758094597602119 0.8985075086866907
v 0.3560380000000000 0.3831040000000000 0.5096540000000001
vn -3.7367084311701237 3.8346009031028552 0.3684450187058586
v 0.0721460000000000 0.4014380000000000 0.4380630000000000
vn -0.0258273092061835 5.7264539015765470 0.1241923575519565
v 0.2130010000000000 0.4506210000000000 0.4380630000000000
vn 3.7511922410303060 3.9042951983048657 0.1673924926081853
v 0.3538560000000000 0.4014380000000000 0.4380630000000000
vn -4.0647902981598882 3.5943107440430326 -0.6088979514612626
v 0.0593410000000000 0.3831040000000000 0.3379510000000000
vn -0.0118269813499834 5.7267841144534977 -0.9273622246903169
v 0.2130010000000000 0.4413080000000000 0.3379510000000000
vn 4.1015546417138431 3.4896596644908411 -0.5400073294524191
v 0.3666610000000000 0.3831040000000000 0.3379510000000000
vn -2.8677280867447648 3.7395836708463079 -2.3619114558255108
v 0.0912080000000000 0.3650600000000000 0.1768700000000000
vn -0.0697503205505791 4.1895246285497842 -2.9960530801711176
v 0.2130010000000000 0.3960540000000000 0.1540250000000000
vn 3.0931202059696861 3.6039888396212199 -2.2733689039336866
v 0.3347940000000000 0.3650600000000000 0.1768700000000000
vn -3.4689741389892377 1.5510717187408312 -3.2041337319334060
v 0.0709820000000000 0.3052550000000000 0.1422380000000000
vn -0.1964819523569491 1.2108520287056337 -5.2690522131015989
v 0.2130010000000000 0.2927410000000000 0.0911640000000000
vn 3.6483958467903195 1.5430068673557749 -2.9855408376052170
v 0.3550200000000000 0.3052550000000000 0.1422380000000000
vn -3.2589302135910638 -0.1875518294382410 -3.5346459724976196
v 0.0725820000000000 0.2287160000000000 0.1247770000000000
vn -0.2272557498463002 -1.3184008033598658 -5.6645436909214295
v 0.2130010000000000 0.2259510000000000 0.0972750000000000
vn 3.5014497508663704 -0.2727277245186843 -3.3322388974719299
v 0.3534190000000000 0.2287160000000000 0.1247770000000000
vn -4.2905321323503616 -2.9671468101415126 0.5467276103285362
v 0.0444990000000000 0.1531960000000000 0.3379510000000000
vn 0.2287385114135500 -6.0598569256732873 0.4375674424610304
v 0.2130010000000000 0.1059040000000000 0.3379510000000000
vn 4.0750772213569162 -2.9119333332282973 0.5672775724405259
v 0.3815030000000000 0.1531960000000000 0.3379510000000000
vn -4.0483580609383409 -4.1109133242444393 -0.2231150459754792
v 0.0721460000000000 0.1622170000000000 0.4417010000000000
vn -0.0923262852381150 -5.3862873163888141 0.5568580505432238
v 0.2130010000000000 0.0944090000000000 0.4417010000000000
vn 4.1065027163599321 -4.0434516889886236 -1.2069647040050782
v 0.3538560000000000 0.1622170000000000 0.4417010000000000
vn -3.5609892906369485 -1.8736737632646705 -0.6653247484841167
v 0.0250000000000000 0.1531960000000000 0.5096540000000001
vn -0.3575240528002005 -5.7368229990270132 -0.3943744196933323
v 0.2130010000000000 0.1198730000000000 0.5096540000000001
vn 3.9324256517981939 -1.9744907603177249 -0.5485979960777065
v 0.4010020000000000 0.1531960000000000 0.5096540000000001
vn 5.7895676094031430 0.2171744266269663 -0.1411184188886112
v 0.4010020000000000 0.2681500000000000 0.3379510000000000
vn 6.1383299204159583 0.2486942091802569 -0.5112714585469950
v 0.3841220000000000 0.2728060000000000 0.4403910000000000
vn 5.7162559310550298 0.7465294036452366 0.4505232774287751
v 0.4010020000000000 0.2681500000000000 0.5096540000000001
vn -5.8905760509101572 0.2760510786654767 -0.1194285142130586
v 0.0250000000000000 0.2681500000000000 0.3379510000000000
vn -6.1466779587746334 0.1877442853089250 -0.0108709402748137
v 0.0418790000000000 0.2728060000000000 0.4403910000000000
vn -5.5360128170938330 0.7008666749963972 0.1226395035202237
v 0.0250000000000000 0.2681500000000000 0.5096540000000001
vn -3.2328713366607942 -0.2318015434032658 -3.7123904856598680
v 0.1003750000000000 0.0559940000000000 0.1479130000000000
vn 3.2458938231213201 -0.3966080650245893 -3.4876164899190893
v 0.1542140000000000 0.0559940000000000 0.1479130000000000
vn 4.2697066830982839 -2.4563366273294029 1.7347801730915415
v 0.1542140000000000 0.0708360000000000 0.2011700000000000
vn -3.4870253405763947 -3.1416532804609076 2.8347180316023799
v 0.1003750000000000 0.0708360000000000 0.2011700000000000
vn -3.2369122764649743 -0.9238306430837784 -3.8435085786567065
v 0.2717870000000000 0.0559940000000000 0.1479130000000000
vn 3.4439067770621730 -0.2134177986266337 -3.3817508650384567
v 0.3256270000000000 0.0559940000000000 0.1479130000000000
vn 4.3098815392142331 -1.5592059849494446 2.2888887928003139
v 0.3256270000000000 0.0708360000000000 0.2011700000000000
vn -1.1866498452233472 -3.6971982538947481 3.1748771775888436
v 0.2717870000000000 0.0708360000000000 0.2011700000000000
vn -3.3108566420410392 -1.3589861607495255 -3.1609357488063732
v 0.1003750000000000 0.0613780000000000 0.5553450000000000
vn 3.0104870292786172 -2.2664701755668388 -3.3280583296753701
v 0.1542140000000000 0.0613780000000000 0.5553450000000000
vn 3.4834630947447129 -1.9442919244250250 3.5452075784177679
v 0.1542140000000000 0.0762200000000000 0.6115119999999999
vn -4.1108870563127313 -0.0317996251966341 2.8195013324084819
v 0.1003750000000000 0.0762200000000000 0.6115119999999999
vn -3.1889739120817033 -2.4010083985751467 -3.2006800023073341
v 0.2717870000000000 0.0613780000000000 0.5553450000000000
vn 3.2679188111880064 -2.0865279373918728 -3.3328476634622191
v 0.3256270000000000 0.0613780000000000 0.5553450000000000
vn 3.7245818289126524 -0.9729323366181406 3.6958607521914213
v 0.3256270000000000 0.0762200000000000 0.6115119999999999
vn -3.4108824007490521 -1.6537142572072216 3.6329118702132530
v 0.2717870000000000 0.0762200000000000 0.6115119999999999
vn -1.4839234343240191 -1.2450362975052389 -1.4315109871329985
v 0.0948450000000000 0.0250000000000000 0.1457300000000000
vn 1.4793592882384803 -1.2155076997296592 -1.3957605585817658
v 0.1595980000000000 0.0250000000000000 0.1457300000000000
vn 1.2602950963530553 -0.9729321451409967 1.3682118679820963
v 0.1595980000000000 0.0250000000000000 0.2154300000000000
vn -1.2620704352844330 -0.9859742767189047 1.3903684418064659
v 0.0948450000000000 0.0250000000000000 0.2154300000000000
vn -1.4847696451084171 -1.2505841162030873 -1.4350322150523755
v 0.2664030000000000 0.0250000000000000 0.1457300000000000
vn 1.4782322556787200 -1.2091058988286112 -1.3912446095920341
v 0.3311560000000000 0.0250000000000000 0.1457300000000000
vn 1.2598150268811010 -0.9694461485154857 1.3647040019429559
v 0.3311560000000000 0.0250000000000000 0.2154300000000000
vn -1.2624377076005293 -0.9890591821025262 1.3932355642635490
v 0.2664030000000000 0.0250000000000000 0.2154300000000000
vn -1.6323193852698425 -1.4656781039192581 -1.4496445152878228
v 0.0948450000000000 0.0252910000000000 0.5581100000000000
vn 1.6284096123188738 -1.4365671183173276 -1.4189612681355386
v 0.1595980000000000 0.0252910000000000 0.5581100000000000
vn 1.2137519961336518 -0.9245526891012945 1.3628092187467018
v 0.1595980000000000 0.0252910000000000 0.6301380000000000
vn -1.2149271646265649 -0.9342531870352448 1.3797894526164693
v 0.0948450000000000 0.0252910000000000 0.6301380000000000
vn -1.6330867438557275 -1.4715081800469454 -1.4526899188541269
v 0.2664030000000000 0.0252910000000000 0.5581100000000000
vn 1.6273984540207374 -1.4298797147309887 -1.4150554331755520
v 0.3311560000000000 0.0252910000000000 0.5581100000000000
vn 1.2134037111300082 -0.9217088663595150 1.3598066469405945
v 0.3311560000000000 0.0252910000000000 0.6301380000000000
vn -1.2151991776971025 -0.9367918302277705 1.3822926357213530
v 0.2664030000000000 0.0252910000000000 0.6301380000000000
vn -5.0972117640273433 -1.4280238300649417 0.7880151453636814
v 0.0963010000000000 0.2413750000000000 0.7388350000000000
vn 0.2122770578454235 -5.1174822553132371 -0.8049173614666260
v 0.2130010000000000 0.1614900000000000 0.7363610000000000
vn -4.4891794149785769 3.4939165513651456 2.3469800864331525
v 0.1229290000000000 0.3637510000000000 0.7021660000000000
vn 4.9999917569247394 -1.6030260544682149 -0.2592087272963692
v 0.3297010000000000 0.2413750000000000 0.7388350000000000
vn 4.7451114726406054 3.5323347680539401 0.7508001068798658
v 0.3030720000000000 0.3637510000000000 0.7021660000000000
vn 0.0814617848149940 5.7739205947425161 1.6533059050772843
v 0.2130010000000000 0.4191900000000000 0.7021660000000000
vn -3.1089312827310116 5.0562795454079534 1.8087944057012582
v 0.1689110000000000 0.4024570000000000 0.7021660000000000
vn 2.9831179545769269 5.2306590224785996 1.5372041146073501
v 0.2570910000000000 0.4024570000000000 0.7021660000000000
vn -4.1678225306318240 -3.0108572894364523 0.5364036223127508
v 0.1093970000000000 0.2138740000000000 0.8353090000000000
vn -0.0972318593654178 -5.0549739483082003 0.2827081551729688
v 0.2130010000000000 0.1545050000000000 0.8117360000000000
vn -5.0049778185209632 0.3741338667969929 0.9400165062635201
v 0.0983380000000000 0.2592730000000000 0.8454950000000000
vn 4.2225818213593058 -3.3545645849070764 0.7744655390479482
v 0.3166050000000000 0.2138740000000000 0.8353090000000000
vn 5.1937548922500092 0.5266587355083554 1.5392625015142987
v 0.3276640000000000 0.2592730000000000 0.8454950000000000
vn 0.0873111003802543 5.0236927733667951 2.6177231435625723
v 0.2130010000000000 0.3956180000000000 0.8229410000000000
vn -2.6677146953519957 3.9967811011877390 1.9604937626157029
v 0.1699290000000000 0.3874690000000000 0.8229410000000000
vn 2.4451380928040933 4.1412267579309141 2.1496913049423418
v 0.2560720000000000 0.3874690000000000 0.8229410000000000
vn -2.8576894888738660 -3.7840129084943532 2.4664479938345001
v 0.1649820000000000 0.2100910000000000 0.9422600000000000
vn -0.1401919584439371 -4.9064842178038699 2.6844782352449545
v 0.2130010000000000 0.1952480000000000 0.9422600000000000
vn -5.0807602642978420 -0.6332314139841577 2.9084957629741366
v 0.1524680000000000 0.2375920000000000 0.9422600000000000
vn 2.9697429278465233 -3.6930884318495187 2.7709932403581403
v 0.2610200000000000 0.2100910000000000 0.9422600000000000
vn 4.9877485553607279 -0.6430639168294661 3.1194406814278635
v 0.2735340000000000 0.2375920000000000 0.9422600000000000
vn -0.0227209428387778 5.9590511315167047 1.3697101103098852
v 0.2130010000000000 0.2886670000000000 0.9422600000000000
vn -3.4949609779849653 3.5704216188404732 2.3619566073626075
v 0.1654190000000000 0.2838650000000000 0.9422600000000000
vn 3.2947801434805770 3.4525046426952604 2.8032742155388575
v 0.2605830000000000 0.2838650000000000 0.9422600000000000
vn -2.1593119133943057 -2.2283708923817316 4.6479996000299693
v 0.1754590000000000 0.2303170000000000 0.9655420000000000
vn 0.0263803862551471 -2.9087184138261186 4.9635302805280528
v 0.2130010000000000 0.2192580000000000 0.9662690000000000
vn 0.0909506161876973 0.1761405261026527 5.9737827967303705
v 0.2130010000000000 0.2627660000000000 0.9750000000000000
vn -3.0008947159834518 0.3551457387106923 3.9705191920073526
v 0.1676010000000000 0.2554900000000000 0.9684520000000000
vn 2.1153038698209374 -2.1254438934942095 4.6201943163097630
v 0.2505430000000000 0.2303170000000000 0.9655420000000000
vn 2.9655064445200656 0.5594810121832277 3.5648650164932678
v 0.2584000000000000 0.2554900000000000 0.9684520000000000
vn 0.0398499176580458 3.2818371353475970 2.6769824344507493
v 0.2130010000000000 0.2904130000000000 0.9696160000000000
vn -1.8003317420998315 3.5939451331774683 2.5184496701960737
v 0.1806970000000000 0.2860470000000000 0.9624860000000000
vn 1.9121517459642612 3.3205394751428661 2.5618829092840198
v 0.2453040000000000 0.2860470000000000 0.9624860000000000
vn 3.0807592955907999 3.8255346301901714 3.1161535268703666
v 0.2728060000000000 0.3081650000000000 0.8959870000000000
vn 0.0214705356070500 4.8845757712969515 3.8679421677701438
v 0.2130010000000000 0.3136950000000000 0.8965689999999999
vn -3.1501889343800258 3.5812252927330701 3.2132482687385377
v 0.1527590000000000 0.3099110000000000 0.8939500000000000
# 109 vertices, 0 vertices normals


usemtl material_0
vt -1.0000000000000000 -1.0000000000000000
f 98/1/98 99/1/99 100/1/100
f 99/1/99 102/1/102 103/1/103
f 101/1/101 100/1/100 104/1/104
f 100/1/100 103/1/103 106/1/106
f 6/1/6 7/1/7 10/1/10
f 7/1/7 8/1/8 11/1/11
f 9/1/9 10/1/10 13/1/13
f 10/1/10 11/1/11 14/1/14
f 12/1/12 13/1/13 16/1/16
f 13/1/13 14/1/14 17/1/17
f 15/1/15 16/1/16 19/1/19
f 16/1/16 17/1/17 20/1/20
f 18/1/18 19/1/19 22/1/22
f 19/1/19 20/1/20 23/1/23
f 21/1/21 22/1/22 25/1/25
f 22/1/22 23/1/23 26/1/26
f 58/1/58 59/1/59 60/1/60
f 62/1/62 63/1/63 64/1/64
f 27/1/27 28/1/28 31/1/31
f 28/1/28 29/1/29 32/1/32
f 30/1/30 31/1/31 34/1/34
f 31/1/31 32/1/32 35/1/35
f 66/1/66 67/1/67 68/1/68
f 70/1/70 71/1/71 72/1/72
f 29/1/29 26/1/26 23/1/23
f 32/1/32 29/1/29 36/1/36
f 35/1/35 32/1/32 37/1/37
f 3/1/3 35/1/35 38/1/38
f 36/1/36 23/1/23 20/1/20
f 37/1/37 36/1/36 17/1/17
f 38/1/38 37/1/37 14/1/14
f 5/1/5 38/1/38 11/1/11
f 24/1/24 27/1/27 39/1/39
f 27/1/27 30/1/30 40/1/40
f 30/1/30 33/1/33 41/1/41
f 33/1/33 1/1/1 4/1/4
f 21/1/21 39/1/39 15/1/15
f 39/1/39 40/1/40 12/1/12
f 40/1/40 41/1/41 9/1/9
f 41/1/41 4/1/4 6/1/6
f 24/1/24 25/1/25 43/1/43
f 25/1/25 28/1/28 44/1/44
f 28/1/28 27/1/27 45/1/45
f 27/1/27 24/1/24 42/1/42
f 25/1/25 26/1/26 47/1/47
f 26/1/26 29/1/29 48/1/48
f 29/1/29 28/1/28 49/1/49
f 28/1/28 25/1/25 46/1/46
f 33/1/33 34/1/34 51/1/51
f 34/1/34 2/1/2 52/1/52
f 2/1/2 1/1/1 53/1/53
f 1/1/1 33/1/33 50/1/50
f 34/1/34 35/1/35 55/1/55
f 35/1/35 3/1/3 56/1/56
f 3/1/3 2/1/2 57/1/57
f 2/1/2 34/1/34 54/1/54
f 42/1/42 43/1/43 59/1/59
f 43/1/43 44/1/44 60/1/60
f 44/1/44 45/1/45 61/1/61
f 45/1/45 42/1/42 58/1/58
f 46/1/46 47/1/47 63/1/63
f 47/1/47 48/1/48 64/1/64
f 48/1/48 49/1/49 65/1/65
f 49/1/49 46/1/46 62/1/62
f 50/1/50 51/1/51 67/1/67
f 51/1/51 52/1/52 68/1/68
f 52/1/52 53/1/53 69/1/69
f 53/1/53 50/1/50 66/1/66
f 54/1/54 55/1/55 71/1/71
f 55/1/55 56/1/56 72/1/72
f 56/1/56 57/1/57 73/1/73
f 57/1/57 54/1/54 70/1/70
f 1/1/1 2/1/2 75/1/75
f 4/1/4 1/1/1 74/1/74
f 2/1/2 3/1/3 77/1/77
f 3/1/3 5/1/5 78/1/78
f 7/1/7 6/1/6 80/1/80
f 6/1/6 4/1/4 76/1/76
f 5/1/5 8/1/8 81/1/81
f 8/1/8 7/1/7 79/1/79
f 74/1/74 75/1/75 83/1/83
f 76/1/76 74/1/74 82/1/82
f 75/1/75 77/1/77 85/1/85
f 77/1/77 78/1/78 86/1/86
f 79/1/79 80/1/80 88/1/88
f 80/1/80 76/1/76 84/1/84
f 78/1/78 81/1/81 89/1/89
f 81/1/81 79/1/79 87/1/87
f 82/1/82 83/1/83 91/1/91
f 84/1/84 82/1/82 90/1/90
f 83/1/83 85/1/85 93/1/93
f 85/1/85 86/1/86 94/1/94
f 108/1/108 109/1/109 96/1/96
f 109/1/109 84/1/84 92/1/92
f 86/1/86 89/1/89 107/1/107
f 107/1/107 108/1/108 95/1/95
f 90/1/90 91/1/91 99/1/99
f 92/1/92 90/1/90 98/1/98
f 91/1/91 93/1/93 102/1/102
f 93/1/93 94/1/94 103/1/103
f 95/1/95 96/1/96 105/1/105
f 96/1/96 92/1/92 101/1/101
f 94/1/94 97/1/97 106/1/106
f 97/1/97 95/1/95 104/1/104
f 86/1/86 107/1/107 97/1/97
f 89/1/89 87/1/87 108/1/108
f 87/1/87 88/1/88 109/1/109
f 88/1/88 84/1/84 109/1/109
f 98/1/98 100/1/100 101/1/101
f 99/1/99 103/1/103 100/1/100
f 101/1/101 104/1/104 105/1/105
f 100/1/100 106/1/106 104/1/104
f 6/1/6 10/1/10 9/1/9
f 7/1/7 11/1/11 10/1/10
f 9/1/9 13/1/13 12/1/12
f 10/1/10 14/1/14 13/1/13
f 12/1/12 16/1/16 15/1/15
f 13/1/13 17/1/17 16/1/16
f 15/1/15 19/1/19 18/1/18
f 16/1/16 20/1/20 19/1/19
f 18/1/18 22/1/22 21/1/21
f 19/1/19 23/1/23 22/1/22
f 21/1/21 25/1/25 24/1/24
f 22/1/22 26/1/26 25/1/25
f 58/1/58 60/1/60 61/1/61
f 62/1/62 64/1/64 65/1/65
f 27/1/27 31/1/31 30/1/30
f 28/1/28 32/1/32 31/1/31
f 30/1/30 34/1/34 33/1/33
f 31/1/31 35/1/35 34/1/34
f 66/1/66 68/1/68 69/1/69
f 70/1/70 72/1/72 73/1/73
f 29/1/29 23/1/23 36/1/36
f 32/1/32 36/1/36 37/1/37
f 35/1/35 37/1/37 38/1/38
f 3/1/3 38/1/38 5/1/5
f 36/1/36 20/1/20 17/1/17
f 37/1/37 17/1/17 14/1/14
f 38/1/38 14/1/14 11/1/11
f 5/1/5 11/1/11 8/1/8
f 24/1/24 39/1/39 21/1/21
f 27/1/27 40/1/40 39/1/39
f 30/1/30 41/1/41 40/1/40
f 33/1/33 4/1/4 41/1/41
f 21/1/21 15/1/15 18/1/18
f 39/1/39 12/1/12 15/1/15
f 40/1/40 9/1/9 12/1/12
f 41/1/41 6/1/6 9/1/9
f 24/1/24 43/1/43 42/1/42
f 25/1/25 44/1/44 43/1/43
f 28/1/28 45/1/45 44/1/44
f 27/1/27 42/1/42 45/1/45
f 25/1/25 47/1/47 46/1/46
f 26/1/26 48/1/48 47/1/47
f 29/1/29 49/1/49 48/1/48
f 28/1/28 46/1/46 49/1/49
f 33/1/33 51/1/51 50/1/50
f 34/1/34 52/1/52 51/1/51
f 2/1/2 53/1/53 52/1/52
f 1/1/1 50/1/50 53/1/53
f 34/1/34 55/1/55 54/1/54
f 35/1/35 56/1/56 55/1/55
f 3/1/3 57/1/57 56/1/56
f 2/1/2 54/1/54 57/1/57
f 42/1/42 59/1/59 58/1/58
f 43/1/43 60/1/60 59/1/59
f 44/1/44 61/1/61 60/1/60
f 45/1/45 58/1/58 61/1/61
f 46/1/46 63/1/63 62/1/62
f 47/1/47 64/1/64 63/1/63
f 48/1/48 65/1/65 64/1/64
f 49/1/49 62/1/62 65/1/65
f 50/1/50 67/1/67 66/1/66
f 51/1/51 68/1/68 67/1/67
f 52/1/52 69/1/69 68/1/68
f 53/1/53 66/1/66 69/1/69
f 54/1/54 71/1/71 70/1/70
f 55/1/55 72/1/72 71/1/71
f 56/1/56 73/1/73 72/1/72
f 57/1/57 70/1/70 73/1/73
f 1/1/1 75/1/75 74/1/74
f 4/1/4 74/1/74 76/1/76
f 2/1/2 77/1/77 75/1/75
f 3/1/3 78/1/78 77/1/77
f 7/1/7 80/1/80 79/1/79
f 6/1/6 76/1/76 80/1/80
f 5/1/5 81/1/81 78/1/78
f 8/1/8 79/1/79 81/1/81
f 74/1/74 83/1/83 82/1/82
f 76/1/76 82/1/82 84/1/84
f 75/1/75 85/1/85 83/1/83
f 77/1/77 86/1/86 85/1/85
f 79/1/79 88/1/88 87/1/87
f 80/1/80 84/1/84 88/1/88
f 78/1/78 89/1/89 86/1/86
f 81/1/81 87/1/87 89/1/89
f 82/1/82 91/1/91 90/1/90
f 84/1/84 90/1/90 92/1/92
f 83/1/83 93/1/93 91/1/91
f 85/1/85 94/1/94 93/1/93
f 108/1/108 96/1/96 95/1/95
f 109/1/109 92/1/92 96/1/96
f 107/1/107 95/1/95 97/1/97
f 90/1/90 99/1/99 98/1/98
f 92/1/92 98/1/98 101/1/101
f 91/1/91 102/1/102 99/1/99
f 93/1/93 103/1/103 102/1/102
f 95/1/95 105/1/105 104/1/104
f 96/1/96 101/1/101 105/1/105
f 94/1/94 106/1/106 103/1/103
f 97/1/97 104/1/104 106/1/106
f 86/1/86 97/1/97 94/1/94
f 89/1/89 108/1/108 107/1/107
f 87/1/87 109/1/109 108/1/108
# 214 faces, 1 coords texture

# End of File
