####
#
# OBJ File Generated by Meshlab
#
####
# Object m840.obj
#
# Vertices: 94
# Faces: 178
#
####
mtllib ./m840.obj.mtl

vn 0.4081450549508454 -2.8787431750583226 3.0876413137304475
v 0.1475860000000000 0.1475860000000000 0.0867920000000000
vn 0.4081450549508455 2.8787431750583212 3.0876413137304475
v 0.1475860000000000 0.0250000000000000 0.0867920000000000
vn -0.4073881148006865 2.8792421643261847 3.0878447848843154
v 0.8524140000000000 0.0250000000000000 0.0867920000000000
vn -0.4073881148006865 -2.8792421643261847 3.0878447848843149
v 0.8524140000000000 0.1475860000000000 0.0867920000000000
vn 1.5172786228771340 -2.6204719017113542 2.6291506233374529
v 0.1169700000000000 0.1475860000000000 0.0950300000000000
vn 1.5172786228771333 2.6204719017113542 2.6291506233374529
v 0.1169700000000000 0.0250000000000000 0.0950300000000000
vn 2.6262191806289916 -2.6170258289699460 1.5195553681425149
v 0.0945280000000000 0.1475860000000000 0.1174080000000000
vn 2.6262191806289925 2.6170258289699460 1.5195553681425151
v 0.0945280000000000 0.0250000000000000 0.1174080000000000
vn 3.0878819394976009 -2.8793333818246540 0.4072497317406127
v 0.0862930000000000 0.1475860000000000 0.1480850000000000
vn 3.0878819394976005 2.8793333818246527 0.4072497317406127
v 0.0862930000000000 0.0250000000000000 0.1480850000000000
vn 3.0878819394976000 -2.8793333818246531 -0.4072497317406133
v 0.0862930000000000 0.1475860000000000 0.7298280000000000
vn 3.0878819394976009 2.8793333818246518 -0.4072497317406134
v 0.0862930000000000 0.0250000000000000 0.7298280000000000
vn 2.6278310928891999 -2.6184760411153287 -1.5179457200819826
v 0.0945280000000000 0.1475860000000000 0.7605050000000000
vn 2.6278310928891986 2.6184760411153287 -1.5179457200819819
v 0.0945280000000000 0.0250000000000000 0.7605050000000000
vn 1.5158851853054911 -2.6170408997434209 -2.6283464486280685
v 0.1169700000000000 0.1475860000000000 0.7829480000000000
vn 1.5158851853054918 2.6170408997434209 -2.6283464486280699
v 0.1169700000000000 0.0250000000000000 0.7829480000000000
vn 0.4051397051189962 -2.8807239648808767 -3.0884467870815970
v 0.1475860000000000 0.1475860000000000 0.7911210000000000
vn 0.4051397051189961 2.8807239648808753 -3.0884467870815966
v 0.1475860000000000 0.0250000000000000 0.7911210000000000
vn -0.4043875426788846 -2.8812195419192701 -3.0886473786436848
v 0.8524140000000000 0.1475860000000000 0.7911210000000000
vn -0.4043875426788848 2.8812195419192701 -3.0886473786436852
v 0.8524140000000000 0.0250000000000000 0.7911210000000000
vn -1.5151082772184763 -2.6165676018628670 -2.6285717863883802
v 0.8830910000000000 0.1475860000000000 0.7829480000000000
vn -1.5151082772184765 2.6165676018628670 -2.6285717863883802
v 0.8830910000000000 0.0250000000000000 0.7829480000000000
vn -2.6285717863883789 -2.6165676018628710 -1.5151082772184816
v 0.9055340000000000 0.1475860000000000 0.7605050000000000
vn -2.6285717863883784 2.6165676018628710 -1.5151082772184814
v 0.9055340000000000 0.0250000000000000 0.7605050000000000
vn -3.0886473786436834 -2.8812195419192674 -0.4043875426788899
v 0.9137070000000000 0.1475860000000000 0.7298280000000000
vn -3.0886473786436834 2.8812195419192674 -0.4043875426788898
v 0.9137070000000000 0.0250000000000000 0.7298280000000000
vn -3.0886473786436834 -2.8812195419192692 0.4043875426788892
v 0.9137070000000000 0.1475860000000000 0.1480850000000000
vn -3.0886473786436834 2.8812195419192692 0.4043875426788893
v 0.9137070000000000 0.0250000000000000 0.1480850000000000
vn -2.6269598383696042 -2.6151173898097593 1.5167178892642277
v 0.9055340000000000 0.1475860000000000 0.1174080000000000
vn -2.6269598383696051 2.6151173898097593 1.5167178892642283
v 0.9055340000000000 0.0250000000000000 0.1174080000000000
vn -1.5164969013215046 -2.6199951915090645 2.6293788046747579
v 0.8830910000000000 0.1475860000000000 0.0950300000000000
vn -1.5164969013215042 2.6199951915090645 2.6293788046747570
v 0.8830910000000000 0.0250000000000000 0.0950300000000000
vn 0.0000000000000000 -3.1415926535897931 0.0000000000000000
v 0.0862930000000000 0.1476170000000000 0.0250000000000000
vn 0.0000000000000000 -3.1415926535897944 0.0000000000000000
v 0.0862930000000000 0.1476170000000000 0.8524140000000000
vn 0.0000000000000000 -3.1415926535897931 0.0000000000000000
v 0.9137070000000000 0.1476170000000000 0.8524140000000000
vn 0.0000000000000000 -3.1415926535897940 0.0000000000000000
v 0.9137070000000000 0.1476170000000000 0.0250000000000000
vn -0.5979591102287636 -3.0233272224273335 -2.7510691106132645
v 0.0556770000000000 0.1476170000000000 0.0250000000000000
vn -0.5979591102287628 -3.0233272224273295 2.7510691106132645
v 0.0556770000000000 0.1476170000000000 0.8524140000000000
vn -2.0489640551277755 -2.0541834117502935 -2.3543874859744403
v 0.0339920000000000 0.1565440000000000 0.0250000000000000
vn -2.0489640551277764 -2.0541834117502957 2.3543874859744403
v 0.0339920000000000 0.1565440000000000 0.8524140000000000
vn -3.0218012716939096 -0.6016525161178603 -2.7485250373867767
v 0.0250000000000000 0.1782300000000000 0.0250000000000000
vn -3.0218012716939091 -0.6016525161178603 2.7485250373867767
v 0.0250000000000000 0.1782300000000000 0.8524140000000000
vn -3.0798864706073941 0.4359449943746508 -2.8603692469267505
v 0.0250000000000000 0.3892640000000000 0.0250000000000000
vn -3.0798864706073945 0.4359449943746509 2.8603692469267505
v 0.0250000000000000 0.3892640000000000 0.8524140000000000
vn -2.5540077307075655 1.6087827226515543 -2.5798017295973392
v 0.0391470000000000 0.4382360000000000 0.0250000000000000
vn -2.5540077307075655 1.6087827226515543 2.5798017295973392
v 0.0391470000000000 0.4382360000000000 0.8524140000000000
vn -1.3082268504206729 2.7214078209798278 -2.5822336688581520
v 0.0771780000000000 0.4721190000000000 0.0250000000000000
vn -1.3082268504206727 2.7214078209798278 2.5822336688581520
v 0.0771780000000000 0.4721190000000000 0.8524140000000000
vn -0.0849697397331209 3.1092097418615023 -2.8593898380706952
v 0.1274680000000000 0.4806700000000000 0.0250000000000000
vn -0.0849697397331209 3.1092097418615023 2.8593898380706952
v 0.1274680000000000 0.4806700000000000 0.8524140000000000
vn 0.6188262359346215 3.0684103733399932 -2.9711381635393579
v 0.5296090000000000 0.4347160000000000 0.0250000000000000
vn 0.6188262359346223 3.0684103733399959 2.9711381635393579
v 0.5296090000000000 0.4347160000000000 0.8524140000000000
vn 1.3522083801551914 2.7868972622330039 -2.8065825322972935
v 0.5590910000000000 0.4261030000000000 0.0250000000000000
vn 1.3522083801551918 2.7868972622330026 2.8065825322972935
v 0.5590910000000000 0.4261030000000000 0.8524140000000000
vn 2.0224496408525181 2.3898400342441368 -2.9754323888659098
v 0.5840500000000000 0.4083130000000000 0.0250000000000000
vn 2.0224496408525168 2.3898400342441355 2.9754323888659098
v 0.5840500000000000 0.4083130000000000 0.8524140000000000
vn 1.7114667602131317 2.5620969774328293 -3.5345593567309237
v 0.7374990000000000 0.2548620000000000 0.0250000000000000
vn 1.7114667602131326 2.5620969774328324 3.5345593567309237
v 0.7374990000000000 0.2548620000000000 0.8524140000000000
vn 0.0000157803444726 2.9027734939860439 -3.9264577350659664
v 0.7699990000000000 0.2414100000000000 0.0250000000000000
vn 0.0000157803444713 2.9027734939860408 3.9264577350659664
v 0.7699990000000000 0.2414100000000000 0.8524140000000000
vn -2.0520907072168111 2.0521669256880388 -3.9274976303334821
v 0.8025000000000000 0.2548620000000000 0.0250000000000000
vn -2.0520907072168129 2.0521669256880393 3.9274976303334821
v 0.8025000000000000 0.2548620000000000 0.8524140000000000
vn -2.9027354003752306 -0.0000000000000001 -3.9265211448139179
v 0.8159530000000000 0.2873620000000000 0.0250000000000000
vn -2.9027354003752306 -0.0000000000000015 3.9265211448139179
v 0.8159530000000000 0.2873620000000000 0.8524140000000000
vn -2.5667314910376580 -1.7068351005314153 -3.5303375659001679
v 0.8025000000000000 0.3198620000000000 0.0250000000000000
vn -2.5667314910376522 -1.7068351005314104 3.5303375659001679
v 0.8025000000000000 0.3198620000000000 0.8524140000000000
vn -2.3748130988055740 -2.0447746202580497 -3.0008947543093805
v 0.7948930000000000 0.3275330000000000 0.0250000000000000
vn -2.3748130988055784 -2.0447746202580541 3.0008947543093805
v 0.7948930000000000 0.3275330000000000 0.8524140000000000
vn -2.7350658534302363 -1.4771929047581371 -2.8509823536558279
v 0.7472420000000000 0.3914650000000000 0.0250000000000000
vn -2.7350658534302363 -1.4771929047581371 2.8509823536558279
v 0.7472420000000000 0.3914650000000000 0.8524140000000000
vn -3.0435908117196897 -0.6325923616394148 -2.8516436381770096
v 0.7198970000000000 0.4664000000000000 0.0250000000000000
vn -3.0435908117196906 -0.6325923616394150 2.8516436381770096
v 0.7198970000000000 0.4664000000000000 0.8524140000000000
vn -3.0971736132250482 0.2649808348404662 -2.8509930559593748
v 0.7151200000000000 0.5459850000000001 0.0250000000000000
vn -3.0971736132250478 0.2649808348404663 2.8509930559593748
v 0.7151200000000000 0.5459850000000001 0.8524140000000000
vn -2.9905751471506248 0.9351018206772965 -2.9967849197285470
v 0.7333510000000000 0.6236210000000000 0.0250000000000000
vn -2.9905751471506252 0.9351018206772967 2.9967849197285470
v 0.7333510000000000 0.6236210000000000 0.8524140000000000
vn -2.7090204317597451 1.5303551230268471 -2.8640654583209120
v 0.8012430000000000 0.7958690000000000 0.0250000000000000
vn -2.7090204317597468 1.5303551230268482 2.8640654583209120
v 0.8012430000000000 0.7958690000000000 0.8524140000000000
vn -1.8084067548801794 2.4216424111525741 -2.5888249011494584
v 0.8311040000000000 0.8349070000000000 0.0250000000000000
vn -1.8084067548801779 2.4216424111525732 2.5888249011494584
v 0.8311040000000000 0.8349070000000000 0.8524140000000000
vn -0.2677962925587494 3.0105266901144150 -2.5889402529241705
v 0.8769940000000001 0.8524450000000000 0.0250000000000000
vn -0.2677962925587488 3.0105266901144154 2.5889402529241705
v 0.8769940000000001 0.8524450000000000 0.8524140000000000
vn 1.3533973372500787 2.7020639395381387 -2.5881101170613734
v 0.9253350000000000 0.8432680000000000 0.0250000000000000
vn 1.3533973372500785 2.7020639395381378 2.5881101170613734
v 0.9253350000000000 0.8432680000000000 0.8524140000000000
vn 2.5717535428140961 1.5869730711063978 -2.5879428022005779
v 0.9616080000000000 0.8100750000000000 0.0250000000000000
vn 2.5717535428140956 1.5869730711063974 2.5879428022005779
v 0.9616080000000000 0.8100750000000000 0.8524140000000000
vn 3.0821183630911650 0.4281434372703141 -2.8655351244888680
v 0.9750000000000000 0.7628020000000000 0.0250000000000000
vn 3.0821183630911655 0.4281434372703141 2.8655351244888680
v 0.9750000000000000 0.7628020000000000 0.8524140000000000
vn 3.0233369284988005 -0.5979355322056058 -2.7510853429319404
v 0.9750000000000000 0.1782300000000000 0.0250000000000000
vn 3.0233369284988014 -0.5979355322056064 2.7510853429319404
v 0.9750000000000000 0.1782300000000000 0.8524140000000000
vn 2.0504054100502045 -2.0505052452360628 -2.3517622588343761
v 0.9660730000000000 0.1565440000000000 0.0250000000000000
vn 2.0504054100502036 -2.0505052452360619 2.3517622588343761
v 0.9660730000000000 0.1565440000000000 0.8524140000000000
vn 0.5978648083462997 -3.0233660398253530 -2.7511340322081663
v 0.9443840000000000 0.1476170000000000 0.0250000000000000
vn 0.5978648083462997 -3.0233660398253539 2.7511340322081663
v 0.9443840000000000 0.1476170000000000 0.8524140000000000
# 94 vertices, 0 vertices normals


usemtl material_0
vt -1.0000000000000000 -1.0000000000000000
f 9/1/9 11/1/11 10/1/10
f 26/1/26 24/1/24 25/1/25
f 23/1/23 25/1/25 24/1/24
f 28/1/28 26/1/26 27/1/27
f 25/1/25 27/1/27 26/1/26
f 30/1/30 28/1/28 29/1/29
f 27/1/27 29/1/29 28/1/28
f 29/1/29 31/1/31 30/1/30
f 31/1/31 4/1/4 32/1/32
f 34/1/34 33/1/33 35/1/35
f 36/1/36 35/1/35 33/1/33
f 38/1/38 37/1/37 34/1/34
f 33/1/33 34/1/34 37/1/37
f 40/1/40 39/1/39 38/1/38
f 37/1/37 38/1/38 39/1/39
f 42/1/42 41/1/41 40/1/40
f 39/1/39 40/1/40 41/1/41
f 44/1/44 43/1/43 42/1/42
f 41/1/41 42/1/42 43/1/43
f 46/1/46 45/1/45 44/1/44
f 43/1/43 44/1/44 45/1/45
f 48/1/48 47/1/47 46/1/46
f 45/1/45 46/1/46 47/1/47
f 50/1/50 49/1/49 48/1/48
f 47/1/47 48/1/48 49/1/49
f 52/1/52 51/1/51 50/1/50
f 49/1/49 50/1/50 51/1/51
f 54/1/54 53/1/53 52/1/52
f 51/1/51 52/1/52 53/1/53
f 56/1/56 55/1/55 54/1/54
f 53/1/53 54/1/54 55/1/55
f 58/1/58 57/1/57 56/1/56
f 55/1/55 56/1/56 57/1/57
f 60/1/60 59/1/59 58/1/58
f 57/1/57 58/1/58 59/1/59
f 62/1/62 61/1/61 60/1/60
f 59/1/59 60/1/60 61/1/61
f 64/1/64 63/1/63 62/1/62
f 61/1/61 62/1/62 63/1/63
f 66/1/66 65/1/65 64/1/64
f 63/1/63 64/1/64 65/1/65
f 68/1/68 67/1/67 66/1/66
f 65/1/65 66/1/66 67/1/67
f 70/1/70 69/1/69 68/1/68
f 67/1/67 68/1/68 69/1/69
f 72/1/72 71/1/71 70/1/70
f 69/1/69 70/1/70 71/1/71
f 74/1/74 73/1/73 72/1/72
f 71/1/71 72/1/72 73/1/73
f 76/1/76 75/1/75 74/1/74
f 73/1/73 74/1/74 75/1/75
f 78/1/78 77/1/77 76/1/76
f 75/1/75 76/1/76 77/1/77
f 80/1/80 79/1/79 78/1/78
f 77/1/77 78/1/78 79/1/79
f 82/1/82 81/1/81 80/1/80
f 79/1/79 80/1/80 81/1/81
f 84/1/84 83/1/83 82/1/82
f 81/1/81 82/1/82 83/1/83
f 86/1/86 85/1/85 84/1/84
f 83/1/83 84/1/84 85/1/85
f 88/1/88 87/1/87 86/1/86
f 85/1/85 86/1/86 87/1/87
f 90/1/90 89/1/89 88/1/88
f 87/1/87 88/1/88 89/1/89
f 92/1/92 91/1/91 90/1/90
f 89/1/89 90/1/90 91/1/91
f 94/1/94 93/1/93 92/1/92
f 91/1/91 92/1/92 93/1/93
f 35/1/35 36/1/36 94/1/94
f 93/1/93 94/1/94 36/1/36
f 81/1/81 83/1/83 87/1/87
f 85/1/85 87/1/87 83/1/83
f 77/1/77 79/1/79 87/1/87
f 81/1/81 87/1/87 79/1/79
f 73/1/73 75/1/75 87/1/87
f 77/1/77 87/1/87 75/1/75
f 69/1/69 71/1/71 87/1/87
f 73/1/73 87/1/87 71/1/71
f 65/1/65 67/1/67 87/1/87
f 69/1/69 87/1/87 67/1/67
f 89/1/89 63/1/63 87/1/87
f 65/1/65 87/1/87 63/1/63
f 89/1/89 91/1/91 93/1/93
f 61/1/61 63/1/63 93/1/93
f 89/1/89 93/1/93 63/1/63
f 37/1/37 59/1/59 93/1/93
f 61/1/61 93/1/93 59/1/59
f 55/1/55 57/1/57 37/1/37
f 59/1/59 37/1/37 57/1/57
f 51/1/51 53/1/53 37/1/37
f 55/1/55 37/1/37 53/1/53
f 47/1/47 49/1/49 37/1/37
f 51/1/51 37/1/37 49/1/49
f 43/1/43 45/1/45 37/1/37
f 47/1/47 37/1/37 45/1/45
f 39/1/39 41/1/41 37/1/37
f 43/1/43 37/1/37 41/1/41
f 82/1/82 88/1/88 84/1/84
f 86/1/86 84/1/84 88/1/88
f 78/1/78 88/1/88 80/1/80
f 82/1/82 80/1/80 88/1/88
f 74/1/74 88/1/88 76/1/76
f 78/1/78 76/1/76 88/1/88
f 70/1/70 88/1/88 72/1/72
f 74/1/74 72/1/72 88/1/88
f 66/1/66 88/1/88 68/1/68
f 70/1/70 68/1/68 88/1/88
f 90/1/90 88/1/88 64/1/64
f 66/1/66 64/1/64 88/1/88
f 90/1/90 94/1/94 92/1/92
f 62/1/62 94/1/94 64/1/64
f 90/1/90 64/1/64 94/1/94
f 38/1/38 94/1/94 60/1/60
f 62/1/62 60/1/60 94/1/94
f 56/1/56 38/1/38 58/1/58
f 60/1/60 58/1/58 38/1/38
f 52/1/52 38/1/38 54/1/54
f 56/1/56 54/1/54 38/1/38
f 48/1/48 38/1/38 50/1/50
f 52/1/52 50/1/50 38/1/38
f 44/1/44 38/1/38 46/1/46
f 48/1/48 46/1/46 38/1/38
f 40/1/40 38/1/38 42/1/42
f 44/1/44 42/1/42 38/1/38
f 1/1/1 2/1/2 3/1/3
f 4/1/4 1/1/1 3/1/3
f 5/1/5 6/1/6 2/1/2
f 1/1/1 5/1/5 2/1/2
f 7/1/7 8/1/8 6/1/6
f 5/1/5 7/1/7 6/1/6
f 9/1/9 10/1/10 8/1/8
f 7/1/7 9/1/9 8/1/8
f 12/1/12 10/1/10 11/1/11
f 13/1/13 14/1/14 12/1/12
f 11/1/11 13/1/13 12/1/12
f 15/1/15 16/1/16 14/1/14
f 13/1/13 15/1/15 14/1/14
f 17/1/17 18/1/18 16/1/16
f 15/1/15 17/1/17 16/1/16
f 19/1/19 20/1/20 18/1/18
f 17/1/17 19/1/19 18/1/18
f 21/1/21 22/1/22 20/1/20
f 19/1/19 21/1/21 20/1/20
f 23/1/23 24/1/24 22/1/22
f 21/1/21 23/1/23 22/1/22
f 31/1/31 32/1/32 30/1/30
f 4/1/4 3/1/3 32/1/32
f 31/1/31 29/1/29 27/1/27
f 4/1/4 31/1/31 27/1/27
f 23/1/23 21/1/21 19/1/19
f 25/1/25 23/1/23 19/1/19
f 9/1/9 7/1/7 5/1/5
f 9/1/9 5/1/5 1/1/1
f 17/1/17 15/1/15 13/1/13
f 17/1/17 13/1/13 11/1/11
f 27/1/27 25/1/25 19/1/19
f 27/1/27 19/1/19 17/1/17
f 4/1/4 27/1/27 17/1/17
f 1/1/1 4/1/4 17/1/17
f 9/1/9 1/1/1 17/1/17
f 9/1/9 17/1/17 11/1/11
f 28/1/28 30/1/30 32/1/32
f 28/1/28 32/1/32 3/1/3
f 20/1/20 22/1/22 24/1/24
f 20/1/20 24/1/24 26/1/26
f 6/1/6 8/1/8 10/1/10
f 2/1/2 6/1/6 10/1/10
f 14/1/14 16/1/16 18/1/18
f 12/1/12 14/1/14 18/1/18
f 20/1/20 26/1/26 28/1/28
f 18/1/18 20/1/20 28/1/28
f 18/1/18 28/1/28 3/1/3
f 18/1/18 3/1/3 2/1/2
f 12/1/12 18/1/18 2/1/2
f 12/1/12 2/1/2 10/1/10
f 34/1/34 35/1/35 94/1/94
f 36/1/36 33/1/33 37/1/37
# 178 faces, 1 coords texture

# End of File
