####
#
# OBJ File Generated by Meshlab
#
####
# Object m840.obj
#
# Vertices: 94
# Faces: 148
#
####
mtllib ./m840.obj.mtl

vn 0.4081450549508454 0.0000000000000000 3.0876413137304475
v 0.1475860000000000 0.1475860000000000 0.0867920000000000
vn 0.4081450549508455 0.0000000000000000 3.0876413137304475
v 0.1475860000000000 0.0250000000000000 0.0867920000000000
vn -0.4073881148006865 0.0000000000000000 3.0878447848843154
v 0.8524140000000000 0.0250000000000000 0.0867920000000000
vn -0.4073881148006865 0.0000000000000000 3.0878447848843149
v 0.8524140000000000 0.1475860000000000 0.0867920000000000
vn 1.5172786228771340 0.0000000000000000 2.6291506233374529
v 0.1169700000000000 0.1475860000000000 0.0950300000000000
vn 1.5172786228771333 0.0000000000000000 2.6291506233374529
v 0.1169700000000000 0.0250000000000000 0.0950300000000000
vn 2.6262191806289916 0.0000000000000000 1.5195553681425149
v 0.0945280000000000 0.1475860000000000 0.1174080000000000
vn 2.6262191806289925 0.0000000000000000 1.5195553681425151
v 0.0945280000000000 0.0250000000000000 0.1174080000000000
vn 3.0878819394976009 0.0000000000000000 0.4072497317406127
v 0.0862930000000000 0.1475860000000000 0.1480850000000000
vn 3.0878819394976005 0.0000000000000000 0.4072497317406127
v 0.0862930000000000 0.0250000000000000 0.1480850000000000
vn 3.0878819394976000 0.0000000000000000 -0.4072497317406133
v 0.0862930000000000 0.1475860000000000 0.7298280000000000
vn 3.0878819394976009 0.0000000000000000 -0.4072497317406134
v 0.0862930000000000 0.0250000000000000 0.7298280000000000
vn 2.6278310928891999 0.0000000000000000 -1.5179457200819826
v 0.0945280000000000 0.1475860000000000 0.7605050000000000
vn 2.6278310928891986 0.0000000000000000 -1.5179457200819819
v 0.0945280000000000 0.0250000000000000 0.7605050000000000
vn 1.5158851853054911 0.0000000000000000 -2.6283464486280685
v 0.1169700000000000 0.1475860000000000 0.7829480000000000
vn 1.5158851853054918 0.0000000000000000 -2.6283464486280699
v 0.1169700000000000 0.0250000000000000 0.7829480000000000
vn 0.4051397051189962 0.0000000000000000 -3.0884467870815970
v 0.1475860000000000 0.1475860000000000 0.7911210000000000
vn 0.4051397051189961 0.0000000000000000 -3.0884467870815966
v 0.1475860000000000 0.0250000000000000 0.7911210000000000
vn -0.4043875426788846 0.0000000000000000 -3.0886473786436848
v 0.8524140000000000 0.1475860000000000 0.7911210000000000
vn -0.4043875426788848 0.0000000000000000 -3.0886473786436852
v 0.8524140000000000 0.0250000000000000 0.7911210000000000
vn -1.5151082772184763 0.0000000000000000 -2.6285717863883802
v 0.8830910000000000 0.1475860000000000 0.7829480000000000
vn -1.5151082772184765 0.0000000000000000 -2.6285717863883802
v 0.8830910000000000 0.0250000000000000 0.7829480000000000
vn -2.6285717863883789 0.0000000000000000 -1.5151082772184816
v 0.9055340000000000 0.1475860000000000 0.7605050000000000
vn -2.6285717863883784 0.0000000000000000 -1.5151082772184814
v 0.9055340000000000 0.0250000000000000 0.7605050000000000
vn -3.0886473786436834 0.0000000000000000 -0.4043875426788899
v 0.9137070000000000 0.1475860000000000 0.7298280000000000
vn -3.0886473786436834 0.0000000000000000 -0.4043875426788898
v 0.9137070000000000 0.0250000000000000 0.7298280000000000
vn -3.0886473786436834 0.0000000000000000 0.4043875426788892
v 0.9137070000000000 0.1475860000000000 0.1480850000000000
vn -3.0886473786436834 0.0000000000000000 0.4043875426788893
v 0.9137070000000000 0.0250000000000000 0.1480850000000000
vn -2.6269598383696042 0.0000000000000000 1.5167178892642277
v 0.9055340000000000 0.1475860000000000 0.1174080000000000
vn -2.6269598383696051 0.0000000000000000 1.5167178892642283
v 0.9055340000000000 0.0250000000000000 0.1174080000000000
vn -1.5164969013215046 0.0000000000000000 2.6293788046747579
v 0.8830910000000000 0.1475860000000000 0.0950300000000000
vn -1.5164969013215042 0.0000000000000000 2.6293788046747570
v 0.8830910000000000 0.0250000000000000 0.0950300000000000
vn 0.0000000000000000 -3.1415926535897931 0.0000000000000000
v 0.0862930000000000 0.1476170000000000 0.0250000000000000
vn 0.0000000000000000 -3.1415926535897944 0.0000000000000000
v 0.0862930000000000 0.1476170000000000 0.8524140000000000
vn 0.0000000000000000 -3.1415926535897931 0.0000000000000000
v 0.9137070000000000 0.1476170000000000 0.8524140000000000
vn 0.0000000000000000 -3.1415926535897940 0.0000000000000000
v 0.9137070000000000 0.1476170000000000 0.0250000000000000
vn -0.5979591102287636 -3.0233272224273335 -2.7510691106132645
v 0.0556770000000000 0.1476170000000000 0.0250000000000000
vn -0.5979591102287628 -3.0233272224273295 2.7510691106132645
v 0.0556770000000000 0.1476170000000000 0.8524140000000000
vn -2.0489640551277755 -2.0541834117502935 -2.3543874859744403
v 0.0339920000000000 0.1565440000000000 0.0250000000000000
vn -2.0489640551277764 -2.0541834117502957 2.3543874859744403
v 0.0339920000000000 0.1565440000000000 0.8524140000000000
vn -3.0218012716939096 -0.6016525161178603 -2.7485250373867767
v 0.0250000000000000 0.1782300000000000 0.0250000000000000
vn -3.0218012716939091 -0.6016525161178603 2.7485250373867767
v 0.0250000000000000 0.1782300000000000 0.8524140000000000
vn -3.0798864706073941 0.4359449943746508 -2.8603692469267505
v 0.0250000000000000 0.3892640000000000 0.0250000000000000
vn -3.0798864706073945 0.4359449943746509 2.8603692469267505
v 0.0250000000000000 0.3892640000000000 0.8524140000000000
vn -2.5540077307075655 1.6087827226515543 -2.5798017295973392
v 0.0391470000000000 0.4382360000000000 0.0250000000000000
vn -2.5540077307075655 1.6087827226515543 2.5798017295973392
v 0.0391470000000000 0.4382360000000000 0.8524140000000000
vn -1.3082268504206729 2.7214078209798278 -2.5822336688581520
v 0.0771780000000000 0.4721190000000000 0.0250000000000000
vn -1.3082268504206727 2.7214078209798278 2.5822336688581520
v 0.0771780000000000 0.4721190000000000 0.8524140000000000
vn -0.0849697397331209 3.1092097418615023 -2.8593898380706952
v 0.1274680000000000 0.4806700000000000 0.0250000000000000
vn -0.0849697397331209 3.1092097418615023 2.8593898380706952
v 0.1274680000000000 0.4806700000000000 0.8524140000000000
vn 0.6188262359346215 3.0684103733399932 -2.9711381635393579
v 0.5296090000000000 0.4347160000000000 0.0250000000000000
vn 0.6188262359346223 3.0684103733399959 2.9711381635393579
v 0.5296090000000000 0.4347160000000000 0.8524140000000000
vn 1.3522083801551914 2.7868972622330039 -2.8065825322972935
v 0.5590910000000000 0.4261030000000000 0.0250000000000000
vn 1.3522083801551918 2.7868972622330026 2.8065825322972935
v 0.5590910000000000 0.4261030000000000 0.8524140000000000
vn 2.0224496408525181 2.3898400342441368 -2.9754323888659098
v 0.5840500000000000 0.4083130000000000 0.0250000000000000
vn 2.0224496408525168 2.3898400342441355 2.9754323888659098
v 0.5840500000000000 0.4083130000000000 0.8524140000000000
vn 1.7114667602131317 2.5620969774328293 -3.5345593567309237
v 0.7374990000000000 0.2548620000000000 0.0250000000000000
vn 1.7114667602131326 2.5620969774328324 3.5345593567309237
v 0.7374990000000000 0.2548620000000000 0.8524140000000000
vn 0.0000157803444726 2.9027734939860439 -3.9264577350659664
v 0.7699990000000000 0.2414100000000000 0.0250000000000000
vn 0.0000157803444713 2.9027734939860408 3.9264577350659664
v 0.7699990000000000 0.2414100000000000 0.8524140000000000
vn -2.0520907072168111 2.0521669256880388 -3.9274976303334821
v 0.8025000000000000 0.2548620000000000 0.0250000000000000
vn -2.0520907072168129 2.0521669256880393 3.9274976303334821
v 0.8025000000000000 0.2548620000000000 0.8524140000000000
vn -2.9027354003752306 -0.0000000000000001 -3.9265211448139179
v 0.8159530000000000 0.2873620000000000 0.0250000000000000
vn -2.9027354003752306 -0.0000000000000015 3.9265211448139179
v 0.8159530000000000 0.2873620000000000 0.8524140000000000
vn -2.5667314910376580 -1.7068351005314153 -3.5303375659001679
v 0.8025000000000000 0.3198620000000000 0.0250000000000000
vn -2.5667314910376522 -1.7068351005314104 3.5303375659001679
v 0.8025000000000000 0.3198620000000000 0.8524140000000000
vn -2.3748130988055740 -2.0447746202580497 -3.0008947543093805
v 0.7948930000000000 0.3275330000000000 0.0250000000000000
vn -2.3748130988055784 -2.0447746202580541 3.0008947543093805
v 0.7948930000000000 0.3275330000000000 0.8524140000000000
vn -2.7350658534302363 -1.4771929047581371 -2.8509823536558279
v 0.7472420000000000 0.3914650000000000 0.0250000000000000
vn -2.7350658534302363 -1.4771929047581371 2.8509823536558279
v 0.7472420000000000 0.3914650000000000 0.8524140000000000
vn -3.0435908117196897 -0.6325923616394148 -2.8516436381770096
v 0.7198970000000000 0.4664000000000000 0.0250000000000000
vn -3.0435908117196906 -0.6325923616394150 2.8516436381770096
v 0.7198970000000000 0.4664000000000000 0.8524140000000000
vn -3.0971736132250482 0.2649808348404662 -2.8509930559593748
v 0.7151200000000000 0.5459850000000001 0.0250000000000000
vn -3.0971736132250478 0.2649808348404663 2.8509930559593748
v 0.7151200000000000 0.5459850000000001 0.8524140000000000
vn -2.9905751471506248 0.9351018206772965 -2.9967849197285470
v 0.7333510000000000 0.6236210000000000 0.0250000000000000
vn -2.9905751471506252 0.9351018206772967 2.9967849197285470
v 0.7333510000000000 0.6236210000000000 0.8524140000000000
vn -2.7090204317597451 1.5303551230268471 -2.8640654583209120
v 0.8012430000000000 0.7958690000000000 0.0250000000000000
vn -2.7090204317597468 1.5303551230268482 2.8640654583209120
v 0.8012430000000000 0.7958690000000000 0.8524140000000000
vn -1.8084067548801794 2.4216424111525741 -2.5888249011494584
v 0.8311040000000000 0.8349070000000000 0.0250000000000000
vn -1.8084067548801779 2.4216424111525732 2.5888249011494584
v 0.8311040000000000 0.8349070000000000 0.8524140000000000
vn -0.2677962925587494 3.0105266901144150 -2.5889402529241705
v 0.8769940000000001 0.8524450000000000 0.0250000000000000
vn -0.2677962925587488 3.0105266901144154 2.5889402529241705
v 0.8769940000000001 0.8524450000000000 0.8524140000000000
vn 1.3533973372500787 2.7020639395381387 -2.5881101170613734
v 0.9253350000000000 0.8432680000000000 0.0250000000000000
vn 1.3533973372500785 2.7020639395381378 2.5881101170613734
v 0.9253350000000000 0.8432680000000000 0.8524140000000000
vn 2.5717535428140961 1.5869730711063978 -2.5879428022005779
v 0.9616080000000000 0.8100750000000000 0.0250000000000000
vn 2.5717535428140956 1.5869730711063974 2.5879428022005779
v 0.9616080000000000 0.8100750000000000 0.8524140000000000
vn 3.0821183630911650 0.4281434372703141 -2.8655351244888680
v 0.9750000000000000 0.7628020000000000 0.0250000000000000
vn 3.0821183630911655 0.4281434372703141 2.8655351244888680
v 0.9750000000000000 0.7628020000000000 0.8524140000000000
vn 3.0233369284988005 -0.5979355322056058 -2.7510853429319404
v 0.9750000000000000 0.1782300000000000 0.0250000000000000
vn 3.0233369284988014 -0.5979355322056064 2.7510853429319404
v 0.9750000000000000 0.1782300000000000 0.8524140000000000
vn 2.0504054100502045 -2.0505052452360628 -2.3517622588343761
v 0.9660730000000000 0.1565440000000000 0.0250000000000000
vn 2.0504054100502036 -2.0505052452360619 2.3517622588343761
v 0.9660730000000000 0.1565440000000000 0.8524140000000000
vn 0.5978648083462997 -3.0233660398253530 -2.7511340322081663
v 0.9443840000000000 0.1476170000000000 0.0250000000000000
vn 0.5978648083462997 -3.0233660398253539 2.7511340322081663
v 0.9443840000000000 0.1476170000000000 0.8524140000000000
# 94 vertices, 0 vertices normals


usemtl material_0
f 9//9 11//11 10//10
f 26//26 24//24 25//25
f 23//23 25//25 24//24
f 28//28 26//26 27//27
f 25//25 27//27 26//26
f 30//30 28//28 29//29
f 27//27 29//29 28//28
f 29//29 31//31 30//30
f 31//31 4//4 32//32
f 34//34 33//33 35//35
f 36//36 35//35 33//33
f 38//38 37//37 34//34
f 33//33 34//34 37//37
f 40//40 39//39 38//38
f 37//37 38//38 39//39
f 42//42 41//41 40//40
f 39//39 40//40 41//41
f 44//44 43//43 42//42
f 41//41 42//42 43//43
f 46//46 45//45 44//44
f 43//43 44//44 45//45
f 48//48 47//47 46//46
f 45//45 46//46 47//47
f 50//50 49//49 48//48
f 47//47 48//48 49//49
f 52//52 51//51 50//50
f 49//49 50//50 51//51
f 54//54 53//53 52//52
f 51//51 52//52 53//53
f 56//56 55//55 54//54
f 53//53 54//54 55//55
f 58//58 57//57 56//56
f 55//55 56//56 57//57
f 60//60 59//59 58//58
f 57//57 58//58 59//59
f 62//62 61//61 60//60
f 59//59 60//60 61//61
f 64//64 63//63 62//62
f 61//61 62//62 63//63
f 66//66 65//65 64//64
f 63//63 64//64 65//65
f 68//68 67//67 66//66
f 65//65 66//66 67//67
f 70//70 69//69 68//68
f 67//67 68//68 69//69
f 72//72 71//71 70//70
f 69//69 70//70 71//71
f 74//74 73//73 72//72
f 71//71 72//72 73//73
f 76//76 75//75 74//74
f 73//73 74//74 75//75
f 78//78 77//77 76//76
f 75//75 76//76 77//77
f 80//80 79//79 78//78
f 77//77 78//78 79//79
f 82//82 81//81 80//80
f 79//79 80//80 81//81
f 84//84 83//83 82//82
f 81//81 82//82 83//83
f 86//86 85//85 84//84
f 83//83 84//84 85//85
f 88//88 87//87 86//86
f 85//85 86//86 87//87
f 90//90 89//89 88//88
f 87//87 88//88 89//89
f 92//92 91//91 90//90
f 89//89 90//90 91//91
f 94//94 93//93 92//92
f 91//91 92//92 93//93
f 35//35 36//36 94//94
f 93//93 94//94 36//36
f 81//81 83//83 87//87
f 85//85 87//87 83//83
f 77//77 79//79 87//87
f 81//81 87//87 79//79
f 73//73 75//75 87//87
f 77//77 87//87 75//75
f 69//69 71//71 87//87
f 73//73 87//87 71//71
f 65//65 67//67 87//87
f 69//69 87//87 67//67
f 89//89 63//63 87//87
f 65//65 87//87 63//63
f 89//89 91//91 93//93
f 61//61 63//63 93//93
f 89//89 93//93 63//63
f 37//37 59//59 93//93
f 61//61 93//93 59//59
f 55//55 57//57 37//37
f 59//59 37//37 57//57
f 51//51 53//53 37//37
f 55//55 37//37 53//53
f 47//47 49//49 37//37
f 51//51 37//37 49//49
f 43//43 45//45 37//37
f 47//47 37//37 45//45
f 39//39 41//41 37//37
f 43//43 37//37 41//41
f 82//82 88//88 84//84
f 86//86 84//84 88//88
f 78//78 88//88 80//80
f 82//82 80//80 88//88
f 74//74 88//88 76//76
f 78//78 76//76 88//88
f 70//70 88//88 72//72
f 74//74 72//72 88//88
f 66//66 88//88 68//68
f 70//70 68//68 88//88
f 90//90 88//88 64//64
f 66//66 64//64 88//88
f 90//90 94//94 92//92
f 62//62 94//94 64//64
f 90//90 64//64 94//94
f 38//38 94//94 60//60
f 62//62 60//60 94//94
f 56//56 38//38 58//58
f 60//60 58//58 38//38
f 52//52 38//38 54//54
f 56//56 54//54 38//38
f 48//48 38//38 50//50
f 52//52 50//50 38//38
f 44//44 38//38 46//46
f 48//48 46//46 38//38
f 40//40 38//38 42//42
f 44//44 42//42 38//38
f 1//1 2//2 3//3
f 4//4 1//1 3//3
f 5//5 6//6 2//2
f 1//1 5//5 2//2
f 7//7 8//8 6//6
f 5//5 7//7 6//6
f 9//9 10//10 8//8
f 7//7 9//9 8//8
f 12//12 10//10 11//11
f 13//13 14//14 12//12
f 11//11 13//13 12//12
f 15//15 16//16 14//14
f 13//13 15//15 14//14
f 17//17 18//18 16//16
f 15//15 17//17 16//16
f 19//19 20//20 18//18
f 17//17 19//19 18//18
f 21//21 22//22 20//20
f 19//19 21//21 20//20
f 23//23 24//24 22//22
f 21//21 23//23 22//22
f 31//31 32//32 30//30
f 4//4 3//3 32//32
# 148 faces, 0 coords texture

# End of File
