####
#
# OBJ File Generated by Meshlab
#
####
# Object D00302.obj
#
# Vertices: 122
# Faces: 196
#
####
mtllib ./D00302.obj.mtl

vn -4.6717028762057131 0.7942381813398952 -2.1214711573704896
v 0.5509180000000000 0.4967180000000000 0.2627460000000000
vn -3.7232337587700961 1.4393620306345967 1.6679955463579577
v 0.6050940000000000 0.3496640000000000 -0.3792020000000000
vn -4.4370026759208328 -2.3077410967159242 -1.3920540681513132
v 0.5976660000000000 -0.1225510000000000 0.4085500000000000
vn -3.7232969314276532 1.4394733674640174 1.6679987411939914
v 0.6533980000000000 -0.2902160000000000 -0.2285450000000000
vn -2.5304379100754586 -1.2010088075506471 0.8616511522050565
v 0.6035760000000000 0.3701700000000000 -0.3845130000000000
vn -2.5301644290310996 -1.2011907827815480 0.8614557451611777
v 0.6518810000000000 -0.2697100000000000 -0.2338560000000000
vn -2.4074512114867539 0.4524404795026060 -2.7110185449547224
v 0.5991630000000000 -0.1430010000000000 0.4141090000000000
vn -2.2049712464160631 -1.9483219282967374 -2.1415263377094655
v 0.5493010000000000 0.5174950000000000 0.2586160000000000
vn -3.3019504648716729 -1.1643755744070763 -3.0918160810003852
v 0.5500080000000001 0.4959570000000000 0.2637780000000000
vn -3.2304633671005525 -1.5675600474593145 -3.6465793557918733
v 0.5966230000000000 -0.1215490000000000 0.4091670000000000
vn -0.8507923795278334 -4.2448112203711315 -1.3068875529934370
v 0.5474250000000001 0.5189279999999999 0.2573640000000000
vn -1.2118021027468200 -2.9809983095897854 2.8919838348525939
v 0.6016010000000001 0.3718740000000000 -0.3845840000000000
vn -1.7645061917266602 2.9178478209944685 -0.8595026611622308
v 0.5492470000000000 0.4947930000000000 0.2630460000000000
vn -1.0675993957132828 -5.0098862153674819 -0.5338178766861400
v 0.5957290000000000 -0.1209520000000000 0.4080210000000000
vn -1.2114628684772624 -2.9813706828691418 2.8923162076758766
v 0.6499050000000000 -0.2680060000000000 -0.2339270000000000
vn -1.4506389656266370 3.0962792429388335 -3.0207796464002601
v 0.5975510000000001 -0.1450870000000000 0.4137030000000000
vn -1.4223801123882136 2.5603654067108788 0.0932819761268548
v 0.6034620000000001 0.3476340000000000 -0.3793600000000000
vn -1.4223828901484494 2.5603715823303608 0.0932421707770553
v 0.6517660000000000 -0.2922460000000000 -0.2287030000000000
vn 1.2950142416108195 -2.2144844328441753 1.4163559348216981
v 0.6288400000000000 -0.2700210000000000 -0.2357290000000000
vn 1.2948308902791568 -2.2146117963498613 1.4165581577911648
v 0.5805360000000001 0.3698590000000000 -0.3863860000000000
vn 1.9412634786498733 -4.6919591786747175 -0.4086138922727631
v 0.5263210000000000 0.5170190000000000 0.2560200000000000
vn 1.3229975984606772 4.3180469351539008 -2.4697711617184210
v 0.5281430000000000 0.4928830000000000 0.2617030000000000
vn 0.8434071174631890 3.9799414146198009 1.4711150936700779
v 0.5823190000000000 0.3458290000000000 -0.3802450000000000
vn 1.7712272367481647 -2.9362042477119168 0.7799630579428589
v 0.5746260000000000 -0.1228620000000000 0.4066770000000000
vn 1.3210255290584443 4.3206487733544128 -2.4704636891614440
v 0.5764480000000000 -0.1469970000000000 0.4123600000000000
vn 0.8433938709120045 3.9799290454685181 1.4711164875898906
v 0.6306240000000000 -0.2940510000000000 -0.2295880000000000
vn 2.1825639602957261 -4.1649197811606573 -2.6287382443016210
v 0.5254120000000000 0.5162580000000000 0.2570520000000000
vn 3.0458620470450954 1.6472442132102056 -3.9989264225591334
v 0.5271010000000000 0.4938850000000000 0.2623190000000000
vn 3.9644449437826221 -2.1259414251356015 -3.0562511855291383
v 0.5737160000000000 -0.1236220000000000 0.4077090000000000
vn 1.0010719246446160 2.9078375500810250 -3.7023438273619700
v 0.5754050000000001 -0.1459960000000000 0.4129760000000000
vn 2.4030709771640026 1.5468558787108990 0.6484507160261814
v 0.5804210000000000 0.3473230000000000 -0.3812330000000000
vn 2.4030584113440163 1.5469335395482862 0.6484410425462938
v 0.6287260000000000 -0.2925570000000000 -0.2305760000000000
vn 4.8742987989290336 -1.4259594891805707 -0.8527389712960447
v 0.5246510000000000 0.5150940000000001 0.2563200000000000
vn 3.3552336844993973 -0.4402244852442553 2.6956653568279285
v 0.5788270000000000 0.3680400000000000 -0.3856280000000000
vn 3.0282089332491005 1.7758918353093613 -0.1933946585099812
v 0.5262070000000000 0.4944820000000000 0.2611730000000000
vn 4.8742986969723132 -1.4259588177468079 -0.8527383241439946
v 0.5729550000000000 -0.1247860000000000 0.4069770000000000
vn 3.3551288929263539 -0.4396609951808427 2.6958310106394601
v 0.6271310000000000 -0.2718410000000000 -0.2349710000000000
vn 3.0289466692887821 1.7748394426240943 -0.1930882467584953
v 0.5745110000000000 -0.1453980000000000 0.4118300000000000
vn -3.0215773976705593 -1.7942850378710835 0.1138759703573323
v -0.7930120000000001 0.3958720000000000 0.1724290000000000
vn -4.6210029975689997 0.7382900074630500 -2.1496864602586934
v -0.7914560000000000 0.3752600000000000 0.1772820000000000
vn -3.7232649458736375 1.4394650045341346 1.6680155574524922
v -0.7372800000000000 0.2282060000000000 -0.4646660000000000
vn -3.0215774996849643 -1.7942843662329500 0.1138766181784556
v -0.7447080000000000 -0.2440080000000000 0.3230860000000000
vn -4.6210030246285703 0.7382896861787920 -2.1496855786462232
v -0.7431520000000000 -0.2646200000000000 0.3279390000000000
vn -3.7232648416095624 1.4394643127957183 1.6680149027292706
v -0.6889760000000000 -0.4116740000000000 -0.3140090000000000
vn -2.5304738881924718 -1.2010150318657367 0.8614684432295878
v -0.7387970000000000 0.2487130000000000 -0.4699770000000000
vn -2.5304755766360461 -1.2010877394550290 0.8614376533028798
v -0.6904930000000000 -0.3911670000000000 -0.3193200000000000
vn -0.5707801410387584 -4.2689705348045397 -2.1589773860172743
v -0.7940550000000000 0.3968730000000000 0.1730460000000000
vn -3.4592238145690803 1.7063300763025582 -4.5125314254411393
v -0.7923660000000000 0.3745000000000000 0.1783140000000000
vn -2.3510418313170822 -4.5637623559920826 -2.9811591015392147
v -0.7457510000000001 -0.2430070000000000 0.3237030000000000
vn -1.6686968699858209 2.5405314100229761 -4.4635045390438792
v -0.7440620000000000 -0.2653800000000000 0.3289710000000000
vn -1.1282109173572461 -5.0497907789760843 -0.4763519462615928
v -0.7949490000000000 0.3974710000000000 0.1719000000000000
vn -1.2112569913410105 -2.9796595458890693 2.8923100328717020
v -0.7407730000000000 0.2504170000000000 -0.4700490000000000
vn -1.7649890322380712 2.9169730459020156 -0.8592848496804099
v -0.7931270000000000 0.3733350000000000 0.1775820000000000
vn -1.0677518091941678 -5.0099666336678919 -0.5337885525841255
v -0.7466450000000000 -0.2424100000000000 0.3225570000000000
vn -1.2114257671658129 -2.9798107950877597 2.8924337541741498
v -0.6924680000000000 -0.3894640000000000 -0.3193920000000000
vn -1.8096961770245883 4.0888751970657999 -2.6355967547038639
v -0.7448230000000000 -0.2665450000000000 0.3282390000000000
vn -1.4222914609863697 2.5604022377489812 0.0931935768318035
v -0.6906080000000000 -0.4137040000000000 -0.3141670000000000
vn -1.4222899072007407 2.5603984454703923 0.0931925086273130
v -0.7389120000000000 0.2261760000000000 -0.4648240000000000
vn 1.2950524291463383 -2.2145428681816171 1.4162939195282775
v -0.7618380000000000 0.2484020000000000 -0.4718500000000000
vn 1.2340923599101759 2.0415602478536719 -2.7680754439778625
v -0.7659859999999999 -0.2682930000000000 0.3276010000000000
vn 1.2948657095120402 -2.2144397704755625 1.4164346987544416
v -0.7135330000000000 -0.3914780000000000 -0.3211940000000000
vn 1.3222974352753600 4.3216827996466458 -2.4689856915106940
v -0.8142310000000000 0.3714260000000000 0.1762380000000000
vn 0.8426784495508073 3.9812057211428331 1.4712134215907060
v -0.7600540000000000 0.2243720000000000 -0.4657100000000000
vn 1.7709726924519800 -2.9351354769907805 0.7797001294237076
v -0.7677480000000000 -0.2443190000000000 0.3212130000000000
vn 0.8430838918820904 3.9809508028101965 1.4710228496561133
v -0.7117500000000000 -0.4155080000000000 -0.3150530000000000
vn 1.6313136520908997 -2.7376153115289279 -1.5953861724360632
v -0.8162500000000000 0.3957300000000000 0.1714160000000000
vn 3.7688152521267391 1.1483268665365090 -3.6746776602172542
v -0.8152730000000000 0.3724270000000000 0.1768550000000000
vn 3.9120913909964652 -1.3707155909542346 -2.4386189183504112
v -0.7686580000000000 -0.2450800000000000 0.3222440000000000
vn 2.4024377950665565 1.5471450348568521 0.6477628581828260
v -0.7619530000000000 0.2258650000000000 -0.4666980000000000
vn 2.4026605570614263 1.5470992518534392 0.6480882836906632
v -0.7136479999999999 -0.4140150000000000 -0.3160410000000000
vn 4.2925875227874224 -1.3677759552129600 -1.4426879271023569
v -0.8177230000000000 0.3936360000000000 0.1708560000000000
vn 3.3553451846634990 -0.4398741862967305 2.6958886668119448
v -0.7635470000000000 0.2465820000000000 -0.4710920000000000
vn 4.6129142913168710 1.5147087339073675 -1.5918953490937073
v -0.8161670000000000 0.3730250000000000 0.1757090000000000
vn 4.8737027645356648 -1.4256327988115935 -0.8539407813708263
v -0.7694190000000000 -0.2462440000000000 0.3215130000000000
vn 3.3562008441252984 -0.4403172767976844 2.6954863321010807
v -0.7152430000000000 -0.3932980000000000 -0.3204350000000000
vn 3.8533127215155849 1.1837840292250159 -2.1350519057756530
v -0.7678630000000000 -0.2668560000000000 0.3263660000000000
vn -1.1751010570937535 -1.6947086134894154 -0.8219795016827600
v 0.5545710000000000 0.5337160000000000 0.2818340000000000
vn -1.7561405684638633 -1.3279191845682436 2.3833366163006531
v 0.5525630000000000 0.5232200000000000 0.2577480000000000
vn -2.0491166486686185 1.4655633378117996 -2.0225939164332085
v 0.6013420000000000 -0.1428540000000000 0.4381700000000000
vn -1.8051588960318099 1.7331526687921150 1.0675279710056946
v 0.6032320000000000 -0.1479830000000000 0.4157800000000000
vn -0.8261794163283211 -0.1480227819172848 -5.6446636965668304
v 0.5961880000000001 -0.1381560000000000 0.4396100000000000
vn 1.7203251875071255 -2.2764357193950384 -4.9417636421277020
v -0.8190870000000000 0.4005680000000000 0.1967630000000000
vn 2.2915428052670004 -2.1307035137511194 -0.8388086251631309
v -0.8237710000000000 0.4039900000000000 0.1926320000000000
vn 1.5477601119198225 -1.0418684870848660 1.9925313318750963
v -0.8218820000000000 0.3988610000000000 0.1702420000000000
vn 1.3989355104207268 2.2934817736406115 1.8090696194134142
v -0.7712130000000000 -0.2723420000000000 0.3282740000000000
vn 1.3581574743058251 1.2252758115463545 -1.2935245259261485
v -0.7772550000000000 -0.2713490000000000 0.3538010000000000
vn -0.1278618861776163 0.3470992568573789 1.5151286896834306
v 0.6541560000000000 -0.2934090000000000 -0.2336150000000000
vn -0.1278498185989766 0.3470329415148325 1.5149385539794589
v 0.6039080000000000 0.3707450000000000 -0.3899590000000000
vn -0.1644943045330863 0.3112587856413362 1.5406368076345580
v 0.6521620000000000 -0.2689570000000000 -0.2387680000000000
vn -0.1730103063491632 0.3877226960392074 1.5230658656512290
v 0.6054520000000000 0.3468550000000000 -0.3837020000000000
vn -0.0861182956920454 0.3155703059123939 1.5469249365161850
v 0.5792929999999999 0.3686110000000000 -0.3908940000000000
vn -0.0945179496217362 0.3919302699532080 1.5287799399354860
v 0.6292030000000000 -0.2953700000000000 -0.2346550000000000
vn -0.1278901478832120 0.3470635025650521 1.5149086437243442
v 0.5809410000000000 0.3444380000000000 -0.3858710000000000
vn -0.1279361306312326 0.3472446219435545 1.5158387894134644
v 0.6273090000000000 -0.2712020000000000 -0.2409680000000000
vn -0.1278558536456347 0.3470582987736548 1.5150899919655121
v -0.6900280000000000 -0.3904110000000000 -0.3248340000000000
vn -0.1701385800521930 0.3853083941853221 1.5247134288372113
v -0.6884040000000000 -0.4146040000000000 -0.3185390000000000
vn -0.1278689448174971 0.3469573479403775 1.5149362929437706
v -0.7367160000000000 0.2251460000000000 -0.4697460000000000
vn -0.1672447967919150 0.3083903400432732 1.5417165473348737
v -0.7386340000000000 0.2492770000000000 -0.4747810000000000
vn -0.0918454490075599 0.3947675242616430 1.5283176843342383
v -0.7613690000000000 0.2232740000000000 -0.4707440000000000
vn -0.1278329309860580 0.3470008005850987 1.5149365320030379
v -0.7631829999999999 0.2471220000000000 -0.4770130000000000
vn -0.0890258886651712 0.3180383319274113 1.5454684196959561
v -0.7149790000000000 -0.3926380000000000 -0.3258130000000000
vn -0.1278590003389483 0.3470666680906015 1.5151261742396811
v -0.7132370000000000 -0.4171130000000000 -0.3206760000000000
vn -1.8413406684351938 0.5701125230459041 1.3873804596160575
v 0.6007470000000000 -0.1364630000000000 0.3423570000000000
vn -1.7870268341796554 -0.1507666974865667 1.5575408721839894
v 0.5541860000000000 0.4800900000000000 0.1971910000000000
vn 1.0849807472487467 -0.3467004681803807 4.8991001653717614
v 0.5338120000000000 0.4774970000000000 0.1945340000000000
vn 0.8614686219705956 2.6340760677756547 4.1972760869113097
v 0.5802940000000000 -0.1382480000000000 0.3395080000000000
vn -2.1780689499539387 -2.0819595439784058 1.6838639367716284
v 0.5310800000000000 0.5008710000000000 0.1898830000000000
vn -0.0470237531642157 2.1308573909353585 2.2736092455261470
v 0.5327690000000000 0.4784980000000000 0.1951510000000000
vn 0.1796750750474050 -0.8829749056717475 2.9829706471945339
v 0.5793850000000000 -0.1390090000000000 0.3405400000000000
vn -2.5073979944996427 2.2795915861973959 0.6569171048112201
v 0.5810730000000000 -0.1613820000000000 0.3458080000000000
vn -1.8009264398454192 -0.6041224586227535 4.7825172352427829
v 0.5303190000000000 0.4997070000000000 0.1891510000000000
vn -2.0287416388724204 2.3999120933095837 4.0754546232903071
v 0.5318750000000000 0.4790950000000000 0.1940040000000000
vn -1.8038219133323135 -0.6018216415696800 4.7838206881520451
v 0.5786240000000000 -0.1401730000000000 0.3398080000000000
vn -2.0279301781805481 2.4005388626123136 4.0748140288548411
v 0.5801790000000000 -0.1607850000000000 0.3446610000000000
vn 0.3579289751553825 2.9380853665605153 1.9565273893403212
v -0.7857880000000000 0.3598740000000000 0.1101130000000000
vn 0.7021991286418087 -1.6914946546056249 2.9710786138520069
v -0.7390390000000000 -0.2593950000000000 0.2559170000000000
vn 1.6439600923454021 -1.2829824065239308 2.2124248559026904
v -0.7875660000000000 0.3801950000000000 0.1068770000000000
vn 1.3692518688840067 2.3528083163249494 1.3574775813335975
v -0.7377990000000000 -0.2790640000000000 0.2620970000000000
vn 0.3181486559381828 1.2763815329801194 2.6529064898169663
v -0.7881840000000000 0.3601290000000000 0.1112530000000000
vn 0.4099177131784246 0.0998170992450923 2.9300320885896833
v -0.7414269999999999 -0.2594930000000000 0.2571390000000000
vn 1.7004831538337222 -1.0069822368167591 2.1397158999003429
v -0.8081190000000000 0.3565810000000000 0.1105150000000000
vn 1.4684197586971353 2.0821251449174079 1.4125360348438627
v -0.7616290000000000 -0.2595000000000000 0.2555670000000000
# 122 vertices, 0 vertices normals


usemtl material_0
vt -1.0000000000000000 -1.0000000000000000
f 6/1/6 18/1/18 4/1/4
f 18/1/18 32/1/32 26/1/26
f 19/1/19 6/1/6 15/1/15
f 32/1/32 19/1/19 37/1/37
f 70/1/70 61/1/61 75/1/75
f 57/1/57 70/1/70 65/1/65
f 61/1/61 46/1/46 55/1/55
f 46/1/46 57/1/57 44/1/44
f 5/1/5 17/1/17 2/1/2
f 20/1/20 5/1/5 12/1/12
f 17/1/17 31/1/31 23/1/23
f 31/1/31 20/1/20 34/1/34
f 69/1/69 59/1/59 72/1/72
f 59/1/59 45/1/45 52/1/52
f 58/1/58 69/1/69 63/1/63
f 45/1/45 58/1/58 41/1/41
f 7/1/7 10/1/10 3/1/3
f 7/1/7 4/1/4 18/1/18
f 6/1/6 3/1/3 10/1/10
f 16/1/16 25/1/25 30/1/30
f 30/1/30 7/1/7 16/1/16
f 25/1/25 26/1/26 32/1/32
f 32/1/32 30/1/30 25/1/25
f 18/1/18 16/1/16 7/1/7
f 19/1/19 24/1/24 29/1/29
f 24/1/24 14/1/14 10/1/10
f 14/1/14 15/1/15 6/1/6
f 6/1/6 10/1/10 14/1/14
f 36/1/36 37/1/37 19/1/19
f 19/1/19 29/1/29 36/1/36
f 32/1/32 38/1/38 30/1/30
f 38/1/38 36/1/36 29/1/29
f 74/1/74 75/1/75 61/1/61
f 61/1/61 68/1/68 74/1/74
f 70/1/70 76/1/76 60/1/60
f 76/1/76 74/1/74 68/1/68
f 68/1/68 60/1/60 76/1/76
f 60/1/60 65/1/65 70/1/70
f 57/1/57 56/1/56 50/1/50
f 60/1/60 50/1/50 56/1/56
f 61/1/61 64/1/64 68/1/68
f 64/1/64 54/1/54 49/1/49
f 54/1/54 55/1/55 46/1/46
f 46/1/46 49/1/49 54/1/54
f 42/1/42 43/1/43 50/1/50
f 43/1/43 44/1/44 57/1/57
f 57/1/57 50/1/50 43/1/43
f 46/1/46 42/1/42 49/1/49
f 1/1/1 2/1/2 17/1/17
f 17/1/17 9/1/9 1/1/1
f 8/1/8 1/1/1 9/1/9
f 11/1/11 12/1/12 5/1/5
f 5/1/5 8/1/8 11/1/11
f 20/1/20 21/1/21 27/1/27
f 21/1/21 11/1/11 8/1/8
f 8/1/8 27/1/27 21/1/21
f 17/1/17 13/1/13 9/1/9
f 13/1/13 22/1/22 28/1/28
f 22/1/22 23/1/23 31/1/31
f 31/1/31 28/1/28 22/1/22
f 35/1/35 33/1/33 27/1/27
f 33/1/33 34/1/34 20/1/20
f 20/1/20 27/1/27 33/1/33
f 31/1/31 35/1/35 28/1/28
f 73/1/73 71/1/71 66/1/66
f 66/1/66 67/1/67 73/1/73
f 71/1/71 72/1/72 59/1/59
f 59/1/59 66/1/66 71/1/71
f 69/1/69 73/1/73 67/1/67
f 66/1/66 51/1/51 47/1/47
f 51/1/51 52/1/52 45/1/45
f 45/1/45 47/1/47 51/1/51
f 58/1/58 53/1/53 48/1/48
f 53/1/53 62/1/62 67/1/67
f 62/1/62 63/1/63 69/1/69
f 69/1/69 67/1/67 62/1/62
f 40/1/40 41/1/41 58/1/58
f 58/1/58 48/1/48 40/1/40
f 45/1/45 39/1/39 47/1/47
f 39/1/39 40/1/40 48/1/48
f 3/1/3 6/1/6 4/1/4
f 4/1/4 7/1/7 3/1/3
f 16/1/16 18/1/18 26/1/26
f 26/1/26 25/1/25 16/1/16
f 10/1/10 7/1/7 30/1/30
f 15/1/15 14/1/14 24/1/24
f 24/1/24 19/1/19 15/1/15
f 36/1/36 38/1/38 32/1/32
f 32/1/32 37/1/37 36/1/36
f 74/1/74 76/1/76 70/1/70
f 70/1/70 75/1/75 74/1/74
f 60/1/60 56/1/56 57/1/57
f 57/1/57 65/1/65 60/1/60
f 50/1/50 60/1/60 68/1/68
f 61/1/61 55/1/55 54/1/54
f 54/1/54 64/1/64 61/1/61
f 42/1/42 46/1/46 44/1/44
f 44/1/44 43/1/43 42/1/42
f 1/1/1 8/1/8 5/1/5
f 5/1/5 2/1/2 1/1/1
f 11/1/11 21/1/21 20/1/20
f 20/1/20 12/1/12 11/1/11
f 27/1/27 8/1/8 9/1/9
f 17/1/17 23/1/23 22/1/22
f 22/1/22 13/1/13 17/1/17
f 35/1/35 31/1/31 34/1/34
f 34/1/34 33/1/33 35/1/35
f 73/1/73 69/1/69 72/1/72
f 72/1/72 71/1/71 73/1/73
f 66/1/66 59/1/59 52/1/52
f 52/1/52 51/1/51 66/1/66
f 67/1/67 66/1/66 47/1/47
f 63/1/63 62/1/62 53/1/53
f 53/1/53 58/1/58 63/1/63
f 40/1/40 39/1/39 45/1/45
f 45/1/45 41/1/41 40/1/40
f 79/1/79 81/1/81 77/1/77
f 83/1/83 82/1/82 86/1/86
f 82/1/82 83/1/83 77/1/77
f 81/1/81 79/1/79 86/1/86
f 86/1/86 85/1/85 84/1/84
f 84/1/84 83/1/83 86/1/86
f 83/1/83 84/1/84 78/1/78
f 78/1/78 77/1/77 83/1/83
f 86/1/86 82/1/82 77/1/77
f 77/1/77 81/1/81 86/1/86
f 85/1/85 86/1/86 79/1/79
f 79/1/79 80/1/80 85/1/85
f 84/1/84 85/1/85 80/1/80
f 80/1/80 78/1/78 84/1/84
f 79/1/79 77/1/77 78/1/78
f 78/1/78 80/1/80 79/1/79
f 87/1/87 89/1/89 94/1/94
f 94/1/94 92/1/92 87/1/87
f 102/1/102 96/1/96 95/1/95
f 95/1/95 101/1/101 102/1/102
f 88/1/88 91/1/91 93/1/93
f 93/1/93 90/1/90 88/1/88
f 100/1/100 99/1/99 97/1/97
f 97/1/97 98/1/98 100/1/100
f 29/1/29 109/1/109 108/1/108
f 108/1/108 28/1/28 29/1/29
f 50/1/50 30/1/30 110/1/110
f 118/1/118 50/1/50 110/1/110
f 47/1/47 117/1/117 107/1/107
f 27/1/27 47/1/47 107/1/107
f 48/1/48 28/1/28 108/1/108
f 119/1/119 48/1/48 108/1/108
f 106/1/106 109/1/109 103/1/103
f 105/1/105 104/1/104 108/1/108
f 104/1/104 9/1/9 28/1/28
f 9/1/9 104/1/104 103/1/103
f 10/1/10 9/1/9 103/1/103
f 29/1/29 10/1/10 103/1/103
f 67/1/67 121/1/121 119/1/119
f 67/1/67 68/1/68 122/1/122
f 121/1/121 67/1/67 122/1/122
f 122/1/122 68/1/68 120/1/120
f 109/1/109 29/1/29 49/1/49
f 120/1/120 109/1/109 49/1/49
f 110/1/110 30/1/30 109/1/109
f 107/1/107 108/1/108 27/1/27
f 50/1/50 118/1/118 120/1/120
f 119/1/119 117/1/117 47/1/47
f 106/1/106 105/1/105 108/1/108
f 108/1/108 109/1/109 106/1/106
f 118/1/118 116/1/116 120/1/120
f 116/1/116 113/1/113 109/1/109
f 109/1/109 120/1/120 116/1/116
f 113/1/113 114/1/114 110/1/110
f 113/1/113 110/1/110 109/1/109
f 118/1/118 110/1/110 114/1/114
f 117/1/117 111/1/111 107/1/107
f 112/1/112 108/1/108 111/1/111
f 108/1/108 107/1/107 111/1/111
f 112/1/112 115/1/115 119/1/119
f 119/1/119 108/1/108 112/1/112
f 117/1/117 119/1/119 115/1/115
f 28/1/28 9/1/9 10/1/10
f 10/1/10 29/1/29 28/1/28
f 104/1/104 105/1/105 106/1/106
f 106/1/106 103/1/103 104/1/104
f 68/1/68 48/1/48 49/1/49
f 48/1/48 68/1/68 67/1/67
f 119/1/119 120/1/120 49/1/49
f 49/1/49 48/1/48 119/1/119
f 121/1/121 122/1/122 120/1/120
f 120/1/120 119/1/119 121/1/121
f 49/1/49 29/1/29 30/1/30
f 49/1/49 30/1/30 50/1/50
f 118/1/118 114/1/114 113/1/113
f 113/1/113 116/1/116 118/1/118
f 47/1/47 27/1/27 48/1/48
f 28/1/28 48/1/48 27/1/27
f 117/1/117 115/1/115 112/1/112
f 112/1/112 111/1/111 117/1/117
# 196 faces, 1 coords texture

# End of File
