####
#
# OBJ File Generated by Meshlab
#
####
# Object D00302.obj
#
# Vertices: 122
# Faces: 196
#
####
mtllib ./D00302.obj.mtl

vn 4.6717028762057087 -0.7942381813398981 2.1214711573704936
v 0.5509180000000000 0.4967180000000000 0.2627460000000000
vn 3.7232337587700934 -1.4393620306345998 -1.6679955463579594
v 0.6050940000000000 0.3496640000000000 -0.3792020000000000
vn 4.4370026759208345 2.3077410967159233 1.3920540681513165
v 0.5976660000000000 -0.1225510000000000 0.4085500000000000
vn 3.7232969314276425 -1.4394733674640290 -1.6679987411939885
v 0.6533980000000000 -0.2902160000000000 -0.2285450000000000
vn 2.5304379100754613 1.2010088075506455 -0.8616511522050553
v 0.6035760000000000 0.3701700000000000 -0.3845130000000000
vn 2.5301644290311027 1.2011907827815458 -0.8614557451611754
v 0.6518810000000000 -0.2697100000000000 -0.2338560000000000
vn 2.4074512114867472 -0.4524404795026142 2.7110185449547237
v 0.5991630000000000 -0.1430010000000000 0.4141090000000000
vn 2.2049712464160636 1.9483219282967368 2.1415263377094660
v 0.5493010000000000 0.5174950000000000 0.2586160000000000
vn 3.3019504648716671 1.1643755744070712 3.0918160810003879
v 0.5500080000000001 0.4959570000000000 0.2637780000000000
vn 3.2304633671005472 1.5675600474593190 3.6465793557918733
v 0.5966230000000000 -0.1215490000000000 0.4091670000000000
vn 0.8507923795278345 4.2448112203711306 1.3068875529934374
v 0.5474250000000001 0.5189279999999999 0.2573640000000000
vn 1.2118021027468233 2.9809983095897836 -2.8919838348525921
v 0.6016010000000001 0.3718740000000000 -0.3845840000000000
vn 1.7645061917266518 -2.9178478209944774 0.8595026611622338
v 0.5492470000000000 0.4947930000000000 0.2630460000000000
vn 1.0675993957132706 5.0098862153674935 0.5338178766861360
v 0.5957290000000000 -0.1209520000000000 0.4080210000000000
vn 1.2114628684772639 2.9813706828691391 -2.8923162076758739
v 0.6499050000000000 -0.2680060000000000 -0.2339270000000000
vn 1.4506389656266279 -3.0962792429388450 3.0207796464002623
v 0.5975510000000001 -0.1450870000000000 0.4137030000000000
vn 1.4223801123882118 -2.5603654067108810 -0.0932819761268560
v 0.6034620000000001 0.3476340000000000 -0.3793600000000000
vn 1.4223828901484394 -2.5603715823303701 -0.0932421707770530
v 0.6517660000000000 -0.2922460000000000 -0.2287030000000000
vn -1.2950142416108144 2.2144844328441837 -1.4163559348216994
v 0.6288400000000000 -0.2700210000000000 -0.2357290000000000
vn -1.2948308902791508 2.2146117963498679 -1.4165581577911663
v 0.5805360000000001 0.3698590000000000 -0.3863860000000000
vn -1.9412634786498864 4.6919591786747024 0.4086138922727631
v 0.5263210000000000 0.5170190000000000 0.2560200000000000
vn -1.3229975984606785 -4.3180469351538990 2.4697711617184219
v 0.5281430000000000 0.4928830000000000 0.2617030000000000
vn -0.8434071174631887 -3.9799414146198018 -1.4711150936700785
v 0.5823190000000000 0.3458290000000000 -0.3802450000000000
vn -1.7712272367481690 2.9362042477119124 -0.7799630579428548
v 0.5746260000000000 -0.1228620000000000 0.4066770000000000
vn -1.3210255290584472 -4.3206487733544101 2.4704636891614422
v 0.5764480000000000 -0.1469970000000000 0.4123600000000000
vn -0.8433938709120082 -3.9799290454685163 -1.4711164875898917
v 0.6306240000000000 -0.2940510000000000 -0.2295880000000000
vn -2.1825639602957305 4.1649197811606529 2.6287382443016201
v 0.5254120000000000 0.5162580000000000 0.2570520000000000
vn -3.0458620470450914 -1.6472442132102070 3.9989264225591339
v 0.5271010000000000 0.4938850000000000 0.2623190000000000
vn -3.9644449437826208 2.1259414251356055 3.0562511855291392
v 0.5737160000000000 -0.1236220000000000 0.4077090000000000
vn -1.0010719246446222 -2.9078375500810179 3.7023438273619678
v 0.5754050000000001 -0.1459960000000000 0.4129760000000000
vn -2.4030709771640022 -1.5468558787108997 -0.6484507160261820
v 0.5804210000000000 0.3473230000000000 -0.3812330000000000
vn -2.4030584113440181 -1.5469335395482844 -0.6484410425462948
v 0.6287260000000000 -0.2925570000000000 -0.2305760000000000
vn -4.8742987989290310 1.4259594891805742 0.8527389712960437
v 0.5246510000000000 0.5150940000000001 0.2563200000000000
vn -3.3552336844993897 0.4402244852442632 -2.6956653568279298
v 0.5788270000000000 0.3680400000000000 -0.3856280000000000
vn -3.0282089332490898 -1.7758918353093702 0.1933946585099814
v 0.5262070000000000 0.4944820000000000 0.2611730000000000
vn -4.8742986969723052 1.4259588177468183 0.8527383241439928
v 0.5729550000000000 -0.1247860000000000 0.4069770000000000
vn -3.3551288929263450 0.4396609951808531 -2.6958310106394618
v 0.6271310000000000 -0.2718410000000000 -0.2349710000000000
vn -3.0289466692887932 -1.7748394426240854 0.1930882467584931
v 0.5745110000000000 -0.1453980000000000 0.4118300000000000
vn 3.0215773976705447 1.7942850378710957 -0.1138759703573352
v -0.7930120000000001 0.3958720000000000 0.1724290000000000
vn 4.6210029975690192 -0.7382900074630264 2.1496864602586925
v -0.7914560000000000 0.3752600000000000 0.1772820000000000
vn 3.7232649458736411 -1.4394650045341315 -1.6680155574524935
v -0.7372800000000000 0.2282060000000000 -0.4646660000000000
vn 3.0215774996849580 1.7942843662329544 -0.1138766181784580
v -0.7447080000000000 -0.2440080000000000 0.3230860000000000
vn 4.6210030246285729 -0.7382896861787891 2.1496855786462250
v -0.7431520000000000 -0.2646200000000000 0.3279390000000000
vn 3.7232648416095580 -1.4394643127957243 -1.6680149027292706
v -0.6889760000000000 -0.4116740000000000 -0.3140090000000000
vn 2.5304738881924718 1.2010150318657367 -0.8614684432295872
v -0.7387970000000000 0.2487130000000000 -0.4699770000000000
vn 2.5304755766360461 1.2010877394550286 -0.8614376533028789
v -0.6904930000000000 -0.3911670000000000 -0.3193200000000000
vn 0.5707801410387544 4.2689705348045432 2.1589773860172725
v -0.7940550000000000 0.3968730000000000 0.1730460000000000
vn 3.4592238145690839 -1.7063300763025528 4.5125314254411393
v -0.7923660000000000 0.3745000000000000 0.1783140000000000
vn 2.3510418313170782 4.5637623559920852 2.9811591015392143
v -0.7457510000000001 -0.2430070000000000 0.3237030000000000
vn 1.6686968699858202 -2.5405314100229774 4.4635045390438792
v -0.7440620000000000 -0.2653800000000000 0.3289710000000000
vn 1.1282109173572512 5.0497907789760790 0.4763519462615920
v -0.7949490000000000 0.3974710000000000 0.1719000000000000
vn 1.2112569913410089 2.9796595458890689 -2.8923100328717006
v -0.7407730000000000 0.2504170000000000 -0.4700490000000000
vn 1.7649890322380599 -2.9169730459020276 0.8592848496804137
v -0.7931270000000000 0.3733350000000000 0.1775820000000000
vn 1.0677518091941631 5.0099666336678954 0.5337885525841251
v -0.7466450000000000 -0.2424100000000000 0.3225570000000000
vn 1.2114257671658129 2.9798107950877593 -2.8924337541741489
v -0.6924680000000000 -0.3894640000000000 -0.3193920000000000
vn 1.8096961770245850 -4.0888751970658053 2.6355967547038626
v -0.7448230000000000 -0.2665450000000000 0.3282390000000000
vn 1.4222914609863662 -2.5604022377489861 -0.0931935768318036
v -0.6906080000000000 -0.4137040000000000 -0.3141670000000000
vn 1.4222899072007422 -2.5603984454703896 -0.0931925086273139
v -0.7389120000000000 0.2261760000000000 -0.4648240000000000
vn -1.2950524291463370 2.2145428681816197 -1.4162939195282789
v -0.7618380000000000 0.2484020000000000 -0.4718500000000000
vn -1.2340923599101719 -2.0415602478536750 2.7680754439778639
v -0.7659859999999999 -0.2682930000000000 0.3276010000000000
vn -1.2948657095120368 2.2144397704755669 -1.4164346987544405
v -0.7135330000000000 -0.3914780000000000 -0.3211940000000000
vn -1.3222974352753802 -4.3216827996466289 2.4689856915106896
v -0.8142310000000000 0.3714260000000000 0.1762380000000000
vn -0.8426784495508095 -3.9812057211428331 -1.4712134215907056
v -0.7600540000000000 0.2243720000000000 -0.4657100000000000
vn -1.7709726924519726 2.9351354769907898 -0.7797001294237056
v -0.7677480000000000 -0.2443190000000000 0.3212130000000000
vn -0.8430838918820930 -3.9809508028101943 -1.4710228496561140
v -0.7117500000000000 -0.4155080000000000 -0.3150530000000000
vn -1.6313136520908991 2.7376153115289288 1.5953861724360632
v -0.8162500000000000 0.3957300000000000 0.1714160000000000
vn -3.7688152521267448 -1.1483268665365050 3.6746776602172528
v -0.8152730000000000 0.3724270000000000 0.1768550000000000
vn -3.9120913909964599 1.3707155909542417 2.4386189183504126
v -0.7686580000000000 -0.2450800000000000 0.3222440000000000
vn -2.4024377950665574 -1.5471450348568516 -0.6477628581828255
v -0.7619530000000000 0.2258650000000000 -0.4666980000000000
vn -2.4026605570614290 -1.5470992518534372 -0.6480882836906634
v -0.7136479999999999 -0.4140150000000000 -0.3160410000000000
vn -4.2925875227874206 1.3677759552129625 1.4426879271023565
v -0.8177230000000000 0.3936360000000000 0.1708560000000000
vn -3.3553451846634958 0.4398741862967342 -2.6958886668119462
v -0.7635470000000000 0.2465820000000000 -0.4710920000000000
vn -4.6129142913168621 -1.5147087339073737 1.5918953490937104
v -0.8161670000000000 0.3730250000000000 0.1757090000000000
vn -4.8737027645356603 1.4256327988115998 0.8539407813708274
v -0.7694190000000000 -0.2462440000000000 0.3215130000000000
vn -3.3562008441252940 0.4403172767976899 -2.6954863321010789
v -0.7152430000000000 -0.3932980000000000 -0.3204350000000000
vn -3.8533127215155796 -1.1837840292250206 2.1350519057756552
v -0.7678630000000000 -0.2668560000000000 0.3263660000000000
vn 1.1751010570937535 1.6947086134894156 0.8219795016827600
v 0.5545710000000000 0.5337160000000000 0.2818340000000000
vn 1.7561405684638633 1.3279191845682439 -2.3833366163006526
v 0.5525630000000000 0.5232200000000000 0.2577480000000000
vn 2.0491166486686185 -1.4655633378117996 2.0225939164332081
v 0.6013420000000000 -0.1428540000000000 0.4381700000000000
vn 1.8051588960318099 -1.7331526687921153 -1.0675279710056949
v 0.6032320000000000 -0.1479830000000000 0.4157800000000000
vn 0.8261794163283211 0.1480227819172849 5.6446636965668304
v 0.5961880000000001 -0.1381560000000000 0.4396100000000000
vn -1.7203251875071255 2.2764357193950384 4.9417636421277011
v -0.8190870000000000 0.4005680000000000 0.1967630000000000
vn -2.2915428052670008 2.1307035137511194 0.8388086251631308
v -0.8237710000000000 0.4039900000000000 0.1926320000000000
vn -1.5477601119198225 1.0418684870848660 -1.9925313318750963
v -0.8218820000000000 0.3988610000000000 0.1702420000000000
vn -1.3989355104207271 -2.2934817736406110 -1.8090696194134142
v -0.7712130000000000 -0.2723420000000000 0.3282740000000000
vn -1.3581574743058251 -1.2252758115463542 1.2935245259261483
v -0.7772550000000000 -0.2713490000000000 0.3538010000000000
vn 0.1278618861776163 -0.3470992568573787 -1.5151286896834306
v 0.6541560000000000 -0.2934090000000000 -0.2336150000000000
vn 0.1278498185989766 -0.3470329415148325 -1.5149385539794589
v 0.6039080000000000 0.3707450000000000 -0.3899590000000000
vn 0.1644943045330863 -0.3112587856413361 -1.5406368076345580
v 0.6521620000000000 -0.2689570000000000 -0.2387680000000000
vn 0.1730103063491632 -0.3877226960392074 -1.5230658656512288
v 0.6054520000000000 0.3468550000000000 -0.3837020000000000
vn 0.0861182956920454 -0.3155703059123939 -1.5469249365161852
v 0.5792929999999999 0.3686110000000000 -0.3908940000000000
vn 0.0945179496217362 -0.3919302699532078 -1.5287799399354860
v 0.6292030000000000 -0.2953700000000000 -0.2346550000000000
vn 0.1278901478832120 -0.3470635025650521 -1.5149086437243440
v 0.5809410000000000 0.3444380000000000 -0.3858710000000000
vn 0.1279361306312325 -0.3472446219435545 -1.5158387894134644
v 0.6273090000000000 -0.2712020000000000 -0.2409680000000000
vn 0.1278558536456347 -0.3470582987736548 -1.5150899919655123
v -0.6900280000000000 -0.3904110000000000 -0.3248340000000000
vn 0.1701385800521930 -0.3853083941853220 -1.5247134288372115
v -0.6884040000000000 -0.4146040000000000 -0.3185390000000000
vn 0.1278689448174971 -0.3469573479403774 -1.5149362929437706
v -0.7367160000000000 0.2251460000000000 -0.4697460000000000
vn 0.1672447967919149 -0.3083903400432730 -1.5417165473348737
v -0.7386340000000000 0.2492770000000000 -0.4747810000000000
vn 0.0918454490075599 -0.3947675242616430 -1.5283176843342383
v -0.7613690000000000 0.2232740000000000 -0.4707440000000000
vn 0.1278329309860580 -0.3470008005850986 -1.5149365320030379
v -0.7631829999999999 0.2471220000000000 -0.4770130000000000
vn 0.0890258886651712 -0.3180383319274114 -1.5454684196959561
v -0.7149790000000000 -0.3926380000000000 -0.3258130000000000
vn 0.1278590003389483 -0.3470666680906015 -1.5151261742396813
v -0.7132370000000000 -0.4171130000000000 -0.3206760000000000
vn 1.8413406684351938 -0.5701125230459041 -1.3873804596160575
v 0.6007470000000000 -0.1364630000000000 0.3423570000000000
vn 1.7870268341796554 0.1507666974865667 -1.5575408721839894
v 0.5541860000000000 0.4800900000000000 0.1971910000000000
vn -1.0849807472487416 0.3467004681803800 -4.8991001653717658
v 0.5338120000000000 0.4774970000000000 0.1945340000000000
vn -0.8614686219706034 -2.6340760677756538 -4.1972760869113035
v 0.5802940000000000 -0.1382480000000000 0.3395080000000000
vn 2.1780689499539392 2.0819595439784035 -1.6838639367716297
v 0.5310800000000000 0.5008710000000000 0.1898830000000000
vn 0.0470237531642182 -2.1308573909353581 -2.2736092455261501
v 0.5327690000000000 0.4784980000000000 0.1951510000000000
vn -0.1796750750474088 0.8829749056717450 -2.9829706471945330
v 0.5793850000000000 -0.1390090000000000 0.3405400000000000
vn 2.5073979944996432 -2.2795915861973959 -0.6569171048112203
v 0.5810730000000000 -0.1613820000000000 0.3458080000000000
vn 1.8009264398454201 0.6041224586227482 -4.7825172352427865
v 0.5303190000000000 0.4997070000000000 0.1891510000000000
vn 2.0287416388724209 -2.3999120933095819 -4.0754546232903106
v 0.5318750000000000 0.4790950000000000 0.1940040000000000
vn 1.8038219133323128 0.6018216415696706 -4.7838206881520486
v 0.5786240000000000 -0.1401730000000000 0.3398080000000000
vn 2.0279301781805481 -2.4005388626123154 -4.0748140288548411
v 0.5801790000000000 -0.1607850000000000 0.3446610000000000
vn -0.3579289751553810 -2.9380853665605335 -1.9565273893403723
v -0.7857880000000000 0.3598740000000000 0.1101130000000000
vn -0.7021991286418089 1.6914946546056231 -2.9710786138520104
v -0.7390390000000000 -0.2593950000000000 0.2559170000000000
vn -1.6439600923454021 1.2829824065239306 -2.2124248559026909
v -0.7875660000000000 0.3801950000000000 0.1068770000000000
vn -1.3692518688840063 -2.3528083163249507 -1.3574775813335969
v -0.7377990000000000 -0.2790640000000000 0.2620970000000000
vn -0.3181486559381785 -1.2763815329801234 -2.6529064898169770
v -0.7881840000000000 0.3601290000000000 0.1112530000000000
vn -0.4099177131784241 -0.0998170992450926 -2.9300320885896847
v -0.7414269999999999 -0.2594930000000000 0.2571390000000000
vn -1.7004831538337180 1.0069822368167594 -2.1397158999003429
v -0.8081190000000000 0.3565810000000000 0.1105150000000000
vn -1.4684197586971341 -2.0821251449174079 -1.4125360348438627
v -0.7616290000000000 -0.2595000000000000 0.2555670000000000
# 122 vertices, 0 vertices normals


usemtl material_0
f 18//18 6//6 4//4
f 32//32 18//18 26//26
f 6//6 19//19 15//15
f 19//19 32//32 37//37
f 61//61 70//70 75//75
f 70//70 57//57 65//65
f 46//46 61//61 55//55
f 57//57 46//46 44//44
f 17//17 5//5 2//2
f 5//5 20//20 12//12
f 31//31 17//17 23//23
f 20//20 31//31 34//34
f 59//59 69//69 72//72
f 45//45 59//59 52//52
f 69//69 58//58 63//63
f 58//58 45//45 41//41
f 10//10 7//7 3//3
f 4//4 7//7 18//18
f 3//3 6//6 10//10
f 25//25 16//16 30//30
f 7//7 30//30 16//16
f 26//26 25//25 32//32
f 30//30 32//32 25//25
f 16//16 18//18 7//7
f 24//24 19//19 29//29
f 14//14 24//24 10//10
f 15//15 14//14 6//6
f 10//10 6//6 14//14
f 37//37 36//36 19//19
f 29//29 19//19 36//36
f 38//38 32//32 30//30
f 36//36 38//38 29//29
f 75//75 74//74 61//61
f 68//68 61//61 74//74
f 76//76 70//70 60//60
f 74//74 76//76 68//68
f 60//60 68//68 76//76
f 65//65 60//60 70//70
f 56//56 57//57 50//50
f 50//50 60//60 56//56
f 64//64 61//61 68//68
f 54//54 64//64 49//49
f 55//55 54//54 46//46
f 49//49 46//46 54//54
f 43//43 42//42 50//50
f 44//44 43//43 57//57
f 50//50 57//57 43//43
f 42//42 46//46 49//49
f 2//2 1//1 17//17
f 9//9 17//17 1//1
f 1//1 8//8 9//9
f 12//12 11//11 5//5
f 8//8 5//5 11//11
f 21//21 20//20 27//27
f 11//11 21//21 8//8
f 27//27 8//8 21//21
f 13//13 17//17 9//9
f 22//22 13//13 28//28
f 23//23 22//22 31//31
f 28//28 31//31 22//22
f 33//33 35//35 27//27
f 34//34 33//33 20//20
f 27//27 20//20 33//33
f 35//35 31//31 28//28
f 71//71 73//73 66//66
f 67//67 66//66 73//73
f 72//72 71//71 59//59
f 66//66 59//59 71//71
f 73//73 69//69 67//67
f 51//51 66//66 47//47
f 52//52 51//51 45//45
f 47//47 45//45 51//51
f 53//53 58//58 48//48
f 62//62 53//53 67//67
f 63//63 62//62 69//69
f 67//67 69//69 62//62
f 41//41 40//40 58//58
f 48//48 58//58 40//40
f 39//39 45//45 47//47
f 40//40 39//39 48//48
f 6//6 3//3 4//4
f 7//7 4//4 3//3
f 18//18 16//16 26//26
f 25//25 26//26 16//16
f 7//7 10//10 30//30
f 14//14 15//15 24//24
f 19//19 24//24 15//15
f 38//38 36//36 32//32
f 37//37 32//32 36//36
f 76//76 74//74 70//70
f 75//75 70//70 74//74
f 56//56 60//60 57//57
f 65//65 57//57 60//60
f 60//60 50//50 68//68
f 55//55 61//61 54//54
f 64//64 54//54 61//61
f 46//46 42//42 44//44
f 43//43 44//44 42//42
f 8//8 1//1 5//5
f 2//2 5//5 1//1
f 21//21 11//11 20//20
f 12//12 20//20 11//11
f 8//8 27//27 9//9
f 23//23 17//17 22//22
f 13//13 22//22 17//17
f 31//31 35//35 34//34
f 33//33 34//34 35//35
f 69//69 73//73 72//72
f 71//71 72//72 73//73
f 59//59 66//66 52//52
f 51//51 52//52 66//66
f 66//66 67//67 47//47
f 62//62 63//63 53//53
f 58//58 53//53 63//63
f 39//39 40//40 45//45
f 41//41 45//45 40//40
f 81//81 79//79 77//77
f 82//82 83//83 86//86
f 83//83 82//82 77//77
f 79//79 81//81 86//86
f 85//85 86//86 84//84
f 83//83 84//84 86//86
f 84//84 83//83 78//78
f 77//77 78//78 83//83
f 82//82 86//86 77//77
f 81//81 77//77 86//86
f 86//86 85//85 79//79
f 80//80 79//79 85//85
f 85//85 84//84 80//80
f 78//78 80//80 84//84
f 77//77 79//79 78//78
f 80//80 78//78 79//79
f 89//89 87//87 94//94
f 92//92 94//94 87//87
f 96//96 102//102 95//95
f 101//101 95//95 102//102
f 91//91 88//88 93//93
f 90//90 93//93 88//88
f 99//99 100//100 97//97
f 98//98 97//97 100//100
f 109//109 29//29 108//108
f 28//28 108//108 29//29
f 30//30 50//50 110//110
f 118//118 110//110 50//50
f 107//107 117//117 47//47
f 107//107 47//47 27//27
f 28//28 48//48 108//108
f 48//48 119//119 108//108
f 109//109 106//106 103//103
f 104//104 105//105 108//108
f 9//9 104//104 28//28
f 104//104 9//9 103//103
f 9//9 10//10 103//103
f 10//10 29//29 103//103
f 121//121 67//67 119//119
f 68//68 67//67 122//122
f 67//67 121//121 122//122
f 68//68 122//122 120//120
f 29//29 109//109 49//49
f 109//109 120//120 49//49
f 30//30 110//110 109//109
f 108//108 107//107 27//27
f 118//118 50//50 120//120
f 117//117 119//119 47//47
f 105//105 106//106 108//108
f 109//109 108//108 106//106
f 116//116 118//118 120//120
f 113//113 116//116 109//109
f 120//120 109//109 116//116
f 114//114 113//113 110//110
f 110//110 113//113 109//109
f 118//118 114//114 110//110
f 107//107 111//111 117//117
f 108//108 112//112 111//111
f 107//107 108//108 111//111
f 115//115 112//112 119//119
f 108//108 119//119 112//112
f 119//119 117//117 115//115
f 9//9 28//28 10//10
f 29//29 10//10 28//28
f 105//105 104//104 106//106
f 103//103 106//106 104//104
f 48//48 68//68 49//49
f 68//68 48//48 67//67
f 120//120 119//119 49//49
f 48//48 49//49 119//119
f 122//122 121//121 120//120
f 119//119 120//120 121//121
f 29//29 49//49 30//30
f 30//30 49//49 50//50
f 113//113 114//114 118//118
f 118//118 116//116 113//113
f 27//27 47//47 48//48
f 48//48 28//28 27//27
f 115//115 117//117 112//112
f 112//112 117//117 111//111
# 196 faces, 0 coords texture

# End of File
