####
#
# OBJ File Generated by Meshlab
#
####
# Object m919.obj
#
# Vertices: 78
# Faces: 122
#
####
mtllib ./m919.obj.mtl

vn 1.5702831370427246 -1.5306469831937377 1.5452336769201509
v 0.7835440000000000 0.9346840000000000 0.0576050000000000
vn -1.5707963267948966 -1.5707963267948966 1.5707963267948966
v 0.8378150000000000 0.9346840000000000 0.0576050000000000
vn -1.5707963267948963 1.5707963267948966 1.5707963267948981
v 0.8378150000000000 0.0250000000000000 0.0576050000000000
vn 1.5702831370427233 1.6109456703960556 1.5963589766696415
v 0.8068030000000000 0.0250000000000000 0.0576050000000000
vn 1.5958290903005183 1.6524013430671400 -1.5958290903005170
v 0.8068030000000000 0.0250000000000000 0.0924930000000000
vn 1.5447371837849295 -1.4918039686625042 -1.5447371837849289
v 0.7835440000000000 0.9346840000000000 0.1157520000000000
vn -1.5452336769201496 -1.5306469831937377 -1.5702831370427233
v 0.8378150000000000 0.9346840000000000 0.1157520000000000
vn -1.5963589766696415 1.6109456703960554 -1.5702831370427224
v 0.8378150000000000 0.0250000000000000 0.0924930000000000
vn -1.5709092289848980 -1.5306403054407287 -1.5445858576393166
v 0.1000680000000000 0.9346840000000000 0.8613390000000000
vn 1.5701594345718626 -1.5708037007616233 -1.5714445391539842
v 0.0457970000000000 0.9346840000000000 0.8613610000000000
vn 1.5701872871854874 1.5708101068330698 -1.5714272760395827
v 0.0457970000000000 0.0250000000000000 0.8613610000000000
vn -1.5708999842546862 1.6109295748918091 -1.5957287482327867
v 0.0768090000000000 0.0250000000000000 0.8613490000000000
vn -1.5951596396330516 1.6523820714668633 1.5964698065713656
v 0.0767950000000000 0.0250000000000000 0.8264600000000000
vn -1.5441110607193611 -1.4918120099649383 1.5453752682918342
v 0.1000440000000000 0.9346840000000000 0.8031920000000000
vn 1.5458700932551113 -1.5306395935401196 1.5696450283533872
v 0.0457730000000000 0.9346840000000000 0.8032140000000000
vn 1.5970162786371462 1.6109635145186507 1.5696427123529046
v 0.0457830000000000 0.0250000000000000 0.8264730000000000
vn -1.5455574898702185 -1.5306503196412355 1.5699699908082123
v 0.8429800000000000 0.9346840000000000 0.8071000000000000
vn -1.5704721237978834 -1.5707926398110694 -1.5711146725756653
v 0.8429690000000000 0.9346840000000000 0.8613710000000000
vn -1.5704807723034564 1.5707894419719060 -1.5711007515440900
v 0.8429690000000000 0.0250000000000000 0.8613710000000000
vn -1.5966740122784326 1.6109537266650813 1.5699746183827901
v 0.8429750000000000 0.0250000000000000 0.8303590000000000
vn 1.5955082080414762 1.6524268579198140 1.5961889011898276
v 0.8080870000000000 0.0250000000000000 0.8303520000000000
vn 1.5444180867452770 -1.4918015932681985 1.5450512418006217
v 0.7848330000000000 0.9346840000000000 0.8070880000000000
vn 1.5706021389008324 -1.5306524003155357 -1.5449164667480415
v 0.7848220000000000 0.9346840000000000 0.8613590000000000
vn 1.5706036501214011 1.6109203596367738 -1.5960047752327609
v 0.8080800000000000 0.0250000000000000 0.8613640000000000
vn 1.5449098050090968 -1.5306436112203317 -1.5705962151579564
v 0.0418370000000000 0.9346840000000000 0.1170840000000000
vn 1.5711204596858079 -1.5708000102296160 1.5704779141150296
v 0.0418260000000000 0.9346840000000000 0.0628130000000000
vn 1.5711118118536640 1.5707738728824405 1.5704431088947119
v 0.0418260000000000 0.0250000000000000 0.0628130000000000
vn 1.5960438713670428 1.6109729602835772 -1.5706441665350821
v 0.0418330000000000 0.0250000000000000 0.0938250000000000
vn -1.5961490455478358 1.6524093710348851 -1.5955206746366137
v 0.0767210000000000 0.0250000000000000 0.0938180000000000
vn -1.5450562521940432 -1.4918079686924921 -1.5444241550197562
v 0.0999850000000000 0.9346840000000000 0.1170720000000000
vn -1.5699641205307142 -1.5306432928336093 1.5455519186219795
v 0.0999740000000000 0.9346840000000000 0.0628010000000000
vn -1.5699633480306296 1.6109399374358739 1.5966633020208838
v 0.0767150000000000 0.0250000000000000 0.0628060000000000
vn 1.5707963267948966 1.5707963267948948 1.5707963267948966
v 0.1098950000000000 0.8092580000000000 0.0834480000000000
vn -1.5707963267948970 1.5707963267948966 1.5707963267948966
v 0.7990500000000000 0.8092580000000000 0.0834480000000000
vn -1.5707963267948966 -1.5707963267948966 1.5707963267948966
v 0.7990500000000000 0.9384749999999999 0.0834480000000000
vn 1.5707963267948970 -1.5707963267948948 1.5707963267948966
v 0.1098950000000000 0.9384749999999999 0.0834480000000000
vn 1.5707963267948970 1.5707963267948966 -1.5707963267948966
v 0.1098950000000000 0.8092580000000000 0.1179060000000000
vn -1.5707963267948966 1.5707963267948948 -1.5707963267948966
v 0.7990500000000000 0.8092580000000000 0.1179060000000000
vn -1.5707963267948970 -1.5707963267948948 -1.5707963267948966
v 0.7990500000000000 0.9384749999999999 0.1179060000000000
vn 1.5707963267948966 -1.5707963267948966 -1.5707963267948966
v 0.1098950000000000 0.9384749999999999 0.1179060000000000
vn 1.5707963267948966 1.5707963267948986 1.5707963267948966
v 0.0582090000000000 0.8092580000000000 0.1058450000000000
vn -1.5707963267948961 1.5707963267948966 1.5707963267948970
v 0.0926670000000000 0.8092580000000000 0.1058450000000000
vn -1.5707963267948966 -1.5707963267948966 1.5707963267948966
v 0.0926670000000000 0.9384749999999999 0.1058450000000000
vn 1.5707963267948961 -1.5707963267948986 1.5707963267948970
v 0.0582090000000000 0.9384749999999999 0.1058450000000000
vn 1.5707963267948961 1.5707963267948966 -1.5707963267948966
v 0.0582090000000000 0.8092580000000000 0.8122290000000000
vn -1.5707963267948966 1.5707963267948986 -1.5707963267948970
v 0.0926670000000000 0.8092580000000000 0.8122290000000000
vn -1.5707963267948961 -1.5707963267948986 -1.5707963267948966
v 0.0926670000000000 0.9384749999999999 0.8122290000000000
vn 1.5707963267948966 -1.5707963267948966 -1.5707963267948970
v 0.0582090000000000 0.9384749999999999 0.8122290000000000
vn 1.5707963267948966 1.5707963267948948 1.5707963267948966
v 0.0978350000000000 0.8092580000000000 0.8122290000000000
vn 0.2606033550981057 3.1415926535897931 1.5707963267948966
v 0.7869900000000000 0.8092580000000000 0.8122290000000000
vn 1.5707963267948966 -3.1415926535897931 0.2606033550981062
v 0.7869900000000000 0.9384749999999999 0.8122290000000000
vn 1.5707963267948970 -1.5707963267948948 1.5707963267948966
v 0.0978350000000000 0.9384749999999999 0.8122290000000000
vn 1.5707963267948970 1.5707963267948966 -1.5707963267948966
v 0.0978350000000000 0.8092580000000000 0.8466870000000000
vn -1.5707963267948966 1.5707963267948948 -1.5707963267948966
v 0.7869900000000000 0.8092580000000000 0.8466870000000000
vn -0.2606033550981066 -1.5707963267948948 -1.5707963267948966
v 0.7869900000000000 0.9384749999999999 0.8466870000000000
vn 1.5707963267948966 -1.5707963267948966 -1.5707963267948966
v 0.0978350000000000 0.9384749999999999 0.8466870000000000
vn 1.5707963267948966 1.5707963267948986 1.5707963267948966
v 0.7869900000000000 0.8092580000000000 0.1058450000000000
vn -1.5707963267948961 1.5707963267948966 1.5707963267948970
v 0.8214480000000000 0.8092580000000000 0.1058450000000000
vn -1.5707963267948966 -1.5707963267948966 1.5707963267948966
v 0.8214480000000000 0.9384749999999999 0.1058450000000000
vn 1.5707963267948961 -1.5707963267948986 1.5707963267948970
v 0.7869900000000000 0.9384749999999999 0.1058450000000000
vn -1.5707963267948966 1.5707963267948986 -0.2606033550981066
v 0.8214480000000000 0.8092580000000000 0.8122290000000000
vn -1.5707963267948961 -1.5707963267948986 -1.5707963267948966
v 0.8214480000000000 0.9384749999999999 0.8122290000000000
vn -1.7058605022725015 -5.1087443545010709 1.0155792334873428
v 0.8451390000000000 0.9750000000000000 0.0430750000000000
vn -2.0490189982611469 -1.4466554669840326 2.1157468216007618
v 0.8558170000000000 0.9646630000000000 0.0250000000000000
vn 2.0498689764052838 -1.4466617436136748 2.1148949644838440
v 0.0250000000000000 0.9646630000000000 0.0251690000000000
vn 1.7062162337317599 -5.1088167860225235 1.0148796400807227
v 0.0356860000000000 0.9750000000000000 0.0432400000000000
vn 2.0490189982611482 -1.4466554669840317 -2.1157468216007640
v 0.0251790000000000 0.9646630000000000 0.9037200000000000
vn 1.7058605022725082 -5.1087443545010638 -1.0155792334873439
v 0.0358570000000000 0.9750000000000000 0.8856450000000000
vn -2.0498689764052851 -1.4466617436136746 -2.1148949644838457
v 0.8559960000000000 0.9646630000000000 0.9035510000000000
vn -1.7062162337317612 -5.1088167860225191 -1.0148796400807247
v 0.8453100000000000 0.9750000000000000 0.8854800000000000
vn -2.0490188324620382 1.4466554535279725 2.1157470931056261
v 0.8558170000000000 0.9439880000000000 0.0250000000000000
vn -1.7058585723521256 5.1087455916642188 1.0155808881250770
v 0.8451390000000000 0.9336510000000000 0.0430750000000000
vn 1.7062143045067555 5.1088180230787268 1.0148812954667277
v 0.0356860000000000 0.9336510000000000 0.0432400000000000
vn 2.0498688107248664 1.4466617301572489 2.1148952360518392
v 0.0250000000000000 0.9439880000000000 0.0251690000000000
vn 1.7058585723521325 5.1087455916642091 -1.0155808881250781
v 0.0358570000000000 0.9336510000000000 0.8856450000000000
vn 2.0490188324620395 1.4466554535279714 -2.1157470931056284
v 0.0251790000000000 0.9439880000000000 0.9037200000000000
vn -1.7062143045067573 5.1088180230787232 -1.0148812954667297
v 0.8453100000000000 0.9336510000000000 0.8854800000000000
vn -2.0498688107248673 1.4466617301572482 -2.1148952360518400
v 0.8559960000000000 0.9439880000000000 0.9035510000000000
# 78 vertices, 0 vertices normals


usemtl material_0
vt -1.0000000000000000 -1.0000000000000000
f 2/1/2 1/1/1 3/1/3
f 6/1/6 5/1/5 1/1/1
f 6/1/6 1/1/1 7/1/7
f 5/1/5 6/1/6 8/1/8
f 8/1/8 7/1/7 3/1/3
f 8/1/8 3/1/3 5/1/5
f 10/1/10 9/1/9 11/1/11
f 14/1/14 13/1/13 9/1/9
f 14/1/14 9/1/9 15/1/15
f 13/1/13 14/1/14 16/1/16
f 16/1/16 15/1/15 11/1/11
f 16/1/16 11/1/11 13/1/13
f 18/1/18 17/1/17 19/1/19
f 22/1/22 21/1/21 17/1/17
f 22/1/22 17/1/17 23/1/23
f 21/1/21 22/1/22 24/1/24
f 24/1/24 23/1/23 19/1/19
f 24/1/24 19/1/19 21/1/21
f 26/1/26 25/1/25 27/1/27
f 30/1/30 29/1/29 25/1/25
f 30/1/30 25/1/25 31/1/31
f 29/1/29 30/1/30 32/1/32
f 32/1/32 31/1/31 27/1/27
f 32/1/32 27/1/27 29/1/29
f 36/1/36 33/1/33 34/1/34
f 36/1/36 34/1/34 35/1/35
f 38/1/38 33/1/33 37/1/37
f 34/1/34 33/1/33 38/1/38
f 37/1/37 33/1/33 36/1/36
f 37/1/37 36/1/36 40/1/40
f 40/1/40 36/1/36 39/1/39
f 39/1/39 36/1/36 35/1/35
f 39/1/39 34/1/34 38/1/38
f 35/1/35 34/1/34 39/1/39
f 40/1/40 38/1/38 37/1/37
f 39/1/39 38/1/38 40/1/40
f 44/1/44 41/1/41 42/1/42
f 44/1/44 42/1/42 43/1/43
f 46/1/46 41/1/41 45/1/45
f 42/1/42 41/1/41 46/1/46
f 45/1/45 41/1/41 44/1/44
f 45/1/45 44/1/44 48/1/48
f 48/1/48 44/1/44 47/1/47
f 47/1/47 44/1/44 43/1/43
f 47/1/47 42/1/42 46/1/46
f 43/1/43 42/1/42 47/1/47
f 48/1/48 46/1/46 45/1/45
f 47/1/47 46/1/46 48/1/48
f 52/1/52 49/1/49 50/1/50
f 52/1/52 50/1/50 51/1/51
f 54/1/54 49/1/49 53/1/53
f 50/1/50 49/1/49 54/1/54
f 53/1/53 49/1/49 52/1/52
f 53/1/53 52/1/52 56/1/56
f 56/1/56 52/1/52 55/1/55
f 55/1/55 52/1/52 51/1/51
f 55/1/55 50/1/50 54/1/54
f 56/1/56 54/1/54 53/1/53
f 55/1/55 54/1/54 56/1/56
f 60/1/60 57/1/57 58/1/58
f 60/1/60 58/1/58 59/1/59
f 61/1/61 57/1/57 50/1/50
f 58/1/58 57/1/57 61/1/61
f 50/1/50 57/1/57 60/1/60
f 50/1/50 60/1/60 51/1/51
f 51/1/51 60/1/60 62/1/62
f 62/1/62 60/1/60 59/1/59
f 62/1/62 58/1/58 61/1/61
f 59/1/59 58/1/58 62/1/62
f 62/1/62 61/1/61 51/1/51
f 64/1/64 63/1/63 65/1/65
f 65/1/65 66/1/66 67/1/67
f 67/1/67 68/1/68 69/1/69
f 69/1/69 70/1/70 64/1/64
f 72/1/72 71/1/71 73/1/73
f 73/1/73 74/1/74 75/1/75
f 75/1/75 76/1/76 77/1/77
f 77/1/77 78/1/78 72/1/72
f 74/1/74 71/1/71 65/1/65
f 76/1/76 74/1/74 67/1/67
f 78/1/78 76/1/76 69/1/69
f 71/1/71 78/1/78 64/1/64
f 66/1/66 63/1/63 68/1/68
f 75/1/75 77/1/77 73/1/73
f 3/1/3 1/1/1 4/1/4
f 1/1/1 5/1/5 4/1/4
f 7/1/7 1/1/1 2/1/2
f 8/1/8 6/1/6 7/1/7
f 3/1/3 7/1/7 2/1/2
f 5/1/5 3/1/3 4/1/4
f 11/1/11 9/1/9 12/1/12
f 9/1/9 13/1/13 12/1/12
f 15/1/15 9/1/9 10/1/10
f 16/1/16 14/1/14 15/1/15
f 11/1/11 15/1/15 10/1/10
f 13/1/13 11/1/11 12/1/12
f 19/1/19 17/1/17 20/1/20
f 17/1/17 21/1/21 20/1/20
f 23/1/23 17/1/17 18/1/18
f 24/1/24 22/1/22 23/1/23
f 19/1/19 23/1/23 18/1/18
f 21/1/21 19/1/19 20/1/20
f 27/1/27 25/1/25 28/1/28
f 25/1/25 29/1/29 28/1/28
f 31/1/31 25/1/25 26/1/26
f 32/1/32 30/1/30 31/1/31
f 27/1/27 31/1/31 26/1/26
f 29/1/29 27/1/27 28/1/28
f 65/1/65 63/1/63 66/1/66
f 67/1/67 66/1/66 68/1/68
f 69/1/69 68/1/68 70/1/70
f 64/1/64 70/1/70 63/1/63
f 73/1/73 71/1/71 74/1/74
f 75/1/75 74/1/74 76/1/76
f 77/1/77 76/1/76 78/1/78
f 72/1/72 78/1/78 71/1/71
f 65/1/65 71/1/71 64/1/64
f 67/1/67 74/1/74 65/1/65
f 69/1/69 76/1/76 67/1/67
f 64/1/64 78/1/78 69/1/69
f 68/1/68 63/1/63 70/1/70
f 73/1/73 77/1/77 72/1/72
# 122 faces, 1 coords texture

# End of File
