####
#
# OBJ File Generated by Meshlab
#
####
# Object D00935.obj
#
# Vertices: 124
# Faces: 200
#
####
mtllib ./D00935.obj.mtl

vn 0.3349354645548345 0.3691652799098870 0.8669113165096487
v 0.2892970000000000 -0.0090900000000000 0.0825520000000000
vn 0.3482795392751676 0.8115717877125337 0.4690976400615967
v 0.2641550000000000 0.0706160000000000 0.0731330000000000
vn 0.6773230855844261 0.7044895874533755 -0.2119619279591612
v 0.2648120000000000 0.0836500000000000 -0.0042120000000000
vn 0.1926395238654643 0.7269218322064405 -0.6591469211841309
v 0.2903290000000000 0.0113620000000000 -0.0388150000000000
vn 0.6569684987198330 -0.2427905485142895 -0.7137542583003896
v 0.1831280000000000 0.0828510000000000 0.0181250000000000
vn -0.3537207462401776 -0.5024918907534448 0.7889128807455993
v 0.1068480000000000 0.0802650000000000 0.0502550000000000
vn 0.6457580532794760 -0.4651009328329012 0.6055391472916234
v 0.1828540000000000 0.0774090000000000 0.0504200000000000
vn 0.5820113207152483 0.4721979363590789 0.6620362010173761
v 0.1784720000000000 0.0961310000000000 0.0489200000000000
vn -0.3429485402084966 0.8557018881100942 0.3875055837709710
v 0.1235990000000000 0.0981930000000000 0.0488010000000000
vn 0.3710120850826757 0.9096068871836698 -0.1869902230348960
v 0.1786700000000000 0.1000600000000000 0.0256050000000000
vn -0.2175007172184816 0.8262641224228412 -0.5195969957633109
v 0.1237970000000000 0.1021230000000000 0.0254850000000000
vn -0.7820687333218216 0.4187172519136227 -0.4615672857886543
v 0.1071230000000000 0.0857070000000000 0.0179600000000000
vn -0.4480844954550445 -0.4103656174839356 0.7942419939286933
v 0.6287770000000000 -0.0407540000000000 0.0363770000000000
vn -0.6051329571016160 0.6731958731154695 0.4249957889788490
v 0.6315590000000000 -0.0128170000000000 0.0372880000000000
vn 0.3823231468574389 0.4086540223556334 0.8287526177271398
v 0.6608510000000000 -0.0139180000000000 0.0373520000000000
vn -0.6288039565161087 -0.3639515110753831 -0.6871279952495262
v 0.6290860000000000 -0.0346310000000000 0.0000430000000000
vn 0.5360361994475339 0.7490323748141638 -0.3893786002878142
v 0.6610970000000000 -0.0090470000000000 0.0084470000000000
vn -0.5118303769720444 0.7480037901450669 -0.4225162661215183
v 0.6318049999999999 -0.0079460000000000 0.0083830000000000
vn 0.7193562356066198 -0.6354546822335251 0.2805778913623860
v 0.6655980000000000 -0.0421370000000000 0.0364570000000000
vn 0.6240883282281039 -0.3396180003183996 -0.7036855636071994
v 0.6659070000000000 -0.0360140000000000 0.0001230000000000
vn -0.2874586884941070 0.6396166242955519 0.7129222091743325
v -0.5550460000000000 -0.0138790000000000 0.0783520000000000
vn -0.1172167873522263 0.8792154260821717 -0.4617796653188277
v -0.5539510000000000 0.0078150000000000 -0.0503800000000000
vn -0.1222898827085871 0.2509144365470267 0.9602536800863655
v -0.0558590000000000 -0.0343840000000000 0.0897800000000000
vn -0.1309906498686602 0.4804643736834560 0.8671767036008005
v -0.5969850000000000 -0.0371080000000000 0.0727180000000000
vn -0.2559978179958516 0.7003357754888611 -0.6663294371043338
v -0.5959130000000000 -0.0158610000000000 -0.0533650000000000
vn -0.0700545818997921 0.5308402691631682 0.8445714677809217
v -0.7814449999999999 -0.0287660000000000 0.0639670000000000
vn -0.0575512928322336 0.7784974422544876 -0.6250036648665024
v -0.7805140000000000 -0.0103330000000000 -0.0454150000000000
vn 0.2259958745014765 0.5976805170863048 -0.7692228963075399
v 0.4190780000000000 -0.0257760000000000 -0.0501000000000000
vn 0.0970667830806418 0.5534044776689444 0.8272372838057641
v 0.6941600000000000 -0.0483070000000000 0.0585820000000000
vn 0.3710960624984055 0.2022420549614659 0.9063034059315582
v 0.4179440000000000 -0.0482350000000000 0.0831720000000000
vn 0.1238630909215305 0.6496981949710927 -0.7500334593594267
v 0.6948480000000000 -0.0346720000000000 -0.0223270000000000
vn 0.3210673274724571 0.9334367858851346 0.1600360521448949
v 0.9650580000000000 -0.0447550000000000 0.0198780000000000
vn -0.2388283719849926 0.4886496432287809 -0.8391558466145506
v -0.0545880000000000 -0.0092040000000000 -0.0596400000000000
vn -0.3341924117649924 0.6968522965936595 0.6345961776207292
v -0.8750840000000000 -0.0226340000000000 0.0482840000000000
vn -0.7991956560787739 0.5937900773677659 0.0932718999720762
v -0.8963930000000000 -0.0152120000000000 0.0090250000000000
vn -0.2411887563134149 0.9390304206433359 -0.2450507150252529
v -0.8744170000000000 -0.0094180000000000 -0.0301400000000000
vn -0.0236620942536512 -0.5446990045635248 -0.8382977393045007
v -0.5562780000000001 -0.0542370000000000 -0.0526890000000000
vn -0.0360085457393616 -0.7892703560867442 0.6129891431635965
v -0.5572380000000000 -0.0732540000000000 0.0601590000000000
vn -0.0384515062585070 -0.9305764933178642 0.3640726187873500
v -0.0580400000000000 -0.0935440000000000 0.0703110000000000
vn -0.0238889642266423 -0.8550123032348983 0.5180572156674711
v 0.2267560000000000 -0.1038700000000000 0.0686980000000000
vn -0.0298316405056328 -0.7597699863017979 -0.6495072294745522
v -0.0569260000000000 -0.0714710000000000 -0.0606720000000000
vn -0.0704382829951636 -0.6491637780795019 -0.7573802463216482
v -0.7926940000000000 -0.0467840000000000 -0.0447210000000000
vn -0.0811457320529127 -0.8613207424696712 0.5015395784592592
v -0.7935090000000000 -0.0629430000000000 0.0511640000000000
vn -0.0020967702386524 -0.8524661118971490 0.5227782815128450
v 0.4156590000000000 -0.1101510000000000 0.0642620000000000
vn -0.0129331621134950 -0.6379562394512627 -0.7699640055632140
v 0.2278320000000000 -0.0825490000000000 -0.0578220000000000
vn 0.0399243993810291 -0.8418915033414344 0.5381679467745770
v 0.6916280000000000 -0.1166460000000000 0.0419100000000000
vn 0.0089272414156731 -0.6340635456910653 -0.7732294125202305
v 0.4166520000000000 -0.0904630000000000 -0.0525650000000000
vn -0.4536058891137554 -0.4545107844622028 -0.7665909236149828
v -0.8898870000000000 -0.0454230000000000 -0.0313630000000000
vn -0.9887585421781838 -0.1458396600161992 -0.0329748212433672
v -0.9145270000000000 -0.0503000000000000 0.0029580000000000
vn -0.5164323221854058 -0.5136983323457562 0.6851362491850641
v -0.8904710000000000 -0.0570080000000000 0.0373840000000000
vn 0.3991639496652867 -0.9046819938793691 -0.1490591534863185
v 0.9427480000000000 -0.1200960000000000 0.0069920000000000
vn 0.0701802534888123 -0.4682952087695443 -0.8807805228680610
v 0.6922310000000000 -0.1046940000000000 -0.0290150000000000
vn 0.0289651505909042 0.2430874725455776 -0.9695718130920727
v 0.2301670000000000 -0.0203350000000000 -0.0564770000000000
vn 0.0122464879429761 -0.0881546034478695 0.9960315202964268
v 0.2289400000000000 -0.0446580000000000 0.0878540000000000
vn 0.2807682420692050 -0.1700071805661215 0.9445987258097094
v 0.6972130000000000 -0.0208120000000000 0.0230830000000000
vn 0.7285818133321214 -0.6760345112894642 0.1102083518944607
v 0.6971730000000000 -0.0219120000000000 0.0221730000000000
vn -0.6226473275781059 -0.6629083138747064 0.4157678112307835
v 0.6552960000000000 -0.0208540000000000 0.0222740000000000
vn 0.7411718259322819 -0.5296449420627329 -0.4124809811270959
v 0.6971850000000001 -0.0216750000000000 0.0207660000000000
vn -0.6694848918058606 -0.5616792553330037 -0.4861135605722778
v 0.6553120000000000 -0.0205250000000000 0.0203250000000000
vn 0.2967832217336795 0.1480304445306743 -0.9434016677902518
v 0.6972370000000000 -0.0203380000000000 0.0202680000000000
vn 0.7778698444695166 0.6192423135907763 -0.1070395353302359
v 0.6972760000000000 -0.0192380000000000 0.0211770000000000
vn -0.5693599519111042 0.7074925921510840 -0.4186686962397894
v 0.6554380000000000 -0.0171510000000000 0.0208940000000000
vn 0.7770354736135032 0.4724338424870982 0.4159592975509914
v 0.6972640000000000 -0.0194760000000000 0.0225850000000000
vn -0.6275392893531727 0.6103937570629989 0.4833362200959406
v 0.6554210000000000 -0.0174790000000000 0.0228440000000000
vn -0.4838245237376865 0.1630644907464797 -0.8598394048237100
v 0.6553830000000000 -0.0186740000000000 0.0196350000000000
vn -0.4984412345637857 -0.1264209021116476 0.8576561614049107
v 0.6553500000000000 -0.0193310000000000 0.0235340000000000
vn -0.7869351606752563 -0.6073231866651706 -0.1090486122418401
v 0.1978890000000000 0.0796350000000000 0.0343160000000000
vn -0.4903623336203058 0.8600861942567974 0.1407001073748921
v 0.2009910000000000 0.2081110000000000 0.0559930000000000
vn 0.1773183165379714 0.3715062879893827 0.9113403824063157
v 0.2121770000000000 0.2070960000000000 0.0595440000000000
vn 0.5214050160537212 0.6038630049414183 -0.6028982339476034
v 0.2122370000000000 0.2082840000000000 0.0524910000000000
vn 0.4644409575060243 -0.4612844966108987 -0.7559836044368403
v 0.2348060000000000 0.0801630000000000 0.0230570000000000
vn 0.8124242402237398 -0.4023358551826167 0.4220103239629946
v 0.2346130000000000 0.0763410000000000 0.0457350000000000
vn -0.8612402484328231 0.1156653103219654 -0.4948603545117474
v 0.2143880000000000 0.1447990000000000 -0.0196240000000000
vn -0.4094569226748021 0.6722112936390797 0.6168281812447907
v 0.2133120000000000 0.1234780000000000 0.1068970000000000
vn -0.4644553370645978 -0.8058200117036582 0.3673354714836655
v 0.2167700000000000 0.1170310000000000 0.1058400000000000
vn 0.4643292616478688 0.8058879900975406 -0.3673457284277188
v 0.2217750000000000 0.1445220000000000 -0.0196080000000000
vn 0.8612043061687159 -0.1156447764033453 0.4949277005049130
v 0.2206990000000000 0.1232010000000000 0.1069130000000000
vn 0.4093471196657728 -0.6722338566939249 -0.6168764686189183
v 0.2178460000000000 0.1383520000000000 -0.0206810000000000
vn -0.8612288743501409 0.1155676740511948 -0.4949029588717227
v 0.2075460000000000 0.1883740000000000 -0.0123390000000000
vn -0.4094488917003731 0.6721938997515965 0.6168524671443544
v 0.2064700000000000 0.1670530000000000 0.1141820000000000
vn -0.4643606997851957 -0.8058670512982816 0.3673519240820934
v 0.2099290000000000 0.1606060000000000 0.1131250000000000
vn 0.4643392112387094 0.8058959287855373 -0.3673157345841714
v 0.2149330000000000 0.1880970000000000 -0.0123230000000000
vn 0.8612304769623939 -0.1154939385198656 0.4949173827178608
v 0.2138560000000000 0.1667760000000000 0.1141980000000000
vn 0.4094765729288138 -0.6721591114547263 -0.6168720005891550
v 0.2110050000000000 0.1819270000000000 -0.0133960000000000
vn -0.2279215244933592 0.9623075963797698 -0.1483774532144725
v -0.0295120000000000 0.0235630000000000 -0.0416800000000000
vn -0.1534807592745973 0.5488015775288976 0.8217423471102645
v 0.0595270000000000 -0.0007300000000000 0.0831070000000000
vn -0.5128208870562498 0.7407873165826867 0.4338765831305757
v -0.0305810000000000 0.0023890000000000 0.0839670000000000
vn 0.3434559001800045 0.8203639620175227 0.4572100331953087
v 0.4042500000000000 -0.0126250000000000 0.0781530000000000
vn -0.3326730878174674 0.6937813731733317 -0.6387456636876041
v 0.0605770000000000 0.0200830000000000 -0.0403990000000000
vn 0.6528888090933704 0.7326040723448524 -0.1924252481988236
v 0.4052030000000000 0.0062600000000000 -0.0339150000000000
vn -0.2234863184625186 0.8932788211947240 -0.3900087346009500
v 0.0912950000000000 0.0902200000000000 -0.0052820000000000
vn -0.5136186976374995 0.5649069190893207 0.6458142195726031
v 0.0906250000000000 0.0769560000000000 0.0734270000000000
vn 0.4944775316808521 -0.1575269159234184 0.8547966082188605
v -0.4857110000000000 -0.0090570000000000 0.0345130000000000
vn -0.9991073757643498 0.0422338780152923 0.0008667416359781
v -0.5213980000000000 -0.0042840000000000 0.0141090000000000
vn 0.0366688085084376 0.9853852844340301 0.1663467453947843
v -0.4967680000000000 0.0150960000000000 0.0175320000000000
vn 0.5051809465738748 0.1304726236998664 -0.8530938434214590
v -0.4854570000000000 -0.0021770000000000 -0.0062930000000000
vn 0.5606093699167580 -0.4946602653229139 -0.6640996583888598
v -0.1738870000000000 -0.0076420000000000 -0.0425980000000000
vn -0.3631340543100236 -0.7551879960347029 0.5457332216802038
v -0.4460300000000000 -0.0168010000000000 0.0716320000000000
vn 0.5509266773600001 -0.6865339991276617 0.4745006472227937
v -0.1748640000000000 -0.0269920000000000 0.0722210000000000
vn 0.6728272816229717 0.1926377937139316 0.7142787477846945
v -0.1735370000000000 0.0086680000000000 0.0782420000000000
vn -0.6445464836768604 0.6265648491417586 0.4381510244193889
v -0.4447030000000000 0.0188580000000000 0.0776530000000000
vn 0.4413261253030970 0.8570671106388784 -0.2658330660133908
v -0.1725600000000000 0.0280170000000000 -0.0365780000000000
vn -0.3861437486156714 0.5532790570909734 -0.7380889447685562
v -0.4437260000000000 0.0382080000000000 -0.0371670000000000
vn -0.8274617610586337 -0.3037855407818542 -0.4722513940663605
v -0.4450530000000000 0.0025480000000000 -0.0431870000000000
vn 0.6621576102408067 -0.2338652310373011 -0.7119370428008741
v -0.1996280000000000 0.0271330000000000 -0.0253760000000000
vn -0.3416294157409846 -0.4751147291188421 0.8108978582255616
v -0.4176340000000000 0.0197420000000000 0.0664510000000000
vn 0.6509403926297006 -0.4561127819420581 0.6068259514821098
v -0.2004130000000000 0.0115790000000000 0.0669220000000000
vn 0.5808534825394067 0.4799708617715114 0.6574474911900994
v -0.2105040000000000 0.0560860000000000 0.0623490000000000
vn -0.3148656045126731 0.8679246057382984 0.3841438921145151
v -0.3728630000000000 0.0621880000000000 0.0619960000000000
vn 0.3701108310283024 0.9107335247920008 -0.1832550669844561
v -0.2099180000000000 0.0677120000000000 -0.0066370000000000
vn -0.1988994534925820 0.8411812800385019 -0.5028449676720845
v -0.3722760000000000 0.0738130000000000 -0.0069900000000000
vn -0.7466082016868718 0.4842138700560252 -0.4561941705231031
v -0.4168490000000000 0.0352960000000000 -0.0258480000000000
vn 0.6548564794415851 -0.2506442587097354 -0.7129799765135204
v -0.2100620000000000 0.0668080000000000 -0.0012500000000000
vn -0.3559117631923684 -0.5095455450894496 0.7833837848084392
v -0.3475570000000000 0.0621460000000000 0.0566640000000000
vn 0.6436691023852806 -0.4722819193970288 0.6021958778048763
v -0.2105570000000000 0.0569980000000000 0.0569610000000000
vn 0.5849237618811759 0.4657999137058066 0.6639989707660974
v -0.2184210000000000 0.0916680000000000 0.0544140000000000
vn -0.3493707454509183 0.8526913169443188 0.3884039137686860
v -0.3173300000000000 0.0953850000000000 0.0541990000000000
vn 0.3729106241387973 0.9084056769552002 -0.1890417744308833
v -0.2180630000000000 0.0987500000000000 0.0123880000000000
vn -0.2217967791074656 0.8222363571705992 -0.5241503235946506
v -0.3169720000000000 0.1024670000000000 0.0121730000000000
vn -0.7893590407910077 0.4031052944571328 -0.4630533730598756
v -0.3470610000000000 0.0719560000000000 -0.0015480000000000
vn 0.4945430490103359 -0.1548558537388805 0.8552466528659221
v 0.0213230000000000 0.0076050000000000 0.0416330000000000
vn -0.9989917476440021 0.0448764421927736 0.0012621708684180
v -0.0143630000000000 0.0123780000000000 0.0212290000000000
vn 0.0366722188120743 0.9853825811865273 0.1663620060638126
v 0.0102650000000000 0.0316960000000000 0.0246410000000000
vn 0.5052948331746260 0.1330788097823382 -0.8526236930521830
v 0.0215800000000000 0.0144850000000000 0.0008270000000000
# 124 vertices, 0 vertices normals


usemtl material_0
f 2//2 1//1 3//3
f 4//4 3//3 1//1
f 6//6 5//5 7//7
f 9//9 8//8 10//10
f 8//8 6//6 7//7
f 8//8 7//7 5//5
f 10//10 5//5 11//11
f 11//11 12//12 9//9
f 11//11 9//9 10//10
f 9//9 6//6 8//8
f 10//10 8//8 5//5
f 12//12 11//11 5//5
f 6//6 9//9 12//12
f 12//12 5//5 6//6
f 14//14 13//13 15//15
f 17//17 16//16 18//18
f 18//18 14//14 17//17
f 13//13 16//16 19//19
f 18//18 16//16 14//14
f 15//15 19//19 17//17
f 20//20 17//17 19//19
f 13//13 14//14 16//16
f 20//20 19//19 16//16
f 15//15 17//17 14//14
f 20//20 16//16 17//17
f 19//19 15//15 13//13
f 22//22 21//21 23//23
f 24//24 21//21 25//25
f 26//26 24//24 27//27
f 29//29 28//28 30//30
f 32//32 31//31 29//29
f 31//31 28//28 29//29
f 22//22 25//25 21//21
f 25//25 27//27 24//24
f 33//33 22//22 23//23
f 35//35 34//34 36//36
f 26//26 36//36 34//34
f 27//27 36//36 26//26
f 38//38 37//37 39//39
f 40//40 39//39 41//41
f 42//42 38//38 43//43
f 44//44 40//40 45//45
f 46//46 44//44 47//47
f 49//49 48//48 50//50
f 51//51 46//46 52//52
f 43//43 50//50 48//48
f 42//42 43//43 48//48
f 41//41 39//39 37//37
f 45//45 40//40 41//41
f 47//47 44//44 45//45
f 52//52 46//46 47//47
f 37//37 38//38 42//42
f 37//37 22//22 33//33
f 36//36 48//48 35//35
f 53//53 45//45 33//33
f 42//42 25//25 37//37
f 28//28 47//47 53//53
f 31//31 52//52 28//28
f 48//48 27//27 42//42
f 31//31 32//32 51//51
f 52//52 31//31 51//51
f 47//47 28//28 52//52
f 45//45 53//53 47//47
f 41//41 33//33 45//45
f 41//41 37//37 33//33
f 49//49 35//35 48//48
f 36//36 27//27 48//48
f 22//22 37//37 25//25
f 27//27 25//25 42//42
f 38//38 39//39 23//23
f 46//46 51//51 29//29
f 40//40 23//23 39//39
f 24//24 38//38 21//21
f 44//44 54//54 40//40
f 46//46 30//30 44//44
f 50//50 43//43 26//26
f 50//50 35//35 49//49
f 32//32 29//29 51//51
f 29//29 30//30 46//46
f 30//30 54//54 44//44
f 54//54 23//23 40//40
f 21//21 38//38 23//23
f 34//34 50//50 26//26
f 34//34 35//35 50//50
f 43//43 38//38 24//24
f 26//26 43//43 24//24
f 56//56 55//55 57//57
f 58//58 56//56 59//59
f 60//60 58//58 59//59
f 61//61 60//60 62//62
f 63//63 61//61 64//64
f 55//55 63//63 64//64
f 65//65 59//59 62//62
f 60//60 61//61 58//58
f 55//55 56//56 63//63
f 63//63 56//56 61//61
f 56//56 58//58 61//61
f 66//66 64//64 57//57
f 57//57 64//64 59//59
f 64//64 62//62 59//59
f 66//66 55//55 64//64
f 62//62 64//64 61//61
f 65//65 62//62 60//60
f 65//65 60//60 59//59
f 57//57 59//59 56//56
f 66//66 57//57 55//55
f 68//68 67//67 69//69
f 67//67 70//70 71//71
f 69//69 70//70 68//68
f 71//71 72//72 67//67
f 69//69 72//72 70//70
f 71//71 70//70 72//72
f 72//72 69//69 67//67
f 68//68 70//70 67//67
f 74//74 73//73 75//75
f 77//77 76//76 74//74
f 75//75 78//78 77//77
f 74//74 75//75 77//77
f 76//76 78//78 73//73
f 76//76 77//77 78//78
f 73//73 74//74 76//76
f 78//78 75//75 73//73
f 80//80 79//79 81//81
f 83//83 82//82 80//80
f 81//81 84//84 83//83
f 80//80 81//81 83//83
f 82//82 84//84 79//79
f 82//82 83//83 84//84
f 79//79 80//80 82//82
f 84//84 81//81 79//79
f 86//86 85//85 87//87
f 88//88 4//4 1//1
f 89//89 53//53 33//33
f 86//86 23//23 54//54
f 1//1 54//54 30//30
f 90//90 28//28 4//4
f 2//2 91//91 92//92
f 3//3 4//4 91//91
f 92//92 86//86 1//1
f 1//1 86//86 54//54
f 4//4 53//53 89//89
f 90//90 4//4 88//88
f 3//3 91//91 2//2
f 89//89 85//85 86//86
f 2//2 92//92 1//1
f 89//89 91//91 4//4
f 53//53 4//4 28//28
f 85//85 89//89 33//33
f 87//87 23//23 86//86
f 88//88 1//1 30//30
f 87//87 33//33 23//23
f 88//88 30//30 90//90
f 92//92 89//89 86//86
f 28//28 90//90 30//30
f 91//91 89//89 92//92
f 85//85 33//33 87//87
f 94//94 93//93 95//95
f 96//96 94//94 95//95
f 93//93 96//96 95//95
f 96//96 93//93 94//94
f 98//98 97//97 99//99
f 101//101 100//100 102//102
f 100//100 98//98 99//99
f 102//102 97//97 103//103
f 103//103 101//101 102//102
f 101//101 98//98 100//100
f 104//104 103//103 97//97
f 104//104 97//97 98//98
f 106//106 105//105 107//107
f 109//109 108//108 110//110
f 108//108 106//106 107//107
f 110//110 105//105 111//111
f 111//111 109//109 110//110
f 109//109 106//106 108//108
f 112//112 111//111 105//105
f 112//112 105//105 106//106
f 114//114 113//113 115//115
f 117//117 116//116 118//118
f 116//116 114//114 115//115
f 118//118 113//113 119//119
f 119//119 117//117 118//118
f 117//117 114//114 116//116
f 120//120 119//119 113//113
f 120//120 113//113 114//114
f 122//122 121//121 123//123
f 124//124 122//122 123//123
f 121//121 124//124 123//123
f 124//124 121//121 122//122
f 100//100 99//99 97//97
f 103//103 104//104 101//101
f 102//102 100//100 97//97
f 98//98 101//101 104//104
f 108//108 107//107 105//105
f 111//111 112//112 109//109
f 110//110 108//108 105//105
f 106//106 109//109 112//112
f 116//116 115//115 113//113
f 119//119 120//120 117//117
f 118//118 116//116 113//113
f 114//114 117//117 120//120
# 200 faces, 0 coords texture

# End of File
