####
#
# OBJ File Generated by Meshlab
#
####
# Object m1450.obj
#
# Vertices: 72
# Faces: 127
#
####
mtllib ./m1450.obj.mtl

vn 1.5678451569194811 1.6651422814054770 -2.6278924396685106
v 0.0792600000000000 0.1179010000000000 0.0678750000000000
vn 3.1349666937466631 3.0638750778970913 0.1492950733343355
v 0.0607580000000000 0.1179010000000000 0.2633900000000000
vn 1.5738632102468331 1.5795732555682958 -1.5782999819393160
v 0.0607580000000000 0.1179010000000000 0.6903560000000000
vn -1.5675824509653085 1.5743327488299981 -1.5709617916833456
v 0.2028310000000000 0.1176160000000000 0.6903560000000000
vn -3.1274645117662661 3.0533979542014484 0.1492378283665424
v 0.2028310000000000 0.1176160000000000 0.2633900000000000
vn -1.5592073260477142 1.6656782478279142 -4.5667077764485109
v 0.1842230000000000 0.1176160000000000 0.0678750000000000
vn 1.5707963267948966 1.5707963267948966 1.5707963267948968
v 0.1673220000000000 0.1673580000000000 0.8148879999999999
vn 1.5707963267948966 1.5707963267948966 -1.5707963267948968
v 0.1673220000000000 0.1673580000000000 0.7437270000000000
vn -1.5707963267948966 1.5707963267948966 -1.5707963267948966
v 0.0961610000000000 0.1673580000000000 0.7437270000000000
vn -1.5707963267948966 1.5707963267948966 1.5707963267948966
v 0.0961610000000000 0.1673580000000000 0.8148879999999999
vn -1.5707963267948966 -1.5707963267948966 -1.5707963267948968
v 0.0961610000000000 0.1495670000000000 0.7437270000000000
vn -1.5707963267948966 -1.5707963267948966 1.5707963267948968
v 0.0961610000000000 0.1495670000000000 0.8148879999999999
vn 1.5707963267948966 -1.5707963267948966 1.5707963267948966
v 0.1673220000000000 0.1495670000000000 0.8148879999999999
vn 1.5707963267948966 -1.5707963267948966 -1.5707963267948966
v 0.1673220000000000 0.1495670000000000 0.7437270000000000
vn -1.3595494205966392 -2.3517169167630763 -3.2654178196719581
v 0.0792600000000000 0.0598690000000000 0.0678750000000000
vn 1.3595494205966390 -2.3517169167630749 -2.1648859975620667
v 0.1842230000000000 0.0598690000000000 0.0678750000000000
vn 2.8413251383388625 -4.4712606864282689 -0.1341353959801505
v 0.2024760000000000 0.0598690000000000 0.2633900000000000
vn 2.8693970365301862 -4.3423846607310779 0.3523017997330943
v 0.2024760000000000 0.0598690000000000 0.6903560000000000
vn -2.8709279641485130 -4.3344100009528228 0.3623656747117358
v 0.0610070000000000 0.0598690000000000 0.6903560000000000
vn -2.8413251383388625 -4.4712606864282689 -0.1341353959801506
v 0.0610070000000000 0.0598690000000000 0.2633900000000000
vn -1.6033879062336938 3.0577867973553845 -0.1413936910729055
v 0.0250710000000000 0.1496030000000000 0.2633900000000000
vn -4.2411177145065873 1.6688680760726355 -0.2596602217454407
v 0.0250000000000000 0.1317770000000000 0.2633900000000000
vn -5.6151080032674479 1.5660886899503388 0.6701674194579317
v 0.0250000000000000 0.1317770000000000 0.6903560000000000
vn -3.0939507932766910 2.9094088021356921 0.3797577688690383
v 0.0250710000000000 0.1496030000000000 0.6903560000000000
vn -0.0885414684347754 1.6613575203440631 -1.5778111593510993
v 0.0427550000000000 0.1496030000000000 0.0678750000000000
vn -1.4324699422833969 0.9341479986059855 -3.1651636127800558
v 0.0427550000000000 0.1317770000000000 0.0678750000000000
vn 3.1322656976707366 3.0573616681619762 -0.1416577627336602
v 0.2384480000000000 0.1496030000000000 0.2633900000000000
vn 1.5106734963630408 0.4178832643356611 0.1044919665338243
v 0.2384480000000000 0.1496030000000000 0.6903560000000000
vn 2.6853126011950539 1.5314783833106875 0.3569688416357060
v 0.2384830000000000 0.1317770000000000 0.6903560000000000
vn 5.9022583257832304 -1.3820535608484303 -0.2681361419874497
v 0.2384830000000000 0.1317770000000000 0.2633900000000000
vn 1.5627224083427045 1.6613580252493989 -1.7117073927215452
v 0.2207280000000000 0.1496030000000000 0.0678750000000000
vn 2.9736016850200744 0.8202967028904669 -3.4133004621312852
v 0.2207280000000000 0.1317770000000000 0.0678750000000000
vn 1.5723642595743748 1.5795754919911831 -4.7057856486547527
v 0.0605810000000000 0.1495670000000000 0.6903560000000000
vn -1.5723832412915530 1.5743352240932060 -4.7091227332740431
v 0.2029030000000000 0.1495670000000000 0.6903560000000000
vn -1.5217583787243896 2.9201675049963223 0.7317783182836297
v 0.0605810000000000 0.1495670000000000 0.8326780000000000
vn -3.9038368782374455 1.6536180131284179 1.5813962469446934
v 0.0606160000000000 0.1317420000000000 0.8326780000000000
vn 1.3051611099086351 0.9270992739953046 0.7524885094652365
v 0.1317420000000000 0.1495670000000000 0.9750000000000000
vn 1.3044066361308035 0.2082649822305145 1.3840806218412280
v 0.1317420000000000 0.1317770000000000 0.9750000000000000
vn 0.0805006120795011 2.9227763065202965 0.3959729427820669
v 0.2029030000000000 0.1495670000000000 0.8326780000000000
vn 2.5555256469791354 1.4518872313417077 1.2489393509192801
v 0.2028310000000000 0.1318130000000000 0.8326780000000000
vn 2.7385518080128910 -4.2394203524658547 1.0481579204552021
v 0.1682470000000000 0.0598690000000000 0.8326780000000000
vn -0.0159165316651155 -2.7749053494289431 1.8608054476479423
v 0.1317420000000000 0.0598690000000000 0.9038389999999999
vn -2.7412605429480994 -4.2240346106252904 1.0537794628250547
v 0.0952360000000000 0.0598690000000000 0.8326780000000000
vn -1.5651842618281397 1.4759040081688912 -1.4227638404715661
v 0.1842230000000000 0.1495670000000000 0.0678750000000000
vn 1.5652513675869137 1.4764368438148476 -1.4235140410749798
v 0.0792600000000000 0.1495670000000000 0.0678750000000000
vn -3.1375289601066148 3.2439072230587032 0.1495379997824481
v 0.2029030000000000 0.1495670000000000 0.2633900000000000
vn 3.1371711606640713 3.2543564694615603 0.1494899895867221
v 0.0605810000000000 0.1495670000000000 0.2633900000000000
vn -1.5607192611692962 -1.5395802446918381 -1.5607178779788766
v 0.1210670000000000 0.1317770000000000 0.5373599999999999
vn -1.5607192611692857 -1.5395802446918381 1.5607178779788766
v 0.1210670000000000 0.1317770000000000 0.5587080000000000
vn -1.5807162852798846 1.6024123994038024 1.5807177126137115
v 0.1281840000000000 0.8433880000000000 0.5515920000000000
vn -1.5807162852798813 1.6024123994038024 -1.5807177126137115
v 0.1281840000000000 0.8433880000000000 0.5444760000000000
vn 1.5807163076325828 1.6024101642569746 -1.5807163076325785
v 0.1353000000000000 0.8433880000000000 0.5444760000000000
vn 1.5807163076325743 1.6024101642569746 1.5807163076325785
v 0.1353000000000000 0.8433880000000000 0.5515920000000000
vn 1.5607192829600205 -1.5395824236440361 1.5607192829600018
v 0.1424160000000000 0.1317770000000000 0.5587080000000000
vn 1.5607192829600018 -1.5395824236440365 -1.5607192829600018
v 0.1424160000000000 0.1317770000000000 0.5373599999999999
vn 0.0000000000000000 0.0000000000000000 -3.1415926535897931
v 0.1317420000000000 0.1673580000000000 0.0250000000000000
vn 1.5707963267948966 1.5707963267948977 -1.5707963267948966
v 0.1353000000000000 0.1709160000000000 0.0250000000000000
vn -1.5707963267948966 1.5707963267948966 -1.5707963267948959
v 0.1281840000000000 0.1709160000000000 0.0250000000000000
vn -1.5707963267948970 1.5707963267948977 1.5707963267948963
v 0.1281840000000000 0.1709160000000000 0.0997190000000000
vn 1.5707963267948970 1.5707963267948966 1.5707963267948966
v 0.1353000000000000 0.1709160000000000 0.0997190000000000
vn 1.5707963267948970 -1.5707963267948966 -1.5707963267948963
v 0.1353000000000000 0.1673580000000000 0.0250000000000000
vn 1.5707963267948966 -1.5707963267948977 1.5707963267948963
v 0.1353000000000000 0.1673580000000000 0.0997190000000000
vn -1.5707963267948970 -1.5707963267948977 -1.5707963267948966
v 0.1281840000000000 0.1673580000000000 0.0250000000000000
vn -1.5707963267948966 -1.5707963267948966 1.5707963267948966
v 0.1281840000000000 0.1673580000000000 0.0997190000000000
vn -1.5808007415672025 1.5798648750624114 -1.6011710466335509
v 0.1281840000000000 0.1990960000000000 0.1523070000000000
vn 1.5808007793599423 1.5798622784980079 -1.6011669154175561
v 0.1353000000000000 0.1990960000000000 0.1523070000000000
vn 1.5801542306871823 -1.5798722941847128 -1.6001394555487998
v 0.1353000000000000 0.1922640000000000 0.1523070000000000
vn -1.5801541929251610 -1.5798748907818534 -1.6001435834071620
v 0.1281840000000000 0.1922640000000000 0.1523070000000000
vn 1.5606604636572967 1.5615710583460394 1.5407941745787941
v 0.1388220000000000 0.2029740000000000 0.5373599999999999
vn 1.5613070123300499 -1.5615808434553553 1.5417979806494935
v 0.1388220000000000 0.1886350000000000 0.5373599999999999
vn -1.5613069754634759 -1.5615782468582100 1.5417939506741904
v 0.1246610000000000 0.1886350000000000 0.5373599999999999
vn -1.5606604268214270 1.5615684617816332 1.5407901479611228
v 0.1246610000000000 0.2029740000000000 0.5373599999999999
# 72 vertices, 0 vertices normals


usemtl material_0
vt -1.0000000000000000 -1.0000000000000000
f 1/1/1 2/1/2 3/1/3
f 7/1/7 8/1/8 9/1/9
f 10/1/10 9/1/9 11/1/11
f 7/1/7 10/1/10 12/1/12
f 8/1/8 7/1/7 13/1/13
f 8/1/8 14/1/14 11/1/11
f 15/1/15 16/1/16 17/1/17
f 27/1/27 28/1/28 29/1/29
f 31/1/31 27/1/27 30/1/30
f 33/1/33 34/1/34 4/1/4
f 35/1/35 24/1/24 23/1/23
f 37/1/37 35/1/35 36/1/36
f 39/1/39 37/1/37 38/1/38
f 28/1/28 39/1/39 40/1/40
f 28/1/28 34/1/34 33/1/33
f 18/1/18 41/1/41 42/1/42
f 41/1/41 40/1/40 38/1/38
f 36/1/36 43/1/43 42/1/42
f 19/1/19 43/1/43 36/1/36
f 29/1/29 40/1/40 41/1/41
f 20/1/20 19/1/19 23/1/23
f 17/1/17 30/1/30 29/1/29
f 16/1/16 32/1/32 30/1/30
f 15/1/15 20/1/20 22/1/22
f 44/1/44 31/1/31 32/1/32
f 25/1/25 45/1/45 1/1/1
f 46/1/46 5/1/5 4/1/4
f 44/1/44 6/1/6 5/1/5
f 47/1/47 33/1/33 3/1/3
f 45/1/45 47/1/47 2/1/2
f 46/1/46 34/1/34 28/1/28
f 44/1/44 46/1/46 27/1/27
f 21/1/21 24/1/24 33/1/33
f 25/1/25 21/1/21 47/1/47
f 48/1/48 49/1/49 50/1/50
f 52/1/52 53/1/53 54/1/54
f 53/1/53 50/1/50 49/1/49
f 52/1/52 55/1/55 48/1/48
f 38/1/38 40/1/40 29/1/29
f 32/1/32 15/1/15 26/1/26
f 57/1/57 58/1/58 59/1/59
f 61/1/61 57/1/57 60/1/60
f 63/1/63 64/1/64 59/1/59
f 59/1/59 64/1/64 62/1/62
f 65/1/65 66/1/66 67/1/67
f 66/1/66 69/1/69 70/1/70
f 68/1/68 67/1/67 70/1/70
f 72/1/72 65/1/65 68/1/68
f 65/1/65 72/1/72 69/1/69
f 1/1/1 3/1/3 4/1/4
f 1/1/1 4/1/4 5/1/5
f 1/1/1 5/1/5 6/1/6
f 7/1/7 9/1/9 10/1/10
f 10/1/10 11/1/11 12/1/12
f 7/1/7 12/1/12 13/1/13
f 8/1/8 13/1/13 14/1/14
f 8/1/8 11/1/11 9/1/9
f 15/1/15 17/1/17 18/1/18
f 15/1/15 18/1/18 19/1/19
f 15/1/15 19/1/19 20/1/20
f 21/1/21 23/1/23 24/1/24
f 25/1/25 22/1/22 21/1/21
f 27/1/27 29/1/29 30/1/30
f 33/1/33 4/1/4 3/1/3
f 28/1/28 33/1/33 24/1/24
f 28/1/28 24/1/24 35/1/35
f 28/1/28 35/1/35 37/1/37
f 28/1/28 37/1/37 39/1/39
f 18/1/18 42/1/42 43/1/43
f 18/1/18 43/1/43 19/1/19
f 41/1/41 38/1/38 42/1/42
f 36/1/36 42/1/42 38/1/38
f 19/1/19 36/1/36 23/1/23
f 29/1/29 41/1/41 18/1/18
f 20/1/20 23/1/23 22/1/22
f 17/1/17 29/1/29 18/1/18
f 16/1/16 30/1/30 17/1/17
f 15/1/15 22/1/22 26/1/26
f 44/1/44 32/1/32 6/1/6
f 25/1/25 1/1/1 26/1/26
f 46/1/46 4/1/4 34/1/34
f 44/1/44 5/1/5 46/1/46
f 47/1/47 3/1/3 2/1/2
f 45/1/45 2/1/2 1/1/1
f 46/1/46 28/1/28 27/1/27
f 44/1/44 27/1/27 31/1/31
f 21/1/21 33/1/33 47/1/47
f 25/1/25 47/1/47 45/1/45
f 48/1/48 50/1/50 51/1/51
f 52/1/52 54/1/54 55/1/55
f 53/1/53 49/1/49 54/1/54
f 52/1/52 48/1/48 51/1/51
f 36/1/36 38/1/38 29/1/29
f 23/1/23 36/1/36 29/1/29
f 23/1/23 29/1/29 32/1/32
f 22/1/22 23/1/23 32/1/32
f 32/1/32 26/1/26 22/1/22
f 57/1/57 59/1/59 60/1/60
f 61/1/61 60/1/60 62/1/62
f 63/1/63 59/1/59 58/1/58
f 63/1/63 61/1/61 62/1/62
f 63/1/63 62/1/62 64/1/64
f 59/1/59 62/1/62 60/1/60
f 58/1/58 56/1/56 63/1/63
f 58/1/58 61/1/61 56/1/56
f 57/1/57 61/1/61 58/1/58
f 65/1/65 67/1/67 68/1/68
f 66/1/66 70/1/70 67/1/67
f 68/1/68 70/1/70 71/1/71
f 72/1/72 68/1/68 71/1/71
f 65/1/65 69/1/69 66/1/66
f 11/1/11 14/1/14 13/1/13
f 13/1/13 12/1/12 11/1/11
f 31/1/31 30/1/30 32/1/32
f 6/1/6 32/1/32 16/1/16
f 6/1/6 16/1/16 15/1/15
f 1/1/1 6/1/6 15/1/15
f 32/1/32 29/1/29 28/1/28
f 32/1/32 28/1/28 40/1/40
f 32/1/32 40/1/40 39/1/39
f 48/1/48 55/1/55 54/1/54
f 48/1/48 54/1/54 49/1/49
f 53/1/53 52/1/52 51/1/51
f 53/1/53 51/1/51 50/1/50
f 72/1/72 71/1/71 70/1/70
f 72/1/72 70/1/70 69/1/69
f 61/1/61 63/1/63 56/1/56
# 127 faces, 1 coords texture

# End of File
