####
#
# OBJ File Generated by Meshlab
#
####
# Object m202.obj
#
# Vertices: 148
# Faces: 224
#
####
mtllib ./m202.obj.mtl

vn 1.5707963267948966 1.5707963267948968 1.5707963267948966
v 0.0841990000000000 0.5014090000000000 0.0250000000000000
vn -1.5707963267948966 1.5707963267948966 1.5707963267948968
v 0.2364240000000000 0.5014090000000000 0.0250000000000000
vn -1.5707963267948966 -1.5707963267948966 1.5707963267948966
v 0.2364240000000000 0.6028930000000000 0.0250000000000000
vn 1.5707963267948966 -1.5707963267948968 1.5707963267948968
v 0.0841990000000000 0.6028930000000000 0.0250000000000000
vn 1.5707963267948966 1.5707963267948966 -1.5707963267948966
v 0.0841990000000000 0.5014090000000000 0.1264840000000000
vn -1.5707963267948966 1.5707963267948968 -1.5707963267948968
v 0.2364240000000000 0.5014090000000000 0.1264840000000000
vn -1.5707963267948966 -1.5707963267948968 -1.5707963267948966
v 0.2364240000000000 0.6028930000000000 0.1264840000000000
vn 1.5707963267948966 -1.5707963267948966 -1.5707963267948968
v 0.0841990000000000 0.6028930000000000 0.1264840000000000
vn 1.5707963267948966 1.5707963267948966 1.5707963267948966
v 0.0841990000000000 0.2815280000000000 0.0622110000000000
vn -1.5707963267948963 1.5707963267948966 1.5707963267948966
v 0.1574930000000000 0.2815280000000000 0.0622110000000000
vn -1.5707963267948966 -1.5707963267948966 1.5707963267948966
v 0.1574930000000000 0.5521509999999999 0.0622110000000000
vn 1.5707963267948963 -1.5707963267948966 1.5707963267948966
v 0.0841990000000000 0.5521509999999999 0.0622110000000000
vn 1.5707963267948963 1.5707963267948966 -1.5707963267948966
v 0.0841990000000000 0.2815280000000000 0.1185910000000000
vn -1.5707963267948966 1.5707963267948966 -1.5707963267948966
v 0.1574930000000000 0.2815280000000000 0.1185910000000000
vn -1.5707963267948963 -1.5707963267948966 -1.5707963267948966
v 0.1574930000000000 0.5521509999999999 0.1185910000000000
vn 1.5707963267948966 -1.5707963267948966 -1.5707963267948966
v 0.0841990000000000 0.5521509999999999 0.1185910000000000
vn 1.5707963267948966 1.5707963267948966 1.5707963267948966
v 0.0926560000000000 0.0447330000000000 0.0678490000000000
vn -1.5707963267948970 1.5707963267948966 1.5707963267948966
v 0.1490360000000000 0.0447330000000000 0.0678490000000000
vn -1.5707963267948966 -1.5707963267948966 1.5707963267948966
v 0.1490360000000000 0.2815280000000000 0.0678490000000000
vn 1.5707963267948970 -1.5707963267948966 1.5707963267948966
v 0.0926560000000000 0.2815280000000000 0.0678490000000000
vn 1.5707963267948970 1.5707963267948966 -1.5707963267948966
v 0.0926560000000000 0.0447330000000000 0.1129530000000000
vn -1.5707963267948966 1.5707963267948966 -1.5707963267948966
v 0.1490360000000000 0.0447330000000000 0.1129530000000000
vn -1.5707963267948970 -1.5707963267948966 -1.5707963267948966
v 0.1490360000000000 0.2815280000000000 0.1129530000000000
vn 1.5707963267948966 -1.5707963267948966 -1.5707963267948966
v 0.0926560000000000 0.2815280000000000 0.1129530000000000
vn 1.5707963267948966 1.5707963267948970 1.5707963267948966
v 0.0954750000000000 0.0250000000000000 0.0904010000000000
vn -1.5707963267948968 1.5707963267948966 1.5707963267948968
v 0.1462170000000000 0.0250000000000000 0.0904010000000000
vn -1.5707963267948966 -1.5707963267948966 1.5707963267948966
v 0.1462170000000000 0.0644660000000000 0.0904010000000000
vn 1.5707963267948968 -1.5707963267948970 1.5707963267948968
v 0.0954750000000000 0.0644660000000000 0.0904010000000000
vn 1.5707963267948968 1.5707963267948966 -1.5707963267948966
v 0.0954750000000000 0.0250000000000000 0.2257120000000000
vn -1.5707963267948966 1.5707963267948970 -1.5707963267948968
v 0.1462170000000000 0.0250000000000000 0.2257120000000000
vn -1.5707963267948968 -1.5707963267948970 -1.5707963267948966
v 0.1462170000000000 0.0644660000000000 0.2257120000000000
vn 1.5707963267948966 -1.5707963267948966 -1.5707963267948968
v 0.0954750000000000 0.0644660000000000 0.2257120000000000
vn 1.5707963267948966 1.5707963267948966 1.5707963267948966
v 0.1631310000000000 0.2815280000000000 0.0622110000000000
vn -1.5707963267948963 1.5707963267948966 1.5707963267948970
v 0.2364240000000000 0.2815280000000000 0.0622110000000000
vn -1.5707963267948966 -1.5707963267948966 1.5707963267948966
v 0.2364240000000000 0.5521509999999999 0.0622110000000000
vn 1.5707963267948963 -1.5707963267948966 1.5707963267948970
v 0.1631310000000000 0.5521509999999999 0.0622110000000000
vn 1.5707963267948963 1.5707963267948966 -1.5707963267948966
v 0.1631310000000000 0.2815280000000000 0.1185910000000000
vn -1.5707963267948966 1.5707963267948966 -1.5707963267948970
v 0.2364240000000000 0.2815280000000000 0.1185910000000000
vn -1.5707963267948963 -1.5707963267948966 -1.5707963267948966
v 0.2364240000000000 0.5521509999999999 0.1185910000000000
vn 1.5707963267948966 -1.5707963267948966 -1.5707963267948970
v 0.1631310000000000 0.5521509999999999 0.1185910000000000
vn 1.5707963267948966 1.5707963267948966 1.5707963267948966
v 0.1715880000000000 0.0447330000000000 0.0678490000000000
vn -1.5707963267948970 1.5707963267948966 1.5707963267948963
v 0.2279670000000000 0.0447330000000000 0.0678490000000000
vn -1.5707963267948966 -1.5707963267948966 1.5707963267948966
v 0.2279670000000000 0.2815280000000000 0.0678490000000000
vn 1.5707963267948970 -1.5707963267948966 1.5707963267948963
v 0.1715880000000000 0.2815280000000000 0.0678490000000000
vn 1.5707963267948970 1.5707963267948966 -1.5707963267948966
v 0.1715880000000000 0.0447330000000000 0.1129530000000000
vn -1.5707963267948966 1.5707963267948966 -1.5707963267948963
v 0.2279670000000000 0.0447330000000000 0.1129530000000000
vn -1.5707963267948970 -1.5707963267948966 -1.5707963267948966
v 0.2279670000000000 0.2815280000000000 0.1129530000000000
vn 1.5707963267948966 -1.5707963267948966 -1.5707963267948963
v 0.1715880000000000 0.2815280000000000 0.1129530000000000
vn 1.5707963267948966 1.5707963267948966 1.5707963267948966
v 0.1744070000000000 0.0250000000000000 0.0904010000000000
vn -1.5707963267948968 1.5707963267948966 1.5707963267948966
v 0.2251480000000000 0.0250000000000000 0.0904010000000000
vn -1.5707963267948966 -1.5707963267948966 1.5707963267948966
v 0.2251480000000000 0.0644660000000000 0.0904010000000000
vn 1.5707963267948968 -1.5707963267948966 1.5707963267948966
v 0.1744070000000000 0.0644660000000000 0.0904010000000000
vn 1.5707963267948968 1.5707963267948966 -1.5707963267948966
v 0.1744070000000000 0.0250000000000000 0.2257120000000000
vn -1.5707963267948966 1.5707963267948966 -1.5707963267948966
v 0.2251480000000000 0.0250000000000000 0.2257120000000000
vn -1.5707963267948968 -1.5707963267948966 -1.5707963267948966
v 0.2251480000000000 0.0644660000000000 0.2257120000000000
vn 1.5707963267948966 -1.5707963267948966 -1.5707963267948966
v 0.1744070000000000 0.0644660000000000 0.2257120000000000
vn 1.5707963267948966 1.5707963267948970 1.5707963267948966
v 0.0982940000000000 0.6028930000000000 0.0565730000000000
vn -1.5707963267948966 1.5707963267948966 1.5707963267948968
v 0.2223290000000000 0.6028930000000000 0.0565730000000000
vn -1.5707963267948966 -1.5707963267948966 1.5707963267948966
v 0.2223290000000000 0.6761870000000000 0.0565730000000000
vn 1.5707963267948966 -1.5707963267948970 1.5707963267948968
v 0.0982940000000000 0.6761870000000000 0.0565730000000000
vn 1.5707963267948966 1.5707963267948966 -1.5707963267948966
v 0.0982940000000000 0.6028930000000000 0.1242280000000000
vn -1.5707963267948966 1.5707963267948970 -1.5707963267948968
v 0.2223290000000000 0.6028930000000000 0.1242280000000000
vn -1.5707963267948966 -1.5707963267948970 -1.5707963267948966
v 0.2223290000000000 0.6761870000000000 0.1242280000000000
vn 1.5707963267948966 -1.5707963267948966 -1.5707963267948968
v 0.0982940000000000 0.6761870000000000 0.1242280000000000
vn 1.5707963267948966 1.5707963267948968 1.5707963267948966
v 0.0813800000000000 0.6761870000000000 0.0509350000000000
vn -1.5707963267948963 1.5707963267948966 1.5707963267948966
v 0.2392430000000000 0.6761870000000000 0.0509350000000000
vn -1.5707963267948966 -1.5707963267948966 1.5707963267948966
v 0.2392430000000000 0.8114990000000000 0.0509350000000000
vn 1.5707963267948963 -1.5707963267948968 1.5707963267948966
v 0.0813800000000000 0.8114990000000000 0.0509350000000000
vn 1.5707963267948963 1.5707963267948966 -1.5707963267948966
v 0.0813800000000000 0.6761870000000000 0.1298660000000000
vn -1.5707963267948966 1.5707963267948968 -1.5707963267948966
v 0.2392430000000000 0.6761870000000000 0.1298660000000000
vn -1.5707963267948963 -1.5707963267948968 -1.5707963267948966
v 0.2392430000000000 0.8114990000000000 0.1298660000000000
vn 1.5707963267948966 -1.5707963267948966 -1.5707963267948966
v 0.0813800000000000 0.8114990000000000 0.1298660000000000
vn 1.5707963267948966 1.5707963267948966 1.5707963267948966
v 0.1349410000000000 0.8114990000000000 0.0650300000000000
vn -1.5707963267948966 1.5707963267948966 1.5707963267948966
v 0.1856820000000000 0.8114990000000000 0.0650300000000000
vn -1.5707963267948966 -1.5707963267948966 1.5707963267948966
v 0.1856820000000000 0.8622400000000000 0.0650300000000000
vn 1.5707963267948966 -1.5707963267948966 1.5707963267948966
v 0.1349410000000000 0.8622400000000000 0.0650300000000000
vn 1.5707963267948966 1.5707963267948966 -1.5707963267948966
v 0.1349410000000000 0.8114990000000000 0.1157720000000000
vn -1.5707963267948966 1.5707963267948966 -1.5707963267948966
v 0.1856820000000000 0.8114990000000000 0.1157720000000000
vn -1.5707963267948966 -1.5707963267948966 -1.5707963267948966
v 0.1856820000000000 0.8622400000000000 0.1157720000000000
vn 1.5707963267948966 -1.5707963267948966 -1.5707963267948966
v 0.1349410000000000 0.8622400000000000 0.1157720000000000
vn 1.5707963267948966 1.5707963267948966 1.5707963267948966
v 0.1264840000000000 0.8622400000000000 0.0509350000000000
vn -1.5707963267948966 1.5707963267948966 1.5707963267948966
v 0.1941390000000000 0.8622400000000000 0.0509350000000000
vn -1.5707963267948966 -1.5707963267948966 1.5707963267948966
v 0.1941390000000000 0.9750000000000000 0.0509350000000000
vn 1.5707963267948966 -1.5707963267948966 1.5707963267948966
v 0.1264840000000000 0.9750000000000000 0.0509350000000000
vn 1.5707963267948966 1.5707963267948966 -1.5707963267948966
v 0.1264840000000000 0.8622400000000000 0.1298660000000000
vn -1.5707963267948966 1.5707963267948966 -1.5707963267948966
v 0.1941390000000000 0.8622400000000000 0.1298660000000000
vn -1.5707963267948966 -1.5707963267948966 -1.5707963267948966
v 0.1941390000000000 0.9750000000000000 0.1298660000000000
vn 1.5707963267948966 -1.5707963267948966 -1.5707963267948966
v 0.1264840000000000 0.9750000000000000 0.1298660000000000
vn 1.5707963267948966 1.5707963267948968 1.5707963267948966
v 0.0250000000000000 0.8002230000000000 0.0650300000000000
vn 0.0000000000000000 3.1415926535897936 3.1415926535897927
v 0.1603120000000000 0.8002230000000000 0.0650300000000000
vn 0.0000000000000000 -3.1415926535897936 3.1415926535897927
v 0.1603120000000000 0.8227740000000000 0.0650300000000000
vn 1.5707963267948966 -1.5707963267948968 1.5707963267948961
v 0.0250000000000000 0.8227740000000000 0.0650300000000000
vn 1.5707963267948966 1.5707963267948966 -1.5707963267948966
v 0.0250000000000000 0.8002230000000000 0.1157720000000000
vn 0.0000000000000000 3.1415926535897931 -3.1415926535897927
v 0.1603120000000000 0.8002230000000000 0.1157720000000000
vn 0.0000000000000000 -3.1415926535897931 -3.1415926535897927
v 0.1603120000000000 0.8227740000000000 0.1157720000000000
vn 1.5707963267948966 -1.5707963267948966 -1.5707963267948961
v 0.0250000000000000 0.8227740000000000 0.1157720000000000
vn 1.5707963267948966 1.5707963267948966 1.5707963267948966
v 0.0250000000000000 0.6649110000000000 0.0650300000000000
vn -1.5707963267948970 1.5707963267948966 1.5707963267948966
v 0.0757420000000000 0.6649110000000000 0.0650300000000000
vn -1.5707963267948966 -1.5707963267948966 1.5707963267948966
v 0.0757420000000000 0.8114990000000000 0.0650300000000000
vn 1.5707963267948970 -1.5707963267948966 1.5707963267948966
v 0.0250000000000000 0.8114990000000000 0.0650300000000000
vn 1.5707963267948970 1.5707963267948966 -1.5707963267948966
v 0.0250000000000000 0.6649110000000000 0.1157720000000000
vn -1.5707963267948966 1.5707963267948966 -1.5707963267948966
v 0.0757420000000000 0.6649110000000000 0.1157720000000000
vn -1.5707963267948970 -1.5707963267948966 -1.5707963267948966
v 0.0757420000000000 0.8114990000000000 0.1157720000000000
vn 1.5707963267948966 -1.5707963267948966 -1.5707963267948966
v 0.0250000000000000 0.8114990000000000 0.1157720000000000
vn 1.5707963267948966 1.5707963267948966 1.5707963267948966
v 0.0323290000000000 0.5295990000000000 0.0768690000000000
vn -1.5707963267948972 1.5707963267948966 1.5707963267948966
v 0.0684130000000000 0.5295990000000000 0.0768690000000000
vn -1.5707963267948966 -1.5707963267948966 1.5707963267948966
v 0.0684130000000000 0.6649110000000000 0.0768690000000000
vn 1.5707963267948972 -1.5707963267948966 1.5707963267948966
v 0.0323290000000000 0.6649110000000000 0.0768690000000000
vn 1.5707963267948972 1.5707963267948966 -1.5707963267948966
v 0.0323290000000000 0.5295990000000000 0.1039320000000000
vn -1.5707963267948966 1.5707963267948966 -1.5707963267948966
v 0.0684130000000000 0.5295990000000000 0.1039320000000000
vn -1.5707963267948972 -1.5707963267948966 -1.5707963267948966
v 0.0684130000000000 0.6649110000000000 0.1039320000000000
vn 1.5707963267948966 -1.5707963267948966 -1.5707963267948966
v 0.0323290000000000 0.6649110000000000 0.1039320000000000
vn 1.5707963267948966 1.5707963267948963 1.5707963267948966
v 0.0306380000000000 0.4687090000000000 0.0847630000000000
vn -1.5707963267948961 1.5707963267948966 1.5707963267948966
v 0.0701040000000000 0.4687090000000000 0.0847630000000000
vn -1.5707963267948966 -1.5707963267948966 1.5707963267948966
v 0.0701040000000000 0.5498960000000001 0.0847630000000000
vn 1.5707963267948961 -1.5707963267948963 1.5707963267948966
v 0.0306380000000000 0.5498960000000001 0.0847630000000000
vn 1.5707963267948961 1.5707963267948966 -1.5707963267948966
v 0.0306380000000000 0.4687090000000000 0.0960390000000000
vn -1.5707963267948966 1.5707963267948963 -1.5707963267948966
v 0.0701040000000000 0.4687090000000000 0.0960390000000000
vn -1.5707963267948961 -1.5707963267948963 -1.5707963267948966
v 0.0701040000000000 0.5498960000000001 0.0960390000000000
vn 1.5707963267948966 -1.5707963267948966 -1.5707963267948966
v 0.0306380000000000 0.5498960000000001 0.0960390000000000
vn -1.5707963267948966 1.5707963267948966 1.5707963267948961
v 0.2956230000000000 0.8002230000000000 0.0650300000000000
vn -1.5707963267948966 -1.5707963267948966 1.5707963267948966
v 0.2956230000000000 0.8227740000000000 0.0650300000000000
vn -1.5707963267948966 1.5707963267948970 -1.5707963267948961
v 0.2956230000000000 0.8002230000000000 0.1157720000000000
vn -1.5707963267948966 -1.5707963267948970 -1.5707963267948966
v 0.2956230000000000 0.8227740000000000 0.1157720000000000
vn 1.5707963267948966 1.5707963267948966 1.5707963267948966
v 0.2448810000000000 0.6649110000000000 0.0650300000000000
vn -1.5707963267948970 1.5707963267948966 1.5707963267948966
v 0.2956230000000000 0.6649110000000000 0.0650300000000000
vn -1.5707963267948966 -1.5707963267948966 1.5707963267948966
v 0.2956230000000000 0.8114990000000000 0.0650300000000000
vn 1.5707963267948970 -1.5707963267948966 1.5707963267948966
v 0.2448810000000000 0.8114990000000000 0.0650300000000000
vn 1.5707963267948970 1.5707963267948966 -1.5707963267948966
v 0.2448810000000000 0.6649110000000000 0.1157720000000000
vn -1.5707963267948966 1.5707963267948966 -1.5707963267948966
v 0.2956230000000000 0.6649110000000000 0.1157720000000000
vn -1.5707963267948970 -1.5707963267948966 -1.5707963267948966
v 0.2956230000000000 0.8114990000000000 0.1157720000000000
vn 1.5707963267948966 -1.5707963267948966 -1.5707963267948966
v 0.2448810000000000 0.8114990000000000 0.1157720000000000
vn 1.5707963267948966 1.5707963267948966 1.5707963267948966
v 0.2522110000000000 0.5295990000000000 0.0768690000000000
vn -1.5707963267948972 1.5707963267948966 1.5707963267948970
v 0.2882940000000000 0.5295990000000000 0.0768690000000000
vn -1.5707963267948966 -1.5707963267948966 1.5707963267948966
v 0.2882940000000000 0.6649110000000000 0.0768690000000000
vn 1.5707963267948972 -1.5707963267948966 1.5707963267948970
v 0.2522110000000000 0.6649110000000000 0.0768690000000000
vn 1.5707963267948972 1.5707963267948966 -1.5707963267948966
v 0.2522110000000000 0.5295990000000000 0.1039320000000000
vn -1.5707963267948966 1.5707963267948966 -1.5707963267948970
v 0.2882940000000000 0.5295990000000000 0.1039320000000000
vn -1.5707963267948972 -1.5707963267948966 -1.5707963267948966
v 0.2882940000000000 0.6649110000000000 0.1039320000000000
vn 1.5707963267948966 -1.5707963267948966 -1.5707963267948970
v 0.2522110000000000 0.6649110000000000 0.1039320000000000
vn 1.5707963267948966 1.5707963267948963 1.5707963267948966
v 0.2505190000000000 0.4687090000000000 0.0847630000000000
vn -1.5707963267948961 1.5707963267948966 1.5707963267948966
v 0.2899850000000000 0.4687090000000000 0.0847630000000000
vn -1.5707963267948966 -1.5707963267948966 1.5707963267948966
v 0.2899850000000000 0.5498960000000001 0.0847630000000000
vn 1.5707963267948961 -1.5707963267948963 1.5707963267948966
v 0.2505190000000000 0.5498960000000001 0.0847630000000000
vn 1.5707963267948961 1.5707963267948966 -1.5707963267948966
v 0.2505190000000000 0.4687090000000000 0.0960390000000000
vn -1.5707963267948966 1.5707963267948963 -1.5707963267948966
v 0.2899850000000000 0.4687090000000000 0.0960390000000000
vn -1.5707963267948961 -1.5707963267948963 -1.5707963267948966
v 0.2899850000000000 0.5498960000000001 0.0960390000000000
vn 1.5707963267948966 -1.5707963267948966 -1.5707963267948966
v 0.2505190000000000 0.5498960000000001 0.0960390000000000
# 148 vertices, 0 vertices normals


usemtl material_0
vt -1.0000000000000000 -1.0000000000000000
f 4/1/4 1/1/1 2/1/2
f 4/1/4 2/1/2 3/1/3
f 6/1/6 1/1/1 5/1/5
f 2/1/2 1/1/1 6/1/6
f 5/1/5 1/1/1 4/1/4
f 5/1/5 4/1/4 8/1/8
f 8/1/8 4/1/4 7/1/7
f 7/1/7 4/1/4 3/1/3
f 7/1/7 2/1/2 6/1/6
f 3/1/3 2/1/2 7/1/7
f 8/1/8 6/1/6 5/1/5
f 7/1/7 6/1/6 8/1/8
f 12/1/12 9/1/9 10/1/10
f 12/1/12 10/1/10 11/1/11
f 14/1/14 9/1/9 13/1/13
f 10/1/10 9/1/9 14/1/14
f 13/1/13 9/1/9 12/1/12
f 13/1/13 12/1/12 16/1/16
f 16/1/16 12/1/12 15/1/15
f 15/1/15 12/1/12 11/1/11
f 15/1/15 10/1/10 14/1/14
f 11/1/11 10/1/10 15/1/15
f 16/1/16 14/1/14 13/1/13
f 15/1/15 14/1/14 16/1/16
f 20/1/20 17/1/17 18/1/18
f 20/1/20 18/1/18 19/1/19
f 22/1/22 17/1/17 21/1/21
f 18/1/18 17/1/17 22/1/22
f 21/1/21 17/1/17 20/1/20
f 21/1/21 20/1/20 24/1/24
f 24/1/24 20/1/20 23/1/23
f 23/1/23 20/1/20 19/1/19
f 23/1/23 18/1/18 22/1/22
f 19/1/19 18/1/18 23/1/23
f 24/1/24 22/1/22 21/1/21
f 23/1/23 22/1/22 24/1/24
f 28/1/28 25/1/25 26/1/26
f 28/1/28 26/1/26 27/1/27
f 30/1/30 25/1/25 29/1/29
f 26/1/26 25/1/25 30/1/30
f 29/1/29 25/1/25 28/1/28
f 29/1/29 28/1/28 32/1/32
f 32/1/32 28/1/28 31/1/31
f 31/1/31 28/1/28 27/1/27
f 31/1/31 26/1/26 30/1/30
f 27/1/27 26/1/26 31/1/31
f 32/1/32 30/1/30 29/1/29
f 31/1/31 30/1/30 32/1/32
f 36/1/36 33/1/33 34/1/34
f 36/1/36 34/1/34 35/1/35
f 38/1/38 33/1/33 37/1/37
f 34/1/34 33/1/33 38/1/38
f 37/1/37 33/1/33 36/1/36
f 37/1/37 36/1/36 40/1/40
f 40/1/40 36/1/36 39/1/39
f 39/1/39 36/1/36 35/1/35
f 39/1/39 34/1/34 38/1/38
f 35/1/35 34/1/34 39/1/39
f 40/1/40 38/1/38 37/1/37
f 39/1/39 38/1/38 40/1/40
f 44/1/44 41/1/41 42/1/42
f 44/1/44 42/1/42 43/1/43
f 46/1/46 41/1/41 45/1/45
f 42/1/42 41/1/41 46/1/46
f 45/1/45 41/1/41 44/1/44
f 45/1/45 44/1/44 48/1/48
f 48/1/48 44/1/44 47/1/47
f 47/1/47 44/1/44 43/1/43
f 47/1/47 42/1/42 46/1/46
f 43/1/43 42/1/42 47/1/47
f 48/1/48 46/1/46 45/1/45
f 47/1/47 46/1/46 48/1/48
f 52/1/52 49/1/49 50/1/50
f 52/1/52 50/1/50 51/1/51
f 54/1/54 49/1/49 53/1/53
f 50/1/50 49/1/49 54/1/54
f 53/1/53 49/1/49 52/1/52
f 53/1/53 52/1/52 56/1/56
f 56/1/56 52/1/52 55/1/55
f 55/1/55 52/1/52 51/1/51
f 55/1/55 50/1/50 54/1/54
f 51/1/51 50/1/50 55/1/55
f 56/1/56 54/1/54 53/1/53
f 55/1/55 54/1/54 56/1/56
f 60/1/60 57/1/57 58/1/58
f 60/1/60 58/1/58 59/1/59
f 62/1/62 57/1/57 61/1/61
f 58/1/58 57/1/57 62/1/62
f 61/1/61 57/1/57 60/1/60
f 61/1/61 60/1/60 64/1/64
f 64/1/64 60/1/60 63/1/63
f 63/1/63 60/1/60 59/1/59
f 63/1/63 58/1/58 62/1/62
f 59/1/59 58/1/58 63/1/63
f 64/1/64 62/1/62 61/1/61
f 63/1/63 62/1/62 64/1/64
f 68/1/68 65/1/65 66/1/66
f 68/1/68 66/1/66 67/1/67
f 70/1/70 65/1/65 69/1/69
f 66/1/66 65/1/65 70/1/70
f 69/1/69 65/1/65 68/1/68
f 69/1/69 68/1/68 72/1/72
f 72/1/72 68/1/68 71/1/71
f 71/1/71 68/1/68 67/1/67
f 71/1/71 66/1/66 70/1/70
f 67/1/67 66/1/66 71/1/71
f 72/1/72 70/1/70 69/1/69
f 71/1/71 70/1/70 72/1/72
f 76/1/76 73/1/73 74/1/74
f 76/1/76 74/1/74 75/1/75
f 78/1/78 73/1/73 77/1/77
f 74/1/74 73/1/73 78/1/78
f 77/1/77 73/1/73 76/1/76
f 77/1/77 76/1/76 80/1/80
f 80/1/80 76/1/76 79/1/79
f 79/1/79 76/1/76 75/1/75
f 79/1/79 74/1/74 78/1/78
f 75/1/75 74/1/74 79/1/79
f 80/1/80 78/1/78 77/1/77
f 79/1/79 78/1/78 80/1/80
f 84/1/84 81/1/81 82/1/82
f 84/1/84 82/1/82 83/1/83
f 86/1/86 81/1/81 85/1/85
f 82/1/82 81/1/81 86/1/86
f 85/1/85 81/1/81 84/1/84
f 85/1/85 84/1/84 88/1/88
f 88/1/88 84/1/84 87/1/87
f 87/1/87 84/1/84 83/1/83
f 87/1/87 82/1/82 86/1/86
f 83/1/83 82/1/82 87/1/87
f 88/1/88 86/1/86 85/1/85
f 87/1/87 86/1/86 88/1/88
f 92/1/92 89/1/89 90/1/90
f 92/1/92 90/1/90 91/1/91
f 94/1/94 89/1/89 93/1/93
f 90/1/90 89/1/89 94/1/94
f 93/1/93 89/1/89 92/1/92
f 93/1/93 92/1/92 96/1/96
f 96/1/96 92/1/92 95/1/95
f 95/1/95 92/1/92 91/1/91
f 96/1/96 94/1/94 93/1/93
f 95/1/95 94/1/94 96/1/96
f 100/1/100 97/1/97 98/1/98
f 100/1/100 98/1/98 99/1/99
f 102/1/102 97/1/97 101/1/101
f 98/1/98 97/1/97 102/1/102
f 101/1/101 97/1/97 100/1/100
f 101/1/101 100/1/100 104/1/104
f 104/1/104 100/1/100 103/1/103
f 103/1/103 100/1/100 99/1/99
f 103/1/103 98/1/98 102/1/102
f 99/1/99 98/1/98 103/1/103
f 104/1/104 102/1/102 101/1/101
f 103/1/103 102/1/102 104/1/104
f 108/1/108 105/1/105 106/1/106
f 108/1/108 106/1/106 107/1/107
f 110/1/110 105/1/105 109/1/109
f 106/1/106 105/1/105 110/1/110
f 109/1/109 105/1/105 108/1/108
f 109/1/109 108/1/108 112/1/112
f 112/1/112 108/1/108 111/1/111
f 111/1/111 108/1/108 107/1/107
f 111/1/111 106/1/106 110/1/110
f 107/1/107 106/1/106 111/1/111
f 112/1/112 110/1/110 109/1/109
f 111/1/111 110/1/110 112/1/112
f 116/1/116 113/1/113 114/1/114
f 116/1/116 114/1/114 115/1/115
f 118/1/118 113/1/113 117/1/117
f 114/1/114 113/1/113 118/1/118
f 117/1/117 113/1/113 116/1/116
f 117/1/117 116/1/116 120/1/120
f 120/1/120 116/1/116 119/1/119
f 119/1/119 116/1/116 115/1/115
f 119/1/119 114/1/114 118/1/118
f 115/1/115 114/1/114 119/1/119
f 120/1/120 118/1/118 117/1/117
f 119/1/119 118/1/118 120/1/120
f 91/1/91 90/1/90 121/1/121
f 91/1/91 121/1/121 122/1/122
f 123/1/123 90/1/90 94/1/94
f 121/1/121 90/1/90 123/1/123
f 95/1/95 91/1/91 124/1/124
f 124/1/124 91/1/91 122/1/122
f 124/1/124 121/1/121 123/1/123
f 122/1/122 121/1/121 124/1/124
f 95/1/95 123/1/123 94/1/94
f 124/1/124 123/1/123 95/1/95
f 128/1/128 125/1/125 126/1/126
f 128/1/128 126/1/126 127/1/127
f 130/1/130 125/1/125 129/1/129
f 126/1/126 125/1/125 130/1/130
f 129/1/129 125/1/125 128/1/128
f 129/1/129 128/1/128 132/1/132
f 132/1/132 128/1/128 131/1/131
f 131/1/131 128/1/128 127/1/127
f 131/1/131 126/1/126 130/1/130
f 127/1/127 126/1/126 131/1/131
f 132/1/132 130/1/130 129/1/129
f 131/1/131 130/1/130 132/1/132
f 136/1/136 133/1/133 134/1/134
f 136/1/136 134/1/134 135/1/135
f 138/1/138 133/1/133 137/1/137
f 134/1/134 133/1/133 138/1/138
f 137/1/137 133/1/133 136/1/136
f 137/1/137 136/1/136 140/1/140
f 140/1/140 136/1/136 139/1/139
f 139/1/139 136/1/136 135/1/135
f 139/1/139 134/1/134 138/1/138
f 135/1/135 134/1/134 139/1/139
f 140/1/140 138/1/138 137/1/137
f 139/1/139 138/1/138 140/1/140
f 144/1/144 141/1/141 142/1/142
f 144/1/144 142/1/142 143/1/143
f 146/1/146 141/1/141 145/1/145
f 142/1/142 141/1/141 146/1/146
f 145/1/145 141/1/141 144/1/144
f 145/1/145 144/1/144 148/1/148
f 148/1/148 144/1/144 147/1/147
f 147/1/147 144/1/144 143/1/143
f 147/1/147 142/1/142 146/1/146
f 143/1/143 142/1/142 147/1/147
f 148/1/148 146/1/146 145/1/145
f 147/1/147 146/1/146 148/1/148
# 224 faces, 1 coords texture

# End of File
