####
#
# OBJ File Generated by Meshlab
#
####
# Object m1102.obj
#
# Vertices: 24
# Faces: 32
#
####
mtllib ./m1102.obj.mtl

vn 3.0015714985128854 0.3716405889560355 -1.9528931210830447
v 0.1257000000000000 0.2403330000000000 0.0376670000000000
vn 2.6844346794138740 2.0465443641134011 -0.0334990352315142
v 0.1257000000000000 0.9750000000000000 0.0376670000000000
vn 1.1167558992389526 -0.4730526712133865 4.0720498639548115
v 0.1193670000000000 0.2403330000000000 0.0440000000000000
vn 1.3494618694724987 2.0882131749507646 2.3645024655933571
v 0.1193670000000000 0.9750000000000000 0.0484340000000000
vn -1.3494618694724987 2.0882131749507646 2.3645024655933606
v 0.1067000000000000 0.9750000000000000 0.0484340000000000
vn -1.1167558992389526 -0.4730474658954025 4.0720342480008558
v 0.1067000000000000 0.2403330000000000 0.0440000000000000
vn -2.6844346794138745 2.0465443641134007 -0.0334990352315143
v 0.1003670000000000 0.9750000000000000 0.0376670000000000
vn -3.0015594607132057 0.3716349956821425 -1.9529000296910310
v 0.1003670000000000 0.2403330000000000 0.0376670000000000
vn -2.7420193716328205 -0.0526528412077059 -4.7433196390557635
v 0.1067000000000000 0.2403330000000000 0.0275340000000000
vn -1.3320400061554321 2.1293867713066419 -2.4033048986869678
v 0.1067000000000000 0.9750000000000000 0.0275340000000000
vn 1.3320400061554323 2.1293867713066419 -2.4033048986869661
v 0.1193670000000000 0.9750000000000000 0.0275340000000000
vn 2.7420131575431475 -0.0526268180458567 -4.7433330514590999
v 0.1193670000000000 0.2403330000000000 0.0275340000000000
vn 0.0000037780968990 -0.1716464088883907 -6.0215792641952151
v 0.1130340000000000 0.1833330000000000 0.0250000000000000
vn -0.5473354925878485 -0.0720195812028492 -2.8535380254887026
v 0.0623670000000000 0.2403330000000000 0.0250000000000000
vn 0.5473082996907569 -0.0720124907285921 -2.8535540932130079
v 0.1637000000000000 0.2403330000000000 0.0250000000000000
vn 0.0000017606088591 -0.1858155818540722 -2.4148330539217340
v 0.1130340000000000 0.0250000000000000 0.0376670000000000
vn -1.8786546745572108 -0.1922570245972169 -2.3115400295227331
v 0.0370340000000000 0.2403330000000000 0.0376670000000000
vn 1.8786702266832862 -0.1922558168183164 -2.3114950486912909
v 0.1890340000000000 0.2403330000000000 0.0376670000000000
vn -0.4210219361818415 -0.1149657949578007 -2.5957546767515831
v 0.0307000000000000 0.0940330000000000 0.0440000000000000
vn -1.2477398825370505 0.0198109860573193 -0.7902790392868873
v 0.0250000000000000 0.2403330000000000 0.0566670000000000
vn 0.4210277551149905 -0.1149685258306057 -2.5957539755376287
v 0.1953670000000000 0.0940330000000000 0.0440000000000000
vn 1.2477692011331805 0.0198057655206892 -0.7902319366966076
v 0.2010670000000000 0.2403330000000000 0.0566670000000000
vn -0.3998079308586274 -0.2530473436831721 -2.4394708515448933
v 0.0623670000000000 0.0440000000000000 0.0440000000000000
vn 0.3998188787006863 -0.2530542728162339 -2.4394745183547357
v 0.1637000000000000 0.0440000000000000 0.0440000000000000
# 24 vertices, 0 vertices normals


usemtl material_0
f 1//1 2//2 3//3
f 3//3 4//4 5//5
f 6//6 5//5 7//7
f 8//8 7//7 9//9
f 9//9 10//10 11//11
f 12//12 11//11 1//1
f 10//10 7//7 4//4
f 2//2 4//4 3//3
f 5//5 6//6 3//3
f 7//7 8//8 6//6
f 7//7 10//10 9//9
f 11//11 12//12 9//9
f 11//11 2//2 1//1
f 2//2 11//11 10//10
f 7//7 5//5 4//4
f 4//4 2//2 10//10
f 12//12 13//13 9//9
f 1//1 13//13 12//12
f 13//13 8//8 9//9
f 13//13 3//3 6//6
f 13//13 14//14 8//8
f 15//15 13//13 1//1
f 16//16 14//14 13//13
f 13//13 15//15 16//16
f 16//16 17//17 14//14
f 18//18 16//16 15//15
f 19//19 20//20 17//17
f 22//22 21//21 18//18
f 17//17 16//16 19//19
f 16//16 18//18 21//21
f 23//23 19//19 16//16
f 24//24 16//16 21//21
# 32 faces, 0 coords texture

# End of File
