####
#
# OBJ File Generated by Meshlab
#
####
# Object m934.obj
#
# Vertices: 148
# Faces: 276
#
####
mtllib ./m934.obj.mtl

vn 1.5707963267948961 1.5707963267948946 1.5707963267948966
v 0.2817610000000000 0.7827890000000000 0.7620290000000000
vn 1.5707963267948966 1.5707963267948966 -1.5707963267948961
v 0.2817610000000000 0.7827890000000000 0.2294920000000000
vn -1.5707963267948961 1.5707963267948946 -1.5707963267948966
v 0.2706310000000000 0.7827890000000000 0.2294920000000000
vn -1.5707963267948966 1.5707963267948966 1.5707963267948961
v 0.2706310000000000 0.7827890000000000 0.7620290000000000
vn 1.5707963267948966 -1.5707963267948946 1.5707963267948961
v 0.2817610000000000 0.6954620000000000 0.7620290000000000
vn 1.5707963267948961 -1.5707963267948966 -1.5707963267948966
v 0.2817610000000000 0.6954620000000000 0.2294920000000000
vn -1.5707963267948966 -1.5707963267948946 -1.5707963267948961
v 0.2706310000000000 0.6954620000000000 0.2294920000000000
vn -1.5707963267948961 -1.5707963267948966 1.5707963267948966
v 0.2706310000000000 0.6954620000000000 0.7620290000000000
vn -1.5707963267948966 1.5707963267948939 1.5707963267948963
v 0.2086430000000000 0.7827890000000000 0.5047940000000000
vn 1.5707963267948974 1.5707963267948966 1.5707963267948966
v 0.8255970000000000 0.7827890000000000 0.5047940000000000
vn 1.5707963267948966 1.5707963267948939 -1.5707963267948963
v 0.8255970000000000 0.7827890000000000 0.4936630000000000
vn -1.5707963267948974 1.5707963267948966 -1.5707963267948966
v 0.2086430000000000 0.7827890000000000 0.4936630000000000
vn -1.5707963267948974 -1.5707963267948939 1.5707963267948966
v 0.2086430000000000 0.6954620000000000 0.5047940000000000
vn 1.5707963267948966 -1.5707963267948966 1.5707963267948963
v 0.8255970000000000 0.6954620000000000 0.5047940000000000
vn 1.5707963267948974 -1.5707963267948939 -1.5707963267948966
v 0.8255970000000000 0.6954620000000000 0.4936630000000000
vn -1.5707963267948966 -1.5707963267948966 -1.5707963267948963
v 0.2086430000000000 0.6954620000000000 0.4936630000000000
vn 3.0524332097879099 -2.8211378824451216 0.5486677445367538
v 0.3071020000000000 0.1365570000000000 0.5047940000000000
vn 3.0752211342389808 -2.8327777389765920 -0.4232915120715259
v 0.3072740000000000 0.1365570000000000 0.4950340000000000
vn 2.7965926421362104 -2.8277200673124012 -1.3444644133772048
v 0.3044510000000000 0.1365570000000000 0.4856150000000000
vn 2.2342996446591639 -2.8192825452213546 -2.1502087797271536
v 0.2988850000000000 0.1365570000000000 0.4775670000000000
vn 1.4637432919782662 -2.8365035591359642 -2.7384615698627628
v 0.2910090000000000 0.1365570000000000 0.4716610000000000
vn 0.5625588859650295 -2.8294880850931121 -3.0520040736262772
v 0.2817610000000000 0.1365570000000000 0.4684070000000000
vn -0.4097340856636660 -2.8242018788871612 -3.0749379866838877
v 0.2720020000000000 0.1365570000000000 0.4681510000000000
vn -1.3537962359046067 -2.8204153040669242 -2.7900709862662918
v 0.2625820000000000 0.1365570000000000 0.4709740000000000
vn -2.1546120634054793 -2.8318162264720557 -2.2343597076474215
v 0.2545340000000000 0.1365570000000000 0.4766270000000000
vn -2.7334212692883928 -2.8313755294223828 -1.4705309215045759
v 0.2486290000000000 0.1365570000000000 0.4844160000000000
vn -3.0519363507655344 -2.8293553164285887 -0.5627474139385999
v 0.2453740000000000 0.1365570000000000 0.4936630000000000
vn -3.0749249321332939 -2.8241753702681951 0.4097822314141704
v 0.2451180000000000 0.1365570000000000 0.5034230000000000
vn -2.7900578210866884 -2.8204444985628463 1.3538401641401525
v 0.2479410000000000 0.1365570000000000 0.5128420000000000
vn -2.2433677163658623 -2.8390324107523099 2.1477315854063419
v 0.2535940000000000 0.1365570000000000 0.5208900000000000
vn -1.4745970628976055 -2.8208259812803140 2.7282711068410666
v 0.2613830000000000 0.1365570000000000 0.5268840000000000
vn -0.5445393533232885 -2.8242410900472681 3.0539585656881125
v 0.2707150000000000 0.1365570000000000 0.5301340000000000
vn 0.4230044964685305 -2.8326521550072541 3.0752299966836518
v 0.2803900000000000 0.1365570000000000 0.5303060000000001
vn 1.3443118873444069 -2.8277749293424526 2.7966809068484850
v 0.2898100000000000 0.1365570000000000 0.5274830000000000
vn 2.1434995873059681 -2.8261703426800810 2.2431133944465547
v 0.2978580000000000 0.1365570000000000 0.5219180000000000
vn 2.7319937986657661 -2.8292768532138988 1.4721042989770243
v 0.3038510000000000 0.1365570000000000 0.5140410000000000
vn 3.0524332097879121 2.8211378824451216 0.5486677445367547
v 0.3071020000000000 0.6968330000000000 0.5047940000000000
vn 3.0752211342389817 2.8327777389765920 -0.4232915120715259
v 0.3072740000000000 0.6968330000000000 0.4950340000000000
vn 2.7965926421362060 2.8277200673124012 -1.3444644133772012
v 0.3044510000000000 0.6968330000000000 0.4856150000000000
vn 2.2342996446591634 2.8192825452213546 -2.1502087797271505
v 0.2988850000000000 0.6968330000000000 0.4775670000000000
vn 1.4637432919782705 2.8365035591359642 -2.7384615698627668
v 0.2910090000000000 0.6968330000000000 0.4716610000000000
vn 0.5625588859650305 2.8294880850931121 -3.0520040736262812
v 0.2817610000000000 0.6968330000000000 0.4684070000000000
vn -0.4097340856636652 2.8242018788871612 -3.0749379866838842
v 0.2720020000000000 0.6968330000000000 0.4681510000000000
vn -1.3537962359046096 2.8204153040669242 -2.7900709862662971
v 0.2625820000000000 0.6968330000000000 0.4709740000000000
vn -2.1546120634054793 2.8318162264720557 -2.2343597076474202
v 0.2545340000000000 0.6968330000000000 0.4766270000000000
vn -2.7334212692883870 2.8313755294223828 -1.4705309215045728
v 0.2486290000000000 0.6968330000000000 0.4844160000000000
vn -3.0519363507655402 2.8293553164285887 -0.5627474139386013
v 0.2453740000000000 0.6968330000000000 0.4936630000000000
vn -3.0749249321332917 2.8241753702681951 0.4097822314141704
v 0.2451180000000000 0.6968330000000000 0.5034230000000000
vn -2.7900578210866920 2.8204444985628463 1.3538401641401547
v 0.2479410000000000 0.6968330000000000 0.5128420000000000
vn -2.2433677163658583 2.8390324107523099 2.1477315854063384
v 0.2535940000000000 0.6968330000000000 0.5208900000000000
vn -1.4745970628976068 2.8208259812803140 2.7282711068410688
v 0.2613830000000000 0.6968330000000000 0.5268840000000000
vn -0.5445393533232883 2.8242410900472681 3.0539585656881090
v 0.2707150000000000 0.6968330000000000 0.5301340000000000
vn 0.4230044964685296 2.8326521550072541 3.0752299966836523
v 0.2803900000000000 0.6968330000000000 0.5303060000000001
vn 1.3443118873444093 2.8277749293424526 2.7966809068484899
v 0.2898100000000000 0.6968330000000000 0.5274830000000000
vn 2.1434995873059681 2.8261703426800810 2.2431133944465538
v 0.2978580000000000 0.6968330000000000 0.5219180000000000
vn 2.7319937986657621 2.8292768532138988 1.4721042989770223
v 0.3038510000000000 0.6968330000000000 0.5140410000000000
vn 0.0000000000000000 6.2831853071795845 0.0000000000000000
v 0.2761960000000000 0.6968330000000000 0.4992280000000000
vn 0.0000000000000000 -6.2831853071795845 0.0000000000000000
v 0.2761960000000000 0.1365570000000000 0.4992280000000000
vn -1.5707963267948966 1.5707963267948966 1.5707963267948961
v 0.0886950000000000 0.1380120000000000 0.7080020000000000
vn 1.5707963267948963 1.5707963267948966 1.5707963267948966
v 0.7410960000000000 0.1380120000000000 0.7080020000000000
vn 1.5707963267948966 1.5707963267948966 -1.5707963267948961
v 0.7410960000000000 0.1380120000000000 0.2925940000000000
vn -1.5707963267948963 1.5707963267948966 -1.5707963267948966
v 0.0886950000000000 0.1380120000000000 0.2925940000000000
vn -1.5707963267948963 -1.5707963267948966 1.5707963267948966
v 0.0886950000000000 0.0250000000000000 0.7080020000000000
vn 1.5707963267948966 -1.5707963267948966 1.5707963267948961
v 0.7410960000000000 0.0250000000000000 0.7080020000000000
vn 1.5707963267948963 -1.5707963267948966 -1.5707963267948966
v 0.7410960000000000 0.0250000000000000 0.2925940000000000
vn -1.5707963267948966 -1.5707963267948966 -1.5707963267948961
v 0.0886950000000000 0.0250000000000000 0.2925940000000000
vn 3.1187019310157695 -2.9837370952388325 -0.2862631685878203
v 0.9740600000000000 0.7847600000000000 0.4565080000000000
vn 3.0351458783659524 -2.9841729489356688 -0.7723182543091078
v 0.9613860000000000 0.7847600000000000 0.3828780000000000
vn 2.8777521038473051 -2.9858298255456619 -1.2362863494155338
v 0.9373290000000000 0.7847600000000000 0.3121550000000000
vn 2.6492393431934409 -2.9838231197894185 -1.6702831959322684
v 0.9025690000000000 0.7847600000000000 0.2459770000000000
vn 2.3548069068525033 -2.9846215073993392 -2.0649011958394548
v 0.8578780000000000 0.7847600000000000 0.1861290000000000
vn 2.0017068003438094 -2.9835708792981110 -2.4085865588625075
v 0.8043670000000001 0.7847600000000000 0.1339900000000000
vn 1.6007630482701276 -2.9857163136156490 -2.6920868933389621
v 0.7433230000000000 0.7847600000000000 0.0909250000000000
vn 1.1611200976273719 -2.9841829452395867 -2.9086756163226641
v 0.6763700000000000 0.7847600000000000 0.0578770000000000
vn 0.6910431489450297 -2.9843397298432959 -3.0546970904215449
v 0.6049670000000000 0.7847600000000000 0.0357030000000000
vn 0.2054075466017879 -2.9851507001706956 -3.1252436412567031
v 0.5310780000000001 0.7847600000000000 0.0250000000000000
vn -0.2862398347312808 -2.9837222392656098 -3.1187022249798080
v 0.4564200000000000 0.7847600000000000 0.0259400000000000
vn -0.7723438988653788 -2.9841557043896385 -3.0351371549161898
v 0.3827900000000000 0.7847600000000000 0.0386140000000000
vn -1.2370392805134314 -2.9853240100149292 -2.8773611303646458
v 0.3120710000000000 0.7847600000000000 0.0626710000000000
vn -1.6710104824738949 -2.9843461798661801 -2.6488570931605442
v 0.2459770000000000 0.7847600000000000 0.0974310000000000
vn -2.0649011958394552 -2.9846215073993401 -2.3548069068525015
v 0.1861290000000000 0.7847600000000000 0.1421220000000000
vn -2.4071359582617915 -2.9851710490935166 -2.0037595166144415
v 0.1339900000000000 0.7847600000000000 0.1956330000000000
vn -2.6917067392291569 -2.9825741006267972 -1.6006428933202628
v 0.0908380000000000 0.7847600000000000 0.2565930000000000
vn -2.9095905879408348 -2.9860585468683167 -1.1594475799240014
v 0.0578770000000000 0.7847600000000000 0.3236300000000000
vn -3.0545778747871397 -2.9838450609463774 -0.6912930417593688
v 0.0357030000000000 0.7847600000000000 0.3949490000000000
vn -3.1252796065309996 -2.9852969546591064 -0.2051337520424603
v 0.0250000000000000 0.7847600000000000 0.4689220000000000
vn -3.1187019310157691 -2.9837370952388342 0.2862631685878202
v 0.0259400000000000 0.7847600000000000 0.5434920000000000
vn -3.0358655482167625 -2.9855986189925834 0.7701976049212838
v 0.0386140000000000 0.7847600000000000 0.6171219999999999
vn -2.8780981892236968 -2.9838929473521913 1.2348765093063712
v 0.0625870000000000 0.7847600000000000 0.6879290000000000
vn -2.6480088490012306 -2.9834231333192367 1.6721404469018903
v 0.0973460000000000 0.7847600000000000 0.7540230000000000
vn -2.3539499971347104 -2.9855327020060756 2.0660476375304175
v 0.1421220000000000 0.7847600000000000 0.8138710000000000
vn -2.0025393352740068 -2.9842196536147854 2.4079988219340205
v 0.1956330000000000 0.7847600000000000 0.8660099999999999
vn -1.6008948106216108 -2.9845700870124676 2.6918448410063687
v 0.2565930000000000 0.7847600000000000 0.9090750000000000
vn -1.1609196785657818 -2.9850139559613771 2.9088658260458198
v 0.3236300000000000 0.7847600000000000 0.9421230000000000
vn -0.6912930417593677 -2.9838450609463782 3.0545778747871406
v 0.3949490000000000 0.7847600000000000 0.9642970000000000
vn -0.2051337520424620 -2.9852969546591068 3.1252796065309996
v 0.4689220000000000 0.7847600000000000 0.9750000000000000
vn 0.2862631685878205 -2.9837370952388325 3.1187019310157691
v 0.5434920000000000 0.7847600000000000 0.9740600000000000
vn 0.7707154109112518 -2.9852505720278897 3.0356901351185597
v 0.6171219999999999 0.7847600000000000 0.9613860000000000
vn 1.2368189069184741 -2.9832160257356879 2.8771726475732429
v 0.6878450000000000 0.7847600000000000 0.9374140000000000
vn 1.6715621895660537 -2.9860395666575603 2.6487546916130777
v 0.7539380000000000 0.7847600000000000 0.9025690000000000
vn 2.0649278535743587 -2.9831353377097702 2.3545389351440704
v 0.8138710000000000 0.7847600000000000 0.8578780000000000
vn 2.4080487771684163 -2.9859441632007377 2.0028104492299299
v 0.8659260000000000 0.7847600000000000 0.8043670000000001
vn 2.6910117312388513 -2.9836514769656950 1.6020729577322714
v 0.9090750000000000 0.7847600000000000 0.7434070000000000
vn 2.9088658260458198 -2.9850139559613771 1.1609196785657814
v 0.9421230000000000 0.7847600000000000 0.6763700000000000
vn 3.0545778747871406 -2.9838450609463782 0.6912930417593679
v 0.9642970000000000 0.7847600000000000 0.6050510000000000
vn 3.1252796065309987 -2.9852969546591068 0.2051337520424622
v 0.9750000000000000 0.7847600000000000 0.5310780000000001
vn 3.1187019310157695 2.9837370952388325 -0.2862631685878203
v 0.9740600000000000 0.8148980000000000 0.4565080000000000
vn 3.0351458783659524 2.9841729489356688 -0.7723182543091078
v 0.9613860000000000 0.8148980000000000 0.3828780000000000
vn 2.8777521038473051 2.9858298255456619 -1.2362863494155336
v 0.9373290000000000 0.8148980000000000 0.3121550000000000
vn 2.6492393431934405 2.9838231197894185 -1.6702831959322684
v 0.9025690000000000 0.8148980000000000 0.2459770000000000
vn 2.3548069068525033 2.9846215073993392 -2.0649011958394548
v 0.8578780000000000 0.8148980000000000 0.1861290000000000
vn 2.0017068003438094 2.9835708792981110 -2.4085865588625075
v 0.8043670000000001 0.8148980000000000 0.1339900000000000
vn 1.6007630482701278 2.9857163136156490 -2.6920868933389626
v 0.7433230000000000 0.8148980000000000 0.0909250000000000
vn 1.1611200976273717 2.9841829452395867 -2.9086756163226637
v 0.6763700000000000 0.8148980000000000 0.0578770000000000
vn 0.6910431489450298 2.9843397298432959 -3.0546970904215449
v 0.6049670000000000 0.8148980000000000 0.0357030000000000
vn 0.2054075466017879 2.9851507001706956 -3.1252436412567031
v 0.5310780000000001 0.8148980000000000 0.0250000000000000
vn -0.2862398347312808 2.9837222392656098 -3.1187022249798084
v 0.4564200000000000 0.8148980000000000 0.0259400000000000
vn -0.7723438988653786 2.9841557043896385 -3.0351371549161890
v 0.3827900000000000 0.8148980000000000 0.0386140000000000
vn -1.2370392805134316 2.9853240100149292 -2.8773611303646467
v 0.3120710000000000 0.8148980000000000 0.0626710000000000
vn -1.6710104824738949 2.9843461798661801 -2.6488570931605437
v 0.2459770000000000 0.8148980000000000 0.0974310000000000
vn -2.0649011958394556 2.9846215073993401 -2.3548069068525015
v 0.1861290000000000 0.8148980000000000 0.1421220000000000
vn -2.4071359582617911 2.9851710490935166 -2.0037595166144411
v 0.1339900000000000 0.8148980000000000 0.1956330000000000
vn -2.6917067392291578 2.9825741006267972 -1.6006428933202630
v 0.0908380000000000 0.8148980000000000 0.2565930000000000
vn -2.9095905879408344 2.9860585468683167 -1.1594475799240012
v 0.0578770000000000 0.8148980000000000 0.3236300000000000
vn -3.0545778747871393 2.9838450609463774 -0.6912930417593686
v 0.0357030000000000 0.8148980000000000 0.3949490000000000
vn -3.1252796065309996 2.9852969546591064 -0.2051337520424603
v 0.0250000000000000 0.8148980000000000 0.4689220000000000
vn -3.1187019310157700 2.9837370952388342 0.2862631685878203
v 0.0259400000000000 0.8148980000000000 0.5434920000000000
vn -3.0358655482167620 2.9855986189925834 0.7701976049212836
v 0.0386140000000000 0.8148980000000000 0.6171219999999999
vn -2.8780981892236968 2.9838929473521913 1.2348765093063707
v 0.0625870000000000 0.8148980000000000 0.6879290000000000
vn -2.6480088490012310 2.9834231333192367 1.6721404469018903
v 0.0973460000000000 0.8148980000000000 0.7540230000000000
vn -2.3539499971347104 2.9855327020060756 2.0660476375304175
v 0.1421220000000000 0.8148980000000000 0.8138710000000000
vn -2.0025393352740064 2.9842196536147854 2.4079988219340200
v 0.1956330000000000 0.8148980000000000 0.8660099999999999
vn -1.6008948106216110 2.9845700870124676 2.6918448410063691
v 0.2565930000000000 0.8148980000000000 0.9090750000000000
vn -1.1609196785657818 2.9850139559613771 2.9088658260458193
v 0.3236300000000000 0.8148980000000000 0.9421230000000000
vn -0.6912930417593677 2.9838450609463782 3.0545778747871406
v 0.3949490000000000 0.8148980000000000 0.9642970000000000
vn -0.2051337520424620 2.9852969546591068 3.1252796065309996
v 0.4689220000000000 0.8148980000000000 0.9750000000000000
vn 0.2862631685878205 2.9837370952388325 3.1187019310157700
v 0.5434920000000000 0.8148980000000000 0.9740600000000000
vn 0.7707154109112517 2.9852505720278897 3.0356901351185588
v 0.6171219999999999 0.8148980000000000 0.9613860000000000
vn 1.2368189069184741 2.9832160257356879 2.8771726475732433
v 0.6878450000000000 0.8148980000000000 0.9374140000000000
vn 1.6715621895660537 2.9860395666575603 2.6487546916130773
v 0.7539380000000000 0.8148980000000000 0.9025690000000000
vn 2.0649278535743587 2.9831353377097702 2.3545389351440704
v 0.8138710000000000 0.8148980000000000 0.8578780000000000
vn 2.4080487771684158 2.9859441632007377 2.0028104492299299
v 0.8659260000000000 0.8148980000000000 0.8043670000000001
vn 2.6910117312388513 2.9836514769656950 1.6020729577322714
v 0.9090750000000000 0.8148980000000000 0.7434070000000000
vn 2.9088658260458198 2.9850139559613771 1.1609196785657814
v 0.9421230000000000 0.8148980000000000 0.6763700000000000
vn 3.0545778747871406 2.9838450609463782 0.6912930417593678
v 0.9642970000000000 0.8148980000000000 0.6050510000000000
vn 3.1252796065309991 2.9852969546591068 0.2051337520424622
v 0.9750000000000000 0.8148980000000000 0.5310780000000001
vn 0.0000000000000000 6.2831853071795853 0.0000000000000000
v 0.5000000000000000 0.8148980000000000 0.5000000000000000
vn 0.0000000000000000 -6.2831853071795853 0.0000000000000000
v 0.5000000000000000 0.7847600000000000 0.5000000000000000
# 148 vertices, 0 vertices normals


usemtl material_0
f 2//2 3//3 1//1
f 3//3 4//4 1//1
f 5//5 6//6 1//1
f 6//6 2//2 1//1
f 6//6 7//7 2//2
f 7//7 3//3 2//2
f 7//7 8//8 3//3
f 8//8 4//4 3//3
f 8//8 5//5 4//4
f 5//5 1//1 4//4
f 8//8 7//7 5//5
f 7//7 6//6 5//5
f 10//10 11//11 9//9
f 11//11 12//12 9//9
f 13//13 14//14 9//9
f 14//14 10//10 9//9
f 14//14 15//15 10//10
f 15//15 11//11 10//10
f 15//15 16//16 11//11
f 16//16 12//12 11//11
f 16//16 13//13 12//12
f 13//13 9//9 12//12
f 16//16 15//15 13//13
f 15//15 14//14 13//13
f 18//18 38//38 17//17
f 38//38 37//37 17//17
f 19//19 39//39 18//18
f 39//39 38//38 18//18
f 20//20 40//40 19//19
f 40//40 39//39 19//19
f 21//21 41//41 20//20
f 41//41 40//40 20//20
f 22//22 42//42 21//21
f 42//42 41//41 21//21
f 23//23 43//43 22//22
f 43//43 42//42 22//22
f 24//24 44//44 23//23
f 44//44 43//43 23//23
f 25//25 45//45 24//24
f 45//45 44//44 24//24
f 26//26 46//46 25//25
f 46//46 45//45 25//25
f 27//27 47//47 26//26
f 47//47 46//46 26//26
f 28//28 48//48 27//27
f 48//48 47//47 27//27
f 29//29 49//49 28//28
f 49//49 48//48 28//28
f 30//30 50//50 29//29
f 50//50 49//49 29//29
f 31//31 51//51 30//30
f 51//51 50//50 30//30
f 32//32 52//52 31//31
f 52//52 51//51 31//31
f 33//33 53//53 32//32
f 53//53 52//52 32//32
f 34//34 54//54 33//33
f 54//54 53//53 33//33
f 35//35 55//55 34//34
f 55//55 54//54 34//34
f 36//36 56//56 35//35
f 56//56 55//55 35//35
f 17//17 37//37 36//36
f 37//37 56//56 36//36
f 17//17 58//58 18//18
f 18//18 58//58 19//19
f 19//19 58//58 20//20
f 20//20 58//58 21//21
f 21//21 58//58 22//22
f 22//22 58//58 23//23
f 23//23 58//58 24//24
f 24//24 58//58 25//25
f 25//25 58//58 26//26
f 26//26 58//58 27//27
f 27//27 58//58 28//28
f 28//28 58//58 29//29
f 29//29 58//58 30//30
f 30//30 58//58 31//31
f 31//31 58//58 32//32
f 32//32 58//58 33//33
f 33//33 58//58 34//34
f 34//34 58//58 35//35
f 35//35 58//58 36//36
f 36//36 58//58 17//17
f 38//38 57//57 37//37
f 39//39 57//57 38//38
f 40//40 57//57 39//39
f 41//41 57//57 40//40
f 42//42 57//57 41//41
f 43//43 57//57 42//42
f 44//44 57//57 43//43
f 45//45 57//57 44//44
f 46//46 57//57 45//45
f 47//47 57//57 46//46
f 48//48 57//57 47//47
f 49//49 57//57 48//48
f 50//50 57//57 49//49
f 51//51 57//57 50//50
f 52//52 57//57 51//51
f 53//53 57//57 52//52
f 54//54 57//57 53//53
f 55//55 57//57 54//54
f 56//56 57//57 55//55
f 37//37 57//57 56//56
f 60//60 61//61 59//59
f 61//61 62//62 59//59
f 63//63 64//64 59//59
f 64//64 60//60 59//59
f 64//64 65//65 60//60
f 65//65 61//61 60//60
f 65//65 66//66 61//61
f 66//66 62//62 61//61
f 66//66 63//63 62//62
f 63//63 59//59 62//62
f 66//66 65//65 63//63
f 65//65 64//64 63//63
f 68//68 108//108 67//67
f 108//108 107//107 67//67
f 69//69 109//109 68//68
f 109//109 108//108 68//68
f 70//70 110//110 69//69
f 110//110 109//109 69//69
f 71//71 111//111 70//70
f 111//111 110//110 70//70
f 72//72 112//112 71//71
f 112//112 111//111 71//71
f 73//73 113//113 72//72
f 113//113 112//112 72//72
f 74//74 114//114 73//73
f 114//114 113//113 73//73
f 75//75 115//115 74//74
f 115//115 114//114 74//74
f 76//76 116//116 75//75
f 116//116 115//115 75//75
f 77//77 117//117 76//76
f 117//117 116//116 76//76
f 78//78 118//118 77//77
f 118//118 117//117 77//77
f 79//79 119//119 78//78
f 119//119 118//118 78//78
f 80//80 120//120 79//79
f 120//120 119//119 79//79
f 81//81 121//121 80//80
f 121//121 120//120 80//80
f 82//82 122//122 81//81
f 122//122 121//121 81//81
f 83//83 123//123 82//82
f 123//123 122//122 82//82
f 84//84 124//124 83//83
f 124//124 123//123 83//83
f 85//85 125//125 84//84
f 125//125 124//124 84//84
f 86//86 126//126 85//85
f 126//126 125//125 85//85
f 87//87 127//127 86//86
f 127//127 126//126 86//86
f 88//88 128//128 87//87
f 128//128 127//127 87//87
f 89//89 129//129 88//88
f 129//129 128//128 88//88
f 90//90 130//130 89//89
f 130//130 129//129 89//89
f 91//91 131//131 90//90
f 131//131 130//130 90//90
f 92//92 132//132 91//91
f 132//132 131//131 91//91
f 93//93 133//133 92//92
f 133//133 132//132 92//92
f 94//94 134//134 93//93
f 134//134 133//133 93//93
f 95//95 135//135 94//94
f 135//135 134//134 94//94
f 96//96 136//136 95//95
f 136//136 135//135 95//95
f 97//97 137//137 96//96
f 137//137 136//136 96//96
f 98//98 138//138 97//97
f 138//138 137//137 97//97
f 99//99 139//139 98//98
f 139//139 138//138 98//98
f 100//100 140//140 99//99
f 140//140 139//139 99//99
f 101//101 141//141 100//100
f 141//141 140//140 100//100
f 102//102 142//142 101//101
f 142//142 141//141 101//101
f 103//103 143//143 102//102
f 143//143 142//142 102//102
f 104//104 144//144 103//103
f 144//144 143//143 103//103
f 105//105 145//145 104//104
f 145//145 144//144 104//104
f 106//106 146//146 105//105
f 146//146 145//145 105//105
f 67//67 107//107 106//106
f 107//107 146//146 106//106
f 67//67 148//148 68//68
f 68//68 148//148 69//69
f 69//69 148//148 70//70
f 70//70 148//148 71//71
f 71//71 148//148 72//72
f 72//72 148//148 73//73
f 73//73 148//148 74//74
f 74//74 148//148 75//75
f 75//75 148//148 76//76
f 76//76 148//148 77//77
f 77//77 148//148 78//78
f 78//78 148//148 79//79
f 79//79 148//148 80//80
f 80//80 148//148 81//81
f 81//81 148//148 82//82
f 82//82 148//148 83//83
f 83//83 148//148 84//84
f 84//84 148//148 85//85
f 85//85 148//148 86//86
f 86//86 148//148 87//87
f 87//87 148//148 88//88
f 88//88 148//148 89//89
f 89//89 148//148 90//90
f 90//90 148//148 91//91
f 91//91 148//148 92//92
f 92//92 148//148 93//93
f 93//93 148//148 94//94
f 94//94 148//148 95//95
f 95//95 148//148 96//96
f 96//96 148//148 97//97
f 97//97 148//148 98//98
f 98//98 148//148 99//99
f 99//99 148//148 100//100
f 100//100 148//148 101//101
f 101//101 148//148 102//102
f 102//102 148//148 103//103
f 103//103 148//148 104//104
f 104//104 148//148 105//105
f 105//105 148//148 106//106
f 106//106 148//148 67//67
f 108//108 147//147 107//107
f 109//109 147//147 108//108
f 110//110 147//147 109//109
f 111//111 147//147 110//110
f 112//112 147//147 111//111
f 113//113 147//147 112//112
f 114//114 147//147 113//113
f 115//115 147//147 114//114
f 116//116 147//147 115//115
f 117//117 147//147 116//116
f 118//118 147//147 117//117
f 119//119 147//147 118//118
f 120//120 147//147 119//119
f 121//121 147//147 120//120
f 122//122 147//147 121//121
f 123//123 147//147 122//122
f 124//124 147//147 123//123
f 125//125 147//147 124//124
f 126//126 147//147 125//125
f 127//127 147//147 126//126
f 128//128 147//147 127//127
f 129//129 147//147 128//128
f 130//130 147//147 129//129
f 131//131 147//147 130//130
f 132//132 147//147 131//131
f 133//133 147//147 132//132
f 134//134 147//147 133//133
f 135//135 147//147 134//134
f 136//136 147//147 135//135
f 137//137 147//147 136//136
f 138//138 147//147 137//137
f 139//139 147//147 138//138
f 140//140 147//147 139//139
f 141//141 147//147 140//140
f 142//142 147//147 141//141
f 143//143 147//147 142//142
f 144//144 147//147 143//143
f 145//145 147//147 144//144
f 146//146 147//147 145//145
f 107//107 147//147 146//146
# 276 faces, 0 coords texture

# End of File
