####
#
# OBJ File Generated by Meshlab
#
####
# Object m856.obj
#
# Vertices: 64
# Faces: 96
#
####
mtllib ./m856.obj.mtl

vn 1.5707963267948966 1.5707963267948963 1.5707963267948966
v 0.0402630000000000 0.0250000000000000 0.0402630000000000
vn -1.5707963267948963 1.5707963267948966 1.5707963267948974
v 0.9597370000000000 0.0250000000000000 0.0402630000000000
vn -1.5707963267948966 -1.5707963267948966 1.5707963267948966
v 0.9597370000000000 0.0555260000000000 0.0402630000000000
vn 1.5707963267948963 -1.5707963267948963 1.5707963267948974
v 0.0402630000000000 0.0555260000000000 0.0402630000000000
vn 1.5707963267948963 1.5707963267948966 -1.5707963267948966
v 0.0402630000000000 0.0250000000000000 0.4080530000000000
vn -1.5707963267948966 1.5707963267948963 -1.5707963267948974
v 0.9597370000000000 0.0250000000000000 0.4080530000000000
vn -1.5707963267948963 -1.5707963267948963 -1.5707963267948966
v 0.9597370000000000 0.0555260000000000 0.4080530000000000
vn 1.5707963267948966 -1.5707963267948966 -1.5707963267948974
v 0.0402630000000000 0.0555260000000000 0.4080530000000000
vn 1.5707963267948966 1.5707963267948994 1.5707963267948966
v 0.0255520000000000 0.0255520000000000 0.0250000000000000
vn -1.5707963267948992 1.5707963267948966 1.5707963267948966
v 0.9744480000000000 0.0255520000000000 0.0250000000000000
vn -1.5707963267948966 -1.5707963267948966 1.5707963267948966
v 0.9744480000000000 0.7905540000000000 0.0250000000000000
vn 1.5707963267948992 -1.5707963267948994 1.5707963267948966
v 0.0255520000000000 0.7905540000000000 0.0250000000000000
vn 1.5707963267948992 1.5707963267948966 -1.5707963267948966
v 0.0255520000000000 0.0255520000000000 0.0555260000000000
vn -1.5707963267948966 1.5707963267948994 -1.5707963267948966
v 0.9744480000000000 0.0255520000000000 0.0555260000000000
vn -1.5707963267948992 -1.5707963267948994 -1.5707963267948966
v 0.9744480000000000 0.7905540000000000 0.0555260000000000
vn 1.5707963267948966 -1.5707963267948966 -1.5707963267948966
v 0.0255520000000000 0.7905540000000000 0.0555260000000000
vn 1.5707963267948966 1.5707963267948963 1.5707963267948966
v 0.0402630000000000 0.2088950000000000 0.0402630000000000
vn -1.5707963267948963 1.5707963267948966 1.5707963267948974
v 0.9597370000000000 0.2088950000000000 0.0402630000000000
vn -1.5707963267948966 -1.5707963267948966 1.5707963267948966
v 0.9597370000000000 0.2394210000000000 0.0402630000000000
vn 1.5707963267948963 -1.5707963267948963 1.5707963267948974
v 0.0402630000000000 0.2394210000000000 0.0402630000000000
vn 1.5707963267948963 1.5707963267948966 -1.5707963267948966
v 0.0402630000000000 0.2088950000000000 0.4080530000000000
vn -1.5707963267948966 1.5707963267948963 -1.5707963267948974
v 0.9597370000000000 0.2088950000000000 0.4080530000000000
vn -1.5707963267948963 -1.5707963267948963 -1.5707963267948966
v 0.9597370000000000 0.2394210000000000 0.4080530000000000
vn 1.5707963267948966 -1.5707963267948966 -1.5707963267948974
v 0.0402630000000000 0.2394210000000000 0.4080530000000000
vn 1.5707963267948966 1.5707963267948963 1.5707963267948966
v 0.0402630000000000 0.3927890000000000 0.0402630000000000
vn -1.5707963267948981 1.5707963267948966 1.5707963267948979
v 0.9597370000000000 0.3927890000000000 0.0402630000000000
vn -1.5707963267948966 -1.5707963267948966 1.5707963267948966
v 0.9597370000000000 0.4233160000000000 0.0402630000000000
vn 1.5707963267948981 -1.5707963267948963 1.5707963267948979
v 0.0402630000000000 0.4233160000000000 0.0402630000000000
vn 1.5707963267948981 1.5707963267948966 -1.5707963267948966
v 0.0402630000000000 0.3927890000000000 0.4080530000000000
vn -1.5707963267948966 1.5707963267948963 -1.5707963267948979
v 0.9597370000000000 0.3927890000000000 0.4080530000000000
vn -1.5707963267948981 -1.5707963267948963 -1.5707963267948966
v 0.9597370000000000 0.4233160000000000 0.4080530000000000
vn 1.5707963267948966 -1.5707963267948966 -1.5707963267948979
v 0.0402630000000000 0.4233160000000000 0.4080530000000000
vn 1.5707963267948966 1.5707963267948963 1.5707963267948966
v 0.0402630000000000 0.5766840000000000 0.0402630000000000
vn -1.5707963267948957 1.5707963267948966 1.5707963267948979
v 0.9597370000000000 0.5766840000000000 0.0402630000000000
vn -1.5707963267948966 -1.5707963267948966 1.5707963267948966
v 0.9597370000000000 0.6072109999999999 0.0402630000000000
vn 1.5707963267948957 -1.5707963267948963 1.5707963267948979
v 0.0402630000000000 0.6072109999999999 0.0402630000000000
vn 1.5707963267948957 1.5707963267948966 -1.5707963267948966
v 0.0402630000000000 0.5766840000000000 0.4080530000000000
vn -1.5707963267948966 1.5707963267948963 -1.5707963267948979
v 0.9597370000000000 0.5766840000000000 0.4080530000000000
vn -1.5707963267948957 -1.5707963267948963 -1.5707963267948966
v 0.9597370000000000 0.6072109999999999 0.4080530000000000
vn 1.5707963267948966 -1.5707963267948966 -1.5707963267948979
v 0.0402630000000000 0.6072109999999999 0.4080530000000000
vn 1.5707963267948966 1.5707963267948963 1.5707963267948966
v 0.0402630000000000 0.7605790000000000 0.0402630000000000
vn -1.5707963267948966 1.5707963267948966 1.5707963267948941
v 0.9597370000000000 0.7605790000000000 0.0402630000000000
vn -1.5707963267948966 -1.5707963267948966 1.5707963267948966
v 0.9597370000000000 0.7911049999999999 0.0402630000000000
vn 1.5707963267948966 -1.5707963267948963 1.5707963267948941
v 0.0402630000000000 0.7911049999999999 0.0402630000000000
vn 1.5707963267948966 1.5707963267948966 -1.5707963267948966
v 0.0402630000000000 0.7605790000000000 0.4080530000000000
vn -1.5707963267948966 1.5707963267948963 -1.5707963267948941
v 0.9597370000000000 0.7605790000000000 0.4080530000000000
vn -1.5707963267948966 -1.5707963267948963 -1.5707963267948966
v 0.9597370000000000 0.7911049999999999 0.4080530000000000
vn 1.5707963267948966 -1.5707963267948966 -1.5707963267948941
v 0.0402630000000000 0.7911049999999999 0.4080530000000000
vn 1.5707963267948966 1.5707963267948963 1.5707963267948966
v 0.0250000000000000 0.0264710000000000 0.0402630000000000
vn -1.5707963267948966 1.5707963267948966 1.5707963267948977
v 0.0555260000000000 0.0264710000000000 0.0402630000000000
vn -1.5707963267948966 -1.5707963267948966 1.5707963267948966
v 0.0555260000000000 0.7896339999999999 0.0402630000000000
vn 1.5707963267948966 -1.5707963267948963 1.5707963267948977
v 0.0250000000000000 0.7896339999999999 0.0402630000000000
vn 1.5707963267948966 1.5707963267948966 -1.5707963267948966
v 0.0250000000000000 0.0264710000000000 0.4080530000000000
vn -1.5707963267948966 1.5707963267948963 -1.5707963267948977
v 0.0555260000000000 0.0264710000000000 0.4080530000000000
vn -1.5707963267948966 -1.5707963267948963 -1.5707963267948966
v 0.0555260000000000 0.7896339999999999 0.4080530000000000
vn 1.5707963267948966 -1.5707963267948966 -1.5707963267948977
v 0.0250000000000000 0.7896339999999999 0.4080530000000000
vn 1.5707963267948966 1.5707963267948966 1.5707963267948966
v 0.9444740000000000 0.0264710000000000 0.0402630000000000
vn -1.5707963267948966 1.5707963267948966 1.5707963267948921
v 0.9750000000000000 0.0264710000000000 0.0402630000000000
vn -1.5707963267948966 -1.5707963267948966 1.5707963267948966
v 0.9750000000000000 0.7896339999999999 0.0402630000000000
vn 1.5707963267948966 -1.5707963267948966 1.5707963267948921
v 0.9444740000000000 0.7896339999999999 0.0402630000000000
vn 1.5707963267948966 1.5707963267948966 -1.5707963267948966
v 0.9444740000000000 0.0264710000000000 0.4080530000000000
vn -1.5707963267948966 1.5707963267948966 -1.5707963267948921
v 0.9750000000000000 0.0264710000000000 0.4080530000000000
vn -1.5707963267948966 -1.5707963267948966 -1.5707963267948966
v 0.9750000000000000 0.7896339999999999 0.4080530000000000
vn 1.5707963267948966 -1.5707963267948966 -1.5707963267948921
v 0.9444740000000000 0.7896339999999999 0.4080530000000000
# 64 vertices, 0 vertices normals


usemtl material_0
vt -1.0000000000000000 -1.0000000000000000
f 4/1/4 1/1/1 2/1/2
f 4/1/4 2/1/2 3/1/3
f 6/1/6 1/1/1 5/1/5
f 2/1/2 1/1/1 6/1/6
f 5/1/5 1/1/1 4/1/4
f 5/1/5 4/1/4 8/1/8
f 8/1/8 4/1/4 7/1/7
f 7/1/7 4/1/4 3/1/3
f 7/1/7 2/1/2 6/1/6
f 3/1/3 2/1/2 7/1/7
f 8/1/8 6/1/6 5/1/5
f 7/1/7 6/1/6 8/1/8
f 12/1/12 9/1/9 10/1/10
f 12/1/12 10/1/10 11/1/11
f 14/1/14 9/1/9 13/1/13
f 10/1/10 9/1/9 14/1/14
f 13/1/13 9/1/9 12/1/12
f 13/1/13 12/1/12 16/1/16
f 16/1/16 12/1/12 15/1/15
f 15/1/15 12/1/12 11/1/11
f 15/1/15 10/1/10 14/1/14
f 11/1/11 10/1/10 15/1/15
f 16/1/16 14/1/14 13/1/13
f 15/1/15 14/1/14 16/1/16
f 20/1/20 17/1/17 18/1/18
f 20/1/20 18/1/18 19/1/19
f 22/1/22 17/1/17 21/1/21
f 18/1/18 17/1/17 22/1/22
f 21/1/21 17/1/17 20/1/20
f 21/1/21 20/1/20 24/1/24
f 24/1/24 20/1/20 23/1/23
f 23/1/23 20/1/20 19/1/19
f 23/1/23 18/1/18 22/1/22
f 19/1/19 18/1/18 23/1/23
f 24/1/24 22/1/22 21/1/21
f 23/1/23 22/1/22 24/1/24
f 28/1/28 25/1/25 26/1/26
f 28/1/28 26/1/26 27/1/27
f 30/1/30 25/1/25 29/1/29
f 26/1/26 25/1/25 30/1/30
f 29/1/29 25/1/25 28/1/28
f 29/1/29 28/1/28 32/1/32
f 32/1/32 28/1/28 31/1/31
f 31/1/31 28/1/28 27/1/27
f 31/1/31 26/1/26 30/1/30
f 27/1/27 26/1/26 31/1/31
f 32/1/32 30/1/30 29/1/29
f 31/1/31 30/1/30 32/1/32
f 36/1/36 33/1/33 34/1/34
f 36/1/36 34/1/34 35/1/35
f 38/1/38 33/1/33 37/1/37
f 34/1/34 33/1/33 38/1/38
f 37/1/37 33/1/33 36/1/36
f 37/1/37 36/1/36 40/1/40
f 40/1/40 36/1/36 39/1/39
f 39/1/39 36/1/36 35/1/35
f 39/1/39 34/1/34 38/1/38
f 35/1/35 34/1/34 39/1/39
f 40/1/40 38/1/38 37/1/37
f 39/1/39 38/1/38 40/1/40
f 44/1/44 41/1/41 42/1/42
f 44/1/44 42/1/42 43/1/43
f 46/1/46 41/1/41 45/1/45
f 42/1/42 41/1/41 46/1/46
f 45/1/45 41/1/41 44/1/44
f 45/1/45 44/1/44 48/1/48
f 48/1/48 44/1/44 47/1/47
f 47/1/47 44/1/44 43/1/43
f 47/1/47 42/1/42 46/1/46
f 43/1/43 42/1/42 47/1/47
f 48/1/48 46/1/46 45/1/45
f 47/1/47 46/1/46 48/1/48
f 52/1/52 49/1/49 50/1/50
f 52/1/52 50/1/50 51/1/51
f 54/1/54 49/1/49 53/1/53
f 50/1/50 49/1/49 54/1/54
f 53/1/53 49/1/49 52/1/52
f 53/1/53 52/1/52 56/1/56
f 56/1/56 52/1/52 55/1/55
f 55/1/55 52/1/52 51/1/51
f 55/1/55 50/1/50 54/1/54
f 51/1/51 50/1/50 55/1/55
f 56/1/56 54/1/54 53/1/53
f 55/1/55 54/1/54 56/1/56
f 60/1/60 57/1/57 58/1/58
f 60/1/60 58/1/58 59/1/59
f 62/1/62 57/1/57 61/1/61
f 58/1/58 57/1/57 62/1/62
f 61/1/61 57/1/57 60/1/60
f 61/1/61 60/1/60 64/1/64
f 64/1/64 60/1/60 63/1/63
f 63/1/63 60/1/60 59/1/59
f 63/1/63 58/1/58 62/1/62
f 59/1/59 58/1/58 63/1/63
f 64/1/64 62/1/62 61/1/61
f 63/1/63 62/1/62 64/1/64
# 96 faces, 1 coords texture

# End of File
