####
#
# OBJ File Generated by Meshlab
#
####
# Object D01189.obj
#
# Vertices: 131
# Faces: 255
#
####
mtllib ./D01189.obj.mtl

vn -1.5707963267948966 -1.5707963267948966 -1.5707963267948966
v 0.1195460000000000 0.1913140000000000 0.0127000000000000
vn 3.1329506723311331 -0.1645445258724851 -3.2465374796587172
v 0.0937060000000000 0.1823120000000000 0.0127000000000000
vn 2.9425328246215496 -3.0035507571215225 -4.7617770318613992
v 0.0937060000000000 0.1913140000000000 0.0127000000000000
vn -3.0274189868033665 1.5707963267948968 -3.2290775009207406
v 0.1195460000000000 0.0381580000000000 0.0127000000000000
vn 3.0441145615755012 2.7264681029079414 -4.8428162907591474
v 0.0785220000000000 0.0381580000000000 0.0127000000000000
vn -3.0270747717439423 -1.5707963267948966 3.2286856318605053
v 0.1195460000000000 0.1913140000000000 0.0000000000000000
vn -1.5707963267948966 1.5707963267948966 1.5707963267948966
v 0.1195460000000000 0.0381580000000000 0.0000000000000000
vn -1.6489311666699191 1.6629623294075198 2.7703074718461695
v 0.1204670000000000 0.0372370000000000 0.0008090000000000
vn -2.2558811542452366 -1.6728488096505909 3.4744303008306816
v 0.1204670000000000 0.1922340000000000 0.0008090000000000
vn -2.5223394046351126 -2.5225639926239585 3.3910356460720448
v 0.1212520000000000 0.1930200000000000 0.0017500000000000
vn -2.5227835415062474 2.5227835415062660 3.3907726345900127
v 0.1212520000000000 0.0364520000000000 0.0017500000000000
vn -2.7274983352224367 -2.7274983352224016 2.5844772099821092
v 0.1218830000000000 0.1936510000000000 0.0028000000000000
vn -2.7274983352224140 2.7274983352224131 2.5844772099820785
v 0.1218830000000000 0.0358210000000000 0.0028000000000000
vn -2.8689134933175402 -2.8700351022324058 1.7377262732587220
v 0.1223450000000000 0.1941130000000000 0.0039350000000000
vn -2.8696675947396240 2.8696675947396288 1.7392837742066523
v 0.1223450000000000 0.0353590000000000 0.0039350000000000
vn -2.9526810705312974 -2.9512155124211534 0.8718823098745796
v 0.1226270000000000 0.1943940000000000 0.0051280000000000
vn -2.9511182601108503 2.9511182601108530 0.8713547036580616
v 0.1226270000000000 0.0350770000000000 0.0051280000000000
vn -1.4967051618493550 -2.9795188267409562 0.1139518554795334
v 0.1227210000000000 0.1944890000000000 0.0063500000000000
vn -2.9796967010801163 1.5155036349204827 0.1126302358584296
v 0.1227210000000000 0.0349830000000000 0.0063500000000000
vn -2.9434527398031660 1.3086275637703926 0.8263767167251499
v 0.1226270000000000 0.0350770000000000 0.0075720000000000
vn -1.3093816651924517 -2.9512155124211485 0.8253216634848406
v 0.1226270000000000 0.1943940000000000 0.0075720000000000
vn -2.8696675947396244 2.8696675947396315 -1.7392837742066520
v 0.1223450000000000 0.0353590000000000 0.0087650000000000
vn -2.8689134933175398 -2.4934677227063009 -1.6490293464801487
v 0.1223450000000000 0.1941130000000000 0.0087650000000000
vn -2.7274983352224140 2.7274983352224162 -2.5844772099820807
v 0.1218830000000000 0.0358210000000000 0.0099000000000000
vn -2.7274983352224358 -2.7274983352224025 -2.5844772099821101
v 0.1218830000000000 0.1936510000000000 0.0099000000000000
vn -2.5227835415062483 2.5227835415062660 -3.3907726345900144
v 0.1212520000000000 0.0364520000000000 0.0109500000000000
vn -2.5223394046351135 -2.5225639926239580 -3.3910356460720461
v 0.1212520000000000 0.1930200000000000 0.0109500000000000
vn -2.2550927682387041 1.6629623294075202 -3.4603876140524155
v 0.1204670000000000 0.0372370000000000 0.0118910000000000
vn -1.6493753376170237 -1.6728488096505920 -2.7839582895641932
v 0.1204670000000000 0.1922340000000000 0.0118910000000000
vn 1.5707963267948966 -3.0035507571215234 3.2001338742614762
v 0.0937060000000000 0.1913140000000000 0.0000000000000000
vn 1.7252496658237042 -2.2542319313769275 3.5314894740717229
v 0.0927850000000000 0.1922340000000000 0.0008090000000000
vn 2.5223394046351193 -2.5225639926239438 3.3910356460720252
v 0.0920000000000000 0.1930200000000000 0.0017500000000000
vn 2.7274983352224380 -2.7274983352224198 2.5844772099821300
v 0.0913690000000000 0.1936510000000000 0.0028000000000000
vn 2.8689134933175460 -2.8700351022323982 1.7377262732587351
v 0.0909070000000000 0.1941130000000000 0.0039350000000000
vn 2.9526810705313014 -2.9512155124211477 0.8718823098745798
v 0.0906250000000000 0.1943940000000000 0.0051280000000000
vn 2.9780792830833485 -2.9795188267409562 0.0000000000000002
v 0.0905310000000000 0.1944890000000000 0.0063500000000000
vn 2.8504892295333035 -2.9512155124211534 0.7067749277663160
v 0.0906250000000000 0.1943940000000000 0.0075720000000000
vn 1.5707963267949021 -1.4961299141000555 4.6135612016972321
v 0.1196800000000000 0.1943940000000000 0.0075720000000000
vn 0.0000000000000000 -1.4149515750308934 6.2831853071795898
v 0.1167330000000000 0.1943940000000000 0.0075720000000000
vn 0.0000000000000000 -1.3748434898066828 6.2831853071795880
v 0.1066260000000000 0.1943940000000000 0.0075720000000000
vn 0.0000000000000000 -1.1928788289522085 6.2831853071795871
v 0.0986260000000000 0.1943940000000000 0.0075720000000000
vn -1.5707963267948966 -3.0149010074547951 4.0022572259045504
v 0.0946260000000000 0.1943940000000000 0.0075720000000000
vn 2.8689134933175455 -2.8700351022323969 -1.7377262732587340
v 0.0909070000000000 0.1941130000000000 0.0087650000000000
vn 2.7274983352224371 -2.7274983352224180 -2.5844772099821292
v 0.0913690000000000 0.1936510000000000 0.0099000000000000
vn 2.5223394046351197 -2.5225639926239456 -3.3910356460720275
v 0.0920000000000000 0.1930200000000000 0.0109500000000000
vn 2.2558811542452242 -2.2542319313769275 -4.1355829238074637
v 0.0927850000000000 0.1922340000000000 0.0118910000000000
vn 4.0626405454157268 -0.1645445258724848 4.3049359631085373
v 0.0937060000000000 0.1823120000000000 0.0000000000000000
vn 3.4222823196073593 -0.1242172438418659 3.1852713804205690
v 0.0927850000000000 0.1823600000000000 0.0008090000000000
vn 5.0963991136950959 -0.2676708238655373 3.6458724688297162
v 0.0920000000000000 0.1824010000000000 0.0017500000000000
vn 5.5967510065738706 -0.2940112749811660 2.8156420011571313
v 0.0913690000000000 0.1824340000000000 0.0028000000000000
vn 5.9638211515142201 -0.3130941540014002 1.9164612845335207
v 0.0909070000000000 0.1824590000000000 0.0039350000000000
vn 6.1881078387484854 -0.3250690469925291 0.9684824443616907
v 0.0906250000000000 0.1824730000000000 0.0051280000000000
vn 3.2421246906847436 -0.1653337683739552 0.2330803129969526
v 0.0905310000000000 0.1824780000000000 0.0063500000000000
vn 3.0723961685175758 -0.1614296624254058 2.5183914603865829
v 0.0906250000000000 0.1824730000000000 0.0075720000000000
vn 5.9638211515142201 -0.3130941540014002 -1.9164612845335200
v 0.0909070000000000 0.1824590000000000 0.0087650000000000
vn 5.5967510065738706 -0.2940112749811660 -2.8156420011571321
v 0.0913690000000000 0.1824340000000000 0.0099000000000000
vn 5.0963991136950968 -0.2676708238655373 -3.6458724688297153
v 0.0920000000000000 0.1824010000000000 0.0109500000000000
vn 2.4496042064437824 -0.1242172438418659 -2.0779332565347248
v 0.0927850000000000 0.1823600000000000 0.0118910000000000
vn 3.0441145615755048 2.7264681029079418 4.8428162907591457
v 0.0785220000000000 0.0381580000000000 0.0000000000000000
vn 2.2463872518388488 2.0221732876043355 4.1200356008585768
v 0.0774990000000000 0.0372370000000000 0.0008090000000000
vn 2.5092221540981994 2.2588697913540265 3.3737941274710259
v 0.0766270000000000 0.0364520000000000 0.0017500000000000
vn 2.7082711973688314 2.4377096410527406 2.5659409086270162
v 0.0759260000000000 0.0358210000000000 0.0028000000000000
vn 2.8440949544640866 2.5600638926067791 1.7226185615293526
v 0.0754130000000000 0.0353590000000000 0.0039350000000000
vn 2.9200099375513617 2.6292015391863193 0.8621615774552613
v 0.0751000000000000 0.0350770000000000 0.0051280000000000
vn 2.9463528919894304 2.6515702567361279 -0.0000000000000001
v 0.0749950000000000 0.0349830000000000 0.0063500000000000
vn 2.9118102308741234 2.6044099176336832 0.6063009461337667
v 0.0751000000000000 0.0350770000000000 0.0075720000000000
vn 2.8440949544640866 2.5600638926067809 -1.7226185615293523
v 0.0754130000000000 0.0353590000000000 0.0087650000000000
vn 2.7082711973688305 2.4377096410527406 -2.5659409086270162
v 0.0759260000000000 0.0358210000000000 0.0099000000000000
vn 2.5092221540981989 2.2588697913540301 -3.3737941274710295
v 0.0766270000000000 0.0364520000000000 0.0109500000000000
vn 2.2463872518388484 2.0221732876043359 -4.1200356008585741
v 0.0774990000000000 0.0372370000000000 0.0118910000000000
vn 0.0000000000000000 0.0000000000000000 6.2831853071795809
v 0.0998660000000000 0.2354150000000000 0.0075720000000000
vn -3.1294651121053163 -0.1948145733031288 3.2659356300613718
v 0.0946260000000000 0.2361770000000000 0.0075720000000000
vn 0.0000000000000000 0.0000000000000000 6.2831853071795845
v 0.1008280000000000 0.3031810000000000 0.0075720000000000
vn 0.0000000000000000 0.0000000000000000 6.2831853071795862
v 0.1034340000000000 0.3125880000000000 0.0075720000000000
vn 0.0000000000000000 0.0000000000000000 6.2831853071795889
v 0.1066360000000000 0.3218100000000000 0.0075720000000000
vn 0.0000000000000000 0.0000000000000000 6.2831853071795871
v 0.1104220000000000 0.3308070000000000 0.0075720000000000
vn 0.0000000000000000 0.0000000000000000 6.2831853071795862
v 0.1147760000000000 0.3395440000000000 0.0075720000000000
vn 3.1415926535897931 0.0000000000000000 3.1415926535897949
v 0.1196800000000000 0.3479850000000000 0.0075720000000000
vn 0.0000000000000000 0.0000000000000000 6.2831853071795845
v 0.0970300000000000 0.2547210000000000 0.0075720000000000
vn 0.0000000000000000 0.0000000000000000 6.2831853071795924
v 0.0966830000000000 0.2742310000000000 0.0075720000000000
vn 0.0000000000000000 0.0000000000000000 6.2831853071795782
v 0.0965440000000000 0.2644710000000000 0.0075720000000000
vn 0.0000000000000000 0.0000000000000000 6.2831853071795845
v 0.0974450000000000 0.2839630000000000 0.0075720000000000
vn 0.0000000000000000 0.0000000000000000 6.2831853071795809
v 0.0981390000000000 0.2450230000000000 0.0075720000000000
vn 0.0000000000000000 0.0000000000000000 6.2831853071795871
v 0.0988290000000000 0.2936260000000000 0.0075720000000000
vn 0.0000000000000000 -2.0650411735613949 -3.1415926535897940
v 0.1167330000000000 0.1943940000000000 0.0059840000000000
vn 1.5707963267948966 -1.5707963267948966 -1.5707963267948966
v 0.1196800000000000 0.1943940000000000 0.0059840000000000
vn 0.0000000000000000 -1.7266410785588993 -3.1415926535897949
v 0.1066260000000000 0.1943940000000000 0.0059840000000000
vn 0.0000000000000000 -1.7667491637831096 -3.1415926535897931
v 0.0986260000000000 0.1943940000000000 0.0059840000000000
vn -1.5707963267948966 -0.3779174978426881 -1.5707963267948970
v 0.0946260000000000 0.1943940000000000 0.0059840000000000
vn -3.0722685110858126 0.6494168020638669 -3.0810931107372683
v 0.0962800000000000 0.2977520000000000 0.0059840000000000
vn 0.0000000000000000 0.0000000000000000 -6.2831853071795853
v 0.0969980000000000 0.2742130000000000 0.0059840000000000
vn 0.0000000000000000 0.0000000000000000 -6.2831853071795916
v 0.0967980000000000 0.2644700000000000 0.0059840000000000
vn -3.0274191141314089 0.8338664572468220 -3.0811728428821294
v 0.0987190000000000 0.3077810000000000 0.0059840000000000
vn 0.0000000000000000 0.0000000000000000 -6.2831853071795871
v 0.0977990000000000 0.2839240000000000 0.0059840000000000
vn 0.0000000000000000 0.0000000000000000 -6.2831853071795853
v 0.0991980000000000 0.2935680000000000 0.0059840000000000
vn -2.9715546344412274 1.0151200982315560 -3.0811929757866938
v 0.1017590000000000 0.3176440000000000 0.0059840000000000
vn 0.0000000000000000 0.0000000000000000 -6.2831853071795862
v 0.1011880000000000 0.3031070000000000 0.0059840000000000
vn 0.0000000000000000 0.0000000000000000 -6.2831853071795862
v 0.1037630000000000 0.3125060000000000 0.0059840000000000
vn -2.9047494907184408 1.1928891473298382 -3.0810198725806144
v 0.1053890000000000 0.3273060000000000 0.0059840000000000
vn 0.0000000000000000 0.0000000000000000 -6.2831853071795880
v 0.1069130000000000 0.3217270000000000 0.0059840000000000
vn -2.8273859101471510 1.3662047252025138 -3.0812624288976638
v 0.1095970000000000 0.3367300000000000 0.0059840000000000
vn 0.0000000000000000 0.0000000000000000 -6.2831853071795862
v 0.1106250000000000 0.3307370000000000 0.0059840000000000
vn -2.7396783085178917 1.5345093876851346 -3.0810271484725669
v 0.1143660000000000 0.3458840000000000 0.0059840000000000
vn 0.0000000000000000 0.0000000000000000 -6.2831853071795862
v 0.1148860000000000 0.3395010000000000 0.0059840000000000
vn 0.2241988615724395 0.8087498790904344 -0.5408515231076869
v 0.1196800000000000 0.3547320000000000 0.0059840000000000
vn 3.1415926535897984 0.0000000000000000 -3.1415926535897944
v 0.1196800000000000 0.3479850000000000 0.0059840000000000
vn -3.1281835395537407 0.2739372727127412 -3.0810860712706485
v 0.0932420000000000 0.2773440000000000 0.0059840000000000
vn -3.1383881100913058 -0.1054705854001657 -3.0811869825291387
v 0.0926880000000000 0.2567180000000000 0.0059840000000000
vn -3.1390240813853367 0.0843085046265898 -3.0811069221479199
v 0.0926530000000000 0.2670390000000000 0.0059840000000000
vn -3.1262696004974240 -0.2949583923704138 -3.0810464794487036
v 0.0933460000000000 0.2464180000000000 0.0059840000000000
vn -3.1058926934328888 0.4626044447109445 -3.0810807394044044
v 0.0944530000000000 0.2875940000000000 0.0059840000000000
vn -3.1294651121053154 -0.1948145733031287 -3.2659356300613731
v 0.0946260000000000 0.2361770000000000 0.0059840000000000
vn -3.0919600943815411 0.5562256982602154 -3.1418379269061671
v 0.0946260000000000 0.2885550000000000 0.0059840000000000
vn 0.0000000000000000 0.0000000000000000 -6.2831853071795916
v 0.0971990000000000 0.2547340000000000 0.0059840000000000
vn 0.0000000000000000 0.0000000000000000 -6.2831853071795862
v 0.0981990000000000 0.2450410000000000 0.0059840000000000
vn 0.0000000000000000 0.0000000000000000 -6.2831853071795898
v 0.0997960000000000 0.2354280000000000 0.0059840000000000
vn -3.0919737615502640 0.5561497676291181 -3.1413964960241403
v 0.0956780000000000 0.2944070000000000 0.0059840000000000
vn 0.2241988615724388 0.8087498790904347 0.5408515231076875
v 0.1196800000000000 0.3547320000000000 0.0075720000000000
vn -2.7396783085178908 1.5345093876851341 3.0810271484725669
v 0.1143660000000000 0.3458840000000000 0.0075720000000000
vn -2.8273859101471519 1.3662047252025142 3.0812624288976638
v 0.1095970000000000 0.3367300000000000 0.0075720000000000
vn -2.9047494907184408 1.1928891473298382 3.0810198725806157
v 0.1053890000000000 0.3273060000000000 0.0075720000000000
vn -2.9715546344412251 1.0151200982315554 3.0811929757866907
v 0.1017590000000000 0.3176440000000000 0.0075720000000000
vn -3.0274191141314106 0.8338664572468225 3.0811728428821326
v 0.0987190000000000 0.3077810000000000 0.0075720000000000
vn -3.0722685110858121 0.6494168020638669 3.0810931107372603
v 0.0962800000000000 0.2977520000000000 0.0075720000000000
vn -3.0919737615502640 0.5561497676291178 3.1413964960241416
v 0.0956780000000000 0.2944070000000000 0.0075720000000000
vn -3.0919600943815415 0.5562256982602155 3.1418379269061747
v 0.0946260000000000 0.2885550000000000 0.0075720000000000
vn -3.1058926934328888 0.4626044447109444 3.0810807394044044
v 0.0944530000000000 0.2875940000000000 0.0075720000000000
vn -3.1281835395537403 0.2739372727127411 3.0810860712706485
v 0.0932420000000000 0.2773440000000000 0.0075720000000000
vn -3.1390240813853372 0.0843085046265898 3.0811069221479199
v 0.0926530000000000 0.2670390000000000 0.0075720000000000
vn -3.1383881100913062 -0.1054705854001657 3.0811869825291387
v 0.0926880000000000 0.2567180000000000 0.0075720000000000
vn -3.1262696004974222 -0.2949583923704137 3.0810464794487036
v 0.0933460000000000 0.2464180000000000 0.0075720000000000
# 131 vertices, 0 vertices normals


usemtl material_0
vt -1.0000000000000000 -1.0000000000000000
f 3/1/3 1/1/1 2/1/2
f 5/1/5 2/1/2 4/1/4
f 1/1/1 4/1/4 2/1/2
f 4/1/4 6/1/6 7/1/7
f 6/1/6 4/1/4 1/1/1
f 9/1/9 6/1/6 8/1/8
f 11/1/11 10/1/10 8/1/8
f 9/1/9 8/1/8 10/1/10
f 13/1/13 12/1/12 11/1/11
f 10/1/10 11/1/11 12/1/12
f 15/1/15 14/1/14 13/1/13
f 12/1/12 13/1/13 14/1/14
f 17/1/17 16/1/16 15/1/15
f 14/1/14 15/1/15 16/1/16
f 19/1/19 18/1/18 17/1/17
f 16/1/16 17/1/17 18/1/18
f 19/1/19 20/1/20 18/1/18
f 20/1/20 22/1/22 21/1/21
f 23/1/23 21/1/21 22/1/22
f 22/1/22 24/1/24 23/1/23
f 25/1/25 23/1/23 24/1/24
f 24/1/24 26/1/26 25/1/25
f 27/1/27 25/1/25 26/1/26
f 26/1/26 28/1/28 27/1/27
f 29/1/29 27/1/27 28/1/28
f 28/1/28 4/1/4 29/1/29
f 6/1/6 3/1/3 30/1/30
f 3/1/3 6/1/6 1/1/1
f 31/1/31 30/1/30 9/1/9
f 9/1/9 10/1/10 31/1/31
f 32/1/32 31/1/31 10/1/10
f 10/1/10 12/1/12 32/1/32
f 33/1/33 32/1/32 12/1/12
f 12/1/12 14/1/14 33/1/33
f 34/1/34 33/1/33 14/1/14
f 14/1/14 16/1/16 34/1/34
f 35/1/35 34/1/34 16/1/16
f 16/1/16 18/1/18 35/1/35
f 36/1/36 35/1/35 18/1/18
f 18/1/18 21/1/21 36/1/36
f 36/1/36 21/1/21 37/1/37
f 21/1/21 23/1/23 38/1/38
f 37/1/37 42/1/42 23/1/23
f 43/1/43 37/1/37 23/1/23
f 23/1/23 25/1/25 43/1/43
f 44/1/44 43/1/43 25/1/25
f 25/1/25 27/1/27 44/1/44
f 45/1/45 44/1/44 27/1/27
f 27/1/27 29/1/29 45/1/45
f 46/1/46 45/1/45 29/1/29
f 46/1/46 29/1/29 3/1/3
f 47/1/47 3/1/3 2/1/2
f 3/1/3 47/1/47 30/1/30
f 48/1/48 47/1/47 31/1/31
f 48/1/48 31/1/31 49/1/49
f 32/1/32 49/1/49 31/1/31
f 49/1/49 32/1/32 50/1/50
f 33/1/33 50/1/50 32/1/32
f 50/1/50 33/1/33 51/1/51
f 34/1/34 51/1/51 33/1/33
f 51/1/51 34/1/34 52/1/52
f 35/1/35 52/1/52 34/1/34
f 52/1/52 35/1/35 53/1/53
f 36/1/36 53/1/53 35/1/35
f 36/1/36 37/1/37 53/1/53
f 55/1/55 54/1/54 43/1/43
f 37/1/37 43/1/43 54/1/54
f 56/1/56 55/1/55 44/1/44
f 43/1/43 44/1/44 55/1/55
f 57/1/57 56/1/56 45/1/45
f 44/1/44 45/1/45 56/1/56
f 58/1/58 57/1/57 46/1/46
f 45/1/45 46/1/46 57/1/57
f 46/1/46 3/1/3 58/1/58
f 59/1/59 2/1/2 5/1/5
f 2/1/2 59/1/59 47/1/47
f 60/1/60 59/1/59 48/1/48
f 61/1/61 60/1/60 49/1/49
f 48/1/48 49/1/49 60/1/60
f 62/1/62 61/1/61 50/1/50
f 49/1/49 50/1/50 61/1/61
f 63/1/63 62/1/62 51/1/51
f 50/1/50 51/1/51 62/1/62
f 64/1/64 63/1/63 52/1/52
f 51/1/51 52/1/52 63/1/63
f 65/1/65 64/1/64 53/1/53
f 52/1/52 53/1/53 64/1/64
f 65/1/65 53/1/53 66/1/66
f 66/1/66 54/1/54 67/1/67
f 55/1/55 67/1/67 54/1/54
f 67/1/67 55/1/55 68/1/68
f 56/1/56 68/1/68 55/1/55
f 68/1/68 56/1/56 69/1/69
f 57/1/57 69/1/69 56/1/56
f 69/1/69 57/1/57 70/1/70
f 58/1/58 70/1/70 57/1/57
f 70/1/70 58/1/58 5/1/5
f 59/1/59 4/1/4 7/1/7
f 4/1/4 59/1/59 5/1/5
f 60/1/60 8/1/8 59/1/59
f 60/1/60 61/1/61 8/1/8
f 11/1/11 8/1/8 61/1/61
f 61/1/61 62/1/62 11/1/11
f 13/1/13 11/1/11 62/1/62
f 62/1/62 63/1/63 13/1/13
f 15/1/15 13/1/13 63/1/63
f 63/1/63 64/1/64 15/1/15
f 17/1/17 15/1/15 64/1/64
f 64/1/64 65/1/65 17/1/17
f 19/1/19 17/1/17 65/1/65
f 65/1/65 66/1/66 19/1/19
f 66/1/66 67/1/67 20/1/20
f 22/1/22 20/1/20 67/1/67
f 67/1/67 68/1/68 22/1/22
f 24/1/24 22/1/22 68/1/68
f 68/1/68 69/1/69 24/1/24
f 26/1/26 24/1/24 69/1/69
f 69/1/69 70/1/70 26/1/26
f 28/1/28 26/1/26 70/1/70
f 70/1/70 5/1/5 28/1/28
f 54/1/54 42/1/42 37/1/37
f 20/1/20 54/1/54 66/1/66
f 54/1/54 20/1/20 42/1/42
f 42/1/42 20/1/20 41/1/41
f 41/1/41 20/1/20 40/1/40
f 40/1/40 20/1/20 39/1/39
f 39/1/39 20/1/20 38/1/38
f 38/1/38 20/1/20 21/1/21
f 71/1/71 72/1/72 42/1/42
f 41/1/41 71/1/71 42/1/42
f 40/1/40 71/1/71 41/1/41
f 40/1/40 73/1/73 71/1/71
f 40/1/40 74/1/74 73/1/73
f 40/1/40 75/1/75 74/1/74
f 39/1/39 75/1/75 40/1/40
f 76/1/76 75/1/75 39/1/39
f 77/1/77 76/1/76 39/1/39
f 78/1/78 77/1/77 39/1/39
f 38/1/38 78/1/78 39/1/39
f 81/1/81 79/1/79 80/1/80
f 79/1/79 82/1/82 80/1/80
f 83/1/83 82/1/82 79/1/79
f 83/1/83 84/1/84 82/1/82
f 71/1/71 84/1/84 83/1/83
f 71/1/71 73/1/73 84/1/84
f 86/1/86 38/1/38 85/1/85
f 85/1/85 39/1/39 87/1/87
f 87/1/87 40/1/40 88/1/88
f 88/1/88 41/1/41 89/1/89
f 7/1/7 6/1/6 59/1/59
f 59/1/59 6/1/6 47/1/47
f 30/1/30 47/1/47 6/1/6
f 91/1/91 92/1/92 90/1/90
f 91/1/91 90/1/90 93/1/93
f 91/1/91 93/1/93 94/1/94
f 94/1/94 93/1/93 95/1/95
f 95/1/95 93/1/93 96/1/96
f 95/1/95 96/1/96 97/1/97
f 97/1/97 96/1/96 98/1/98
f 98/1/98 96/1/96 99/1/99
f 98/1/98 99/1/99 100/1/100
f 100/1/100 99/1/99 101/1/101
f 100/1/100 101/1/101 102/1/102
f 103/1/103 102/1/102 101/1/101
f 103/1/103 104/1/104 102/1/102
f 105/1/105 104/1/104 103/1/103
f 106/1/106 104/1/104 105/1/105
f 108/1/108 109/1/109 107/1/107
f 108/1/108 107/1/107 110/1/110
f 110/1/110 107/1/107 111/1/111
f 110/1/110 111/1/111 112/1/112
f 112/1/112 111/1/111 113/1/113
f 112/1/112 113/1/113 114/1/114
f 112/1/112 114/1/114 115/1/115
f 115/1/115 116/1/116 112/1/112
f 114/1/114 113/1/113 92/1/92
f 92/1/92 113/1/113 117/1/117
f 92/1/92 117/1/117 90/1/90
f 105/1/105 78/1/78 106/1/106
f 118/1/118 78/1/78 105/1/105
f 119/1/119 118/1/118 103/1/103
f 103/1/103 118/1/118 105/1/105
f 120/1/120 119/1/119 101/1/101
f 101/1/101 119/1/119 103/1/103
f 99/1/99 121/1/121 120/1/120
f 120/1/120 101/1/101 99/1/99
f 96/1/96 122/1/122 121/1/121
f 121/1/121 99/1/99 96/1/96
f 93/1/93 123/1/123 122/1/122
f 122/1/122 96/1/96 93/1/93
f 90/1/90 124/1/124 123/1/123
f 123/1/123 93/1/93 90/1/90
f 117/1/117 125/1/125 124/1/124
f 124/1/124 90/1/90 117/1/117
f 113/1/113 126/1/126 125/1/125
f 125/1/125 117/1/117 113/1/113
f 111/1/111 127/1/127 126/1/126
f 126/1/126 113/1/113 111/1/111
f 107/1/107 128/1/128 127/1/127
f 127/1/127 111/1/111 107/1/107
f 109/1/109 129/1/129 128/1/128
f 109/1/109 128/1/128 107/1/107
f 108/1/108 130/1/130 129/1/129
f 109/1/109 108/1/108 129/1/129
f 110/1/110 131/1/131 130/1/130
f 130/1/130 108/1/108 110/1/110
f 112/1/112 72/1/72 131/1/131
f 131/1/131 110/1/110 112/1/112
f 72/1/72 89/1/89 42/1/42
f 72/1/72 112/1/112 89/1/89
f 130/1/130 128/1/128 129/1/129
f 130/1/130 131/1/131 128/1/128
f 127/1/127 128/1/128 131/1/131
f 131/1/131 72/1/72 127/1/127
f 126/1/126 127/1/127 72/1/72
f 72/1/72 79/1/79 126/1/126
f 79/1/79 72/1/72 83/1/83
f 71/1/71 83/1/83 72/1/72
f 79/1/79 81/1/81 126/1/126
f 125/1/125 126/1/126 81/1/81
f 124/1/124 125/1/125 81/1/81
f 123/1/123 124/1/124 80/1/80
f 80/1/80 124/1/124 81/1/81
f 80/1/80 82/1/82 123/1/123
f 82/1/82 84/1/84 123/1/123
f 122/1/122 123/1/123 84/1/84
f 84/1/84 73/1/73 122/1/122
f 73/1/73 74/1/74 122/1/122
f 121/1/121 122/1/122 74/1/74
f 74/1/74 75/1/75 121/1/121
f 120/1/120 121/1/121 75/1/75
f 76/1/76 120/1/120 75/1/75
f 120/1/120 76/1/76 119/1/119
f 77/1/77 119/1/119 76/1/76
f 77/1/77 118/1/118 119/1/119
f 78/1/78 118/1/118 77/1/77
f 38/1/38 86/1/86 106/1/106
f 106/1/106 78/1/78 38/1/38
f 92/1/92 91/1/91 114/1/114
f 94/1/94 114/1/114 91/1/91
f 115/1/115 114/1/114 94/1/94
f 95/1/95 115/1/115 94/1/94
f 95/1/95 116/1/116 115/1/115
f 97/1/97 116/1/116 95/1/95
f 116/1/116 89/1/89 112/1/112
f 88/1/88 89/1/89 116/1/116
f 87/1/87 88/1/88 116/1/116
f 116/1/116 97/1/97 87/1/87
f 98/1/98 87/1/87 97/1/97
f 100/1/100 87/1/87 98/1/98
f 85/1/85 87/1/87 100/1/100
f 100/1/100 102/1/102 85/1/85
f 102/1/102 104/1/104 85/1/85
f 106/1/106 85/1/85 104/1/104
f 85/1/85 106/1/106 86/1/86
# 255 faces, 1 coords texture

# End of File
