####
#
# OBJ File Generated by Meshlab
#
####
# Object m1673.obj
#
# Vertices: 80
# Faces: 86
#
####
mtllib ./m1673.obj.mtl

vn 0.0000025913023430 -0.0000014955633147 -1.0468876421390407
v 0.2269990000000000 0.6250000000000000 0.0487780000000000
vn 0.0000025924537029 -0.0000014962278190 -1.0473527921921135
v 0.0250000000000000 0.9750000000000000 0.0487770000000000
vn 0.0000025924522847 -0.0000014962270005 -1.0473522192458093
v 0.4290000000000000 0.9749989999999999 0.0487780000000000
vn 0.0000045344515463 0.0000026181696506 -1.0472743109561220
v 0.2269990000000000 0.7250000000000000 0.0547770000000000
vn 0.0000045339551951 0.0000026178830599 -1.0471596739768652
v 0.1115200000000000 0.9250000000000000 0.0547770000000000
vn 0.0000045339508421 0.0000026178805465 -1.0471586686175416
v 0.3424800000000000 0.9249990000000000 0.0547780000000000
vn 0.0003005018944228 -0.0001495585465330 3.6445830405316753
v 0.1623900000000000 0.8749180000000000 0.0587780000000000
vn 0.0000000000000000 0.0000000000000000 2.0503597778661282
v 0.1538580000000000 0.9015160000000000 0.0587780000000000
vn 0.0000000000000000 0.0000000000000000 1.0678059157018494
v 0.1477560000000000 0.9015160000000000 0.0587780000000000
vn -0.0000037891931383 -0.0000244703917690 5.3240584046782047
v 0.1649820000000000 0.8801260000000000 0.0587780000000000
vn -0.0002660596937598 -0.0000381029822380 1.5707962934712960
v 0.1623900000000000 0.8570000000000000 0.0587770000000000
vn -0.0002781357437175 -0.0000318233666815 1.5707963019826319
v 0.1676280000000000 0.8570000000000000 0.0587780000000000
vn 0.0000000000000000 0.0000000000000000 3.6445830646828417
v 0.1676280000000000 0.8749180000000000 0.0587780000000000
vn 0.0000000000000000 0.0000000000000000 2.0503597778661291
v 0.1761060000000000 0.9015160000000000 0.0587780000000000
vn 0.0000000000000000 0.0000000000000000 1.0678059157018494
v 0.1822620000000000 0.9015160000000000 0.0587780000000000
vn 0.0000000000000000 0.0000000000000000 1.5707963267948970
v 0.1931700000000000 0.8570000000000000 0.0587780000000000
vn 0.0000000000000000 0.0000000000000000 1.5707963267948970
v 0.1879320000000000 0.9015160000000000 0.0587780000000000
vn 0.0000000000000000 0.0000000000000000 1.5707963267948966
v 0.1879320000000000 0.8570000000000000 0.0587780000000000
vn 0.0000000000000000 0.0000000000000000 1.5707963267948966
v 0.1931700000000000 0.9015160000000000 0.0587780000000000
vn 0.0000000000000000 0.0000000000000000 1.5707963267948970
v 0.2291340000000000 0.8772120000000000 0.0587780000000000
vn 0.0000000000000000 0.0000000000000000 4.7123889803846906
v 0.2079120000000000 0.8825440000000000 0.0587780000000000
vn 0.0000000000000000 0.0000000000000000 4.7123889803846888
v 0.2079120000000000 0.8772120000000000 0.0587780000000000
vn 0.0000000000000000 0.0000000000000000 1.5707963267948966
v 0.2291340000000000 0.8825440000000000 0.0587780000000000
vn 0.0000000000000000 0.0000000000000000 1.5707963267948954
v 0.2026740000000000 0.9015160000000000 0.0587780000000000
vn 0.0000000000000000 0.0000000000000000 4.7123889803846897
v 0.2079120000000000 0.8623320000000000 0.0587780000000000
vn 0.0000000000000000 0.0000000000000000 4.7123889803846897
v 0.2079120000000000 0.8961840000000000 0.0587780000000000
vn 0.0000000000000000 0.0000000000000000 1.5707963267948966
v 0.2309160000000000 0.8961840000000000 0.0587780000000000
vn 0.0000000000000000 0.0000000000000000 1.5707963267948966
v 0.2309160000000000 0.9015160000000000 0.0587780000000000
vn 0.0000000000000000 0.0000000000000000 1.5707963267948968
v 0.2026740000000000 0.8570000000000000 0.0587780000000000
vn 0.0000000000000000 0.0000000000000000 1.5707963267948970
v 0.2312940000000000 0.8570000000000000 0.0587780000000000
vn 0.0000000000000000 0.0000000000000000 1.5707963267948966
v 0.2312940000000000 0.8623320000000000 0.0587780000000000
vn 0.0000000000000000 0.0000000000000000 1.5707963267948966
v 0.2433900000000000 0.9015160000000000 0.0587780000000000
vn 0.0000000000000000 0.0000000000000000 1.5707963267948959
v 0.2381520000000000 0.9015160000000000 0.0587780000000000
vn 0.0000000000000000 0.0000000000000000 4.7123889803846897
v 0.2433900000000000 0.8623320000000000 0.0587780000000000
vn 0.0000000000000000 0.0000000000000000 1.5707963267948966
v 0.2381520000000000 0.8570000000000000 0.0587780000000000
vn 0.0000000000000000 0.0000000000000000 1.5707963267948966
v 0.2630460000000000 0.8570000000000000 0.0587780000000000
vn 0.0000000000000000 0.0000000000000000 1.5707963267948966
v 0.2630460000000000 0.8623320000000000 0.0587780000000000
vn 0.0000000000000000 0.0000000000000000 4.7123889803846897
v 0.2736840000000000 0.8963700000000000 0.0587780000000000
vn 0.0000000000000000 0.0000000000000000 1.5707963267948963
v 0.2684460000000000 0.9015160000000000 0.0587780000000000
vn 0.0000000000000000 0.0000000000000000 4.7123889803846897
v 0.2736840000000000 0.8621460000000000 0.0587780000000000
vn 0.0000000000000000 0.0000000000000000 3.3697587416995782
v 0.2834580000000000 0.8963700000000000 0.0587780000000000
vn 0.0000000000000000 0.0000000000000000 2.9089624678093386
v 0.2841600000000000 0.9015160000000000 0.0587780000000000
vn 0.0000000000000000 0.0000000000000000 3.6243359386635809
v 0.2882640000000000 0.8952540000000000 0.0587780000000000
vn 0.0000000000000000 0.0000000000000000 2.6650510135596606
v 0.2909640000000000 0.8999040000000000 0.0587780000000000
vn 0.0000000000000000 0.0000000000000000 3.5950773171900150
v 0.2919360000000000 0.8920920000000000 0.0587780000000000
vn 0.0000000000000000 0.0000000000000000 3.4304421070727456
v 0.2942040000000000 0.8868220000000000 0.0587780000000000
vn 0.0000000000000000 0.0000000000000000 2.7199786685822360
v 0.2960940000000000 0.8955020000000000 0.0587780000000000
vn 0.0000000000000000 0.0000000000000000 3.3667000400630274
v 0.2950680000000000 0.8795060000000000 0.0587780000000000
vn 0.0000000000000000 0.0000000000000000 1.5707963267948963
v 0.2684460000000000 0.8570000000000000 0.0587780000000000
vn 0.0000000000000000 0.0000000000000000 3.3801019060492932
v 0.2838360000000000 0.8621460000000000 0.0587780000000000
vn 0.0000000000000000 0.0000000000000000 2.8747437677445897
v 0.2839440000000000 0.8570000000000000 0.0587780000000000
vn 0.0000000000000000 0.0000000000000000 3.6572417310974745
v 0.2884260000000000 0.8632620000000000 0.0587780000000000
vn 0.0000000000000000 0.0000000000000000 2.5813458298799890
v 0.2918820000000000 0.8591700000000000 0.0587780000000000
vn 0.0000000000000000 0.0000000000000000 3.5602055934193499
v 0.2919900000000000 0.8666100000000000 0.0587780000000000
vn 0.0000000000000000 0.0000000000000000 3.4320631606428682
v 0.2942580000000000 0.8720040000000000 0.0587780000000000
vn 0.0000000000000000 0.0000000000000000 2.6249793459342539
v 0.2969580000000000 0.8646880000000000 0.0587780000000000
vn 0.0000000000000000 0.0000000000000000 2.8305804082030779
v 0.2993340000000000 0.8886200000000000 0.0587780000000000
vn 0.0000000000000000 0.0000000000000000 2.7855070734154106
v 0.3004680000000000 0.8798780000000000 0.0587780000000000
vn -2.9878034047921074 -2.5132123826872323 -0.0000323300488036
v 0.2019980000000000 0.0250000000000000 0.0487760000000000
vn -2.4172138164645567 -2.5133069567308297 1.7562201285696881
v 0.2067730000000000 0.0250000000000000 0.0634710000000000
vn -2.9878053642290987 2.5132223420357107 0.0000323300919596
v 0.2019990000000000 0.6250000000000000 0.0487790000000000
vn -2.4172011446207606 2.5133225118166687 1.7562525935774669
v 0.2067740000000000 0.6250000000000000 0.0634730000000000
vn 0.0000000000000000 6.2831853071795871 0.0000000000000000
v 0.2269990000000000 0.6250000000000000 0.0487790000000000
vn 0.0000000000000000 -6.2831853071795871 0.0000000000000000
v 0.2269980000000000 0.0250000000000000 0.0487760000000000
vn -0.9233073916219205 -2.5132706205112409 2.8415877007794883
v 0.2192730000000000 0.0250000000000000 0.0725530000000000
vn -0.9233035031667587 2.5132547542847892 2.8415856822421430
v 0.2192740000000000 0.6250000000000000 0.0725550000000000
vn 0.9233050139543159 -2.5132752370460327 2.8415894282794865
v 0.2347230000000000 0.0250000000000000 0.0725530000000000
vn 0.9233058808170703 2.5132501377651075 2.8415839547183506
v 0.2347250000000000 0.6250000000000000 0.0725550000000000
vn 2.4172051738343150 -2.5133382488483669 1.7562523144816113
v 0.2472230000000000 0.0250000000000000 0.0634710000000000
vn 2.4172296267851752 2.5132513190983037 1.7561593466438683
v 0.2472250000000000 0.6250000000000000 0.0634730000000000
vn 2.9878355716702707 -2.5132855484242040 0.0001183691224101
v 0.2519980000000000 0.0250000000000000 0.0487770000000000
vn 2.9878630027094912 2.5133346954034073 0.0000318352971416
v 0.2519990000000000 0.6250000000000000 0.0487790000000000
vn 2.4172407310434396 -2.5132409579193773 -1.7561307584142141
v 0.2472240000000000 0.0250000000000000 0.0340820000000000
vn 2.4172438523392645 2.5132446079732111 -1.7561276838181947
v 0.2472250000000000 0.6250000000000000 0.0340840000000000
vn 0.9233035031667582 -2.5132547542847901 -2.8415856822421439
v 0.2347240000000000 0.0250000000000000 0.0250000000000000
vn 0.9233073916219215 2.5132706205112418 -2.8415877007794919
v 0.2347250000000000 0.6250000000000000 0.0250020000000000
vn -0.9233050882678533 -2.5132516766076423 -2.8415845305608318
v 0.2192730000000000 0.0250000000000000 0.0250000000000000
vn -0.9233058065110703 2.5132736982037436 -2.8415888524473707
v 0.2192740000000000 0.6250000000000000 0.0250020000000000
vn -2.4172005392516924 -2.5133144544867401 -1.7562507302914225
v 0.2067730000000000 0.0250000000000000 0.0340820000000000
vn -2.4172144218656526 2.5133150141169081 -1.7562219918775333
v 0.2067740000000000 0.6250000000000000 0.0340840000000000
# 80 vertices, 0 vertices normals


usemtl material_0
f 1//1 2//2 3//3
f 4//4 5//5 6//6
f 7//7 8//8 9//9
f 10//10 8//8 7//7
f 10//10 7//7 11//11
f 12//12 10//10 11//11
f 13//13 10//10 12//12
f 14//14 10//10 13//13
f 15//15 14//14 13//13
f 16//16 17//17 18//18
f 19//19 17//17 16//16
f 20//20 21//21 22//22
f 23//23 21//21 20//20
f 22//22 24//24 25//25
f 21//21 24//24 22//22
f 26//26 24//24 21//21
f 27//27 24//24 26//26
f 28//28 24//24 27//27
f 25//25 24//24 29//29
f 30//30 25//25 29//29
f 31//31 25//25 30//30
f 32//32 33//33 34//34
f 34//34 33//33 35//35
f 36//36 34//34 35//35
f 37//37 34//34 36//36
f 38//38 39//39 40//40
f 41//41 39//39 38//38
f 42//42 39//39 41//41
f 43//43 42//42 41//41
f 44//44 42//42 43//43
f 45//45 44//44 43//43
f 46//46 44//44 45//45
f 47//47 44//44 46//46
f 47//47 46//46 48//48
f 40//40 39//39 49//49
f 50//50 40//40 49//49
f 51//51 50//50 49//49
f 52//52 50//50 51//51
f 53//53 52//52 51//51
f 54//54 52//52 53//53
f 55//55 54//54 53//53
f 56//56 47//47 48//48
f 56//56 48//48 55//55
f 56//56 55//55 53//53
f 57//57 47//47 56//56
f 58//58 57//57 56//56
f 59//59 60//60 61//61
f 60//60 62//62 61//61
f 63//63 61//61 62//62
f 64//64 60//60 59//59
f 60//60 65//65 62//62
f 65//65 66//66 62//62
f 63//63 62//62 66//66
f 64//64 65//65 60//60
f 65//65 67//67 66//66
f 67//67 68//68 66//66
f 63//63 66//66 68//68
f 64//64 67//67 65//65
f 67//67 69//69 68//68
f 69//69 70//70 68//68
f 63//63 68//68 70//70
f 64//64 69//69 67//67
f 69//69 71//71 70//70
f 71//71 72//72 70//70
f 63//63 70//70 72//72
f 64//64 71//71 69//69
f 71//71 73//73 72//72
f 73//73 74//74 72//72
f 63//63 72//72 74//74
f 64//64 73//73 71//71
f 73//73 75//75 74//74
f 75//75 76//76 74//74
f 63//63 74//74 76//76
f 64//64 75//75 73//73
f 75//75 77//77 76//76
f 77//77 78//78 76//76
f 63//63 76//76 78//78
f 64//64 77//77 75//75
f 77//77 79//79 78//78
f 79//79 80//80 78//78
f 63//63 78//78 80//80
f 64//64 79//79 77//77
f 79//79 59//59 80//80
f 59//59 61//61 80//80
f 63//63 80//80 61//61
f 64//64 59//59 79//79
# 86 faces, 0 coords texture

# End of File
