####
#
# OBJ File Generated by Meshlab
#
####
# Object m1684.obj
#
# Vertices: 44
# Faces: 76
#
####
mtllib ./m1684.obj.mtl

vn 1.5707963267948966 1.5707963267948963 -1.5707963267948957
v 0.0250000000000000 0.4433670000000000 0.1042070000000000
vn -1.5707963267948957 1.5707963267948966 -1.5707963267948979
v 0.9750000000000000 0.4433670000000000 0.1042070000000000
vn -1.5707963267948966 -1.5707963267948963 -1.5707963267948970
v 0.9750000000000000 0.9423300000000000 0.1042070000000000
vn 1.5707963267948957 -1.5707963267948966 -1.5707963267948981
v 0.0250000000000000 0.9423300000000000 0.1042070000000000
vn 1.5707963267948957 1.5707963267948966 1.5707963267948968
v 0.0250000000000000 0.4433670000000000 0.0250000000000000
vn -1.5707963267948966 1.5707963267948963 1.5707963267948966
v 0.9750000000000000 0.4433670000000000 0.0250000000000000
vn -1.5707963267948957 -1.5707963267948966 1.5707963267948968
v 0.9750000000000000 0.9423300000000000 0.0250000000000000
vn 1.5707963267948966 -1.5707963267948963 1.5707963267948966
v 0.0250000000000000 0.9423300000000000 0.0250000000000000
vn -0.9045800352784396 -0.8822917023471272 -5.8856402128468552
v 0.0674790000000000 0.4811260000000000 0.1042070000000000
vn 0.9079036174207579 -0.8889801167394025 -5.8808128025269459
v 0.9332800000000000 0.4811260000000000 0.1042070000000000
vn 0.9139105016636752 0.8915365023015136 -5.8766356594473148
v 0.9332800000000000 0.9052440000000000 0.1042070000000000
vn -0.9105316499946552 0.8847989585156103 -5.8815433479895747
v 0.0674790000000000 0.9052440000000000 0.1042070000000000
vn -1.6755225967199281 -1.7907100239976104 -3.8405949773891925
v 0.0915510000000000 0.5025240000000000 0.0695560000000000
vn 1.6871971748422372 -1.7840216096053347 -3.8236378035186620
v 0.9096379999999999 0.5025240000000000 0.0695560000000000
vn 1.6811902905993203 1.7946520038459344 -3.8062675314115468
v 0.9096379999999999 0.8842290000000000 0.0695560000000000
vn -1.6695709820037126 1.8013895476318376 -3.8231444270597215
v 0.0915510000000000 0.8842290000000000 0.0695560000000000
vn 2.7207174554504250 2.0944185420299313 -0.0000296620911243
v 0.2402220000000000 0.0250000000000000 0.0600180000000000
vn 1.3603672902016062 2.0943724802699730 2.3561637159968400
v 0.2516870000000000 0.0250000000000000 0.0401590000000000
vn -1.3603672902016040 2.0943724802699730 2.3561637159968396
v 0.2746180000000000 0.0250000000000000 0.0401590000000000
vn -2.7207174554504276 2.0944185420299313 -0.0000296620911232
v 0.2860830000000000 0.0250000000000000 0.0600180000000000
vn -1.3603501652488210 2.0943942848796819 -2.3561933780879634
v 0.2746180000000000 0.0250000000000000 0.0798760000000000
vn 1.3603501652488217 2.0943942848796819 -2.3561933780879643
v 0.2516870000000000 0.0250000000000000 0.0798760000000000
vn 2.7207174554504281 -2.0944185420299313 -0.0000296620911232
v 0.2402220000000000 0.4595610000000000 0.0600180000000000
vn 1.3603672902016040 -2.0943724802699730 2.3561637159968400
v 0.2516870000000000 0.4595610000000000 0.0401590000000000
vn -1.3603672902016062 -2.0943724802699730 2.3561637159968405
v 0.2746180000000000 0.4595610000000000 0.0401590000000000
vn -2.7207174554504250 -2.0944185420299313 -0.0000296620911243
v 0.2860830000000000 0.4595610000000000 0.0600180000000000
vn -1.3603501652488217 -2.0943942848796819 -2.3561933780879643
v 0.2746180000000000 0.4595610000000000 0.0798760000000000
vn 1.3603501652488210 -2.0943942848796819 -2.3561933780879634
v 0.2516870000000000 0.4595610000000000 0.0798760000000000
vn 0.0000000000000000 -6.2831853071795853 0.0000000000000000
v 0.2631530000000000 0.4595610000000000 0.0600180000000000
vn 0.0000000000000000 6.2831853071795853 0.0000000000000000
v 0.2631530000000000 0.0250000000000000 0.0600180000000000
vn 2.7206581306213842 2.0943430082488228 -0.0000296627378507
v 0.7000900000000000 0.0250000000000000 0.0600180000000000
vn 1.3603376287206266 2.0944102466850891 2.3562150916325346
v 0.7115560000000000 0.0250000000000000 0.0401590000000000
vn -1.3603672902016022 2.0943724802699752 2.3561637159968423
v 0.7344860000000000 0.0250000000000000 0.0401590000000000
vn -2.7207174554504241 2.0944185420299268 -0.0000296620911232
v 0.7459510000000000 0.0250000000000000 0.0600180000000000
vn -1.3603501652488192 2.0943942848796837 -2.3561933780879660
v 0.7344860000000000 0.0250000000000000 0.0798760000000000
vn 1.3603205019007558 2.0944320522456743 -2.3562447543703842
v 0.7115560000000000 0.0250000000000000 0.0798760000000000
vn 2.7206581306213824 -2.0943430082488228 -0.0000296627378489
v 0.7000900000000000 0.4595610000000000 0.0600180000000000
vn 1.3603376287206257 -2.0944102466850891 2.3562150916325351
v 0.7115560000000000 0.4595610000000000 0.0401590000000000
vn -1.3603672902016046 -2.0943724802699752 2.3561637159968432
v 0.7344860000000000 0.4595610000000000 0.0401590000000000
vn -2.7207174554504214 -2.0944185420299268 -0.0000296620911243
v 0.7459510000000000 0.4595610000000000 0.0600180000000000
vn -1.3603501652488195 -2.0943942848796837 -2.3561933780879674
v 0.7344860000000000 0.4595610000000000 0.0798760000000000
vn 1.3603205019007585 -2.0944320522456743 -2.3562447543703851
v 0.7115560000000000 0.4595610000000000 0.0798760000000000
vn 0.0000000000000000 -6.2831853071795862 0.0000000000000000
v 0.7230210000000000 0.4595610000000000 0.0600180000000000
vn 0.0000000000000000 6.2831853071795862 0.0000000000000000
v 0.7230210000000000 0.0250000000000000 0.0600180000000000
# 44 vertices, 0 vertices normals


usemtl material_0
vt -1.0000000000000000 -1.0000000000000000
f 5/1/5 1/1/1 6/1/6
f 6/1/6 1/1/1 2/1/2
f 6/1/6 2/1/2 7/1/7
f 7/1/7 2/1/2 3/1/3
f 7/1/7 3/1/3 8/1/8
f 8/1/8 3/1/3 4/1/4
f 8/1/8 4/1/4 5/1/5
f 5/1/5 4/1/4 1/1/1
f 8/1/8 5/1/5 7/1/7
f 7/1/7 5/1/5 6/1/6
f 1/1/1 9/1/9 2/1/2
f 10/1/10 2/1/2 9/1/9
f 2/1/2 10/1/10 3/1/3
f 11/1/11 3/1/3 10/1/10
f 3/1/3 11/1/11 4/1/4
f 12/1/12 4/1/4 11/1/11
f 4/1/4 12/1/12 1/1/1
f 9/1/9 1/1/1 12/1/12
f 9/1/9 13/1/13 10/1/10
f 14/1/14 10/1/10 13/1/13
f 10/1/10 14/1/14 11/1/11
f 15/1/15 11/1/11 14/1/14
f 11/1/11 15/1/15 12/1/12
f 16/1/16 12/1/12 15/1/15
f 12/1/12 16/1/16 9/1/9
f 13/1/13 9/1/9 16/1/16
f 24/1/24 17/1/17 18/1/18
f 23/1/23 17/1/17 24/1/24
f 25/1/25 18/1/18 19/1/19
f 24/1/24 18/1/18 25/1/25
f 26/1/26 19/1/19 20/1/20
f 25/1/25 19/1/19 26/1/26
f 27/1/27 20/1/20 21/1/21
f 26/1/26 20/1/20 27/1/27
f 28/1/28 21/1/21 22/1/22
f 27/1/27 21/1/21 28/1/28
f 23/1/23 22/1/22 17/1/17
f 28/1/28 22/1/22 23/1/23
f 30/1/30 18/1/18 17/1/17
f 30/1/30 19/1/19 18/1/18
f 30/1/30 20/1/20 19/1/19
f 30/1/30 21/1/21 20/1/20
f 30/1/30 22/1/22 21/1/21
f 30/1/30 17/1/17 22/1/22
f 29/1/29 23/1/23 24/1/24
f 29/1/29 24/1/24 25/1/25
f 29/1/29 25/1/25 26/1/26
f 29/1/29 26/1/26 27/1/27
f 29/1/29 27/1/27 28/1/28
f 29/1/29 28/1/28 23/1/23
f 38/1/38 31/1/31 32/1/32
f 37/1/37 31/1/31 38/1/38
f 39/1/39 32/1/32 33/1/33
f 38/1/38 32/1/32 39/1/39
f 40/1/40 33/1/33 34/1/34
f 39/1/39 33/1/33 40/1/40
f 41/1/41 34/1/34 35/1/35
f 40/1/40 34/1/34 41/1/41
f 42/1/42 35/1/35 36/1/36
f 41/1/41 35/1/35 42/1/42
f 37/1/37 36/1/36 31/1/31
f 42/1/42 36/1/36 37/1/37
f 44/1/44 32/1/32 31/1/31
f 44/1/44 33/1/33 32/1/32
f 44/1/44 34/1/34 33/1/33
f 44/1/44 35/1/35 34/1/34
f 44/1/44 36/1/36 35/1/35
f 44/1/44 31/1/31 36/1/36
f 43/1/43 37/1/37 38/1/38
f 43/1/43 38/1/38 39/1/39
f 43/1/43 39/1/39 40/1/40
f 43/1/43 40/1/40 41/1/41
f 43/1/43 41/1/41 42/1/42
f 43/1/43 42/1/42 37/1/37
f 14/1/14 13/1/13 15/1/15
f 15/1/15 13/1/13 16/1/16
# 76 faces, 1 coords texture

# End of File
