####
#
# OBJ File Generated by Meshlab
#
####
# Object D01143.obj
#
# Vertices: 48
# Faces: 72
#
####
mtllib ./D01143.obj.mtl

vn 1.5708198811862526 2.1767669686410560 -0.4434004973386827
v 0.0342519000000000 0.5054730000000000 0.0703239000000000
vn 1.5707727724035365 0.4433900534328341 2.1767156968238170
v 0.0342519000000000 0.5274140000000000 0.0371569000000000
vn 1.5708198811862597 -2.1767669686410649 0.4434004973386809
v 0.0342519000000000 0.5384690000000000 0.0444705000000000
vn 1.5707727724035390 -0.4433900534328427 -2.1767156968238197
v 0.0342519000000000 0.5165280000000000 0.0776375000000000
vn -1.5708198811862526 2.1767669686410565 -0.4434004973386824
v 0.0386705000000000 0.5054730000000000 0.0703239000000000
vn -1.5707727724035365 0.4433900534328332 2.1767156968238170
v 0.0386705000000000 0.5274140000000000 0.0371569000000000
vn -1.5708198811862597 -2.1767669686410653 0.4434004973386797
v 0.0386705000000000 0.5384690000000000 0.0444705000000000
vn -1.5707727724035390 -0.4433900534328420 -2.1767156968238188
v 0.0386705000000000 0.5165280000000000 0.0776375000000000
vn -1.5707963267788057 1.5708008531154505 1.5708034367225969
v 0.0474849000000000 0.4841750000000000 0.0323923000000000
vn -1.5708034366743242 1.5707963267744092 -1.5707892168511051
v 0.0474850000000000 0.4841750000000000 0.0544853000000000
vn -1.5708034366743242 -1.5707963267744092 -1.5707892168511055
v 0.0474850000000000 0.5725470000000000 0.0544853000000000
vn -1.5707963267788057 -1.5708008531154505 1.5708034367225971
v 0.0474849000000000 0.5725470000000000 0.0323923000000000
vn 1.5707963267948966 1.5707963267948966 1.5707963267948968
v 0.0253919000000000 0.4841750000000000 0.0323923000000000
vn 1.5707892168993780 1.5707918004948298 -1.5707963267788059
v 0.0253919000000000 0.4841750000000000 0.0544854000000000
vn 1.5707892168993780 -1.5707918004948298 -1.5707963267788054
v 0.0253919000000000 0.5725470000000000 0.0544854000000000
vn 1.5707963267948966 -1.5707963267948966 1.5707963267948966
v 0.0253919000000000 0.5725470000000000 0.0323923000000000
vn 1.5707963267948966 1.5707963267948912 1.5707963267948966
v 0.0250000000000000 0.5113030000000000 0.0654700000000000
vn -1.5707963267948966 1.5707963267948966 1.5707963267948934
v 0.5552330000000000 0.5113030000000000 0.0654700000000000
vn -1.5707963267948966 -1.5707963267948966 1.5707963267948966
v 0.5552330000000000 0.5157210000000000 0.0654700000000000
vn 1.5707963267948966 -1.5707963267948912 1.5707963267948934
v 0.0250000000000000 0.5157210000000000 0.0654700000000000
vn 1.5707963267948966 1.5707963267948966 -1.5707963267948966
v 0.0250000000000000 0.5113030000000000 0.0698886000000000
vn -1.5707963267948966 1.5707963267948912 -1.5707963267948934
v 0.5552330000000000 0.5113030000000000 0.0698886000000000
vn -1.5707963267948966 -1.5707963267948912 -1.5707963267948966
v 0.5552330000000000 0.5157210000000000 0.0698886000000000
vn 1.5707963267948966 -1.5707963267948966 -1.5707963267948934
v 0.0250000000000000 0.5157210000000000 0.0698886000000000
vn 1.5708408539047070 2.1767851445187705 -0.4434279734370385
v 0.5423640000000000 0.5031670000000000 0.0694179000000000
vn 1.5707934221449014 0.4434627579017677 2.1767242932961555
v 0.5423640000000000 0.5251070000000000 0.0362509000000000
vn 1.5707782587264436 -2.1767124400498394 0.4434365699093791
v 0.5423640000000000 0.5361629999999999 0.0435645000000000
vn 1.5707727724035345 -0.4433900534328387 -2.1767156968238170
v 0.5423640000000000 0.5142220000000000 0.0767315000000000
vn -1.5708408539047070 2.1767851445187700 -0.4434279734370390
v 0.5467830000000000 0.5031670000000000 0.0694179000000000
vn -1.5707934221449014 0.4434627579017678 2.1767242932961564
v 0.5467830000000000 0.5251070000000000 0.0362509000000000
vn -1.5707782587264436 -2.1767124400498412 0.4434365699093775
v 0.5467830000000000 0.5361629999999999 0.0435645000000000
vn -1.5707727724035345 -0.4433900534328369 -2.1767156968238157
v 0.5467830000000000 0.5142220000000000 0.0767315000000000
vn -1.5707963267948966 1.5707963267948966 1.5707963267948966
v 0.5556200000000000 0.4833000000000000 0.0324968000000000
vn -1.5708034367225960 1.5708008531154505 -1.5707963267788057
v 0.5556200000000000 0.4833000000000000 0.0545898000000000
vn -1.5708034367225963 -1.5708008531154505 -1.5707963267788057
v 0.5556200000000000 0.5716730000000000 0.0545898000000000
vn -1.5707963267948963 -1.5707963267948966 1.5707963267948966
v 0.5556200000000000 0.5716730000000000 0.0324968000000000
vn 1.5707963267948966 1.5707963267948966 1.5707963267948966
v 0.5335270000000000 0.4833000000000000 0.0324968000000000
vn 1.5707892168671971 1.5707918004743426 -1.5707963267788057
v 0.5335270000000000 0.4833000000000000 0.0545899000000000
vn 1.5707892168671969 -1.5707918004743426 -1.5707963267788057
v 0.5335270000000000 0.5716730000000000 0.0545899000000000
vn 1.5707963267948966 -1.5707963267948966 1.5707963267948966
v 0.5335270000000000 0.5716730000000000 0.0324968000000000
vn 1.5707963267948966 1.5707963267948937 1.5707963267948966
v 0.0253902000000000 0.0250000000000000 0.0250000000000000
vn -1.5707963267948908 1.5707963267948966 1.5707963267948970
v 0.5556230000000000 0.0250000000000000 0.0250000000000000
vn -1.5707963267948966 -1.5707963267948966 1.5707963267948966
v 0.5556230000000000 0.9750000000000000 0.0250000000000000
vn 1.5707963267948908 -1.5707963267948937 1.5707963267948970
v 0.0253902000000000 0.9750000000000000 0.0250000000000000
vn 1.5707963267948908 1.5707963267948966 -1.5707963267948966
v 0.0253902000000000 0.0250000000000000 0.0338372000000000
vn -1.5707963267948966 1.5707963267948937 -1.5707963267948970
v 0.5556230000000000 0.0250000000000000 0.0338372000000000
vn -1.5707963267948908 -1.5707963267948937 -1.5707963267948966
v 0.5556230000000000 0.9750000000000000 0.0338372000000000
vn 1.5707963267948966 -1.5707963267948966 -1.5707963267948970
v 0.0253902000000000 0.9750000000000000 0.0338372000000000
# 48 vertices, 0 vertices normals


usemtl material_0
vt -1.0000000000000000 -1.0000000000000000
f 4/1/4 1/1/1 2/1/2
f 4/1/4 2/1/2 3/1/3
f 6/1/6 1/1/1 5/1/5
f 2/1/2 1/1/1 6/1/6
f 5/1/5 1/1/1 4/1/4
f 5/1/5 4/1/4 8/1/8
f 8/1/8 4/1/4 7/1/7
f 7/1/7 4/1/4 3/1/3
f 7/1/7 2/1/2 6/1/6
f 3/1/3 2/1/2 7/1/7
f 8/1/8 6/1/6 5/1/5
f 7/1/7 6/1/6 8/1/8
f 12/1/12 9/1/9 10/1/10
f 12/1/12 10/1/10 11/1/11
f 14/1/14 9/1/9 13/1/13
f 10/1/10 9/1/9 14/1/14
f 13/1/13 9/1/9 12/1/12
f 13/1/13 12/1/12 16/1/16
f 16/1/16 12/1/12 15/1/15
f 15/1/15 12/1/12 11/1/11
f 15/1/15 10/1/10 14/1/14
f 11/1/11 10/1/10 15/1/15
f 16/1/16 14/1/14 13/1/13
f 15/1/15 14/1/14 16/1/16
f 20/1/20 17/1/17 18/1/18
f 20/1/20 18/1/18 19/1/19
f 22/1/22 17/1/17 21/1/21
f 18/1/18 17/1/17 22/1/22
f 21/1/21 17/1/17 20/1/20
f 21/1/21 20/1/20 24/1/24
f 24/1/24 20/1/20 23/1/23
f 23/1/23 20/1/20 19/1/19
f 23/1/23 18/1/18 22/1/22
f 19/1/19 18/1/18 23/1/23
f 24/1/24 22/1/22 21/1/21
f 23/1/23 22/1/22 24/1/24
f 28/1/28 25/1/25 26/1/26
f 28/1/28 26/1/26 27/1/27
f 30/1/30 25/1/25 29/1/29
f 26/1/26 25/1/25 30/1/30
f 29/1/29 25/1/25 28/1/28
f 29/1/29 28/1/28 32/1/32
f 32/1/32 28/1/28 31/1/31
f 31/1/31 28/1/28 27/1/27
f 31/1/31 26/1/26 30/1/30
f 27/1/27 26/1/26 31/1/31
f 32/1/32 30/1/30 29/1/29
f 31/1/31 30/1/30 32/1/32
f 36/1/36 33/1/33 34/1/34
f 36/1/36 34/1/34 35/1/35
f 38/1/38 33/1/33 37/1/37
f 34/1/34 33/1/33 38/1/38
f 37/1/37 33/1/33 36/1/36
f 37/1/37 36/1/36 40/1/40
f 40/1/40 36/1/36 39/1/39
f 39/1/39 36/1/36 35/1/35
f 39/1/39 34/1/34 38/1/38
f 35/1/35 34/1/34 39/1/39
f 40/1/40 38/1/38 37/1/37
f 39/1/39 38/1/38 40/1/40
f 44/1/44 41/1/41 42/1/42
f 44/1/44 42/1/42 43/1/43
f 46/1/46 41/1/41 45/1/45
f 42/1/42 41/1/41 46/1/46
f 45/1/45 41/1/41 44/1/44
f 45/1/45 44/1/44 48/1/48
f 48/1/48 44/1/44 47/1/47
f 47/1/47 44/1/44 43/1/43
f 47/1/47 42/1/42 46/1/46
f 43/1/43 42/1/42 47/1/47
f 48/1/48 46/1/46 45/1/45
f 47/1/47 46/1/46 48/1/48
# 72 faces, 1 coords texture

# End of File
