####
#
# OBJ File Generated by Meshlab
#
####
# Object m782.obj
#
# Vertices: 40
# Faces: 44
#
####
mtllib ./m782.obj.mtl

vn -1.6686539646720724 1.7178597644372562 1.5596763919482253
v 0.1199620000000000 0.4048480000000000 0.0629850000000000
vn 1.6686539954007811 1.7306993782675597 1.5668778041611569
v 0.1959320000000000 0.4048480000000000 0.0629850000000000
vn 1.4783253099312907 1.4308012312518152 -1.5676886377615196
v 0.1959320000000000 0.4048480000000000 0.0250000000000000
vn -1.4783252858064599 1.4207209775584624 -1.5604797875214715
v 0.1199620000000000 0.4048480000000000 0.0250000000000000
vn 0.0000000000000000 1.5707963267948952 0.0000000000000000
v 0.9746200000000000 0.4238400000000000 0.0439920000000000
vn 0.0000000000000000 1.5707963267948966 0.0000000000000000
v 0.0250000000000000 0.4238400000000000 0.0439920000000000
vn 0.0000000000000000 1.7430254428936800 1.5568993403946940
v 0.0250000000000000 0.4238400000000000 0.0819770000000000
vn 0.0000000000000000 1.7437510789306194 1.5634588716334650
v 0.9746200000000000 0.4238400000000000 0.0819770000000000
vn 0.0000000000000000 0.1724709932170555 1.5590858366992821
v 0.9750000000000000 0.2521490000000000 0.1009700000000000
vn 0.0000000000000000 0.1731966292539939 1.5656453679380533
v 0.0257600000000000 0.2521490000000000 0.1009700000000000
vn 3.1233661489503102 -0.3155819814411008 -3.1156516379216974
v 0.1966910000000000 0.1959320000000000 0.0443720000000000
vn 1.4729179254955982 0.1584853438768898 1.5596811327970523
v 0.1966910000000000 0.1959320000000000 0.0834970000000000
vn -3.1233660752785029 -0.3214265704759711 -3.1349109374207025
v 0.1207220000000000 0.1959320000000000 0.0443720000000000
vn -1.4729179015572573 0.1484830130677463 1.5668825450099839
v 0.1207220000000000 0.1959320000000000 0.0834970000000000
vn 1.4783252858064599 1.4207209775584619 -1.5604797875214718
v 0.8796580000000001 0.4048480000000000 0.0250000000000000
vn -1.4783252858064599 1.4308078672796696 -1.5676933835069216
v 0.8036890000000000 0.4048480000000000 0.0250000000000000
vn -1.6686539646720724 1.7307078308271178 1.5668825450099839
v 0.8036890000000000 0.4048480000000000 0.0629850000000000
vn 1.6686539646720724 1.7178597644372555 1.5596763919482248
v 0.8796580000000001 0.4048480000000000 0.0629850000000000
vn 3.1233660752785033 -0.3214265704759715 -3.1349109374207038
v 0.8788980000000000 0.1959320000000000 0.0443720000000000
vn -3.1233660752785029 -0.3155781337661404 -3.1156389591367617
v 0.8029290000000000 0.1959320000000000 0.0443720000000000
vn 1.4729179015572573 0.1484830130677456 1.5668825450099844
v 0.8788980000000000 0.1959320000000000 0.0834970000000000
vn -1.4729179015572573 0.1584919286068348 1.5596763919482255
v 0.8029290000000000 0.1959320000000000 0.0834970000000000
vn 0.0000000000000000 1.5671519057316170 1.5707963267948952
v 0.0250000000000000 0.2149240000000000 0.3478710000000000
vn 0.0000000000000000 0.0000000000000000 1.5707963267948966
v 0.0250000000000000 0.1769390000000000 0.3478710000000000
vn 0.0000000000000000 0.0000000000000000 1.5707963267948952
v 0.9746200000000000 0.1769390000000000 0.3478710000000000
vn 0.0000000000000000 1.5726185433771174 1.5707963267948966
v 0.9746200000000000 0.2149240000000000 0.3478710000000000
vn 0.0000000000000000 1.5689741102126757 0.0000000000000000
v 0.9750000000000000 0.2149240000000000 0.1393340000000000
vn 0.0000000000000000 1.5744407478581761 0.0000000000000000
v 0.0257600000000000 0.2149240000000000 0.1393340000000000
vn 1.6814390536595023 -0.1655064026721371 -1.5567964040612390
v 0.8796580000000001 0.0250000000000000 0.0633650000000000
vn -1.6814390536595023 -0.1814344928183120 -1.5655803214678308
v 0.8036890000000000 0.0250000000000000 0.0633650000000000
vn 1.5707898919283223 0.0000000000000000 1.5663001408391064
v 0.8796580000000001 0.1959320000000000 0.3098860000000000
vn 1.5707929446957603 0.0025431777300758 1.5679373732850568
v 0.8796580000000001 0.0250000000000000 0.3098860000000000
vn -1.5707898919283223 0.0000000000000000 1.5752925127506860
v 0.8036890000000000 0.1959320000000000 0.3098860000000000
vn -1.5707929446957603 -0.0025431777300754 1.5736552803047359
v 0.8036890000000000 0.0250000000000000 0.3098860000000000
vn 1.6814391002197846 -0.1814240140267245 -1.5655745426498830
v 0.1959320000000000 0.0250000000000000 0.0633650000000000
vn -1.6814390536595023 -0.1655064026721382 -1.5567964040612399
v 0.1199620000000000 0.0250000000000000 0.0633650000000000
vn 1.5707899088509374 0.0000000000000000 1.5752865967649090
v 0.1959320000000000 0.1959320000000000 0.3098860000000000
vn 1.5707929535901333 -0.0025398314570753 1.5736515185405451
v 0.1959320000000000 0.0250000000000000 0.3098860000000000
vn -1.5707929446957603 0.0025431777300754 1.5679373732850570
v 0.1199620000000000 0.0250000000000000 0.3098860000000000
vn -1.5707898919283223 0.0000000000000000 1.5663001408391068
v 0.1199620000000000 0.1959320000000000 0.3098860000000000
# 40 vertices, 0 vertices normals


usemtl material_0
f 1//1 2//2 3//3
f 5//5 6//6 7//7
f 11//11 3//3 2//2
f 11//11 13//13 4//4
f 12//12 2//2 1//1
f 13//13 14//14 1//1
f 15//15 16//16 17//17
f 19//19 20//20 16//16
f 19//19 15//15 18//18
f 21//21 18//18 17//17
f 20//20 22//22 17//17
f 23//23 24//24 25//25
f 27//27 28//28 23//23
f 20//20 19//19 29//29
f 19//19 31//31 32//32
f 33//33 34//34 32//32
f 20//20 30//30 34//34
f 11//11 35//35 36//36
f 11//11 37//37 38//38
f 13//13 36//36 39//39
f 40//40 39//39 38//38
f 1//1 3//3 4//4
f 5//5 7//7 8//8
f 9//9 7//7 10//10
f 7//7 9//9 8//8
f 11//11 2//2 12//12
f 11//11 4//4 3//3
f 12//12 1//1 14//14
f 13//13 1//1 4//4
f 15//15 17//17 18//18
f 19//19 16//16 15//15
f 19//19 18//18 21//21
f 21//21 17//17 22//22
f 20//20 17//17 16//16
f 23//23 25//25 26//26
f 27//27 23//23 26//26
f 20//20 29//29 30//30
f 19//19 32//32 29//29
f 33//33 32//32 31//31
f 20//20 34//34 33//33
f 11//11 36//36 13//13
f 11//11 38//38 35//35
f 13//13 39//39 40//40
f 40//40 38//38 37//37
# 44 faces, 0 coords texture

# End of File
