####
#
# OBJ File Generated by Meshlab
#
####
# Object m783.obj
#
# Vertices: 66
# Faces: 107
#
####
mtllib ./m783.obj.mtl

vn -2.0513861525084138 1.5707963267948970 -0.8524183561147699
v 0.9750000000000000 0.0250000000000000 0.2544580000000000
vn 0.8524082178168741 1.5708132381586677 -2.0514107060698712
v 0.9541400000000000 0.0250000000000000 0.2630710000000000
vn 0.8524082178168744 -1.5708132381586677 -2.0514107060698707
v 0.9541400000000000 0.4763640000000000 0.2630710000000000
vn -2.0513861525084147 -1.5707963267948970 -0.8524183561147701
v 0.9750000000000000 0.4763640000000000 0.2544580000000000
vn -0.8523588930808523 1.5707553711888746 2.0513615990643870
v 0.9663870000000000 0.0250000000000000 0.2335980000000000
vn 2.0514354772444365 1.5708203710371467 0.8523692491092854
v 0.9455270000000000 0.0250000000000000 0.2422120000000000
vn 2.0514354772444365 -1.5708203710371467 0.8523692491092857
v 0.9455270000000000 0.4763640000000000 0.2422120000000000
vn -0.8523588930808522 -1.5707553711888746 2.0513615990643865
v 0.9663870000000000 0.4763640000000000 0.2335980000000000
vn -2.0513861525084129 1.5707963267948954 -0.8524183561147676
v 0.1406070000000000 0.0250000000000000 0.5989940000000000
vn 0.8524183561147687 1.5707963267948979 -2.0513861525084160
v 0.1197470000000000 0.0250000000000000 0.6076070000000000
vn 0.8524183561147686 -1.5707963267948979 -2.0513861525084156
v 0.1197470000000000 0.4763640000000000 0.6076070000000000
vn -2.0513861525084134 -1.5707963267948954 -0.8524183561147675
v 0.1406070000000000 0.4763640000000000 0.5989940000000000
vn -0.8524183561147690 1.5707963267948979 2.0513861525084156
v 0.1319940000000000 0.0250000000000000 0.5781340000000000
vn 2.0513861525084129 1.5707963267948954 0.8524183561147678
v 0.1111340000000000 0.0250000000000000 0.5867470000000000
vn 2.0513861525084134 -1.5707963267948954 0.8524183561147674
v 0.1111340000000000 0.4763640000000000 0.5867470000000000
vn -0.8524183561147685 -1.5707963267948979 2.0513861525084156
v 0.1319940000000000 0.4763640000000000 0.5781340000000000
vn -2.0513861525084125 1.5707963267948934 -0.8524183561147620
v 0.8888660000000000 0.0250000000000000 0.0458600000000000
vn 0.8524183561147651 1.5707963267949001 -2.0513861525084196
v 0.8680060000000001 0.0250000000000000 0.0544730000000000
vn -0.8992406509705630 0.7854201241585790 -2.1778892337974680
v 0.8888660000000000 0.2506820000000000 0.0458600000000000
vn -0.8524183561147654 1.5707963267949006 2.0513861525084200
v 0.8802530000000000 0.0250000000000000 0.0250000000000000
vn 2.0513861525084125 1.5707963267948932 0.8524183561147625
v 0.8593930000000000 0.0250000000000000 0.0336130000000000
vn 1.4518734518236023 0.7853783255565334 -0.5994720054449267
v 0.8593930000000000 0.2506820000000000 0.0336130000000000
vn -0.8524183561147654 -1.5707963267949006 2.0513861525084200
v 0.8802530000000000 0.2506820000000000 0.0250000000000000
vn -2.0513861525084138 1.5707963267948968 -0.8524183561147695
v 0.0544730000000000 0.0250000000000000 0.3903960000000000
vn 0.8524183561147690 1.5707963267948974 -2.0513861525084156
v 0.0336130000000000 0.0250000000000000 0.3990090000000000
vn -0.5994707327240250 1.5707743660337670 -1.4518703695775641
v 0.0336130000000000 0.2506820000000000 0.3990090000000000
vn 0.0000156370151938 3.1415947765100025 -0.0000437774859265
v 0.0544730000000000 0.2506820000000000 0.3903960000000000
vn -0.8524183561147657 1.5707963267948943 2.0513861525084125
v 0.0458600000000000 0.0250000000000000 0.3695360000000000
vn 2.0513861525084169 1.5707963267948983 0.8524183561147669
v 0.0250000000000000 0.0250000000000000 0.3781490000000000
vn 2.0513861525084169 0.0000000000000000 0.8524183561147668
v 0.0250000000000000 0.2506820000000000 0.3781490000000000
vn -2.1778861515514345 1.5708161646358105 0.8992393782496630
v 0.0458600000000000 0.2506820000000000 0.3695360000000000
vn 2.0514048166985090 -1.5707992532720441 0.8523819098014156
v 0.9541400000000000 0.2281140000000000 0.2630710000000000
vn -0.1264423940670452 -1.5707764889539779 1.7516339488606354
v 0.1406070000000000 0.2281140000000000 0.5989940000000000
vn -0.8523895536267784 1.5707764889539779 2.0513742597565190
v 0.1406070000000000 0.2506820000000000 0.5989940000000000
vn 1.3254437979189571 1.5707992532720441 1.1521423132123236
v 0.9541400000000000 0.2506820000000000 0.2630710000000000
vn 0.8523779128624804 -3.1415894805157949 -2.0514067740702813
v 0.1319940000000000 0.2281140000000000 0.5781340000000000
vn 0.4261710641986199 3.1415894805157949 -1.0257193036146666
v 0.1319940000000000 0.2506820000000000 0.5781340000000000
vn 1.3254546299638701 -3.1415947765100025 1.1521148895247189
v 0.0544730000000000 0.2281140000000000 0.3903960000000000
vn -0.5995127006848123 -1.5707764889539810 -1.4518903615596950
v 0.8593930000000000 0.2281140000000000 0.0336130000000000
vn -2.0514149549964014 -1.5708161646358105 -0.8524064633628667
v 0.0458600000000000 0.2281140000000000 0.3695360000000000
vn 2.0514324500695347 -1.5708153216397889 0.8523619179367136
v 0.9663870000000000 0.2281140000000000 0.2335980000000000
vn -1.0256735576825200 -3.1415699033637177 -0.4262112724371697
v 0.9455270000000000 0.2281140000000000 0.2422120000000000
vn -2.0514013913373703 3.1415699033637177 -0.8523779363931897
v 0.9455270000000000 0.2506820000000000 0.2422120000000000
vn 1.7516656351942332 1.5708153216397889 0.1264348505697798
v 0.9663870000000000 0.2506820000000000 0.2335980000000000
vn 0.8524051906419711 -1.5708182875560246 -2.0514180372424420
v 0.8888660000000000 0.2281140000000000 0.0458600000000000
vn -1.1521178255721207 -3.1415924097273997 1.3254562567461989
v 0.8680060000000001 0.2281140000000000 0.0544730000000000
vn 0.0000408414385211 3.1415924097273997 0.0000172637975134
v 0.8680060000000001 0.2506820000000000 0.0544730000000000
vn -1.1521455015378488 -1.5708182875560259 1.3254708776827067
v 0.1111340000000000 0.2281140000000000 0.5867470000000000
vn -0.8524051906419733 1.5708182875560259 2.0514180372424433
v 0.1111340000000000 0.2506820000000000 0.5867470000000000
vn -1.4518890888387954 -1.5707743660337670 0.5995157829308518
v 0.0336130000000000 0.2281140000000000 0.3990090000000000
vn -2.0513896814927657 1.5707747130835732 -0.8523472976548431
v 0.9624170000000000 0.3522390000000000 0.2535500000000000
vn 0.8523657202423677 1.5708179405062190 -2.0514340201163117
v 0.1280240000000000 0.3522390000000000 0.5980860000000000
vn 0.8523657202423680 -1.5708179405062190 -2.0514340201163126
v 0.1280240000000000 0.4650790000000000 0.5980860000000000
vn -2.0513896814927652 -1.5707747130835732 -0.8523472976548421
v 0.9624170000000000 0.4650790000000000 0.2535500000000000
vn -0.8523657202423698 1.5708179405062166 2.0514340201163090
v 0.9581100000000000 0.3522390000000000 0.2431200000000000
vn 2.0513896814927639 1.5707747130835705 0.8523472976548389
v 0.1237170000000000 0.3522390000000000 0.5876560000000000
vn 2.0513896814927630 -1.5707747130835705 0.8523472976548395
v 0.1237170000000000 0.4650790000000000 0.5876560000000000
vn -0.8523657202423701 -1.5708179405062166 2.0514340201163086
v 0.9581100000000000 0.4650790000000000 0.2431200000000000
vn -2.0514013913373703 1.5707950327787219 -0.8523779363931899
v 0.9455270000000000 0.2393980000000000 0.2422120000000000
vn 0.8523779128624789 1.5707994998688966 -2.0514067740702808
v 0.1319940000000000 0.2393980000000000 0.5781340000000000
vn 0.8523779128624802 -1.5707994998688966 -2.0514067740702813
v 0.1319940000000000 0.2619660000000000 0.5781340000000000
vn -2.0514013913373712 -1.5707950327787219 -0.8523779363931897
v 0.9455270000000000 0.2619660000000000 0.2422120000000000
vn -0.8523775146762437 1.5707965706572808 2.0514034163059347
v 0.8680060000000001 0.2393980000000000 0.0544730000000000
vn 2.0514017895236067 1.5707942038746876 0.8523745786288417
v 0.0544730000000000 0.2393980000000000 0.3903960000000000
vn 2.0514017895236063 -1.5707942038746876 0.8523745786288437
v 0.0544730000000000 0.2619660000000000 0.3903960000000000
vn -0.8523775146762437 -1.5707965706572808 2.0514034163059329
v 0.8680060000000001 0.2619660000000000 0.0544730000000000
# 66 vertices, 0 vertices normals


usemtl material_0
vt -1.0000000000000000 -1.0000000000000000
f 4/1/4 1/1/1 2/1/2
f 4/1/4 2/1/2 3/1/3
f 6/1/6 1/1/1 5/1/5
f 2/1/2 1/1/1 6/1/6
f 5/1/5 1/1/1 4/1/4
f 5/1/5 4/1/4 8/1/8
f 8/1/8 4/1/4 7/1/7
f 7/1/7 4/1/4 3/1/3
f 7/1/7 2/1/2 6/1/6
f 3/1/3 2/1/2 7/1/7
f 8/1/8 6/1/6 5/1/5
f 7/1/7 6/1/6 8/1/8
f 12/1/12 9/1/9 10/1/10
f 12/1/12 10/1/10 11/1/11
f 14/1/14 9/1/9 13/1/13
f 10/1/10 9/1/9 14/1/14
f 13/1/13 9/1/9 12/1/12
f 13/1/13 12/1/12 16/1/16
f 16/1/16 12/1/12 15/1/15
f 15/1/15 12/1/12 11/1/11
f 15/1/15 10/1/10 14/1/14
f 11/1/11 10/1/10 15/1/15
f 16/1/16 14/1/14 13/1/13
f 15/1/15 14/1/14 16/1/16
f 19/1/19 17/1/17 18/1/18
f 19/1/19 18/1/18 47/1/47
f 21/1/21 17/1/17 20/1/20
f 18/1/18 17/1/17 21/1/21
f 20/1/20 17/1/17 19/1/19
f 20/1/20 19/1/19 23/1/23
f 23/1/23 19/1/19 22/1/22
f 22/1/22 18/1/18 21/1/21
f 47/1/47 18/1/18 22/1/22
f 23/1/23 21/1/21 20/1/20
f 22/1/22 21/1/21 23/1/23
f 27/1/27 24/1/24 25/1/25
f 27/1/27 25/1/25 26/1/26
f 29/1/29 24/1/24 28/1/28
f 25/1/25 24/1/24 29/1/29
f 28/1/28 24/1/24 27/1/27
f 28/1/28 27/1/27 31/1/31
f 30/1/30 25/1/25 29/1/29
f 26/1/26 25/1/25 30/1/30
f 31/1/31 29/1/29 28/1/28
f 30/1/30 29/1/29 31/1/31
f 33/1/33 32/1/32 35/1/35
f 34/1/34 33/1/33 35/1/35
f 42/1/42 32/1/32 36/1/36
f 32/1/32 33/1/33 36/1/36
f 42/1/42 35/1/35 32/1/32
f 37/1/37 35/1/35 43/1/43
f 35/1/35 37/1/37 34/1/34
f 37/1/37 33/1/33 34/1/34
f 42/1/42 36/1/36 43/1/43
f 37/1/37 43/1/43 36/1/36
f 47/1/47 38/1/38 46/1/46
f 38/1/38 47/1/47 27/1/27
f 46/1/46 40/1/40 39/1/39
f 40/1/40 46/1/46 38/1/38
f 47/1/47 22/1/22 31/1/31
f 47/1/47 31/1/31 27/1/27
f 40/1/40 38/1/38 31/1/31
f 40/1/40 22/1/22 39/1/39
f 22/1/22 40/1/40 31/1/31
f 41/1/41 44/1/44 42/1/42
f 46/1/46 45/1/45 41/1/41
f 46/1/46 41/1/41 42/1/42
f 44/1/44 41/1/41 45/1/45
f 45/1/45 19/1/19 44/1/44
f 19/1/19 47/1/47 44/1/44
f 43/1/43 44/1/44 47/1/47
f 46/1/46 42/1/42 47/1/47
f 43/1/43 47/1/47 42/1/42
f 45/1/45 46/1/46 19/1/19
f 37/1/37 49/1/49 48/1/48
f 50/1/50 38/1/38 36/1/36
f 48/1/48 50/1/50 36/1/36
f 38/1/38 37/1/37 36/1/36
f 37/1/37 38/1/38 27/1/27
f 27/1/27 26/1/26 37/1/37
f 49/1/49 37/1/37 26/1/26
f 26/1/26 50/1/50 48/1/48
f 49/1/49 26/1/26 48/1/48
f 54/1/54 51/1/51 52/1/52
f 54/1/54 52/1/52 53/1/53
f 56/1/56 51/1/51 55/1/55
f 52/1/52 51/1/51 56/1/56
f 55/1/55 51/1/51 54/1/54
f 55/1/55 54/1/54 58/1/58
f 58/1/58 54/1/54 57/1/57
f 57/1/57 54/1/54 53/1/53
f 57/1/57 52/1/52 56/1/56
f 53/1/53 52/1/52 57/1/57
f 58/1/58 56/1/56 55/1/55
f 57/1/57 56/1/56 58/1/58
f 62/1/62 59/1/59 60/1/60
f 62/1/62 60/1/60 61/1/61
f 64/1/64 59/1/59 63/1/63
f 60/1/60 59/1/59 64/1/64
f 63/1/63 59/1/59 62/1/62
f 63/1/63 62/1/62 66/1/66
f 66/1/66 62/1/62 65/1/65
f 65/1/65 62/1/62 61/1/61
f 65/1/65 60/1/60 64/1/64
f 61/1/61 60/1/60 65/1/65
f 66/1/66 64/1/64 63/1/63
f 65/1/65 64/1/64 66/1/66
# 107 faces, 1 coords texture

# End of File
