####
#
# OBJ File Generated by Meshlab
#
####
# Object m851.obj
#
# Vertices: 70
# Faces: 114
#
####
mtllib ./m851.obj.mtl

vn -0.4082482904638631 -0.8164965809277261 -0.4082482904638631
v 0.0250000000000000 0.0250000000000000 0.0250000000000000
vn 0.6666666666666666 -0.3333333333333333 -0.6666666666666666
v 0.8392860000000000 0.0250000000000000 0.0250000000000000
vn 0.5773502691896258 0.5773502691896258 -0.5773502691896258
v 0.8392860000000000 0.0521430000000000 0.0250000000000000
vn -0.5773502691896258 0.5773502691896258 -0.5773502691896258
v 0.0250000000000000 0.0521430000000000 0.0250000000000000
vn -0.8164965809277261 -0.4082482904638631 0.4082482904638631
v 0.0250000000000000 0.0250000000000000 0.2964290000000000
vn 0.3333333333333333 -0.6666666666666666 0.6666666666666666
v 0.8392860000000000 0.0250000000000000 0.2964290000000000
vn 0.6666666666666666 0.6666666666666666 0.3333333333333333
v 0.8392860000000000 0.0521430000000000 0.2964290000000000
vn -0.4082482904638631 0.4082482904638631 0.8164965809277261
v 0.0250000000000000 0.0521430000000000 0.2964290000000000
vn -0.4082482904638631 -0.8164965809277261 -0.4082482904638631
v 0.0521430000000000 0.0521430000000000 0.0250000000000000
vn 0.6666666666666666 -0.3333333333333333 -0.6666666666666666
v 0.8121429999999999 0.0521430000000000 0.0250000000000000
vn 0.5773502691896258 0.5773502691896258 -0.5773502691896258
v 0.8121429999999999 0.0792860000000000 0.0250000000000000
vn -0.5773502691896258 0.5773502691896258 -0.5773502691896258
v 0.0521430000000000 0.0792860000000000 0.0250000000000000
vn -0.8164965809277261 -0.4082482904638631 0.4082482904638631
v 0.0521430000000000 0.0521430000000000 0.2692860000000000
vn 0.3333333333333333 -0.6666666666666666 0.6666666666666666
v 0.8121429999999999 0.0521430000000000 0.2692860000000000
vn 0.6666666666666666 0.6666666666666666 0.3333333333333333
v 0.8121429999999999 0.0792860000000000 0.2692860000000000
vn -0.4082482904638631 0.4082482904638631 0.8164965809277261
v 0.0521430000000000 0.0792860000000000 0.2692860000000000
vn -0.4082482904638631 -0.8164965809277261 -0.4082482904638631
v 0.0792860000000000 0.0792860000000000 0.0250000000000000
vn 0.8340201345911115 -0.1446695695691808 -0.5324294608089341
v 0.7850000000000000 0.0792860000000000 0.0250000000000000
vn 0.9019093259278710 0.3100772327458859 -0.3006853463955085
v 0.7850000000000000 0.1064290000000000 0.0250000000000000
vn -0.5345224838248488 0.2672612419124244 -0.8017837257372732
v 0.0792860000000000 0.1064290000000000 0.0250000000000000
vn -0.7071067811865475 -0.7071067811865475 0.0000000000000000
v 0.0792860000000000 0.0792860000000000 0.2421430000000000
vn 0.3333333333333333 -0.6666666666666666 0.6666666666666666
v 0.7850000000000000 0.0792860000000000 0.2421430000000000
vn 0.6254150118701515 0.3941533270328395 0.6734235054676975
v 0.7850000000000000 0.1064290000000000 0.2421430000000000
vn -0.6666666666666666 0.3333333333333333 0.6666666666666666
v 0.0792860000000000 0.1064290000000000 0.2421430000000000
vn 0.4850712500726659 -0.7276068751089989 -0.4850712500726659
v 0.1064290000000000 0.1064290000000000 0.0250000000000000
vn 0.0000000000000000 0.7071067811865475 -0.7071067811865475
v 0.1064290000000000 0.9750000000000000 0.0250000000000000
vn -0.6666666666666666 0.6666666666666666 -0.3333333333333333
v 0.0792860000000000 0.9750000000000000 0.0250000000000000
vn 0.5773502691896258 -0.5773502691896258 0.5773502691896258
v 0.1064290000000000 0.1064290000000000 0.2421430000000000
vn -0.4082482904638631 0.4082482904638631 0.8164965809277261
v 0.0792860000000000 0.9750000000000000 0.2421430000000000
vn 0.3843375869387960 -0.7069714170564193 -0.5936969216117780
v 0.7578570000000000 0.1064290000000000 0.0250000000000000
vn 0.5773502691896258 0.5773502691896258 -0.5773502691896258
v 0.7850000000000000 0.9750000000000000 0.0250000000000000
vn -0.2656014426781907 0.8047077303760222 -0.5309438221886896
v 0.7578570000000000 0.9750000000000000 0.0250000000000000
vn -0.8164965809277261 -0.4082482904638631 0.4082482904638631
v 0.7578570000000000 0.1064290000000000 0.2421430000000000
vn 0.6666666666666666 0.6666666666666666 0.3333333333333333
v 0.7850000000000000 0.9750000000000000 0.2421430000000000
vn -0.5773502691896258 -0.5773502691896258 0.5773502691896258
v 0.1064290000000000 0.1064290000000000 0.0521430000000000
vn 0.3333333333333333 -0.6666666666666666 0.6666666666666666
v 0.7578570000000000 0.1064290000000000 0.0521430000000000
vn 0.7981551472705496 0.5405014476376822 0.2660949942916950
v 0.7578570000000000 0.9750000000000000 0.0521430000000000
vn -0.8017837257372732 0.5345224838248488 0.2672612419124244
v 0.1064290000000000 0.9750000000000000 0.0521430000000000
vn -0.4082482904638631 -0.8164965809277261 -0.4082482904638631
v 0.1064290000000000 0.2828570000000000 0.0521430000000000
vn 0.6666666666666666 -0.3333333333333333 -0.6666666666666666
v 0.7578570000000000 0.2828570000000000 0.0521430000000000
vn 0.5773502691896258 0.5773502691896258 -0.5773502691896258
v 0.7578570000000000 0.3100000000000000 0.0521430000000000
vn -0.5773502691896258 0.5773502691896258 -0.5773502691896258
v 0.1064290000000000 0.3100000000000000 0.0521430000000000
vn -0.8164965809277261 -0.4082482904638631 0.4082482904638631
v 0.1064290000000000 0.2828570000000000 0.2421430000000000
vn 0.3333333333333333 -0.6666666666666666 0.6666666666666666
v 0.7578570000000000 0.2828570000000000 0.2421430000000000
vn 0.6666666666666666 0.6666666666666666 0.3333333333333333
v 0.7578570000000000 0.3100000000000000 0.2421430000000000
vn -0.4082482904638631 0.4082482904638631 0.8164965809277261
v 0.1064290000000000 0.3100000000000000 0.2421430000000000
vn -0.4082482904638631 -0.8164965809277261 -0.4082482904638631
v 0.1064290000000000 0.5000000000000000 0.0521430000000000
vn 0.6666666666666666 -0.3333333333333333 -0.6666666666666666
v 0.7578570000000000 0.5000000000000000 0.0521430000000000
vn 0.5773502691896258 0.5773502691896258 -0.5773502691896258
v 0.7578570000000000 0.5271430000000000 0.0521430000000000
vn -0.5773502691896258 0.5773502691896258 -0.5773502691896258
v 0.1064290000000000 0.5271430000000000 0.0521430000000000
vn -0.8164965809277261 -0.4082482904638631 0.4082482904638631
v 0.1064290000000000 0.5000000000000000 0.2421430000000000
vn 0.3333333333333333 -0.6666666666666666 0.6666666666666666
v 0.7578570000000000 0.5000000000000000 0.2421430000000000
vn 0.6666666666666666 0.6666666666666666 0.3333333333333333
v 0.7578570000000000 0.5271430000000000 0.2421430000000000
vn -0.4082482904638631 0.4082482904638631 0.8164965809277261
v 0.1064290000000000 0.5271430000000000 0.2421430000000000
vn -0.4082482904638631 -0.8164965809277261 -0.4082482904638631
v 0.1064290000000000 0.7171430000000000 0.0521430000000000
vn 0.6666666666666666 -0.3333333333333333 -0.6666666666666666
v 0.7578570000000000 0.7171430000000000 0.0521430000000000
vn 0.5773502691896258 0.5773502691896258 -0.5773502691896258
v 0.7578570000000000 0.7442860000000000 0.0521430000000000
vn -0.5773502691896258 0.5773502691896258 -0.5773502691896258
v 0.1064290000000000 0.7442860000000000 0.0521430000000000
vn -0.8164965809277261 -0.4082482904638631 0.4082482904638631
v 0.1064290000000000 0.7171430000000000 0.2421430000000000
vn 0.3333333333333333 -0.6666666666666666 0.6666666666666666
v 0.7578570000000000 0.7171430000000000 0.2421430000000000
vn 0.6666666666666666 0.6666666666666666 0.3333333333333333
v 0.7578570000000000 0.7442860000000000 0.2421430000000000
vn -0.4082482904638631 0.4082482904638631 0.8164965809277261
v 0.1064290000000000 0.7442860000000000 0.2421430000000000
vn -0.4082482904638631 -0.8164965809277261 -0.4082482904638631
v 0.1064290000000000 0.9478569999999999 0.0521430000000000
vn 0.8164965809277261 -0.4082482904638631 -0.4082482904638631
v 0.7578570000000000 0.9478569999999999 0.0521430000000000
vn -0.8164965809277261 -0.4082482904638631 0.4082482904638631
v 0.1064290000000000 0.9478569999999999 0.2421430000000000
vn 0.3333333333333333 -0.6666666666666666 0.6666666666666666
v 0.7578570000000000 0.9478569999999999 0.2421430000000000
vn 0.6666666666666666 0.6666666666666666 0.3333333333333333
v 0.7578570000000000 0.9750000000000000 0.2421430000000000
vn -0.4082482904638631 0.4082482904638631 0.8164965809277261
v 0.1064290000000000 0.9750000000000000 0.2421430000000000
vn 0.6666666666666666 0.6666666666666666 0.3333333333333333
v 0.1064290000000000 0.9750000000000000 0.2421430000000000
vn -0.4082482904638631 0.4082482904638631 0.8164965809277261
v 0.7578570000000000 0.9750000000000000 0.2421430000000000
# 70 vertices, 0 vertices normals


usemtl material_0
f 1//1 4//4 2//2
f 2//2 4//4 3//3
f 1//1 6//6 5//5
f 1//1 2//2 6//6
f 1//1 5//5 4//4
f 4//4 5//5 8//8
f 4//4 8//8 7//7
f 4//4 7//7 3//3
f 2//2 7//7 6//6
f 2//2 3//3 7//7
f 6//6 8//8 5//5
f 6//6 7//7 8//8
f 9//9 12//12 10//10
f 10//10 12//12 11//11
f 9//9 14//14 13//13
f 9//9 10//10 14//14
f 9//9 13//13 12//12
f 12//12 13//13 16//16
f 12//12 16//16 15//15
f 12//12 15//15 11//11
f 10//10 15//15 14//14
f 10//10 11//11 15//15
f 14//14 16//16 13//13
f 14//14 15//15 16//16
f 17//17 20//20 18//18
f 18//18 20//20 19//19
f 17//17 22//22 21//21
f 17//17 18//18 22//22
f 17//17 21//21 20//20
f 20//20 24//24 23//23
f 20//20 23//23 19//19
f 18//18 23//23 22//22
f 22//22 24//24 21//21
f 22//22 23//23 24//24
f 20//20 27//27 25//25
f 20//20 25//25 28//28
f 20//20 24//24 27//27
f 27//27 24//24 29//29
f 27//27 29//29 69//69
f 27//27 69//69 26//26
f 25//25 69//69 28//28
f 25//25 26//26 69//69
f 28//28 29//29 24//24
f 28//28 69//69 29//29
f 19//19 32//32 31//31
f 30//30 23//23 33//33
f 30//30 33//33 32//32
f 32//32 33//33 70//70
f 32//32 70//70 34//34
f 32//32 34//34 31//31
f 19//19 34//34 23//23
f 19//19 31//31 34//34
f 23//23 70//70 33//33
f 23//23 34//34 70//70
f 25//25 26//26 30//30
f 30//30 26//26 32//32
f 25//25 36//36 35//35
f 25//25 30//30 36//36
f 26//26 35//35 38//38
f 26//26 37//37 32//32
f 30//30 37//37 36//36
f 36//36 38//38 35//35
f 36//36 37//37 38//38
f 39//39 42//42 40//40
f 40//40 42//42 41//41
f 39//39 44//44 43//43
f 39//39 40//40 44//44
f 39//39 43//43 42//42
f 42//42 43//43 46//46
f 42//42 46//46 45//45
f 42//42 45//45 41//41
f 40//40 45//45 44//44
f 40//40 41//41 45//45
f 44//44 46//46 43//43
f 44//44 45//45 46//46
f 47//47 50//50 48//48
f 48//48 50//50 49//49
f 47//47 52//52 51//51
f 47//47 48//48 52//52
f 47//47 51//51 50//50
f 50//50 51//51 54//54
f 50//50 54//54 53//53
f 50//50 53//53 49//49
f 48//48 53//53 52//52
f 48//48 49//49 53//53
f 52//52 54//54 51//51
f 52//52 53//53 54//54
f 55//55 58//58 56//56
f 56//56 58//58 57//57
f 55//55 60//60 59//59
f 55//55 56//56 60//60
f 55//55 59//59 58//58
f 58//58 59//59 62//62
f 58//58 62//62 61//61
f 58//58 61//61 57//57
f 56//56 61//61 60//60
f 56//56 57//57 61//61
f 60//60 62//62 59//59
f 60//60 61//61 62//62
f 63//63 38//38 64//64
f 63//63 66//66 65//65
f 63//63 64//64 66//66
f 63//63 65//65 38//38
f 38//38 65//65 68//68
f 38//38 68//68 67//67
f 38//38 67//67 37//37
f 64//64 67//67 66//66
f 64//64 37//37 67//67
f 66//66 68//68 65//65
f 66//66 67//67 68//68

usemtl material_1
f 30//30 23//23 18//18

usemtl material_2
f 30//30 18//18 19//19
f 19//19 32//32 37//37
f 21//21 24//24 28//28
# 114 faces, 0 coords texture

# End of File
