####
#
# OBJ File Generated by Meshlab
#
####
# Object m860.obj
#
# Vertices: 56
# Faces: 84
#
####
mtllib ./m860.obj.mtl

vn 1.5707963267948972 -1.5707963267948963 1.5707963267948966
v 0.8961740000000000 0.0250000000000000 0.2916880000000000
vn 1.5707963267948966 -1.5707963267948966 -1.5707963267948963
v 0.8961740000000000 0.0250000000000000 0.2642710000000000
vn -1.5707963267948983 -1.5707963267948963 -1.5707963267948966
v 0.7865070000000000 0.0250000000000000 0.2642710000000000
vn -1.5707963267948966 -1.5707963267948966 1.5707963267948963
v 0.7865070000000000 0.0250000000000000 0.2916880000000000
vn 1.5707963267948983 -1.5707963267948970 1.5707963267948966
v 0.2107540000000000 0.0250000000000000 0.2916990000000000
vn 1.5707963267948966 -1.5707963267948966 -1.5707963267948966
v 0.2107540000000000 0.0250000000000000 0.2642820000000000
vn -1.5707963267948983 -1.5707963267948970 -1.5707963267948966
v 0.1010870000000000 0.0250000000000000 0.2642820000000000
vn -1.5707963267948966 -1.5707963267948966 1.5707963267948963
v 0.1010870000000000 0.0250000000000000 0.2916990000000000
vn 1.5705281000105096 -1.5707961394624141 1.5702643940325549
v 0.8961740000000000 0.0250000000000000 0.0524170000000000
vn 1.5713550942828616 -1.5707961522245451 -1.5715268510222429
v 0.8961740000000000 0.0250110000000000 0.0250000000000000
vn -1.5707717543252060 -1.5707983838845185 -1.5707956222370512
v 0.7865070000000000 0.0250000000000000 0.0250000000000000
vn -1.5707963267935487 -1.5707983847127194 1.5707976369060723
v 0.7865070000000000 0.0250000000000000 0.0524170000000000
vn 1.5707963267948974 -1.5707963267948968 1.5707963267948966
v 0.2107540000000000 0.0250000000000000 0.0524170000000000
vn 1.5707963267948966 -1.5707963267948966 -1.5707963267948966
v 0.2107540000000000 0.0250000000000000 0.0250000000000000
vn -1.5707963267948974 -1.5707963267948968 -1.5707963267948966
v 0.1010870000000000 0.0250000000000000 0.0250000000000000
vn -1.5707963267948966 -1.5707963267948966 1.5707963267948966
v 0.1010870000000000 0.0250000000000000 0.0524170000000000
vn 1.5707985606556627 1.5707963267880514 1.5707965099466259
v 0.8961740000000000 0.7882940000000001 0.2916880000000000
vn 1.5707963267948972 1.5707963267948966 -1.5707963267948966
v 0.8961740000000000 0.7882940000000001 0.2642710000000000
vn -1.5708207110491108 1.5707963260241828 -1.5708446842197517
v 0.7865070000000000 0.7882940000000001 0.2642710000000000
vn -1.5707455297470225 1.5707963253521664 1.5707299154951622
v 0.7865070000000000 0.7882950000000000 0.2916880000000000
vn 1.5707842373284391 1.5707963267431180 1.5707873914333093
v 0.2107540000000000 0.7882950000000000 0.2916990000000000
vn 1.5707820034676749 1.5707963267295928 -1.5707872082815801
v 0.2107540000000000 0.7882950000000000 0.2642820000000000
vn -1.5708350343763275 1.5707963257365312 -1.5708538027330587
v 0.1010870000000000 0.7882940000000001 0.2642820000000000
vn -1.5707598530742333 1.5707963257500561 1.5707390340084639
v 0.1010870000000000 0.7882950000000000 0.2916990000000000
vn 1.5707963224190038 1.5708733900717726 1.5709135325898842
v 0.8961720000000000 0.7882940000000001 0.0524170000000000
vn 1.5707963228013635 1.5707274011131360 -1.5706843603185896
v 0.8961740000000000 0.7882940000000001 0.0250000000000000
vn -1.5707963267935487 1.5707942688770740 -1.5707950166837201
v 0.7865060000000000 0.7882940000000001 0.0250000000000000
vn -1.5707963267935523 1.5707942688770737 1.5707950166837208
v 0.7865060000000000 0.7882940000000001 0.0524170000000000
vn 1.5707963267948966 1.5707963267948968 1.5707963267948966
v 0.2107540000000000 0.7882940000000001 0.0524170000000000
vn 1.5707963267948974 1.5707963267948966 -1.5707963267948966
v 0.2107540000000000 0.7882940000000001 0.0250000000000000
vn -1.5707963267948966 1.5707963267948968 -1.5707963267948966
v 0.1010870000000000 0.7882940000000001 0.0250000000000000
vn -1.5707963267948974 1.5707963267948966 1.5707963267948966
v 0.1010870000000000 0.7882940000000001 0.0524170000000000
vn -1.5707963267948966 1.5707963267948972 1.5707963267948937
v 0.0250000000000000 0.1367190000000000 0.2633280000000000
vn 1.5707963267251088 1.5707869004803976 1.5707815199747066
v 0.9750000000000000 0.1367190000000000 0.2633280000000000
vn 1.5707797919921236 1.5707952267714462 -1.5708111335280630
v 0.9749980000000000 0.1367190000000000 0.0511560000000000
vn -1.5708128615278829 1.5708068531328465 -1.5707963267078717
v 0.0250000000000000 0.1367190000000000 0.0511660000000000
vn -1.5707963267948970 -1.5707963267948972 1.5707963267948966
v 0.0250000000000000 0.1082190000000000 0.2633280000000000
vn 1.5707963267251095 -1.5707869004803976 1.5707815199747035
v 0.9750000000000000 0.1082190000000000 0.2633280000000000
vn 1.5707797919921229 -1.5707952267714462 -1.5708111335280619
v 0.9749980000000000 0.1082190000000000 0.0511560000000000
vn -1.5708128615278825 -1.5708068531328465 -1.5707963267078728
v 0.0250000000000000 0.1082190000000000 0.0511660000000000
vn -1.5707963267948966 1.5707963267948972 1.5707963267948957
v 0.0250000000000000 0.4304100000000000 0.2633280000000000
vn 1.5707963267794245 1.5708010119083118 1.5708031008772181
v 0.9749980000000000 0.4304100000000000 0.2633280000000000
vn 1.5707797907426975 1.5708409155483967 -1.5708314144271498
v 0.9749980000000000 0.4304100000000000 0.0511560000000000
vn -1.5708128615278829 1.5708068531328465 -1.5707963267078713
v 0.0250000000000000 0.4304100000000000 0.0511660000000000
vn -1.5707963267948970 -1.5707963267948966 1.5707963267948966
v 0.0250000000000000 0.4019100000000000 0.2633280000000000
vn 1.5707963267774498 -1.5708010399521459 1.5708037302049906
v 0.9749980000000000 0.4019100000000000 0.2633280000000000
vn 1.5707797914797428 -1.5707306573437949 -1.5707606096608211
v 0.9749989999999999 0.4019100000000000 0.0511560000000000
vn -1.5708128615275501 -1.5708068531328432 -1.5707963267078724
v 0.0250000000000000 0.4019100000000000 0.0511660000000000
vn -1.5707965580933665 1.5707963267948148 1.5707963437910046
v 0.0250000000000000 0.7479140000000000 0.2633280000000000
vn 1.5707899601536024 1.5707916136143691 1.5707804673942398
v 0.9749989999999999 0.7479150000000000 0.2633280000000000
vn 1.5707830830236642 1.5707905136009224 -1.5708100979281205
v 0.9749980000000000 0.7479140000000000 0.0511560000000000
vn -1.5708128615278831 1.5708068531328465 -1.5707963267078715
v 0.0250000000000000 0.7479140000000000 0.0511660000000000
vn -1.5707963267948972 -1.5707963267948972 1.5707963267948966
v 0.0250000000000000 0.7194150000000000 0.2633280000000000
vn 1.5707963267774498 -1.5707916136376472 1.5707889233848027
v 0.9749989999999999 0.7194150000000000 0.2633280000000000
vn 1.5707797920444626 -1.5707905136141964 -1.5708037301179665
v 0.9749980000000000 0.7194150000000000 0.0511560000000000
vn -1.5708128615278825 -1.5708068531328465 -1.5707963267078724
v 0.0250000000000000 0.7194150000000000 0.0511660000000000
# 56 vertices, 0 vertices normals


usemtl material_0
vt -1.0000000000000000 -1.0000000000000000
f 1/1/1 4/1/4 3/1/3
f 1/1/1 3/1/3 2/1/2
f 5/1/5 8/1/8 7/1/7
f 5/1/5 7/1/7 6/1/6
f 9/1/9 12/1/12 11/1/11
f 9/1/9 11/1/11 10/1/10
f 13/1/13 16/1/16 15/1/15
f 13/1/13 15/1/15 14/1/14
f 1/1/1 2/1/2 18/1/18
f 1/1/1 18/1/18 17/1/17
f 2/1/2 3/1/3 19/1/19
f 2/1/2 19/1/19 18/1/18
f 3/1/3 4/1/4 20/1/20
f 3/1/3 20/1/20 19/1/19
f 4/1/4 1/1/1 17/1/17
f 4/1/4 17/1/17 20/1/20
f 5/1/5 6/1/6 22/1/22
f 5/1/5 22/1/22 21/1/21
f 6/1/6 7/1/7 23/1/23
f 6/1/6 23/1/23 22/1/22
f 7/1/7 8/1/8 24/1/24
f 7/1/7 24/1/24 23/1/23
f 8/1/8 5/1/5 21/1/21
f 8/1/8 21/1/21 24/1/24
f 9/1/9 10/1/10 26/1/26
f 9/1/9 26/1/26 25/1/25
f 10/1/10 11/1/11 27/1/27
f 10/1/10 27/1/27 26/1/26
f 11/1/11 12/1/12 28/1/28
f 11/1/11 28/1/28 27/1/27
f 12/1/12 9/1/9 25/1/25
f 12/1/12 25/1/25 28/1/28
f 13/1/13 14/1/14 30/1/30
f 13/1/13 30/1/30 29/1/29
f 14/1/14 15/1/15 31/1/31
f 14/1/14 31/1/31 30/1/30
f 15/1/15 16/1/16 32/1/32
f 15/1/15 32/1/32 31/1/31
f 16/1/16 13/1/13 29/1/29
f 16/1/16 29/1/29 32/1/32
f 19/1/19 20/1/20 17/1/17
f 18/1/18 19/1/19 17/1/17
f 23/1/23 24/1/24 21/1/21
f 22/1/22 23/1/23 21/1/21
f 27/1/27 28/1/28 25/1/25
f 26/1/26 27/1/27 25/1/25
f 31/1/31 32/1/32 29/1/29
f 30/1/30 31/1/31 29/1/29
f 33/1/33 34/1/34 35/1/35
f 33/1/33 35/1/35 36/1/36
f 33/1/33 37/1/37 38/1/38
f 33/1/33 38/1/38 34/1/34
f 34/1/34 38/1/38 39/1/39
f 34/1/34 39/1/39 35/1/35
f 35/1/35 39/1/39 40/1/40
f 35/1/35 40/1/40 36/1/36
f 36/1/36 40/1/40 37/1/37
f 36/1/36 37/1/37 33/1/33
f 37/1/37 40/1/40 39/1/39
f 37/1/37 39/1/39 38/1/38
f 41/1/41 42/1/42 43/1/43
f 41/1/41 43/1/43 44/1/44
f 41/1/41 45/1/45 46/1/46
f 41/1/41 46/1/46 42/1/42
f 42/1/42 46/1/46 47/1/47
f 42/1/42 47/1/47 43/1/43
f 43/1/43 47/1/47 48/1/48
f 43/1/43 48/1/48 44/1/44
f 44/1/44 48/1/48 45/1/45
f 44/1/44 45/1/45 41/1/41
f 45/1/45 48/1/48 47/1/47
f 45/1/45 47/1/47 46/1/46
f 49/1/49 50/1/50 51/1/51
f 49/1/49 51/1/51 52/1/52
f 49/1/49 53/1/53 54/1/54
f 49/1/49 54/1/54 50/1/50
f 50/1/50 54/1/54 55/1/55
f 50/1/50 55/1/55 51/1/51
f 51/1/51 55/1/55 56/1/56
f 51/1/51 56/1/56 52/1/52
f 52/1/52 56/1/56 53/1/53
f 52/1/52 53/1/53 49/1/49
f 53/1/53 56/1/56 55/1/55
f 53/1/53 55/1/55 54/1/54
# 84 faces, 1 coords texture

# End of File
