####
#
# OBJ File Generated by Meshlab
#
####
# Object m868.obj
#
# Vertices: 112
# Faces: 176
#
####
mtllib ./m868.obj.mtl

vn -0.4082482904638631 -0.8164965809277261 -0.4082482904638631
v 0.0250000000000000 0.0250000000000000 0.1545450000000000
vn 0.6666666666666666 -0.3333333333333333 -0.6666666666666666
v 0.0422730000000000 0.0250000000000000 0.1545450000000000
vn 0.5773502691896258 0.5773502691896258 -0.5773502691896258
v 0.0422730000000000 0.9750000000000000 0.1545450000000000
vn -0.6666666666666666 0.3333333333333333 -0.6666666666666666
v 0.0250000000000000 0.9750000000000000 0.1545450000000000
vn -0.8164965809277261 -0.4082482904638631 0.4082482904638631
v 0.0250000000000000 0.0250000000000000 0.1977270000000000
vn 0.3333333333333333 -0.6666666666666666 0.6666666666666666
v 0.0422730000000000 0.0250000000000000 0.1977270000000000
vn 0.7844645405527362 0.5883484054145521 0.1961161351381840
v 0.0422730000000000 0.9750000000000000 0.1977270000000000
vn -0.5345224838248488 0.2672612419124244 0.8017837257372732
v 0.0250000000000000 0.9750000000000000 0.1977270000000000
vn -0.4082482904638631 -0.8164965809277261 -0.4082482904638631
v 0.3704550000000000 0.0250000000000000 0.1545450000000000
vn 0.6666666666666666 -0.3333333333333333 -0.6666666666666666
v 0.3877270000000000 0.0250000000000000 0.1545450000000000
vn 0.5773502691896258 0.5773502691896258 -0.5773502691896258
v 0.3877270000000000 0.9750000000000000 0.1545450000000000
vn -0.6666666666666666 0.3333333333333333 -0.6666666666666666
v 0.3704550000000000 0.9750000000000000 0.1545450000000000
vn -0.8164965809277261 -0.4082482904638631 0.4082482904638631
v 0.3704550000000000 0.0250000000000000 0.1977270000000000
vn 0.3333333333333333 -0.6666666666666666 0.6666666666666666
v 0.3877270000000000 0.0250000000000000 0.1977270000000000
vn 0.7844645405527362 0.5883484054145521 0.1961161351381840
v 0.3877270000000000 0.9750000000000000 0.1977270000000000
vn -0.5345224838248488 0.2672612419124244 0.8017837257372732
v 0.3704550000000000 0.9750000000000000 0.1977270000000000
vn -0.4082482904638631 -0.8164965809277261 -0.4082482904638631
v 0.0250000000000000 0.0250000000000000 0.0250000000000000
vn 0.6666666666666666 -0.3333333333333333 -0.6666666666666666
v 0.0422730000000000 0.0250000000000000 0.0250000000000000
vn 0.5773502691896258 0.5773502691896258 -0.5773502691896258
v 0.0422730000000000 0.9750000000000000 0.0250000000000000
vn -0.5533818050931982 0.5767178411332633 -0.6009701402818458
v 0.0250000000000000 0.9750000000000000 0.0250000000000000
vn -0.8164965809277261 -0.4082482904638631 0.4082482904638631
v 0.0250000000000000 0.0250000000000000 0.0681820000000000
vn 0.3333333333333333 -0.6666666666666666 0.6666666666666666
v 0.0422730000000000 0.0250000000000000 0.0681820000000000
vn 0.8092950340037096 0.5210407349760712 0.2712159664041369
v 0.0422730000000000 0.9750000000000000 0.0681820000000000
vn -0.4082482904638631 0.4082482904638631 0.8164965809277261
v 0.0250000000000000 0.9750000000000000 0.0681820000000000
vn -0.4082482904638631 -0.8164965809277261 -0.4082482904638631
v 0.3704550000000000 0.0250000000000000 0.0250000000000000
vn 0.6666666666666666 -0.3333333333333333 -0.6666666666666666
v 0.3877270000000000 0.0250000000000000 0.0250000000000000
vn 0.5773502691896258 0.5773502691896258 -0.5773502691896258
v 0.3877270000000000 0.9750000000000000 0.0250000000000000
vn -0.5533822526534513 0.5767181688117198 -0.6009694137064286
v 0.3704550000000000 0.9750000000000000 0.0250000000000000
vn -0.8164965809277261 -0.4082482904638631 0.4082482904638631
v 0.3704550000000000 0.0250000000000000 0.0681820000000000
vn 0.3333333333333333 -0.6666666666666666 0.6666666666666666
v 0.3877270000000000 0.0250000000000000 0.0681820000000000
vn 0.8092967520573323 0.5210346833565902 0.2712224656051754
v 0.3877270000000000 0.9750000000000000 0.0681820000000000
vn -0.4082482904638631 0.4082482904638631 0.8164965809277261
v 0.3704550000000000 0.9750000000000000 0.0681820000000000
vn -0.4082482904638631 -0.8164965809277261 -0.4082482904638631
v 0.3704550000000000 0.9059090000000000 0.0250000000000000
vn 0.7723395009817274 -0.3138529074825612 -0.5522572296385435
v 0.3877270000000000 0.9059090000000000 0.0250000000000000
vn -0.8164965809277261 -0.4082482904638631 0.4082482904638631
v 0.3704550000000000 0.9059090000000000 0.1977270000000000
vn 0.4082482904638631 -0.8164965809277261 0.4082482904638631
v 0.3877270000000000 0.9059090000000000 0.1977270000000000
vn -0.4082482904638631 -0.8164965809277261 -0.4082482904638631
v 0.0250000000000000 0.9059090000000000 0.0250000000000000
vn 0.7723360305722540 -0.3138487251617644 -0.5522644598326326
v 0.0422730000000000 0.9059090000000000 0.0250000000000000
vn -0.8164965809277261 -0.4082482904638631 0.4082482904638631
v 0.0250000000000000 0.9059090000000000 0.1977270000000000
vn 0.4082482904638631 -0.8164965809277261 0.4082482904638631
v 0.0422730000000000 0.9059090000000000 0.1977270000000000
vn -0.4082482904638631 -0.8164965809277261 -0.4082482904638631
v 0.3704550000000000 0.5086360000000000 0.0250000000000000
vn 0.6666666666666666 -0.3333333333333333 -0.6666666666666666
v 0.3877270000000000 0.5086360000000000 0.0250000000000000
vn 0.5773502691896258 0.5773502691896258 -0.5773502691896258
v 0.3877270000000000 0.5777270000000000 0.0250000000000000
vn -0.5773502691896258 0.5773502691896258 -0.5773502691896258
v 0.3704550000000000 0.5777270000000000 0.0250000000000000
vn -0.8164965809277261 -0.4082482904638631 0.4082482904638631
v 0.3704550000000000 0.5086360000000000 0.1977270000000000
vn 0.3333333333333333 -0.6666666666666666 0.6666666666666666
v 0.3877270000000000 0.5086360000000000 0.1977270000000000
vn 0.6666666666666666 0.6666666666666666 0.3333333333333333
v 0.3877270000000000 0.5777270000000000 0.1977270000000000
vn -0.4082482904638631 0.4082482904638631 0.8164965809277261
v 0.3704550000000000 0.5777270000000000 0.1977270000000000
vn -0.4082482904638631 -0.8164965809277261 -0.4082482904638631
v 0.3704550000000000 0.0768180000000000 0.0250000000000000
vn 0.6666666666666666 -0.3333333333333333 -0.6666666666666666
v 0.3877270000000000 0.0768180000000000 0.0250000000000000
vn 0.5773502691896258 0.5773502691896258 -0.5773502691896258
v 0.3877270000000000 0.1459090000000000 0.0250000000000000
vn -0.5773502691896258 0.5773502691896258 -0.5773502691896258
v 0.3704550000000000 0.1459090000000000 0.0250000000000000
vn -0.8164965809277261 -0.4082482904638631 0.4082482904638631
v 0.3704550000000000 0.0768180000000000 0.1977270000000000
vn 0.3333333333333333 -0.6666666666666666 0.6666666666666666
v 0.3877270000000000 0.0768180000000000 0.1977270000000000
vn 0.6666666666666666 0.6666666666666666 0.3333333333333333
v 0.3877270000000000 0.1459090000000000 0.1977270000000000
vn -0.4082482904638631 0.4082482904638631 0.8164965809277261
v 0.3704550000000000 0.1459090000000000 0.1977270000000000
vn -0.4082482904638631 -0.8164965809277261 -0.4082482904638631
v 0.0250000000000000 0.5086360000000000 0.0250000000000000
vn 0.6666666666666666 -0.3333333333333333 -0.6666666666666666
v 0.0422730000000000 0.5086360000000000 0.0250000000000000
vn 0.5773502691896258 0.5773502691896258 -0.5773502691896258
v 0.0422730000000000 0.5777270000000000 0.0250000000000000
vn -0.5773502691896258 0.5773502691896258 -0.5773502691896258
v 0.0250000000000000 0.5777270000000000 0.0250000000000000
vn -0.8164965809277261 -0.4082482904638631 0.4082482904638631
v 0.0250000000000000 0.5086360000000000 0.1977270000000000
vn 0.3333333333333333 -0.6666666666666666 0.6666666666666666
v 0.0422730000000000 0.5086360000000000 0.1977270000000000
vn 0.6666666666666666 0.6666666666666666 0.3333333333333333
v 0.0422730000000000 0.5777270000000000 0.1977270000000000
vn -0.4082482904638631 0.4082482904638631 0.8164965809277261
v 0.0250000000000000 0.5777270000000000 0.1977270000000000
vn -0.4082482904638631 -0.8164965809277261 -0.4082482904638631
v 0.0250000000000000 0.0768180000000000 0.0250000000000000
vn 0.6666666666666666 -0.3333333333333333 -0.6666666666666666
v 0.0422730000000000 0.0768180000000000 0.0250000000000000
vn 0.5773502691896258 0.5773502691896258 -0.5773502691896258
v 0.0422730000000000 0.1459090000000000 0.0250000000000000
vn -0.5773502691896258 0.5773502691896258 -0.5773502691896258
v 0.0250000000000000 0.1459090000000000 0.0250000000000000
vn -0.8164965809277261 -0.4082482904638631 0.4082482904638631
v 0.0250000000000000 0.0768180000000000 0.1977270000000000
vn 0.3333333333333333 -0.6666666666666666 0.6666666666666666
v 0.0422730000000000 0.0768180000000000 0.1977270000000000
vn 0.6666666666666666 0.6666666666666666 0.3333333333333333
v 0.0422730000000000 0.1459090000000000 0.1977270000000000
vn -0.4082482904638631 0.4082482904638631 0.8164965809277261
v 0.0250000000000000 0.1459090000000000 0.1977270000000000
vn -0.4082482904638631 -0.8164965809277261 -0.4082482904638631
v 0.0336360000000000 0.8368180000000000 0.0250000000000000
vn 0.6666666666666666 -0.3333333333333333 -0.6666666666666666
v 0.3790910000000000 0.8368180000000000 0.0250000000000000
vn 0.5773502691896258 0.5773502691896258 -0.5773502691896258
v 0.3790910000000000 0.8540910000000000 0.0250000000000000
vn -0.5773502691896258 0.5773502691896258 -0.5773502691896258
v 0.0336360000000000 0.8540910000000000 0.0250000000000000
vn -0.8164965809277261 -0.4082482904638631 0.4082482904638631
v 0.0336360000000000 0.8368180000000000 0.1977270000000000
vn 0.3333333333333333 -0.6666666666666666 0.6666666666666666
v 0.3790910000000000 0.8368180000000000 0.1977270000000000
vn 0.6666666666666666 0.6666666666666666 0.3333333333333333
v 0.3790910000000000 0.8540910000000000 0.1977270000000000
vn -0.4082482904638631 0.4082482904638631 0.8164965809277261
v 0.0336360000000000 0.8540910000000000 0.1977270000000000
vn -0.4082482904638631 -0.8164965809277261 -0.4082482904638631
v 0.0336360000000000 0.6640910000000000 0.0250000000000000
vn 0.6666666666666666 -0.3333333333333333 -0.6666666666666666
v 0.3790910000000000 0.6640910000000000 0.0250000000000000
vn 0.5773502691896258 0.5773502691896258 -0.5773502691896258
v 0.3790910000000000 0.6813640000000000 0.0250000000000000
vn -0.5773502691896258 0.5773502691896258 -0.5773502691896258
v 0.0336360000000000 0.6813640000000000 0.0250000000000000
vn -0.8164965809277261 -0.4082482904638631 0.4082482904638631
v 0.0336360000000000 0.6640910000000000 0.1977270000000000
vn 0.3333333333333333 -0.6666666666666666 0.6666666666666666
v 0.3790910000000000 0.6640910000000000 0.1977270000000000
vn 0.6666666666666666 0.6666666666666666 0.3333333333333333
v 0.3790910000000000 0.6813640000000000 0.1977270000000000
vn -0.4082482904638631 0.4082482904638631 0.8164965809277261
v 0.0336360000000000 0.6813640000000000 0.1977270000000000
vn -0.4082482904638631 -0.8164965809277261 -0.4082482904638631
v 0.0336360000000000 0.4913640000000000 0.0250000000000000
vn 0.6666666666666666 -0.3333333333333333 -0.6666666666666666
v 0.3790910000000000 0.4913640000000000 0.0250000000000000
vn 0.5773502691896258 0.5773502691896258 -0.5773502691896258
v 0.3790910000000000 0.5086360000000000 0.0250000000000000
vn -0.5773502691896258 0.5773502691896258 -0.5773502691896258
v 0.0336360000000000 0.5086360000000000 0.0250000000000000
vn -0.8164965809277261 -0.4082482904638631 0.4082482904638631
v 0.0336360000000000 0.4913640000000000 0.1977270000000000
vn 0.3333333333333333 -0.6666666666666666 0.6666666666666666
v 0.3790910000000000 0.4913640000000000 0.1977270000000000
vn 0.6666666666666666 0.6666666666666666 0.3333333333333333
v 0.3790910000000000 0.5086360000000000 0.1977270000000000
vn -0.4082482904638631 0.4082482904638631 0.8164965809277261
v 0.0336360000000000 0.5086360000000000 0.1977270000000000
vn -0.4082482904638631 -0.8164965809277261 -0.4082482904638631
v 0.0336360000000000 0.3186360000000000 0.0250000000000000
vn 0.6666666666666666 -0.3333333333333333 -0.6666666666666666
v 0.3790910000000000 0.3186360000000000 0.0250000000000000
vn 0.5773502691896258 0.5773502691896258 -0.5773502691896258
v 0.3790910000000000 0.3359090000000000 0.0250000000000000
vn -0.5773502691896258 0.5773502691896258 -0.5773502691896258
v 0.0336360000000000 0.3359090000000000 0.0250000000000000
vn -0.8164965809277261 -0.4082482904638631 0.4082482904638631
v 0.0336360000000000 0.3186360000000000 0.1977270000000000
vn 0.3333333333333333 -0.6666666666666666 0.6666666666666666
v 0.3790910000000000 0.3186360000000000 0.1977270000000000
vn 0.6666666666666666 0.6666666666666666 0.3333333333333333
v 0.3790910000000000 0.3359090000000000 0.1977270000000000
vn -0.4082482904638631 0.4082482904638631 0.8164965809277261
v 0.0336360000000000 0.3359090000000000 0.1977270000000000
vn -0.4082482904638631 -0.8164965809277261 -0.4082482904638631
v 0.0336360000000000 0.1459090000000000 0.0250000000000000
vn 0.6666666666666666 -0.3333333333333333 -0.6666666666666666
v 0.3790910000000000 0.1459090000000000 0.0250000000000000
vn 0.5773502691896258 0.5773502691896258 -0.5773502691896258
v 0.3790910000000000 0.1631820000000000 0.0250000000000000
vn -0.5773502691896258 0.5773502691896258 -0.5773502691896258
v 0.0336360000000000 0.1631820000000000 0.0250000000000000
vn -0.8164965809277261 -0.4082482904638631 0.4082482904638631
v 0.0336360000000000 0.1459090000000000 0.1977270000000000
vn 0.3333333333333333 -0.6666666666666666 0.6666666666666666
v 0.3790910000000000 0.1459090000000000 0.1977270000000000
vn 0.6666666666666666 0.6666666666666666 0.3333333333333333
v 0.3790910000000000 0.1631820000000000 0.1977270000000000
vn -0.4082482904638631 0.4082482904638631 0.8164965809277261
v 0.0336360000000000 0.1631820000000000 0.1977270000000000
# 112 vertices, 0 vertices normals


usemtl material_0
f 1//1 4//4 2//2
f 2//2 4//4 3//3
f 1//1 6//6 5//5
f 1//1 2//2 6//6
f 1//1 5//5 4//4
f 4//4 5//5 8//8
f 4//4 7//7 3//3
f 2//2 7//7 6//6
f 2//2 3//3 7//7
f 6//6 8//8 5//5
f 6//6 7//7 8//8
f 9//9 12//12 10//10
f 10//10 12//12 11//11
f 9//9 14//14 13//13
f 9//9 10//10 14//14
f 9//9 13//13 12//12
f 12//12 13//13 16//16
f 12//12 15//15 11//11
f 10//10 15//15 14//14
f 10//10 11//11 15//15
f 14//14 16//16 13//13
f 14//14 15//15 16//16
f 17//17 20//20 18//18
f 18//18 20//20 19//19
f 17//17 22//22 21//21
f 17//17 18//18 22//22
f 17//17 21//21 20//20
f 20//20 21//21 24//24
f 20//20 24//24 23//23
f 18//18 23//23 22//22
f 18//18 19//19 23//23
f 22//22 24//24 21//21
f 22//22 23//23 24//24
f 25//25 28//28 26//26
f 26//26 28//28 27//27
f 25//25 30//30 29//29
f 25//25 26//26 30//30
f 25//25 29//29 28//28
f 28//28 29//29 32//32
f 28//28 32//32 31//31
f 26//26 31//31 30//30
f 26//26 27//27 31//31
f 30//30 32//32 29//29
f 30//30 31//31 32//32
f 33//33 28//28 34//34
f 33//33 36//36 35//35
f 33//33 34//34 36//36
f 33//33 35//35 28//28
f 28//28 35//35 16//16
f 28//28 16//16 15//15
f 28//28 15//15 27//27
f 34//34 15//15 36//36
f 34//34 27//27 15//15
f 36//36 16//16 35//35
f 37//37 20//20 38//38
f 37//37 40//40 39//39
f 37//37 38//38 40//40
f 37//37 39//39 20//20
f 20//20 39//39 8//8
f 20//20 8//8 7//7
f 20//20 7//7 19//19
f 38//38 7//7 40//40
f 38//38 19//19 7//7
f 40//40 8//8 39//39
f 41//41 44//44 42//42
f 42//42 44//44 43//43
f 41//41 46//46 45//45
f 41//41 42//42 46//46
f 41//41 45//45 44//44
f 44//44 45//45 48//48
f 44//44 48//48 47//47
f 44//44 47//47 43//43
f 42//42 47//47 46//46
f 42//42 43//43 47//47
f 46//46 48//48 45//45
f 46//46 47//47 48//48
f 49//49 52//52 50//50
f 50//50 52//52 51//51
f 49//49 54//54 53//53
f 49//49 50//50 54//54
f 49//49 53//53 52//52
f 52//52 53//53 56//56
f 52//52 56//56 55//55
f 52//52 55//55 51//51
f 50//50 55//55 54//54
f 50//50 51//51 55//55
f 54//54 56//56 53//53
f 54//54 55//55 56//56
f 57//57 60//60 58//58
f 58//58 60//60 59//59
f 57//57 62//62 61//61
f 57//57 58//58 62//62
f 57//57 61//61 60//60
f 60//60 61//61 64//64
f 60//60 64//64 63//63
f 60//60 63//63 59//59
f 58//58 63//63 62//62
f 58//58 59//59 63//63
f 62//62 64//64 61//61
f 62//62 63//63 64//64
f 65//65 68//68 66//66
f 66//66 68//68 67//67
f 65//65 70//70 69//69
f 65//65 66//66 70//70
f 65//65 69//69 68//68
f 68//68 69//69 72//72
f 68//68 72//72 71//71
f 68//68 71//71 67//67
f 66//66 71//71 70//70
f 66//66 67//67 71//71
f 70//70 72//72 69//69
f 70//70 71//71 72//72
f 73//73 76//76 74//74
f 74//74 76//76 75//75
f 73//73 78//78 77//77
f 73//73 74//74 78//78
f 73//73 77//77 76//76
f 76//76 77//77 80//80
f 76//76 80//80 79//79
f 76//76 79//79 75//75
f 74//74 79//79 78//78
f 74//74 75//75 79//79
f 78//78 80//80 77//77
f 78//78 79//79 80//80
f 81//81 84//84 82//82
f 82//82 84//84 83//83
f 81//81 86//86 85//85
f 81//81 82//82 86//86
f 81//81 85//85 84//84
f 84//84 85//85 88//88
f 84//84 88//88 87//87
f 84//84 87//87 83//83
f 82//82 87//87 86//86
f 82//82 83//83 87//87
f 86//86 88//88 85//85
f 86//86 87//87 88//88
f 89//89 92//92 90//90
f 90//90 92//92 91//91
f 89//89 94//94 93//93
f 89//89 90//90 94//94
f 89//89 93//93 92//92
f 92//92 93//93 96//96
f 92//92 96//96 95//95
f 92//92 95//95 91//91
f 90//90 95//95 94//94
f 90//90 91//91 95//95
f 94//94 96//96 93//93
f 94//94 95//95 96//96
f 97//97 100//100 98//98
f 98//98 100//100 99//99
f 97//97 102//102 101//101
f 97//97 98//98 102//102
f 97//97 101//101 100//100
f 100//100 101//101 104//104
f 100//100 104//104 103//103
f 100//100 103//103 99//99
f 98//98 103//103 102//102
f 98//98 99//99 103//103
f 102//102 104//104 101//101
f 102//102 103//103 104//104
f 105//105 108//108 106//106
f 106//106 108//108 107//107
f 105//105 110//110 109//109
f 105//105 106//106 110//110
f 105//105 109//109 108//108
f 108//108 109//109 112//112
f 108//108 112//112 111//111
f 108//108 111//111 107//107
f 106//106 111//111 110//110
f 106//106 107//107 111//111
f 110//110 112//112 109//109
f 110//110 111//111 112//112
f 38//38 20//20 23//23
f 23//23 19//19 38//38
f 34//34 28//28 31//31
f 31//31 27//27 34//34
# 176 faces, 0 coords texture

# End of File
