####
#
# OBJ File Generated by Meshlab
#
####
# Object m868.obj
#
# Vertices: 112
# Faces: 176
#
####
mtllib ./m868.obj.mtl

vn -1.5707963267948966 -1.5707963267948966 -1.5707963267948966
v 0.0250000000000000 0.0250000000000000 0.1545450000000000
vn 1.5707963267948972 -1.5707963267948966 -1.5707963267948972
v 0.0422730000000000 0.0250000000000000 0.1545450000000000
vn 1.5707963267948966 1.5707963267948966 -1.5707963267948966
v 0.0422730000000000 0.9750000000000000 0.1545450000000000
vn -1.5707963267948972 1.1902859569652482 -1.5707963267948972
v 0.0250000000000000 0.9750000000000000 0.1545450000000000
vn -1.5707963267948972 -1.5707963267948966 1.5707963267948966
v 0.0250000000000000 0.0250000000000000 0.1977270000000000
vn 1.5707963267948966 -1.5707963267948966 1.5707963267948972
v 0.0422730000000000 0.0250000000000000 0.1977270000000000
vn 3.1415926535897944 1.9513066966245447 1.5707963267948966
v 0.0422730000000000 0.9750000000000000 0.1977270000000000
vn -3.1415926535897931 1.5707963267948966 1.8157783954871358
v 0.0250000000000000 0.9750000000000000 0.1977270000000000
vn -1.5707963267948966 -1.5707963267948966 -1.5707963267948966
v 0.3704550000000000 0.0250000000000000 0.1545450000000000
vn 1.5707963267948972 -1.5707963267948966 -1.5707963267948979
v 0.3877270000000000 0.0250000000000000 0.1545450000000000
vn 1.5707963267948966 1.5707963267948966 -1.5707963267948966
v 0.3877270000000000 0.9750000000000000 0.1545450000000000
vn -1.5707963267948972 1.1903059206792004 -1.5707963267948979
v 0.3704550000000000 0.9750000000000000 0.1545450000000000
vn -1.5707963267948972 -1.5707963267948966 1.5707963267948966
v 0.3704550000000000 0.0250000000000000 0.1977270000000000
vn 1.5707963267948966 -1.5707963267948966 1.5707963267948979
v 0.3877270000000000 0.0250000000000000 0.1977270000000000
vn 3.1415926535897944 1.9512867329105936 1.5707963267948966
v 0.3877270000000000 0.9750000000000000 0.1977270000000000
vn -3.1415926535897931 1.5707963267948966 1.8157647731908440
v 0.3704550000000000 0.9750000000000000 0.1977270000000000
vn -1.5707963267948966 -1.5707963267948968 -1.5707963267948966
v 0.0250000000000000 0.0250000000000000 0.0250000000000000
vn 1.5707963267948972 -1.5707963267948966 -1.5707963267948972
v 0.0422730000000000 0.0250000000000000 0.0250000000000000
vn 1.5707963267948966 1.5707963267948966 -1.5707963267948966
v 0.0422730000000000 0.9750000000000000 0.0250000000000000
vn -1.8024979386092508 2.2860852207718132 -2.3514224835761297
v 0.0250000000000000 0.9750000000000000 0.0250000000000000
vn -1.5707963267948972 -1.5707963267948966 1.5707963267948966
v 0.0250000000000000 0.0250000000000000 0.0681820000000000
vn 1.5707963267948966 -1.5707963267948968 1.5707963267948972
v 0.0422730000000000 0.0250000000000000 0.0681820000000000
vn 1.5139539249491796 1.4291277409819900 1.1886505785780304
v 0.0422730000000000 0.9750000000000000 0.0681820000000000
vn -1.5707963267948966 1.5707963267948966 1.5707963267948972
v 0.0250000000000000 0.9750000000000000 0.0681820000000000
vn -1.5707963267948966 -1.5707963267948966 -1.5707963267948966
v 0.3704550000000000 0.0250000000000000 0.0250000000000000
vn 1.5707963267948972 -1.5707963267948966 -1.5707963267948979
v 0.3877270000000000 0.0250000000000000 0.0250000000000000
vn 1.5707963267948966 1.5707963267948966 -1.5707963267948966
v 0.3877270000000000 0.9750000000000000 0.0250000000000000
vn -1.8024752888726618 2.2860515376376105 -2.3513869102709775
v 0.3704550000000000 0.9750000000000000 0.0250000000000000
vn -1.5707963267948972 -1.5707963267948966 1.5707963267948966
v 0.3704550000000000 0.0250000000000000 0.0681820000000000
vn 1.5707963267948966 -1.5707963267948966 1.5707963267948979
v 0.3877270000000000 0.0250000000000000 0.0681820000000000
vn 1.5139599089490938 1.4291353731670591 1.1886703089671293
v 0.3877270000000000 0.9750000000000000 0.0681820000000000
vn -1.5707963267948966 1.5707963267948966 1.5707963267948979
v 0.3704550000000000 0.9750000000000000 0.0681820000000000
vn -1.5707963267948966 -1.5707963267948974 -1.5707963267948966
v 0.3704550000000000 0.9059090000000000 0.0250000000000000
vn 1.5590971964027713 -1.4340768920581393 -1.5445783427535729
v 0.3877270000000000 0.9059090000000000 0.0250000000000000
vn -1.5707963267948970 -1.5707963267948966 1.5707963267948966
v 0.3704550000000000 0.9059090000000000 0.1977270000000000
vn 1.5707963267948966 -1.5707963267948974 1.3258278803989505
v 0.3877270000000000 0.9059090000000000 0.1977270000000000
vn -1.5707963267948966 -1.5707963267948963 -1.5707963267948966
v 0.0250000000000000 0.9059090000000000 0.0250000000000000
vn 1.5590958908883059 -1.4340693027724929 -1.5445768632791641
v 0.0422730000000000 0.9059090000000000 0.0250000000000000
vn -1.5707963267948970 -1.5707963267948966 1.5707963267948966
v 0.0250000000000000 0.9059090000000000 0.1977270000000000
vn 1.5707963267948966 -1.5707963267948963 1.3258142581026577
v 0.0422730000000000 0.9059090000000000 0.1977270000000000
vn -1.5707963267948966 -1.5707963267948974 -1.5707963267948966
v 0.3704550000000000 0.5086360000000000 0.0250000000000000
vn 1.5707963267948970 -1.5707963267948966 -1.5707963267948966
v 0.3877270000000000 0.5086360000000000 0.0250000000000000
vn 1.5707963267948966 1.5707963267948966 -1.5707963267948966
v 0.3877270000000000 0.5777270000000000 0.0250000000000000
vn -1.5707963267948970 1.5707963267948974 -1.5707963267948966
v 0.3704550000000000 0.5777270000000000 0.0250000000000000
vn -1.5707963267948970 -1.5707963267948966 1.5707963267948966
v 0.3704550000000000 0.5086360000000000 0.1977270000000000
vn 1.5707963267948966 -1.5707963267948974 1.5707963267948966
v 0.3877270000000000 0.5086360000000000 0.1977270000000000
vn 1.5707963267948970 1.5707963267948974 1.5707963267948966
v 0.3877270000000000 0.5777270000000000 0.1977270000000000
vn -1.5707963267948966 1.5707963267948966 1.5707963267948966
v 0.3704550000000000 0.5777270000000000 0.1977270000000000
vn -1.5707963267948966 -1.5707963267948974 -1.5707963267948966
v 0.3704550000000000 0.0768180000000000 0.0250000000000000
vn 1.5707963267948970 -1.5707963267948966 -1.5707963267948966
v 0.3877270000000000 0.0768180000000000 0.0250000000000000
vn 1.5707963267948966 1.5707963267948966 -1.5707963267948966
v 0.3877270000000000 0.1459090000000000 0.0250000000000000
vn -1.5707963267948970 1.5707963267948974 -1.5707963267948966
v 0.3704550000000000 0.1459090000000000 0.0250000000000000
vn -1.5707963267948970 -1.5707963267948966 1.5707963267948966
v 0.3704550000000000 0.0768180000000000 0.1977270000000000
vn 1.5707963267948966 -1.5707963267948974 1.5707963267948966
v 0.3877270000000000 0.0768180000000000 0.1977270000000000
vn 1.5707963267948970 1.5707963267948974 1.5707963267948966
v 0.3877270000000000 0.1459090000000000 0.1977270000000000
vn -1.5707963267948966 1.5707963267948966 1.5707963267948966
v 0.3704550000000000 0.1459090000000000 0.1977270000000000
vn -1.5707963267948966 -1.5707963267948963 -1.5707963267948966
v 0.0250000000000000 0.5086360000000000 0.0250000000000000
vn 1.5707963267948970 -1.5707963267948966 -1.5707963267948963
v 0.0422730000000000 0.5086360000000000 0.0250000000000000
vn 1.5707963267948966 1.5707963267948966 -1.5707963267948966
v 0.0422730000000000 0.5777270000000000 0.0250000000000000
vn -1.5707963267948970 1.5707963267948963 -1.5707963267948963
v 0.0250000000000000 0.5777270000000000 0.0250000000000000
vn -1.5707963267948970 -1.5707963267948966 1.5707963267948966
v 0.0250000000000000 0.5086360000000000 0.1977270000000000
vn 1.5707963267948966 -1.5707963267948963 1.5707963267948963
v 0.0422730000000000 0.5086360000000000 0.1977270000000000
vn 1.5707963267948970 1.5707963267948963 1.5707963267948966
v 0.0422730000000000 0.5777270000000000 0.1977270000000000
vn -1.5707963267948966 1.5707963267948966 1.5707963267948963
v 0.0250000000000000 0.5777270000000000 0.1977270000000000
vn -1.5707963267948966 -1.5707963267948963 -1.5707963267948966
v 0.0250000000000000 0.0768180000000000 0.0250000000000000
vn 1.5707963267948970 -1.5707963267948966 -1.5707963267948963
v 0.0422730000000000 0.0768180000000000 0.0250000000000000
vn 1.5707963267948966 1.5707963267948966 -1.5707963267948966
v 0.0422730000000000 0.1459090000000000 0.0250000000000000
vn -1.5707963267948970 1.5707963267948963 -1.5707963267948963
v 0.0250000000000000 0.1459090000000000 0.0250000000000000
vn -1.5707963267948970 -1.5707963267948966 1.5707963267948966
v 0.0250000000000000 0.0768180000000000 0.1977270000000000
vn 1.5707963267948966 -1.5707963267948963 1.5707963267948963
v 0.0422730000000000 0.0768180000000000 0.1977270000000000
vn 1.5707963267948970 1.5707963267948963 1.5707963267948966
v 0.0422730000000000 0.1459090000000000 0.1977270000000000
vn -1.5707963267948966 1.5707963267948966 1.5707963267948963
v 0.0250000000000000 0.1459090000000000 0.1977270000000000
vn -1.5707963267948966 -1.5707963267948966 -1.5707963267948966
v 0.0336360000000000 0.8368180000000000 0.0250000000000000
vn 1.5707963267948981 -1.5707963267948966 -1.5707963267948983
v 0.3790910000000000 0.8368180000000000 0.0250000000000000
vn 1.5707963267948966 1.5707963267948966 -1.5707963267948966
v 0.3790910000000000 0.8540910000000000 0.0250000000000000
vn -1.5707963267948981 1.5707963267948966 -1.5707963267948983
v 0.0336360000000000 0.8540910000000000 0.0250000000000000
vn -1.5707963267948981 -1.5707963267948966 1.5707963267948966
v 0.0336360000000000 0.8368180000000000 0.1977270000000000
vn 1.5707963267948966 -1.5707963267948966 1.5707963267948983
v 0.3790910000000000 0.8368180000000000 0.1977270000000000
vn 1.5707963267948981 1.5707963267948966 1.5707963267948966
v 0.3790910000000000 0.8540910000000000 0.1977270000000000
vn -1.5707963267948966 1.5707963267948966 1.5707963267948983
v 0.0336360000000000 0.8540910000000000 0.1977270000000000
vn -1.5707963267948966 -1.5707963267948966 -1.5707963267948966
v 0.0336360000000000 0.6640910000000000 0.0250000000000000
vn 1.5707963267948963 -1.5707963267948966 -1.5707963267948963
v 0.3790910000000000 0.6640910000000000 0.0250000000000000
vn 1.5707963267948966 1.5707963267948966 -1.5707963267948966
v 0.3790910000000000 0.6813640000000000 0.0250000000000000
vn -1.5707963267948963 1.5707963267948966 -1.5707963267948963
v 0.0336360000000000 0.6813640000000000 0.0250000000000000
vn -1.5707963267948963 -1.5707963267948966 1.5707963267948966
v 0.0336360000000000 0.6640910000000000 0.1977270000000000
vn 1.5707963267948966 -1.5707963267948966 1.5707963267948963
v 0.3790910000000000 0.6640910000000000 0.1977270000000000
vn 1.5707963267948963 1.5707963267948966 1.5707963267948966
v 0.3790910000000000 0.6813640000000000 0.1977270000000000
vn -1.5707963267948966 1.5707963267948966 1.5707963267948963
v 0.0336360000000000 0.6813640000000000 0.1977270000000000
vn -1.5707963267948966 -1.5707963267948966 -1.5707963267948966
v 0.0336360000000000 0.4913640000000000 0.0250000000000000
vn 1.5707963267948966 -1.5707963267948966 -1.5707963267948959
v 0.3790910000000000 0.4913640000000000 0.0250000000000000
vn 1.5707963267948966 1.5707963267948966 -1.5707963267948966
v 0.3790910000000000 0.5086360000000000 0.0250000000000000
vn -1.5707963267948966 1.5707963267948966 -1.5707963267948959
v 0.0336360000000000 0.5086360000000000 0.0250000000000000
vn -1.5707963267948966 -1.5707963267948966 1.5707963267948966
v 0.0336360000000000 0.4913640000000000 0.1977270000000000
vn 1.5707963267948966 -1.5707963267948966 1.5707963267948959
v 0.3790910000000000 0.4913640000000000 0.1977270000000000
vn 1.5707963267948966 1.5707963267948966 1.5707963267948966
v 0.3790910000000000 0.5086360000000000 0.1977270000000000
vn -1.5707963267948966 1.5707963267948966 1.5707963267948959
v 0.0336360000000000 0.5086360000000000 0.1977270000000000
vn -1.5707963267948966 -1.5707963267948966 -1.5707963267948966
v 0.0336360000000000 0.3186360000000000 0.0250000000000000
vn 1.5707963267948961 -1.5707963267948966 -1.5707963267948963
v 0.3790910000000000 0.3186360000000000 0.0250000000000000
vn 1.5707963267948966 1.5707963267948966 -1.5707963267948966
v 0.3790910000000000 0.3359090000000000 0.0250000000000000
vn -1.5707963267948961 1.5707963267948966 -1.5707963267948963
v 0.0336360000000000 0.3359090000000000 0.0250000000000000
vn -1.5707963267948961 -1.5707963267948966 1.5707963267948966
v 0.0336360000000000 0.3186360000000000 0.1977270000000000
vn 1.5707963267948966 -1.5707963267948966 1.5707963267948963
v 0.3790910000000000 0.3186360000000000 0.1977270000000000
vn 1.5707963267948961 1.5707963267948966 1.5707963267948966
v 0.3790910000000000 0.3359090000000000 0.1977270000000000
vn -1.5707963267948966 1.5707963267948966 1.5707963267948963
v 0.0336360000000000 0.3359090000000000 0.1977270000000000
vn -1.5707963267948966 -1.5707963267948966 -1.5707963267948966
v 0.0336360000000000 0.1459090000000000 0.0250000000000000
vn 1.5707963267948963 -1.5707963267948966 -1.5707963267948963
v 0.3790910000000000 0.1459090000000000 0.0250000000000000
vn 1.5707963267948966 1.5707963267948966 -1.5707963267948966
v 0.3790910000000000 0.1631820000000000 0.0250000000000000
vn -1.5707963267948963 1.5707963267948966 -1.5707963267948963
v 0.0336360000000000 0.1631820000000000 0.0250000000000000
vn -1.5707963267948963 -1.5707963267948966 1.5707963267948966
v 0.0336360000000000 0.1459090000000000 0.1977270000000000
vn 1.5707963267948966 -1.5707963267948966 1.5707963267948963
v 0.3790910000000000 0.1459090000000000 0.1977270000000000
vn 1.5707963267948963 1.5707963267948966 1.5707963267948966
v 0.3790910000000000 0.1631820000000000 0.1977270000000000
vn -1.5707963267948966 1.5707963267948966 1.5707963267948963
v 0.0336360000000000 0.1631820000000000 0.1977270000000000
# 112 vertices, 0 vertices normals


usemtl material_0
vt -1.0000000000000000 -1.0000000000000000
f 1/1/1 4/1/4 2/1/2
f 2/1/2 4/1/4 3/1/3
f 1/1/1 6/1/6 5/1/5
f 1/1/1 2/1/2 6/1/6
f 1/1/1 5/1/5 4/1/4
f 4/1/4 5/1/5 8/1/8
f 4/1/4 7/1/7 3/1/3
f 2/1/2 7/1/7 6/1/6
f 2/1/2 3/1/3 7/1/7
f 6/1/6 8/1/8 5/1/5
f 6/1/6 7/1/7 8/1/8
f 9/1/9 12/1/12 10/1/10
f 10/1/10 12/1/12 11/1/11
f 9/1/9 14/1/14 13/1/13
f 9/1/9 10/1/10 14/1/14
f 9/1/9 13/1/13 12/1/12
f 12/1/12 13/1/13 16/1/16
f 12/1/12 15/1/15 11/1/11
f 10/1/10 15/1/15 14/1/14
f 10/1/10 11/1/11 15/1/15
f 14/1/14 16/1/16 13/1/13
f 14/1/14 15/1/15 16/1/16
f 17/1/17 20/1/20 18/1/18
f 18/1/18 20/1/20 19/1/19
f 17/1/17 22/1/22 21/1/21
f 17/1/17 18/1/18 22/1/22
f 17/1/17 21/1/21 20/1/20
f 20/1/20 21/1/21 24/1/24
f 20/1/20 24/1/24 23/1/23
f 18/1/18 23/1/23 22/1/22
f 18/1/18 19/1/19 23/1/23
f 22/1/22 24/1/24 21/1/21
f 22/1/22 23/1/23 24/1/24
f 25/1/25 28/1/28 26/1/26
f 26/1/26 28/1/28 27/1/27
f 25/1/25 30/1/30 29/1/29
f 25/1/25 26/1/26 30/1/30
f 25/1/25 29/1/29 28/1/28
f 28/1/28 29/1/29 32/1/32
f 28/1/28 32/1/32 31/1/31
f 26/1/26 31/1/31 30/1/30
f 26/1/26 27/1/27 31/1/31
f 30/1/30 32/1/32 29/1/29
f 30/1/30 31/1/31 32/1/32
f 33/1/33 28/1/28 34/1/34
f 33/1/33 36/1/36 35/1/35
f 33/1/33 34/1/34 36/1/36
f 33/1/33 35/1/35 28/1/28
f 28/1/28 35/1/35 16/1/16
f 28/1/28 16/1/16 15/1/15
f 28/1/28 15/1/15 27/1/27
f 34/1/34 15/1/15 36/1/36
f 34/1/34 27/1/27 15/1/15
f 36/1/36 16/1/16 35/1/35
f 37/1/37 20/1/20 38/1/38
f 37/1/37 40/1/40 39/1/39
f 37/1/37 38/1/38 40/1/40
f 37/1/37 39/1/39 20/1/20
f 20/1/20 39/1/39 8/1/8
f 20/1/20 8/1/8 7/1/7
f 20/1/20 7/1/7 19/1/19
f 38/1/38 7/1/7 40/1/40
f 38/1/38 19/1/19 7/1/7
f 40/1/40 8/1/8 39/1/39
f 41/1/41 44/1/44 42/1/42
f 42/1/42 44/1/44 43/1/43
f 41/1/41 46/1/46 45/1/45
f 41/1/41 42/1/42 46/1/46
f 41/1/41 45/1/45 44/1/44
f 44/1/44 45/1/45 48/1/48
f 44/1/44 48/1/48 47/1/47
f 44/1/44 47/1/47 43/1/43
f 42/1/42 47/1/47 46/1/46
f 42/1/42 43/1/43 47/1/47
f 46/1/46 48/1/48 45/1/45
f 46/1/46 47/1/47 48/1/48
f 49/1/49 52/1/52 50/1/50
f 50/1/50 52/1/52 51/1/51
f 49/1/49 54/1/54 53/1/53
f 49/1/49 50/1/50 54/1/54
f 49/1/49 53/1/53 52/1/52
f 52/1/52 53/1/53 56/1/56
f 52/1/52 56/1/56 55/1/55
f 52/1/52 55/1/55 51/1/51
f 50/1/50 55/1/55 54/1/54
f 50/1/50 51/1/51 55/1/55
f 54/1/54 56/1/56 53/1/53
f 54/1/54 55/1/55 56/1/56
f 57/1/57 60/1/60 58/1/58
f 58/1/58 60/1/60 59/1/59
f 57/1/57 62/1/62 61/1/61
f 57/1/57 58/1/58 62/1/62
f 57/1/57 61/1/61 60/1/60
f 60/1/60 61/1/61 64/1/64
f 60/1/60 64/1/64 63/1/63
f 60/1/60 63/1/63 59/1/59
f 58/1/58 63/1/63 62/1/62
f 58/1/58 59/1/59 63/1/63
f 62/1/62 64/1/64 61/1/61
f 62/1/62 63/1/63 64/1/64
f 65/1/65 68/1/68 66/1/66
f 66/1/66 68/1/68 67/1/67
f 65/1/65 70/1/70 69/1/69
f 65/1/65 66/1/66 70/1/70
f 65/1/65 69/1/69 68/1/68
f 68/1/68 69/1/69 72/1/72
f 68/1/68 72/1/72 71/1/71
f 68/1/68 71/1/71 67/1/67
f 66/1/66 71/1/71 70/1/70
f 66/1/66 67/1/67 71/1/71
f 70/1/70 72/1/72 69/1/69
f 70/1/70 71/1/71 72/1/72
f 73/1/73 76/1/76 74/1/74
f 74/1/74 76/1/76 75/1/75
f 73/1/73 78/1/78 77/1/77
f 73/1/73 74/1/74 78/1/78
f 73/1/73 77/1/77 76/1/76
f 76/1/76 77/1/77 80/1/80
f 76/1/76 80/1/80 79/1/79
f 76/1/76 79/1/79 75/1/75
f 74/1/74 79/1/79 78/1/78
f 74/1/74 75/1/75 79/1/79
f 78/1/78 80/1/80 77/1/77
f 78/1/78 79/1/79 80/1/80
f 81/1/81 84/1/84 82/1/82
f 82/1/82 84/1/84 83/1/83
f 81/1/81 86/1/86 85/1/85
f 81/1/81 82/1/82 86/1/86
f 81/1/81 85/1/85 84/1/84
f 84/1/84 85/1/85 88/1/88
f 84/1/84 88/1/88 87/1/87
f 84/1/84 87/1/87 83/1/83
f 82/1/82 87/1/87 86/1/86
f 82/1/82 83/1/83 87/1/87
f 86/1/86 88/1/88 85/1/85
f 86/1/86 87/1/87 88/1/88
f 89/1/89 92/1/92 90/1/90
f 90/1/90 92/1/92 91/1/91
f 89/1/89 94/1/94 93/1/93
f 89/1/89 90/1/90 94/1/94
f 89/1/89 93/1/93 92/1/92
f 92/1/92 93/1/93 96/1/96
f 92/1/92 96/1/96 95/1/95
f 92/1/92 95/1/95 91/1/91
f 90/1/90 95/1/95 94/1/94
f 90/1/90 91/1/91 95/1/95
f 94/1/94 96/1/96 93/1/93
f 94/1/94 95/1/95 96/1/96
f 97/1/97 100/1/100 98/1/98
f 98/1/98 100/1/100 99/1/99
f 97/1/97 102/1/102 101/1/101
f 97/1/97 98/1/98 102/1/102
f 97/1/97 101/1/101 100/1/100
f 100/1/100 101/1/101 104/1/104
f 100/1/100 104/1/104 103/1/103
f 100/1/100 103/1/103 99/1/99
f 98/1/98 103/1/103 102/1/102
f 98/1/98 99/1/99 103/1/103
f 102/1/102 104/1/104 101/1/101
f 102/1/102 103/1/103 104/1/104
f 105/1/105 108/1/108 106/1/106
f 106/1/106 108/1/108 107/1/107
f 105/1/105 110/1/110 109/1/109
f 105/1/105 106/1/106 110/1/110
f 105/1/105 109/1/109 108/1/108
f 108/1/108 109/1/109 112/1/112
f 108/1/108 112/1/112 111/1/111
f 108/1/108 111/1/111 107/1/107
f 106/1/106 111/1/111 110/1/110
f 106/1/106 107/1/107 111/1/111
f 110/1/110 112/1/112 109/1/109
f 110/1/110 111/1/111 112/1/112
f 38/1/38 20/1/20 23/1/23
f 23/1/23 19/1/19 38/1/38
f 34/1/34 28/1/28 31/1/31
f 31/1/31 27/1/27 34/1/34
# 176 faces, 1 coords texture

# End of File
