####
#
# OBJ File Generated by Meshlab
#
####
# Object m820.obj
#
# Vertices: 118
# Faces: 208
#
####
mtllib ./m820.obj.mtl

vn -1.5707963267948966 1.5707963267948970 1.5707963267948966
v 0.5285000000000000 0.3670000000000000 0.0677500000000000
vn -1.5707963267948972 -1.5707963267948970 1.5707963267948963
v 0.5285000000000000 0.4240000000000000 0.0677500000000000
vn -0.0000000000000000 -2.9753101898129106 -3.1307408330681836
v 0.2910000000000000 0.7090000000000000 0.0250000000000000
vn 0.4508181279044985 -3.0193384962884680 -3.1031492638620479
v 0.4050000000000000 0.7090000000000000 0.0345000000000000
vn 1.8911669199882204 -1.7761917159846641 -1.5377788473279563
v 0.5190000000000000 0.7090000000000000 0.0582500000000000
vn 1.2504257336015723 -1.3654009376051315 1.5377788473279561
v 0.5190000000000000 0.7090000000000000 0.0772500000000000
vn -0.4508181279044985 3.0193384962884675 3.1031492638620479
v 0.4050000000000000 0.7090000000000000 0.0535000000000000
vn 0.0000000000000001 -3.3078751173666778 3.1307408330681841
v 0.2910000000000000 0.7090000000000000 0.0440000000000000
vn 0.0000000000000000 3.3078751173666756 3.1307408330681836
v 0.2910000000000000 0.9560000000000000 0.0440000000000000
vn -0.4508181279044985 3.2638468108911205 3.1031492638620475
v 0.4050000000000000 0.9560000000000000 0.0535000000000000
vn 1.2504257336015721 1.3654009376051301 1.5377788473279563
v 0.5190000000000000 0.9560000000000000 0.0772500000000000
vn 1.8911669199882208 1.7761917159846619 -1.5377788473279561
v 0.5190000000000000 0.9560000000000000 0.0582500000000000
vn 0.4508181279044985 3.0193384962884675 -3.1031492638620484
v 0.4050000000000000 0.9560000000000000 0.0345000000000000
vn -0.0000000000000001 2.9753101898129133 -3.1307408330681841
v 0.2910000000000000 0.9560000000000000 0.0250000000000000
vn 0.0000000000000000 2.2214414690791839 -5.3630341226689753
v 0.2910000000000000 0.4620000000000000 0.0915000000000000
vn 2.2463071856509362 1.3510217177120811 -2.2463071856509349
v 0.5570000000000001 0.4620000000000000 0.0915000000000000
vn 1.5707963267948972 -1.5707963267948966 -1.5707963267948970
v 0.5570000000000001 0.4240000000000000 0.0915000000000000
vn 1.5707963267948966 -1.5707963267948966 1.5707963267948966
v 0.5570000000000001 0.4240000000000000 0.5665000000000000
vn 0.0000000000000000 -3.1415926535897931 3.1415926535897931
v 0.2910000000000000 0.4240000000000000 0.5665000000000000
vn 0.0000000000000000 -3.1415926535897931 -3.1415926535897931
v 0.2910000000000000 0.4240000000000000 0.0915000000000000
vn 0.0000000000000000 3.1415926535897936 -3.1415926535897931
v 0.2910000000000000 0.3670000000000000 0.5380000000000000
vn 0.0000000000000000 -3.1415926535897936 -3.1415926535897936
v 0.2910000000000000 0.4240000000000000 0.5380000000000000
vn -1.5707963267948966 -1.5707963267948966 -1.5707963267948966
v 0.5285000000000000 0.4240000000000000 0.5380000000000000
vn -1.5707963267948972 1.5707963267948966 -1.5707963267948968
v 0.5285000000000000 0.3670000000000000 0.5380000000000000
vn 0.0000000000000000 2.2214414690791831 5.3630341226689762
v 0.2910000000000000 0.4620000000000000 0.5665000000000000
vn 2.2463071856509367 1.3510217177120809 2.2463071856509358
v 0.5570000000000001 0.4620000000000000 0.5665000000000000
vn 0.0000000000000000 5.3202893737358563 2.7379161198552957
v 0.2910000000000000 0.4905000000000000 0.5380000000000000
vn 0.0000000000000000 6.2404405582464655 0.5164746507761121
v 0.2910000000000000 0.5000000000000000 0.4810000000000000
vn 1.6840746561978854 4.6533571681299435 1.6910598965247987
v 0.5285000000000000 0.4905000000000000 0.5380000000000000
vn 0.4779729634257973 6.1887333307706278 0.3713453644744578
v 0.4810000000000000 0.5000000000000000 0.4810000000000000
vn 1.6840746561978852 4.6533571681299426 -1.6910598965247980
v 0.5285000000000000 0.4905000000000000 0.1200000000000000
vn 0.0000000000000000 5.3202893737358581 -2.7379161198552948
v 0.2910000000000000 0.4905000000000000 0.1200000000000000
vn 0.0000000000000000 6.2404405582464655 -0.5164746507761127
v 0.2910000000000000 0.5000000000000000 0.1770000000000000
vn 0.4779729634257971 6.1887333307706269 -0.3713453644744584
v 0.4810000000000000 0.5000000000000000 0.1770000000000000
vn -2.0523312327289656 2.3561637341721369 -2.0523312327289611
v 0.5117060000000000 0.4240000000000000 0.5212059999999999
vn -2.9024716397852872 2.3562252462125546 0.0000000000000034
v 0.5047500000000000 0.4240000000000000 0.5380000000000000
vn -2.0523312327289642 2.3561637341721391 2.0523312327289642
v 0.5117060000000000 0.4240000000000000 0.5547940000000000
vn -0.0000000000000000 2.3562252462125510 2.9024716397852859
v 0.5285000000000000 0.4240000000000000 0.5617500000000000
vn 2.0523312327289602 2.3561637341721449 2.0523312327289722
v 0.5452939999999999 0.4240000000000000 0.5547940000000000
vn 2.9024716397852797 2.3562252462125421 0.0000000000000034
v 0.5522500000000000 0.4240000000000000 0.5380000000000000
vn 0.0000000000000000 2.3562252462125510 -2.9024716397852859
v 0.5285000000000000 0.4240000000000000 0.5142500000000000
vn 2.0523312327289625 2.3561637341721422 -2.0523312327289696
v 0.5452939999999999 0.4240000000000000 0.5212059999999999
vn -2.0523312327289687 2.3561637341721409 2.0523312327289642
v 0.5117060000000000 0.9750000000000000 0.0845440000000000
vn 0.0000000000000007 2.3562252462125466 2.9024716397852850
v 0.5285000000000000 0.9750000000000000 0.0915000000000000
vn 2.0523312327289660 2.3561637341721466 2.0523312327289718
v 0.5452939999999999 0.9750000000000000 0.0845440000000000
vn 2.9024716397852814 2.3562252462125404 -0.0000000000000004
v 0.5522500000000000 0.9750000000000000 0.0677500000000000
vn 2.0523312327289651 2.3561637341721462 -2.0523312327289722
v 0.5452939999999999 0.9750000000000000 0.0509560000000000
vn -0.0000000000000007 2.3562252462125470 -2.9024716397852850
v 0.5285000000000000 0.9750000000000000 0.0440000000000000
vn -2.0523312327289696 2.3561637341721404 -2.0523312327289633
v 0.5117060000000000 0.9750000000000000 0.0509560000000000
vn -2.9024716397852881 2.3562252462125519 0.0000000000000011
v 0.5047500000000000 0.9750000000000000 0.0677500000000000
vn -2.0523312327289687 -2.3561637341721404 -2.0523312327289638
v 0.5117060000000000 0.0250000000000000 0.0509560000000000
vn 0.0000000000000007 -2.3562252462125470 -2.9024716397852850
v 0.5285000000000000 0.0250000000000000 0.0440000000000000
vn 2.0523312327289660 -2.3561637341721462 -2.0523312327289718
v 0.5452939999999999 0.0250000000000000 0.0509560000000000
vn 2.9024716397852810 -2.3562252462125404 0.0000000000000011
v 0.5522500000000000 0.0250000000000000 0.0677500000000000
vn 2.0523312327289651 -2.3561637341721466 2.0523312327289727
v 0.5452939999999999 0.0250000000000000 0.0845440000000000
vn -0.0000000000000007 -2.3562252462125466 2.9024716397852850
v 0.5285000000000000 0.0250000000000000 0.0915000000000000
vn -2.0523312327289696 -2.3561637341721409 2.0523312327289638
v 0.5117060000000000 0.0250000000000000 0.0845440000000000
vn -2.9024716397852881 -2.3562252462125519 -0.0000000000000004
v 0.5047500000000000 0.0250000000000000 0.0677500000000000
vn -2.0523312327289656 -2.3561637341721369 -2.0523312327289607
v 0.5117060000000000 0.0250000000000000 0.5212059999999999
vn 0.0000000000000000 -2.3562252462125510 -2.9024716397852854
v 0.5285000000000000 0.0250000000000000 0.5142500000000000
vn 2.0523312327289620 -2.3561637341721422 -2.0523312327289691
v 0.5452939999999999 0.0250000000000000 0.5212059999999999
vn 2.9024716397852801 -2.3562252462125421 0.0000000000000031
v 0.5522500000000000 0.0250000000000000 0.5380000000000000
vn 2.0523312327289611 -2.3561637341721449 2.0523312327289722
v 0.5452939999999999 0.0250000000000000 0.5547940000000000
vn 0.0000000000000000 -2.3562252462125510 2.9024716397852854
v 0.5285000000000000 0.0250000000000000 0.5617500000000000
vn -2.0523312327289642 -2.3561637341721391 2.0523312327289647
v 0.5117060000000000 0.0250000000000000 0.5547940000000000
vn -2.9024716397852868 -2.3562252462125550 0.0000000000000036
v 0.5047500000000000 0.0250000000000000 0.5380000000000000
vn -2.0523312327289638 2.3561637341721386 -2.0523312327289642
v 0.0367060000000000 0.4240000000000000 0.5212059999999999
vn -2.0523312327289633 -2.3561637341721382 -2.0523312327289642
v 0.0367060000000000 0.0250000000000000 0.5212059999999999
vn -2.9024716397852841 2.3562252462125484 0.0000000000000034
v 0.0297500000000000 0.4240000000000000 0.5380000000000000
vn -2.9024716397852846 -2.3562252462125488 0.0000000000000033
v 0.0297500000000000 0.0250000000000000 0.5380000000000000
vn -2.0523312327289620 2.3561637341721409 2.0523312327289678
v 0.0367060000000000 0.4240000000000000 0.5547940000000000
vn -2.0523312327289625 -2.3561637341721409 2.0523312327289678
v 0.0367060000000000 0.0250000000000000 0.5547940000000000
vn 0.0000000000000000 2.3562252462125519 2.9024716397852863
v 0.0535000000000000 0.4240000000000000 0.5617500000000000
vn -0.0000000000000000 -2.3562252462125519 2.9024716397852863
v 0.0535000000000000 0.0250000000000000 0.5617500000000000
vn 2.0523312327289625 2.3561637341721409 2.0523312327289673
v 0.0702940000000000 0.4240000000000000 0.5547940000000000
vn 2.0523312327289625 -2.3561637341721409 2.0523312327289678
v 0.0702940000000000 0.0250000000000000 0.5547940000000000
vn 2.9024716397852846 2.3562252462125488 0.0000000000000033
v 0.0772500000000000 0.4240000000000000 0.5380000000000000
vn 2.9024716397852841 -2.3562252462125497 0.0000000000000035
v 0.0772500000000000 0.0250000000000000 0.5380000000000000
vn 2.0523312327289633 2.3561637341721382 -2.0523312327289642
v 0.0702940000000000 0.4240000000000000 0.5212059999999999
vn 2.0523312327289638 -2.3561637341721386 -2.0523312327289642
v 0.0702940000000000 0.0250000000000000 0.5212059999999999
vn 0.0000000000000000 2.3562252462125515 -2.9024716397852863
v 0.0535000000000000 0.4240000000000000 0.5142500000000000
vn 0.0000000000000000 -2.3562252462125515 -2.9024716397852863
v 0.0535000000000000 0.0250000000000000 0.5142500000000000
vn -2.0523312327289664 2.3561637341721422 -2.0523312327289673
v 0.0367060000000000 0.9750000000000000 0.0509560000000000
vn -2.0523312327289673 -2.3561637341721422 -2.0523312327289664
v 0.0367060000000000 0.0250000000000000 0.0509560000000000
vn -2.9024716397852854 2.3562252462125475 -0.0000000000000003
v 0.0297500000000000 0.9750000000000000 0.0677500000000000
vn -2.9024716397852850 -2.3562252462125475 0.0000000000000010
v 0.0297500000000000 0.0250000000000000 0.0677500000000000
vn -2.0523312327289673 2.3561637341721422 2.0523312327289664
v 0.0367060000000000 0.9750000000000000 0.0845440000000000
vn -2.0523312327289664 -2.3561637341721422 2.0523312327289678
v 0.0367060000000000 0.0250000000000000 0.0845440000000000
vn -0.0000000000000007 2.3562252462125475 2.9024716397852854
v 0.0535000000000000 0.9750000000000000 0.0915000000000000
vn 0.0000000000000007 -2.3562252462125475 2.9024716397852850
v 0.0535000000000000 0.0250000000000000 0.0915000000000000
vn 2.0523312327289664 2.3561637341721426 2.0523312327289678
v 0.0702940000000000 0.9750000000000000 0.0845440000000000
vn 2.0523312327289669 -2.3561637341721426 2.0523312327289669
v 0.0702940000000000 0.0250000000000000 0.0845440000000000
vn 2.9024716397852850 2.3562252462125479 0.0000000000000010
v 0.0772500000000000 0.9750000000000000 0.0677500000000000
vn 2.9024716397852850 -2.3562252462125479 -0.0000000000000003
v 0.0772500000000000 0.0250000000000000 0.0677500000000000
vn 2.0523312327289673 2.3561637341721426 -2.0523312327289664
v 0.0702940000000000 0.9750000000000000 0.0509560000000000
vn 2.0523312327289664 -2.3561637341721426 -2.0523312327289673
v 0.0702940000000000 0.0250000000000000 0.0509560000000000
vn 0.0000000000000007 2.3562252462125475 -2.9024716397852854
v 0.0535000000000000 0.9750000000000000 0.0440000000000000
vn -0.0000000000000007 -2.3562252462125475 -2.9024716397852850
v 0.0535000000000000 0.0250000000000000 0.0440000000000000
vn -0.4779729634257970 6.1887333307706278 -0.3713453644744584
v 0.1010000000000000 0.5000000000000000 0.1770000000000000
vn -0.4779729634257971 6.1887333307706278 0.3713453644744579
v 0.1010000000000000 0.5000000000000000 0.4810000000000000
vn -2.2463071856509371 1.3510217177120811 -2.2463071856509362
v 0.0250000000000000 0.4620000000000000 0.0915000000000000
vn -1.6840746561978885 4.6533571681299399 -1.6910598965247965
v 0.0535000000000000 0.4905000000000000 0.1200000000000000
vn -1.6840746561978885 4.6533571681299399 1.6910598965247976
v 0.0535000000000000 0.4905000000000000 0.5380000000000000
vn 1.5707963267948966 -1.5707963267948966 -1.5707963267948966
v 0.0535000000000000 0.4240000000000000 0.5380000000000000
vn 1.5707963267948972 1.5707963267948966 -1.5707963267948968
v 0.0535000000000000 0.3670000000000000 0.5380000000000000
vn 1.5707963267948972 -1.5707963267948970 1.5707963267948966
v 0.0535000000000000 0.4240000000000000 0.0677500000000000
vn 1.5707963267948966 1.5707963267948970 1.5707963267948963
v 0.0535000000000000 0.3670000000000000 0.0677500000000000
vn -1.5707963267948966 -1.5707963267948966 1.5707963267948966
v 0.0250000000000000 0.4240000000000000 0.5665000000000000
vn -2.2463071856509367 1.3510217177120798 2.2463071856509358
v 0.0250000000000000 0.4620000000000000 0.5665000000000000
vn -1.5707963267948972 -1.5707963267948966 -1.5707963267948961
v 0.0250000000000000 0.4240000000000000 0.0915000000000000
vn -0.4508181279044985 -3.0193384962884666 -3.1031492638620484
v 0.1770000000000000 0.7090000000000000 0.0345000000000000
vn -0.4508181279044986 3.0193384962884675 -3.1031492638620479
v 0.1770000000000000 0.9560000000000000 0.0345000000000000
vn -1.8911669199882204 -1.7761917159846641 -1.5377788473279563
v 0.0630000000000000 0.7090000000000000 0.0582500000000000
vn -1.8911669199882208 1.7761917159846619 -1.5377788473279561
v 0.0630000000000000 0.9560000000000000 0.0582500000000000
vn -1.2504257336015723 -1.3654009376051315 1.5377788473279561
v 0.0630000000000000 0.7090000000000000 0.0772500000000000
vn -1.2504257336015721 1.3654009376051244 1.5377788473279563
v 0.0630000000000000 0.9560000000000000 0.0772500000000000
vn 0.4508181279044985 3.0193384962884675 3.1031492638620484
v 0.1770000000000000 0.7090000000000000 0.0535000000000000
vn 0.4508181279044985 3.2638468108911196 3.1031492638620484
v 0.1770000000000000 0.9560000000000000 0.0535000000000000
# 118 vertices, 0 vertices normals


usemtl material_0
vt -1.0000000000000000 -1.0000000000000000
f 20/1/20 17/1/17 18/1/18
f 50/1/50 43/1/43 44/1/44
f 58/1/58 51/1/51 52/1/52
f 66/1/66 59/1/59 60/1/60
f 78/1/78 76/1/76 74/1/74
f 94/1/94 92/1/92 90/1/90
f 93/1/93 95/1/95 97/1/97
f 105/1/105 104/1/104 22/1/22
f 22/1/22 21/1/21 105/1/105
f 20/1/20 19/1/19 108/1/108
f 51/1/51 49/1/49 48/1/48
f 58/1/58 50/1/50 49/1/49
f 57/1/57 43/1/43 50/1/50
f 56/1/56 44/1/44 43/1/43
f 55/1/55 45/1/45 44/1/44
f 54/1/54 46/1/46 45/1/45
f 53/1/53 47/1/47 46/1/46
f 52/1/52 48/1/48 47/1/47
f 59/1/59 35/1/35 41/1/41
f 66/1/66 36/1/36 35/1/35
f 65/1/65 37/1/37 36/1/36
f 64/1/64 38/1/38 37/1/37
f 63/1/63 39/1/39 38/1/38
f 62/1/62 40/1/40 39/1/39
f 61/1/61 42/1/42 40/1/40
f 60/1/60 41/1/41 42/1/42
f 82/1/82 68/1/68 67/1/67
f 68/1/68 70/1/70 69/1/69
f 70/1/70 72/1/72 71/1/71
f 72/1/72 74/1/74 73/1/73
f 74/1/74 76/1/76 75/1/75
f 76/1/76 78/1/78 77/1/77
f 78/1/78 80/1/80 79/1/79
f 80/1/80 82/1/82 81/1/81
f 98/1/98 84/1/84 83/1/83
f 84/1/84 86/1/86 85/1/85
f 86/1/86 88/1/88 87/1/87
f 88/1/88 90/1/90 89/1/89
f 90/1/90 92/1/92 91/1/91
f 92/1/92 94/1/94 93/1/93
f 94/1/94 96/1/96 95/1/95
f 96/1/96 98/1/98 97/1/97
f 10/1/10 9/1/9 8/1/8
f 11/1/11 10/1/10 7/1/7
f 13/1/13 12/1/12 5/1/5
f 14/1/14 13/1/13 4/1/4
f 8/1/8 3/1/3 4/1/4
f 14/1/14 9/1/9 10/1/10
f 15/1/15 16/1/16 17/1/17
f 26/1/26 25/1/25 19/1/19
f 17/1/17 16/1/16 26/1/26
f 29/1/29 27/1/27 25/1/25
f 31/1/31 16/1/16 15/1/15
f 29/1/29 26/1/26 16/1/16
f 27/1/27 29/1/29 30/1/30
f 28/1/28 30/1/30 34/1/34
f 30/1/30 29/1/29 31/1/31
f 34/1/34 31/1/31 32/1/32
f 99/1/99 33/1/33 32/1/32
f 100/1/100 99/1/99 102/1/102
f 28/1/28 33/1/33 99/1/99
f 27/1/27 28/1/28 100/1/100
f 103/1/103 102/1/102 101/1/101
f 102/1/102 32/1/32 15/1/15
f 103/1/103 109/1/109 25/1/25
f 110/1/110 108/1/108 109/1/109
f 109/1/109 108/1/108 19/1/19
f 15/1/15 20/1/20 110/1/110
f 14/1/14 112/1/112 114/1/114
f 8/1/8 117/1/117 115/1/115
f 14/1/14 3/1/3 111/1/111
f 112/1/112 111/1/111 113/1/113
f 116/1/116 115/1/115 117/1/117
f 118/1/118 117/1/117 8/1/8
f 1/1/1 24/1/24 2/1/2
f 2/1/2 24/1/24 23/1/23
f 20/1/20 18/1/18 19/1/19
f 24/1/24 21/1/21 22/1/22
f 24/1/24 22/1/22 23/1/23
f 50/1/50 44/1/44 45/1/45
f 50/1/50 45/1/45 46/1/46
f 50/1/50 46/1/46 47/1/47
f 50/1/50 47/1/47 48/1/48
f 50/1/50 48/1/48 49/1/49
f 58/1/58 52/1/52 53/1/53
f 58/1/58 53/1/53 54/1/54
f 58/1/58 54/1/54 55/1/55
f 58/1/58 55/1/55 56/1/56
f 58/1/58 56/1/56 57/1/57
f 66/1/66 60/1/60 61/1/61
f 66/1/66 61/1/61 62/1/62
f 66/1/66 62/1/62 63/1/63
f 66/1/66 63/1/63 64/1/64
f 66/1/66 64/1/64 65/1/65
f 78/1/78 74/1/74 72/1/72
f 78/1/78 72/1/72 70/1/70
f 78/1/78 70/1/70 68/1/68
f 78/1/78 68/1/68 82/1/82
f 78/1/78 82/1/82 80/1/80
f 94/1/94 90/1/90 88/1/88
f 94/1/94 88/1/88 86/1/86
f 94/1/94 86/1/86 84/1/84
f 94/1/94 84/1/84 98/1/98
f 94/1/94 98/1/98 96/1/96
f 93/1/93 97/1/97 83/1/83
f 93/1/93 83/1/83 85/1/85
f 93/1/93 85/1/85 87/1/87
f 93/1/93 87/1/87 89/1/89
f 93/1/93 89/1/89 91/1/91
f 20/1/20 108/1/108 110/1/110
f 106/1/106 105/1/105 107/1/107
f 106/1/106 104/1/104 105/1/105
f 51/1/51 48/1/48 52/1/52
f 58/1/58 49/1/49 51/1/51
f 57/1/57 50/1/50 58/1/58
f 56/1/56 43/1/43 57/1/57
f 55/1/55 44/1/44 56/1/56
f 54/1/54 45/1/45 55/1/55
f 53/1/53 46/1/46 54/1/54
f 52/1/52 47/1/47 53/1/53
f 59/1/59 41/1/41 60/1/60
f 66/1/66 35/1/35 59/1/59
f 65/1/65 36/1/36 66/1/66
f 64/1/64 37/1/37 65/1/65
f 63/1/63 38/1/38 64/1/64
f 62/1/62 39/1/39 63/1/63
f 61/1/61 40/1/40 62/1/62
f 60/1/60 42/1/42 61/1/61
f 82/1/82 67/1/67 81/1/81
f 68/1/68 69/1/69 67/1/67
f 70/1/70 71/1/71 69/1/69
f 72/1/72 73/1/73 71/1/71
f 74/1/74 75/1/75 73/1/73
f 76/1/76 77/1/77 75/1/75
f 78/1/78 79/1/79 77/1/77
f 80/1/80 81/1/81 79/1/79
f 98/1/98 83/1/83 97/1/97
f 84/1/84 85/1/85 83/1/83
f 86/1/86 87/1/87 85/1/85
f 88/1/88 89/1/89 87/1/87
f 90/1/90 91/1/91 89/1/89
f 92/1/92 93/1/93 91/1/91
f 94/1/94 95/1/95 93/1/93
f 96/1/96 97/1/97 95/1/95
f 10/1/10 8/1/8 7/1/7
f 11/1/11 7/1/7 6/1/6
f 13/1/13 5/1/5 4/1/4
f 14/1/14 4/1/4 3/1/3
f 8/1/8 4/1/4 5/1/5
f 8/1/8 5/1/5 6/1/6
f 8/1/8 6/1/6 7/1/7
f 14/1/14 10/1/10 11/1/11
f 14/1/14 11/1/11 12/1/12
f 14/1/14 12/1/12 13/1/13
f 15/1/15 17/1/17 20/1/20
f 26/1/26 19/1/19 18/1/18
f 17/1/17 26/1/26 18/1/18
f 29/1/29 25/1/25 26/1/26
f 31/1/31 15/1/15 32/1/32
f 29/1/29 16/1/16 31/1/31
f 27/1/27 30/1/30 28/1/28
f 28/1/28 34/1/34 33/1/33
f 30/1/30 31/1/31 34/1/34
f 34/1/34 32/1/32 33/1/33
f 99/1/99 32/1/32 102/1/102
f 100/1/100 102/1/102 103/1/103
f 28/1/28 99/1/99 100/1/100
f 27/1/27 100/1/100 103/1/103
f 103/1/103 101/1/101 109/1/109
f 102/1/102 15/1/15 101/1/101
f 103/1/103 25/1/25 27/1/27
f 110/1/110 109/1/109 101/1/101
f 109/1/109 19/1/19 25/1/25
f 15/1/15 110/1/110 101/1/101
f 14/1/14 114/1/114 116/1/116
f 14/1/14 116/1/116 118/1/118
f 14/1/14 118/1/118 9/1/9
f 8/1/8 115/1/115 113/1/113
f 8/1/8 113/1/113 111/1/111
f 8/1/8 111/1/111 3/1/3
f 14/1/14 111/1/111 112/1/112
f 112/1/112 113/1/113 114/1/114
f 116/1/116 117/1/117 118/1/118
f 118/1/118 8/1/8 9/1/9
f 22/1/22 104/1/104 106/1/106
f 21/1/21 24/1/24 1/1/1
f 107/1/107 105/1/105 21/1/21
f 107/1/107 21/1/21 1/1/1
f 2/1/2 23/1/23 22/1/22
f 2/1/2 22/1/22 106/1/106
f 107/1/107 1/1/1 2/1/2
f 107/1/107 2/1/2 106/1/106
f 41/1/41 35/1/35 36/1/36
f 42/1/42 41/1/41 36/1/36
f 40/1/40 42/1/42 36/1/36
f 39/1/39 40/1/40 36/1/36
f 39/1/39 36/1/36 37/1/37
f 38/1/38 39/1/39 37/1/37
f 5/1/5 12/1/12 11/1/11
f 6/1/6 5/1/5 11/1/11
f 116/1/116 114/1/114 113/1/113
f 116/1/116 113/1/113 115/1/115
f 81/1/81 67/1/67 69/1/69
f 81/1/81 69/1/69 71/1/71
f 81/1/81 71/1/71 73/1/73
f 79/1/79 81/1/81 73/1/73
f 79/1/79 73/1/73 75/1/75
f 75/1/75 77/1/77 79/1/79
# 208 faces, 1 coords texture

# End of File
