####
#
# OBJ File Generated by Meshlab
#
####
# Object m1450.obj
#
# Vertices: 92
# Faces: 124
#
####
mtllib ./m1450.obj.mtl

vn -1.5678451569194811 -1.6651422814054770 1.0598113487149261
v 0.0792600000000000 0.1179010000000000 0.0678750000000000
vn -3.1349666937466631 -3.0638750778970913 -0.1492950733343355
v 0.0607580000000000 0.1179010000000000 0.2633900000000000
vn -1.5738632102468331 -1.5795732555682958 1.5782999819393160
v 0.0607580000000000 0.1179010000000000 0.6903560000000000
vn 1.5675824509653085 -1.5743327488299981 1.5709617916833456
v 0.2028310000000000 0.1176160000000000 0.6903560000000000
vn 3.1274645117662661 -3.0533979542014484 -0.1492378283665424
v 0.2028310000000000 0.1176160000000000 0.2633900000000000
vn 1.5592073260477142 -1.6656782478279142 1.0523509488122260
v 0.1842230000000000 0.1176160000000000 0.0678750000000000
vn -1.5707963267948966 -1.5707963267948966 -1.5707963267948968
v 0.1673220000000000 0.1673580000000000 0.8148879999999999
vn -1.5707963267948966 -1.5707963267948966 1.5707963267948968
v 0.1673220000000000 0.1673580000000000 0.7437270000000000
vn 1.5707963267948966 -1.5707963267948966 1.5707963267948966
v 0.0961610000000000 0.1673580000000000 0.7437270000000000
vn 1.5707963267948966 -1.5707963267948966 -1.5707963267948966
v 0.0961610000000000 0.1673580000000000 0.8148879999999999
vn 1.5707963267948966 0.0000000000000000 1.5707963267948968
v 0.0961610000000000 0.1495670000000000 0.7437270000000000
vn 1.5707963267948966 0.0000000000000000 -1.5707963267948968
v 0.0961610000000000 0.1495670000000000 0.8148879999999999
vn -1.5707963267948966 0.0000000000000000 -1.5707963267948966
v 0.1673220000000000 0.1495670000000000 0.8148879999999999
vn -1.5707963267948966 0.0000000000000000 1.5707963267948966
v 0.1673220000000000 0.1495670000000000 0.7437270000000000
vn 1.3595494205966392 2.3517169167630763 1.6946214928770618
v 0.0792600000000000 0.0598690000000000 0.0678750000000000
vn -1.3595494205966390 2.3517169167630749 0.1243308141521633
v 0.1842230000000000 0.0598690000000000 0.0678750000000000
vn -2.8413251383388625 4.4712606864282689 0.1341353959801505
v 0.2024760000000000 0.0598690000000000 0.2633900000000000
vn -2.8693970365301862 4.3423846607310779 -0.3523017997330943
v 0.2024760000000000 0.0598690000000000 0.6903560000000000
vn 2.8709279641485130 4.3344100009528228 -0.3623656747117358
v 0.0610070000000000 0.0598690000000000 0.6903560000000000
vn 2.8413251383388625 4.4712606864282689 0.1341353959801506
v 0.0610070000000000 0.0598690000000000 0.2633900000000000
vn 1.6033879062336938 -3.0577867973553845 0.1413936910729055
v 0.0250710000000000 0.1496030000000000 0.2633900000000000
vn 4.2411177145065873 -1.6688680760726355 0.2596602217454406
v 0.0250000000000000 0.1317770000000000 0.2633900000000000
vn 5.6151080032674479 -1.5660886899503386 -0.6701674194579316
v 0.0250000000000000 0.1317770000000000 0.6903560000000000
vn 3.0939507932766910 -2.9094088021356921 -0.3797577688690382
v 0.0250710000000000 0.1496030000000000 0.6903560000000000
vn 0.0885414684347754 -1.6613575203440636 1.5778111593510993
v 0.0427550000000000 0.1496030000000000 0.0678750000000000
vn 1.4324699422833969 -0.9341479986059854 3.1651636127800558
v 0.0427550000000000 0.1317770000000000 0.0678750000000000
vn -3.1322656976707366 -3.0573616681619762 0.1416577627336602
v 0.2384480000000000 0.1496030000000000 0.2633900000000000
vn -1.6860754382333420 -2.8994582554165631 -0.0284339371305977
v 0.2384480000000000 0.1496030000000000 0.6903560000000000
vn -4.2554113687483088 -1.5345611532458596 -0.3121849789669530
v 0.2384830000000000 0.1317770000000000 0.6903560000000000
vn -5.8120767776599838 1.3820535608484303 0.2599466251374472
v 0.2384830000000000 0.1317770000000000 0.2633900000000000
vn -0.0885448006050791 -1.6613580252493989 1.5778351914818372
v 0.2207280000000000 0.1496030000000000 0.0678750000000000
vn -1.4324699422833964 -0.8721001837809632 2.5411944374867432
v 0.2207280000000000 0.1317770000000000 0.0678750000000000
vn -1.5723642595743748 -1.5795754919911831 4.7057856486547527
v 0.0605810000000000 0.1495670000000000 0.6903560000000000
vn 1.5723832412915530 -1.5743352240932060 4.7091227332740431
v 0.2029030000000000 0.1495670000000000 0.6903560000000000
vn 1.5217583787243896 -2.9201675049963227 -0.7317783182836297
v 0.0605810000000000 0.1495670000000000 0.8326780000000000
vn 3.9038368782374455 -1.6536180131284184 -1.5813962469446934
v 0.0606160000000000 0.1317420000000000 0.8326780000000000
vn -1.3051611099086351 -0.9270992739953046 -0.7524885094652365
v 0.1317420000000000 0.1495670000000000 0.9750000000000000
vn -1.3044066361308035 -0.2082649822305145 -1.3840806218412280
v 0.1317420000000000 0.1317770000000000 0.9750000000000000
vn -1.6277049445846248 -2.9165017367365662 -0.4321790531442861
v 0.2029030000000000 0.1495670000000000 0.8326780000000000
vn -4.0041575499799764 -1.6662580846437796 -1.2828284018478029
v 0.2028310000000000 0.1318130000000000 0.8326780000000000
vn -2.7385518080128910 4.2394203524658547 -1.0481579204552021
v 0.1682470000000000 0.0598690000000000 0.8326780000000000
vn 0.0159165316651151 2.7749053494289431 -1.8608054476479423
v 0.1317420000000000 0.0598690000000000 0.9038389999999999
vn 2.7412605429480994 4.2240346106252904 -1.0537794628250550
v 0.0952360000000000 0.0598690000000000 0.8326780000000000
vn 1.5651842618281397 -1.4759040081688912 1.4227638404715661
v 0.1842230000000000 0.1495670000000000 0.0678750000000000
vn -1.5652513675869137 -1.4764368438148479 1.4235140410749798
v 0.0792600000000000 0.1495670000000000 0.0678750000000000
vn 3.1375289601066148 -3.2439072230587032 -0.1495379997824481
v 0.2029030000000000 0.1495670000000000 0.2633900000000000
vn -3.1371711606640713 -3.2543564694615603 -0.1494899895867221
v 0.0605810000000000 0.1495670000000000 0.2633900000000000
vn 1.5607192611692962 -0.0312160821030585 1.5607178779788766
v 0.1210670000000000 0.1317770000000000 0.5373599999999999
vn 1.5607192611692857 -0.0312160821030584 -1.5607178779788766
v 0.1210670000000000 0.1317770000000000 0.5587080000000000
vn 1.5807162852798846 -0.0316160726089059 -1.5807177126137115
v 0.1281840000000000 0.8433880000000000 0.5515920000000000
vn 1.5807162852798813 -0.0316160726089059 1.5807177126137115
v 0.1281840000000000 0.8433880000000000 0.5444760000000000
vn -1.5807163076325828 -0.0316138374620781 1.5807163076325785
v 0.1353000000000000 0.8433880000000000 0.5444760000000000
vn -1.5807163076325743 -0.0316138374620780 -1.5807163076325785
v 0.1353000000000000 0.8433880000000000 0.5515920000000000
vn -1.5607192829600205 -0.0312139031508603 -1.5607192829600018
v 0.1424160000000000 0.1317770000000000 0.5587080000000000
vn -1.5607192829600018 -0.0312139031508601 1.5607192829600018
v 0.1424160000000000 0.1317770000000000 0.5373599999999999
vn 0.0000000000000000 0.0000000000000000 0.0000000000000000
v 0.1317060000000000 0.0250710000000000 0.0854860000000000
vn -3.1415926535897931 0.0000000000000000 0.0000000000000000
v 0.1317420000000000 0.1353350000000000 0.0250000000000000
vn -3.8882320482411408 0.0000000000000000 0.0000000000000000
v 0.1317420000000000 0.1325960000000000 0.0395170000000000
vn -2.4533404089777022 0.0000000000000000 0.0000000000000000
v 0.1317420000000000 0.1139870000000000 0.0570220000000000
vn -1.5042107527689141 0.0000000000000000 0.0000000000000000
v 0.1317420000000000 0.0606160000000000 0.0605810000000000
vn -1.5707963267948966 0.0000000000000000 0.0000000000000000
v 0.1317420000000000 0.0606160000000000 0.0250000000000000
vn -1.5707963267948966 0.0000000000000000 3.1415926535897931
v 0.1317420000000000 0.1673580000000000 0.0250000000000000
vn -1.5789947507816227 0.0000000000000000 0.0000000000000000
v 0.1317420000000000 0.1673580000000000 0.0392320000000000
vn -1.5707963267948966 -1.5707963267948977 1.5707963267948966
v 0.1353000000000000 0.1709160000000000 0.0250000000000000
vn 1.5707963267948966 -1.5707963267948966 1.5707963267948959
v 0.1281840000000000 0.1709160000000000 0.0250000000000000
vn 1.5707963267948970 -1.5707963267948977 -1.5707963267948963
v 0.1281840000000000 0.1709160000000000 0.0997190000000000
vn -1.5707963267948970 -1.5707963267948966 -1.5707963267948966
v 0.1353000000000000 0.1709160000000000 0.0997190000000000
vn -1.5707963267948970 1.5707963267948966 1.5707963267948963
v 0.1353000000000000 0.1673580000000000 0.0250000000000000
vn -1.5707963267948966 1.5707963267948977 -1.5707963267948963
v 0.1353000000000000 0.1673580000000000 0.0997190000000000
vn 1.5707963267948970 1.5707963267948977 1.5707963267948966
v 0.1281840000000000 0.1673580000000000 0.0250000000000000
vn 1.5707963267948966 1.5707963267948966 -1.5707963267948966
v 0.1281840000000000 0.1673580000000000 0.0997190000000000
vn -1.9736116061797409 0.0000000000000000 0.0000000000000000
v 0.1317420000000000 0.2425750000000000 0.6681180000000000
vn -3.1939103836476086 0.0000000000000000 0.0000000000000000
v 0.1317420000000000 0.3093950000000000 0.6550600000000000
vn -3.1405237195197837 0.0000000000000000 0.0000000000000000
v 0.1317420000000000 0.3137000000000000 0.8253130000000000
vn -0.5762415993889549 0.0000000000000000 0.0000000000000000
v 0.1317420000000000 0.1808430000000000 0.9579920000000000
vn -3.1123101759599860 0.0000000000000000 0.0000000000000000
v 0.1317420000000000 0.4128630000000000 0.6291570000000000
vn -0.5697731296630987 0.0000000000000000 0.0000000000000000
v 0.1317420000000000 0.5368970000000000 0.6019380000000000
vn 0.0000000000000000 0.0000000000000000 0.0000000000000000
v 0.1317060000000000 0.0250710000000000 0.5480330000000000
vn 1.5808007415672025 -1.5798648750624116 1.6011710466335509
v 0.1281840000000000 0.1990960000000000 0.1523070000000000
vn -1.5808007793599423 -1.5798622784980081 1.6011669154175561
v 0.1353000000000000 0.1990960000000000 0.1523070000000000
vn -1.5801542306871823 1.5798722941847128 1.6001394555487998
v 0.1353000000000000 0.1922640000000000 0.1523070000000000
vn 1.5801541929251610 1.5798748907818534 1.6001435834071620
v 0.1281840000000000 0.1922640000000000 0.1523070000000000
vn -1.5606604636572967 -1.5615710583460394 0.0300021522161025
v 0.1388220000000000 0.2029740000000000 0.5373599999999999
vn -1.5613070123300499 1.5615808434553553 0.0289983461454031
v 0.1388220000000000 0.1886350000000000 0.5373599999999999
vn 1.5613069754634759 1.5615782468582100 0.0290023761207061
v 0.1246610000000000 0.1886350000000000 0.5373599999999999
vn 1.5606604268214270 -1.5615684617816332 0.0300061788337737
v 0.1246610000000000 0.2029740000000000 0.5373599999999999
vn 0.9951581083676463 0.0000000000000000 0.0000000000000000
v 0.1317420000000000 0.2064960000000000 0.1530900000000000
vn 3.1339112880991822 0.0000000000000000 0.0000000000000000
v 0.1317420000000000 0.2385190000000000 0.5302430000000000
vn 3.1416023291990847 0.0000000000000000 0.0000000000000000
v 0.1317420000000000 0.2812150000000000 0.1993450000000000
vn 1.5995037644822094 0.0000000000000000 0.0000000000000000
v 0.1317420000000000 0.2145370000000000 0.5300660000000000
vn 3.1522784136858357 0.0000000000000000 0.0000000000000000
v 0.1317420000000000 0.3559340000000000 0.2455990000000000
vn 0.5439167105252142 0.0000000000000000 0.0000000000000000
v 0.1317420000000000 0.8266289999999999 0.5300660000000000
# 92 vertices, 0 vertices normals


usemtl material_0
vt -1.0000000000000000 -1.0000000000000000
f 2/1/2 1/1/1 3/1/3
f 8/1/8 7/1/7 9/1/9
f 9/1/9 10/1/10 11/1/11
f 10/1/10 7/1/7 12/1/12
f 7/1/7 8/1/8 13/1/13
f 14/1/14 8/1/8 11/1/11
f 16/1/16 15/1/15 17/1/17
f 28/1/28 27/1/27 29/1/29
f 27/1/27 31/1/31 30/1/30
f 34/1/34 33/1/33 4/1/4
f 24/1/24 35/1/35 23/1/23
f 35/1/35 37/1/37 36/1/36
f 37/1/37 39/1/39 38/1/38
f 39/1/39 28/1/28 40/1/40
f 34/1/34 28/1/28 33/1/33
f 41/1/41 18/1/18 42/1/42
f 40/1/40 41/1/41 38/1/38
f 43/1/43 36/1/36 42/1/42
f 43/1/43 19/1/19 36/1/36
f 40/1/40 29/1/29 41/1/41
f 19/1/19 20/1/20 23/1/23
f 30/1/30 17/1/17 29/1/29
f 32/1/32 16/1/16 30/1/30
f 20/1/20 15/1/15 22/1/22
f 31/1/31 44/1/44 32/1/32
f 45/1/45 25/1/25 1/1/1
f 5/1/5 46/1/46 4/1/4
f 6/1/6 44/1/44 5/1/5
f 33/1/33 47/1/47 3/1/3
f 47/1/47 45/1/45 2/1/2
f 34/1/34 46/1/46 28/1/28
f 46/1/46 44/1/44 27/1/27
f 24/1/24 21/1/21 33/1/33
f 21/1/21 25/1/25 47/1/47
f 49/1/49 48/1/48 50/1/50
f 53/1/53 52/1/52 54/1/54
f 50/1/50 53/1/53 49/1/49
f 55/1/55 52/1/52 48/1/48
f 38/1/38 29/1/29 40/1/40
f 15/1/15 32/1/32 26/1/26
f 58/1/58 57/1/57 59/1/59
f 61/1/61 60/1/60 57/1/57
f 58/1/58 62/1/62 57/1/57
f 65/1/65 64/1/64 66/1/66
f 64/1/64 68/1/68 67/1/67
f 71/1/71 70/1/70 66/1/66
f 71/1/71 66/1/66 69/1/69
f 77/1/77 76/1/76 74/1/74
f 76/1/76 73/1/73 74/1/74
f 80/1/80 79/1/79 81/1/81
f 83/1/83 80/1/80 84/1/84
f 81/1/81 82/1/82 84/1/84
f 79/1/79 86/1/86 82/1/82
f 86/1/86 79/1/79 83/1/83
f 88/1/88 87/1/87 89/1/89
f 87/1/87 88/1/88 90/1/90
f 89/1/89 91/1/91 88/1/88
f 91/1/91 92/1/92 88/1/88
f 4/1/4 3/1/3 1/1/1
f 4/1/4 1/1/1 5/1/5
f 6/1/6 5/1/5 1/1/1
f 9/1/9 7/1/7 10/1/10
f 11/1/11 10/1/10 12/1/12
f 12/1/12 7/1/7 13/1/13
f 13/1/13 8/1/8 14/1/14
f 11/1/11 8/1/8 9/1/9
f 17/1/17 15/1/15 18/1/18
f 18/1/18 15/1/15 19/1/19
f 19/1/19 15/1/15 20/1/20
f 23/1/23 21/1/21 24/1/24
f 22/1/22 25/1/25 21/1/21
f 29/1/29 27/1/27 30/1/30
f 4/1/4 33/1/33 3/1/3
f 33/1/33 28/1/28 24/1/24
f 24/1/24 28/1/28 35/1/35
f 35/1/35 28/1/28 37/1/37
f 37/1/37 28/1/28 39/1/39
f 42/1/42 18/1/18 43/1/43
f 43/1/43 18/1/18 19/1/19
f 38/1/38 41/1/41 42/1/42
f 42/1/42 36/1/36 38/1/38
f 36/1/36 19/1/19 23/1/23
f 41/1/41 29/1/29 18/1/18
f 23/1/23 20/1/20 22/1/22
f 29/1/29 17/1/17 18/1/18
f 30/1/30 16/1/16 17/1/17
f 22/1/22 15/1/15 26/1/26
f 32/1/32 44/1/44 6/1/6
f 1/1/1 25/1/25 26/1/26
f 4/1/4 46/1/46 34/1/34
f 5/1/5 44/1/44 46/1/46
f 3/1/3 47/1/47 2/1/2
f 2/1/2 45/1/45 1/1/1
f 28/1/28 46/1/46 27/1/27
f 27/1/27 44/1/44 31/1/31
f 33/1/33 21/1/21 47/1/47
f 47/1/47 25/1/25 45/1/45
f 50/1/50 48/1/48 51/1/51
f 54/1/54 52/1/52 55/1/55
f 49/1/49 53/1/53 54/1/54
f 48/1/48 52/1/52 51/1/51
f 36/1/36 29/1/29 38/1/38
f 23/1/23 29/1/29 36/1/36
f 23/1/23 32/1/32 29/1/29
f 22/1/22 32/1/32 23/1/23
f 26/1/26 32/1/32 22/1/22
f 60/1/60 59/1/59 57/1/57
f 62/1/62 58/1/58 63/1/63
f 66/1/66 64/1/64 67/1/67
f 67/1/67 68/1/68 69/1/69
f 66/1/66 70/1/70 65/1/65
f 68/1/68 70/1/70 69/1/69
f 69/1/69 70/1/70 71/1/71
f 69/1/69 66/1/66 67/1/67
f 62/1/62 65/1/65 70/1/70
f 68/1/68 65/1/65 62/1/62
f 64/1/64 65/1/65 68/1/68
f 74/1/74 72/1/72 75/1/75
f 73/1/73 72/1/72 74/1/74
f 81/1/81 79/1/79 82/1/82
f 84/1/84 80/1/80 81/1/81
f 84/1/84 82/1/82 85/1/85
f 82/1/82 86/1/86 85/1/85
f 83/1/83 79/1/79 80/1/80
# 124 faces, 1 coords texture

# End of File
